%TF.GenerationSoftware,KiCad,Pcbnew,7.0.6-0*%
%TF.CreationDate,2023-12-10T07:55:44-08:00*%
%TF.ProjectId,s3,73332e6b-6963-4616-945f-706362585858,rev?*%
%TF.SameCoordinates,Original*%
%TF.FileFunction,Legend,Top*%
%TF.FilePolarity,Positive*%
%FSLAX46Y46*%
G04 Gerber Fmt 4.6, Leading zero omitted, Abs format (unit mm)*
G04 Created by KiCad (PCBNEW 7.0.6-0) date 2023-12-10 07:55:44*
%MOMM*%
%LPD*%
G01*
G04 APERTURE LIST*
%ADD10C,0.000000*%
%ADD11C,0.300000*%
%ADD12C,0.150000*%
%ADD13C,0.120000*%
%ADD14C,0.127000*%
%ADD15C,0.200000*%
G04 APERTURE END LIST*
D10*
G36*
X217928374Y-47548488D02*
G01*
X217934358Y-47548883D01*
X217940323Y-47549546D01*
X217946259Y-47550478D01*
X217952157Y-47551678D01*
X217958007Y-47553147D01*
X217963799Y-47554883D01*
X217969524Y-47556888D01*
X217975172Y-47559161D01*
X217980733Y-47561703D01*
X217986198Y-47564513D01*
X217991557Y-47567591D01*
X217996800Y-47570938D01*
X218001918Y-47574553D01*
X218006901Y-47578437D01*
X218011739Y-47582588D01*
X221615421Y-50825651D01*
X221615420Y-50825660D01*
X221623504Y-50833521D01*
X221630732Y-50841745D01*
X221637119Y-50850293D01*
X221642682Y-50859124D01*
X221647436Y-50868198D01*
X221651395Y-50877475D01*
X221654576Y-50886915D01*
X221656994Y-50896477D01*
X221658664Y-50906122D01*
X221659602Y-50915808D01*
X221659823Y-50925496D01*
X221659343Y-50935146D01*
X221658176Y-50944718D01*
X221656340Y-50954170D01*
X221653848Y-50963463D01*
X221650716Y-50972557D01*
X221646961Y-50981412D01*
X221642596Y-50989987D01*
X221637638Y-50998241D01*
X221632102Y-51006136D01*
X221626004Y-51013630D01*
X221619359Y-51020684D01*
X221612182Y-51027256D01*
X221604489Y-51033308D01*
X221596295Y-51038798D01*
X221587616Y-51043687D01*
X221578467Y-51047934D01*
X221568864Y-51051499D01*
X221558822Y-51054341D01*
X221548356Y-51056422D01*
X221537482Y-51057699D01*
X221526215Y-51058134D01*
X220515236Y-51058134D01*
X220515177Y-51057885D01*
X220515108Y-51057599D01*
X220515014Y-51057227D01*
X220298737Y-51057227D01*
X220293839Y-51057137D01*
X220288975Y-51056869D01*
X220284149Y-51056426D01*
X220279364Y-51055810D01*
X220274624Y-51055025D01*
X220269932Y-51054071D01*
X220265293Y-51052952D01*
X220260711Y-51051671D01*
X220256188Y-51050230D01*
X220251729Y-51048631D01*
X220247337Y-51046878D01*
X220243016Y-51044972D01*
X220238770Y-51042916D01*
X220234603Y-51040713D01*
X220230518Y-51038365D01*
X220226518Y-51035876D01*
X220222608Y-51033246D01*
X220218791Y-51030480D01*
X220215072Y-51027579D01*
X220211453Y-51024546D01*
X220207938Y-51021384D01*
X220204532Y-51018095D01*
X220201237Y-51014682D01*
X220198058Y-51011147D01*
X220194999Y-51007492D01*
X220192062Y-51003722D01*
X220189252Y-50999837D01*
X220186572Y-50995840D01*
X220184027Y-50991735D01*
X220181619Y-50987523D01*
X220179353Y-50983208D01*
X220177232Y-50978791D01*
X220161556Y-50946092D01*
X220143628Y-50911933D01*
X220123361Y-50876806D01*
X220100666Y-50841204D01*
X220075454Y-50805620D01*
X220047638Y-50770545D01*
X220017129Y-50736473D01*
X219983839Y-50703897D01*
X219947679Y-50673308D01*
X219928495Y-50658912D01*
X219908561Y-50645199D01*
X219887865Y-50632229D01*
X219866397Y-50620063D01*
X219844145Y-50608764D01*
X219821098Y-50598393D01*
X219797245Y-50589012D01*
X219772576Y-50580681D01*
X219747079Y-50573463D01*
X219720743Y-50567420D01*
X219693557Y-50562612D01*
X219665511Y-50559102D01*
X219636592Y-50556950D01*
X219606790Y-50556220D01*
X217430593Y-50556220D01*
X217387289Y-50557281D01*
X217345485Y-50560425D01*
X217305172Y-50565594D01*
X217266343Y-50572730D01*
X217228990Y-50581774D01*
X217193103Y-50592668D01*
X217158675Y-50605353D01*
X217125698Y-50619771D01*
X217094163Y-50635864D01*
X217064063Y-50653573D01*
X217035389Y-50672840D01*
X217008132Y-50693606D01*
X216982285Y-50715813D01*
X216957839Y-50739404D01*
X216934787Y-50764318D01*
X216913120Y-50790499D01*
X216892829Y-50817887D01*
X216873907Y-50846425D01*
X216856345Y-50876053D01*
X216840136Y-50906714D01*
X216825270Y-50938349D01*
X216811740Y-50970899D01*
X216788655Y-51038514D01*
X216770813Y-51109092D01*
X216758151Y-51182164D01*
X216750602Y-51257266D01*
X216748100Y-51333928D01*
X216763908Y-54082586D01*
X216763778Y-54089448D01*
X216763307Y-54096223D01*
X216762502Y-54102901D01*
X216761371Y-54109474D01*
X216759924Y-54115935D01*
X216758167Y-54122273D01*
X216756111Y-54128482D01*
X216753762Y-54134552D01*
X216751130Y-54140475D01*
X216748222Y-54146243D01*
X216745047Y-54151847D01*
X216741614Y-54157278D01*
X216737930Y-54162529D01*
X216734004Y-54167592D01*
X216729844Y-54172456D01*
X216725458Y-54177115D01*
X216720856Y-54181559D01*
X216716044Y-54185781D01*
X216711033Y-54189771D01*
X216705828Y-54193522D01*
X216700441Y-54197024D01*
X216694877Y-54200270D01*
X216689146Y-54203251D01*
X216683257Y-54205959D01*
X216677217Y-54208385D01*
X216671034Y-54210521D01*
X216664718Y-54212358D01*
X216658276Y-54213888D01*
X216651717Y-54215103D01*
X216645049Y-54215994D01*
X216638280Y-54216552D01*
X216631419Y-54216769D01*
X216181372Y-54219668D01*
X216181367Y-54219287D01*
X216181364Y-54218868D01*
X216181363Y-54217991D01*
X215308207Y-54218612D01*
X215301342Y-54218443D01*
X215294566Y-54217933D01*
X215287888Y-54217089D01*
X215281318Y-54215920D01*
X215274862Y-54214434D01*
X215268530Y-54212641D01*
X215262331Y-54210547D01*
X215256271Y-54208161D01*
X215250360Y-54205493D01*
X215244607Y-54202549D01*
X215239018Y-54199340D01*
X215233604Y-54195872D01*
X215228372Y-54192155D01*
X215223331Y-54188196D01*
X215218489Y-54184005D01*
X215213854Y-54179589D01*
X215209435Y-54174958D01*
X215205241Y-54170118D01*
X215201279Y-54165080D01*
X215197558Y-54159850D01*
X215194087Y-54154438D01*
X215190873Y-54148852D01*
X215187926Y-54143100D01*
X215185253Y-54137191D01*
X215182863Y-54131133D01*
X215180765Y-54124935D01*
X215178967Y-54118604D01*
X215177476Y-54112150D01*
X215176303Y-54105580D01*
X215175454Y-54098903D01*
X215174938Y-54092128D01*
X215174765Y-54085262D01*
X215174765Y-51191474D01*
X215174591Y-51184612D01*
X215174076Y-51177840D01*
X215173228Y-51171166D01*
X215172056Y-51164600D01*
X215170567Y-51158148D01*
X215168770Y-51151820D01*
X215166673Y-51145624D01*
X215164286Y-51139568D01*
X215161615Y-51133661D01*
X215158670Y-51127912D01*
X215155459Y-51122327D01*
X215151991Y-51116917D01*
X215148273Y-51111689D01*
X215144314Y-51106651D01*
X215140123Y-51101813D01*
X215135708Y-51097181D01*
X215131077Y-51092766D01*
X215126238Y-51088575D01*
X215121201Y-51084616D01*
X215115972Y-51080898D01*
X215110562Y-51077430D01*
X215104978Y-51074219D01*
X215099228Y-51071274D01*
X215093321Y-51068604D01*
X215087265Y-51066216D01*
X215081069Y-51064120D01*
X215074741Y-51062323D01*
X215068290Y-51060834D01*
X215061723Y-51059661D01*
X215055049Y-51058813D01*
X215048277Y-51058298D01*
X215041415Y-51058125D01*
X214335743Y-51058125D01*
X214324490Y-51057691D01*
X214313629Y-51056416D01*
X214303174Y-51054339D01*
X214293142Y-51051502D01*
X214283547Y-51047944D01*
X214274405Y-51043705D01*
X214265731Y-51038826D01*
X214257542Y-51033346D01*
X214249852Y-51027305D01*
X214242676Y-51020744D01*
X214236031Y-51013702D01*
X214229932Y-51006221D01*
X214224393Y-50998339D01*
X214219432Y-50990097D01*
X214215062Y-50981534D01*
X214211299Y-50972692D01*
X214208160Y-50963611D01*
X214205659Y-50954329D01*
X214203811Y-50944888D01*
X214202633Y-50935327D01*
X214202139Y-50925687D01*
X214202345Y-50916007D01*
X214203267Y-50906328D01*
X214204920Y-50896690D01*
X214207319Y-50887133D01*
X214210479Y-50877697D01*
X214214417Y-50868421D01*
X214219148Y-50859347D01*
X214224687Y-50850514D01*
X214231049Y-50841963D01*
X214238250Y-50833733D01*
X214246306Y-50825864D01*
X217833106Y-47582801D01*
X217837934Y-47578638D01*
X217842908Y-47574743D01*
X217848017Y-47571115D01*
X217853252Y-47567756D01*
X217858603Y-47564665D01*
X217864061Y-47561842D01*
X217869616Y-47559287D01*
X217875259Y-47557001D01*
X217880979Y-47554982D01*
X217886767Y-47553232D01*
X217892613Y-47551749D01*
X217898508Y-47550535D01*
X217904442Y-47549589D01*
X217910405Y-47548912D01*
X217916388Y-47548502D01*
X217922381Y-47548361D01*
X217928374Y-47548488D01*
G37*
G36*
X218506591Y-53292792D02*
G01*
X218516624Y-53293180D01*
X218526628Y-53293822D01*
X218536597Y-53294717D01*
X218546529Y-53295861D01*
X218556418Y-53297253D01*
X218566262Y-53298888D01*
X218576055Y-53300765D01*
X218585794Y-53302881D01*
X218595475Y-53305233D01*
X218605093Y-53307818D01*
X218614645Y-53310633D01*
X218624126Y-53313677D01*
X218633533Y-53316946D01*
X218642861Y-53320437D01*
X218652106Y-53324148D01*
X218661254Y-53328076D01*
X218670289Y-53332219D01*
X218679207Y-53336572D01*
X218688005Y-53341135D01*
X218696678Y-53345904D01*
X218705222Y-53350877D01*
X218713633Y-53356050D01*
X218721907Y-53361422D01*
X218730040Y-53366988D01*
X218738028Y-53372747D01*
X218745866Y-53378697D01*
X218753552Y-53384833D01*
X218761080Y-53391154D01*
X218768446Y-53397657D01*
X218775647Y-53404338D01*
X218782679Y-53411196D01*
X218789700Y-53418391D01*
X218796524Y-53425734D01*
X218803150Y-53433225D01*
X218809577Y-53440859D01*
X218815803Y-53448634D01*
X218821827Y-53456547D01*
X218827648Y-53464596D01*
X218833264Y-53472778D01*
X218838673Y-53481090D01*
X218843875Y-53489530D01*
X218848868Y-53498095D01*
X218853651Y-53506781D01*
X218858222Y-53515587D01*
X218862580Y-53524510D01*
X218866724Y-53533546D01*
X218870652Y-53542694D01*
X218874353Y-53551939D01*
X218877815Y-53561267D01*
X218881038Y-53570674D01*
X218884022Y-53580155D01*
X218886768Y-53589707D01*
X218889274Y-53599326D01*
X218891542Y-53609006D01*
X218893572Y-53618745D01*
X218895362Y-53628539D01*
X218896914Y-53638382D01*
X218898227Y-53648272D01*
X218899302Y-53658203D01*
X218900137Y-53668173D01*
X218900734Y-53678177D01*
X218901092Y-53688210D01*
X218901212Y-53698269D01*
X218901092Y-53708165D01*
X218900734Y-53718056D01*
X218900137Y-53727936D01*
X218899302Y-53737800D01*
X218898227Y-53747642D01*
X218896914Y-53757456D01*
X218895363Y-53767239D01*
X218893572Y-53776983D01*
X218891543Y-53786684D01*
X218889275Y-53796336D01*
X218886768Y-53805933D01*
X218884022Y-53815471D01*
X218881038Y-53824944D01*
X218877815Y-53834347D01*
X218874353Y-53843673D01*
X218870652Y-53852918D01*
X218866724Y-53862066D01*
X218862580Y-53871103D01*
X218858222Y-53880025D01*
X218853651Y-53888831D01*
X218848868Y-53897518D01*
X218843875Y-53906082D01*
X218838673Y-53914522D01*
X218833263Y-53922834D01*
X218827648Y-53931016D01*
X218821827Y-53939066D01*
X218815803Y-53946979D01*
X218809577Y-53954754D01*
X218803150Y-53962388D01*
X218796524Y-53969878D01*
X218789700Y-53977222D01*
X218782679Y-53984416D01*
X218775647Y-53991274D01*
X218768446Y-53997956D01*
X218761080Y-54004459D01*
X218753552Y-54010780D01*
X218745866Y-54016916D01*
X218738028Y-54022865D01*
X218730040Y-54028624D01*
X218721907Y-54034191D01*
X218713633Y-54039562D01*
X218705222Y-54044736D01*
X218696678Y-54049708D01*
X218688005Y-54054477D01*
X218679207Y-54059040D01*
X218670289Y-54063394D01*
X218661254Y-54067537D01*
X218652106Y-54071465D01*
X218642861Y-54075175D01*
X218633533Y-54078667D01*
X218624126Y-54081935D01*
X218614645Y-54084979D01*
X218605093Y-54087795D01*
X218595475Y-54090380D01*
X218585794Y-54092731D01*
X218576055Y-54094847D01*
X218566262Y-54096724D01*
X218556419Y-54098359D01*
X218546529Y-54099751D01*
X218536597Y-54100895D01*
X218526628Y-54101790D01*
X218516624Y-54102433D01*
X218506591Y-54102820D01*
X218496532Y-54102950D01*
X218486635Y-54102820D01*
X218476745Y-54102433D01*
X218466865Y-54101790D01*
X218457001Y-54100895D01*
X218447159Y-54099751D01*
X218437345Y-54098359D01*
X218427562Y-54096724D01*
X218417818Y-54094847D01*
X218408117Y-54092731D01*
X218398465Y-54090380D01*
X218388867Y-54087795D01*
X218379329Y-54084979D01*
X218369856Y-54081935D01*
X218360454Y-54078667D01*
X218351127Y-54075175D01*
X218341882Y-54071465D01*
X218332735Y-54067537D01*
X218323698Y-54063394D01*
X218314775Y-54059040D01*
X218305969Y-54054477D01*
X218297283Y-54049708D01*
X218288718Y-54044736D01*
X218280279Y-54039562D01*
X218271966Y-54034191D01*
X218263784Y-54028624D01*
X218255735Y-54022865D01*
X218247822Y-54016916D01*
X218240047Y-54010780D01*
X218232413Y-54004459D01*
X218224923Y-53997956D01*
X218217579Y-53991274D01*
X218210385Y-53984416D01*
X218203516Y-53977222D01*
X218196805Y-53969878D01*
X218190257Y-53962388D01*
X218183877Y-53954754D01*
X218177670Y-53946979D01*
X218171643Y-53939065D01*
X218165800Y-53931016D01*
X218160147Y-53922834D01*
X218154689Y-53914522D01*
X218149432Y-53906082D01*
X218144381Y-53897518D01*
X218139542Y-53888831D01*
X218134920Y-53880025D01*
X218130521Y-53871103D01*
X218126349Y-53862066D01*
X218122411Y-53852918D01*
X218118710Y-53843673D01*
X218115248Y-53834347D01*
X218112025Y-53824944D01*
X218109041Y-53815471D01*
X218106295Y-53805933D01*
X218103789Y-53796336D01*
X218101520Y-53786684D01*
X218099491Y-53776983D01*
X218097701Y-53767239D01*
X218096149Y-53757456D01*
X218094836Y-53747642D01*
X218093761Y-53737800D01*
X218092926Y-53727936D01*
X218092329Y-53718056D01*
X218091971Y-53708165D01*
X218091851Y-53698269D01*
X218091971Y-53688210D01*
X218092329Y-53678177D01*
X218092926Y-53668173D01*
X218093761Y-53658203D01*
X218094836Y-53648272D01*
X218096149Y-53638382D01*
X218097700Y-53628539D01*
X218099491Y-53618745D01*
X218101520Y-53609006D01*
X218103788Y-53599326D01*
X218106295Y-53589707D01*
X218109041Y-53580155D01*
X218112025Y-53570674D01*
X218115248Y-53561267D01*
X218118710Y-53551939D01*
X218122411Y-53542694D01*
X218126349Y-53533546D01*
X218130521Y-53524510D01*
X218134920Y-53515587D01*
X218139542Y-53506781D01*
X218144382Y-53498095D01*
X218149432Y-53489530D01*
X218154689Y-53481090D01*
X218160147Y-53472778D01*
X218165800Y-53464596D01*
X218171643Y-53456547D01*
X218177670Y-53448633D01*
X218183877Y-53440858D01*
X218190257Y-53433224D01*
X218196805Y-53425734D01*
X218203516Y-53418391D01*
X218210385Y-53411196D01*
X218217579Y-53404338D01*
X218224923Y-53397657D01*
X218232413Y-53391154D01*
X218240047Y-53384833D01*
X218247822Y-53378697D01*
X218255735Y-53372747D01*
X218263784Y-53366988D01*
X218271966Y-53361422D01*
X218280279Y-53356050D01*
X218288718Y-53350877D01*
X218297283Y-53345904D01*
X218305969Y-53341135D01*
X218314775Y-53336572D01*
X218323698Y-53332219D01*
X218332735Y-53328076D01*
X218341882Y-53324148D01*
X218351127Y-53320437D01*
X218360454Y-53316946D01*
X218369856Y-53313677D01*
X218379329Y-53310633D01*
X218388867Y-53307818D01*
X218398465Y-53305233D01*
X218408117Y-53302881D01*
X218417818Y-53300765D01*
X218427562Y-53298888D01*
X218437345Y-53297253D01*
X218447159Y-53295861D01*
X218457001Y-53294717D01*
X218466865Y-53293822D01*
X218476745Y-53293180D01*
X218486635Y-53292792D01*
X218496532Y-53292662D01*
X218506591Y-53292792D01*
G37*
G36*
X219518591Y-50863775D02*
G01*
X219528482Y-50864133D01*
X219538362Y-50864730D01*
X219548225Y-50865566D01*
X219558067Y-50866640D01*
X219567882Y-50867953D01*
X219577664Y-50869505D01*
X219587408Y-50871296D01*
X219597109Y-50873325D01*
X219606761Y-50875593D01*
X219616359Y-50878100D01*
X219625897Y-50880845D01*
X219635370Y-50883830D01*
X219644772Y-50887053D01*
X219654099Y-50890515D01*
X219663344Y-50894215D01*
X219672492Y-50898144D01*
X219681528Y-50902287D01*
X219690451Y-50906646D01*
X219699257Y-50911217D01*
X219707944Y-50916000D01*
X219716508Y-50920993D01*
X219724948Y-50926195D01*
X219733260Y-50931604D01*
X219741442Y-50937220D01*
X219749491Y-50943041D01*
X219757405Y-50949065D01*
X219765180Y-50955291D01*
X219772814Y-50961718D01*
X219780304Y-50968344D01*
X219787647Y-50975168D01*
X219794842Y-50982189D01*
X219801863Y-50989383D01*
X219808687Y-50996727D01*
X219815313Y-51004217D01*
X219821740Y-51011851D01*
X219827966Y-51019626D01*
X219833991Y-51027540D01*
X219839811Y-51035589D01*
X219845427Y-51043771D01*
X219850836Y-51052083D01*
X219856038Y-51060523D01*
X219861031Y-51069087D01*
X219865814Y-51077774D01*
X219870385Y-51086580D01*
X219874744Y-51095503D01*
X219878888Y-51104539D01*
X219882816Y-51113687D01*
X219886516Y-51122932D01*
X219889978Y-51132258D01*
X219893201Y-51141661D01*
X219896185Y-51151134D01*
X219898931Y-51160672D01*
X219901438Y-51170270D01*
X219903706Y-51179922D01*
X219905735Y-51189622D01*
X219907526Y-51199367D01*
X219909077Y-51209149D01*
X219910391Y-51218964D01*
X219911465Y-51228806D01*
X219912300Y-51238669D01*
X219912897Y-51248549D01*
X219913255Y-51258440D01*
X219913375Y-51268336D01*
X219913375Y-54506704D01*
X219913255Y-54516763D01*
X219912897Y-54526796D01*
X219912300Y-54536800D01*
X219911465Y-54546770D01*
X219910391Y-54556701D01*
X219909077Y-54566591D01*
X219907526Y-54576434D01*
X219905735Y-54586228D01*
X219903706Y-54595967D01*
X219901438Y-54605647D01*
X219898931Y-54615266D01*
X219896185Y-54624817D01*
X219893201Y-54634299D01*
X219889978Y-54643705D01*
X219886516Y-54653033D01*
X219882816Y-54662279D01*
X219878888Y-54671426D01*
X219874744Y-54680461D01*
X219870385Y-54689380D01*
X219865814Y-54698177D01*
X219861031Y-54706850D01*
X219856038Y-54715394D01*
X219850836Y-54723805D01*
X219845427Y-54732079D01*
X219839811Y-54740212D01*
X219833991Y-54748200D01*
X219827966Y-54756038D01*
X219821740Y-54763723D01*
X219815313Y-54771251D01*
X219808687Y-54778618D01*
X219801863Y-54785819D01*
X219794842Y-54792850D01*
X219787647Y-54799871D01*
X219780304Y-54806696D01*
X219772813Y-54813322D01*
X219765179Y-54819749D01*
X219757404Y-54825975D01*
X219749491Y-54831999D01*
X219741442Y-54837820D01*
X219733260Y-54843435D01*
X219724948Y-54848845D01*
X219716508Y-54854047D01*
X219707943Y-54859040D01*
X219699257Y-54863823D01*
X219690451Y-54868394D01*
X219681528Y-54872752D01*
X219672492Y-54876896D01*
X219663344Y-54880825D01*
X219654099Y-54884525D01*
X219644772Y-54887987D01*
X219635370Y-54891210D01*
X219625897Y-54894194D01*
X219616359Y-54896940D01*
X219606761Y-54899447D01*
X219597109Y-54901715D01*
X219587408Y-54903744D01*
X219577664Y-54905535D01*
X219567882Y-54907086D01*
X219558067Y-54908400D01*
X219548225Y-54909474D01*
X219538362Y-54910310D01*
X219528482Y-54910906D01*
X219518591Y-54911265D01*
X219508695Y-54911384D01*
X217484368Y-54911384D01*
X217474472Y-54911265D01*
X217464581Y-54910906D01*
X217454701Y-54910310D01*
X217444837Y-54909474D01*
X217434995Y-54908400D01*
X217425181Y-54907086D01*
X217415398Y-54905535D01*
X217405654Y-54903744D01*
X217395953Y-54901715D01*
X217386301Y-54899447D01*
X217376703Y-54896940D01*
X217367165Y-54894194D01*
X217357692Y-54891210D01*
X217348290Y-54887987D01*
X217338964Y-54884525D01*
X217329719Y-54880825D01*
X217320571Y-54876896D01*
X217311534Y-54872752D01*
X217302611Y-54868394D01*
X217293805Y-54863823D01*
X217285119Y-54859040D01*
X217276554Y-54854047D01*
X217268114Y-54848845D01*
X217259802Y-54843435D01*
X217251620Y-54837820D01*
X217243571Y-54831999D01*
X217235658Y-54825975D01*
X217227883Y-54819749D01*
X217220249Y-54813322D01*
X217212759Y-54806696D01*
X217205415Y-54799871D01*
X217198220Y-54792850D01*
X217191199Y-54785819D01*
X217184375Y-54778618D01*
X217177749Y-54771251D01*
X217171322Y-54763723D01*
X217165096Y-54756038D01*
X217159072Y-54748200D01*
X217153251Y-54740212D01*
X217147635Y-54732079D01*
X217142226Y-54723805D01*
X217137024Y-54715394D01*
X217132031Y-54706850D01*
X217127248Y-54698177D01*
X217122677Y-54689380D01*
X217118319Y-54680461D01*
X217114175Y-54671426D01*
X217110246Y-54662279D01*
X217106546Y-54653033D01*
X217103084Y-54643705D01*
X217099861Y-54634299D01*
X217096877Y-54624817D01*
X217094131Y-54615266D01*
X217091625Y-54605647D01*
X217089357Y-54595967D01*
X217087327Y-54586228D01*
X217085537Y-54576434D01*
X217083985Y-54566591D01*
X217082672Y-54556701D01*
X217081597Y-54546770D01*
X217080762Y-54536800D01*
X217080165Y-54526796D01*
X217079807Y-54516763D01*
X217079687Y-54506704D01*
X217079687Y-53698269D01*
X217687171Y-53698269D01*
X217687420Y-53718062D01*
X217688166Y-53737843D01*
X217689405Y-53757603D01*
X217691136Y-53777330D01*
X217693354Y-53797014D01*
X217696059Y-53816644D01*
X217699246Y-53836208D01*
X217702914Y-53855696D01*
X217707059Y-53875098D01*
X217711679Y-53894402D01*
X217716771Y-53913598D01*
X217722332Y-53932674D01*
X217728360Y-53951620D01*
X217734851Y-53970424D01*
X217741804Y-53989077D01*
X217749216Y-54007567D01*
X217756920Y-54025873D01*
X217765092Y-54043974D01*
X217773727Y-54061861D01*
X217782814Y-54079524D01*
X217792346Y-54096953D01*
X217802315Y-54114140D01*
X217812712Y-54131074D01*
X217823531Y-54147747D01*
X217834761Y-54164148D01*
X217846396Y-54180269D01*
X217858427Y-54196099D01*
X217870845Y-54211629D01*
X217883644Y-54226850D01*
X217896814Y-54241753D01*
X217910348Y-54256327D01*
X217924238Y-54270563D01*
X217938474Y-54284442D01*
X217953048Y-54297949D01*
X217967950Y-54311077D01*
X217983171Y-54323825D01*
X217998702Y-54336188D01*
X218014532Y-54348161D01*
X218030653Y-54359741D01*
X218047054Y-54370923D01*
X218063726Y-54381704D01*
X218080661Y-54392079D01*
X218097848Y-54402045D01*
X218115277Y-54411597D01*
X218132940Y-54420731D01*
X218150827Y-54429443D01*
X218168928Y-54437729D01*
X218187233Y-54445585D01*
X218205713Y-54452997D01*
X218224338Y-54459950D01*
X218243102Y-54466442D01*
X218261997Y-54472470D01*
X218281017Y-54478031D01*
X218300154Y-54483123D01*
X218319403Y-54487743D01*
X218338757Y-54491888D01*
X218358208Y-54495555D01*
X218377750Y-54498743D01*
X218397376Y-54501447D01*
X218417080Y-54503666D01*
X218436854Y-54505396D01*
X218456692Y-54506636D01*
X218476586Y-54507381D01*
X218496531Y-54507630D01*
X218516487Y-54507381D01*
X218536411Y-54506636D01*
X218556294Y-54505396D01*
X218576128Y-54503666D01*
X218595901Y-54501447D01*
X218615606Y-54498743D01*
X218635231Y-54495555D01*
X218654769Y-54491888D01*
X218674209Y-54487743D01*
X218693541Y-54483123D01*
X218712757Y-54478031D01*
X218731847Y-54472470D01*
X218750801Y-54466442D01*
X218769610Y-54459950D01*
X218788265Y-54452997D01*
X218806755Y-54445585D01*
X218825050Y-54437729D01*
X218843122Y-54429443D01*
X218860963Y-54420731D01*
X218878567Y-54411597D01*
X218895926Y-54402045D01*
X218913035Y-54392079D01*
X218929885Y-54381704D01*
X218946472Y-54370923D01*
X218962787Y-54359741D01*
X218978823Y-54348161D01*
X218994575Y-54336188D01*
X219010036Y-54323825D01*
X219025198Y-54311077D01*
X219040054Y-54297948D01*
X219054599Y-54284442D01*
X219068825Y-54270563D01*
X219082867Y-54256327D01*
X219096516Y-54241753D01*
X219109769Y-54226850D01*
X219122622Y-54211629D01*
X219135075Y-54196099D01*
X219147123Y-54180268D01*
X219158764Y-54164148D01*
X219169995Y-54147747D01*
X219180814Y-54131074D01*
X219191218Y-54114140D01*
X219201204Y-54096953D01*
X219210770Y-54079523D01*
X219219912Y-54061861D01*
X219228629Y-54043974D01*
X219236917Y-54025873D01*
X219244773Y-54007567D01*
X219252185Y-53989077D01*
X219259138Y-53970424D01*
X219265629Y-53951619D01*
X219271657Y-53932673D01*
X219277218Y-53913597D01*
X219282310Y-53894402D01*
X219286930Y-53875098D01*
X219291075Y-53855696D01*
X219294743Y-53836208D01*
X219297930Y-53816643D01*
X219300634Y-53797014D01*
X219302853Y-53777330D01*
X219304584Y-53757603D01*
X219305823Y-53737843D01*
X219306569Y-53718062D01*
X219306818Y-53698269D01*
X219306569Y-53678314D01*
X219305823Y-53658390D01*
X219304584Y-53638506D01*
X219302853Y-53618673D01*
X219300634Y-53598900D01*
X219297930Y-53579195D01*
X219294743Y-53559569D01*
X219291075Y-53540032D01*
X219286930Y-53520592D01*
X219282310Y-53501259D01*
X219277218Y-53482043D01*
X219271657Y-53462953D01*
X219265629Y-53443999D01*
X219259138Y-53425190D01*
X219252185Y-53406536D01*
X219244773Y-53388045D01*
X219236917Y-53369750D01*
X219228629Y-53351676D01*
X219219912Y-53333831D01*
X219210770Y-53316219D01*
X219201204Y-53298846D01*
X219191218Y-53281717D01*
X219180814Y-53264837D01*
X219169995Y-53248213D01*
X219158764Y-53231849D01*
X219147123Y-53215751D01*
X219135075Y-53199924D01*
X219122622Y-53184374D01*
X219109769Y-53169106D01*
X219096516Y-53154126D01*
X219082867Y-53139438D01*
X219068825Y-53125049D01*
X219054599Y-53111170D01*
X219040054Y-53097664D01*
X219025198Y-53084535D01*
X219010036Y-53071787D01*
X218994576Y-53059425D01*
X218978824Y-53047451D01*
X218962787Y-53035872D01*
X218946472Y-53024689D01*
X218929886Y-53013908D01*
X218913035Y-53003533D01*
X218895926Y-52993568D01*
X218878567Y-52984016D01*
X218860963Y-52974882D01*
X218843122Y-52966169D01*
X218825051Y-52957883D01*
X218806755Y-52950027D01*
X218788265Y-52942615D01*
X218769610Y-52935662D01*
X218750801Y-52929171D01*
X218731847Y-52923143D01*
X218712757Y-52917581D01*
X218693541Y-52912490D01*
X218674208Y-52907870D01*
X218654769Y-52903725D01*
X218635231Y-52900057D01*
X218615605Y-52896870D01*
X218595901Y-52894166D01*
X218576128Y-52891947D01*
X218556294Y-52890216D01*
X218536411Y-52888977D01*
X218516487Y-52888231D01*
X218496531Y-52887982D01*
X218476586Y-52888231D01*
X218456692Y-52888977D01*
X218436854Y-52890216D01*
X218417080Y-52891947D01*
X218397376Y-52894166D01*
X218377750Y-52896870D01*
X218358208Y-52900057D01*
X218338757Y-52903725D01*
X218319403Y-52907870D01*
X218300154Y-52912490D01*
X218281017Y-52917581D01*
X218261997Y-52923143D01*
X218243102Y-52929171D01*
X218224338Y-52935662D01*
X218205713Y-52942615D01*
X218187233Y-52950027D01*
X218168928Y-52957883D01*
X218150827Y-52966169D01*
X218132940Y-52974882D01*
X218115277Y-52984016D01*
X218097848Y-52993568D01*
X218080661Y-53003533D01*
X218063726Y-53013909D01*
X218047054Y-53024689D01*
X218030653Y-53035872D01*
X218014532Y-53047452D01*
X217998702Y-53059425D01*
X217983171Y-53071787D01*
X217967950Y-53084535D01*
X217953048Y-53097664D01*
X217938474Y-53111170D01*
X217924238Y-53125049D01*
X217910348Y-53139438D01*
X217896814Y-53154126D01*
X217883644Y-53169106D01*
X217870845Y-53184374D01*
X217858427Y-53199924D01*
X217846396Y-53215751D01*
X217834761Y-53231849D01*
X217823531Y-53248213D01*
X217812712Y-53264838D01*
X217802315Y-53281717D01*
X217792346Y-53298846D01*
X217782814Y-53316219D01*
X217773727Y-53333831D01*
X217765092Y-53351677D01*
X217756920Y-53369750D01*
X217749216Y-53388045D01*
X217741804Y-53406536D01*
X217734851Y-53425190D01*
X217728360Y-53443999D01*
X217722332Y-53462953D01*
X217716770Y-53482043D01*
X217711679Y-53501259D01*
X217707059Y-53520592D01*
X217702914Y-53540032D01*
X217699246Y-53559569D01*
X217696059Y-53579195D01*
X217693354Y-53598899D01*
X217691136Y-53618673D01*
X217689405Y-53638506D01*
X217688166Y-53658390D01*
X217687420Y-53678314D01*
X217687171Y-53698269D01*
X217079687Y-53698269D01*
X217079687Y-52349952D01*
X217484368Y-52349952D01*
X217484541Y-52356815D01*
X217485056Y-52363587D01*
X217485904Y-52370260D01*
X217487077Y-52376827D01*
X217488566Y-52383279D01*
X217490363Y-52389607D01*
X217492459Y-52395803D01*
X217494847Y-52401858D01*
X217497517Y-52407765D01*
X217500462Y-52413515D01*
X217503673Y-52419099D01*
X217507142Y-52424510D01*
X217510859Y-52429738D01*
X217514818Y-52434776D01*
X217519009Y-52439614D01*
X217523425Y-52444245D01*
X217528056Y-52448661D01*
X217532894Y-52452852D01*
X217537932Y-52456811D01*
X217543160Y-52460528D01*
X217548570Y-52463997D01*
X217554155Y-52467208D01*
X217559904Y-52470153D01*
X217565811Y-52472823D01*
X217571867Y-52475211D01*
X217578063Y-52477307D01*
X217584391Y-52479104D01*
X217590843Y-52480593D01*
X217597410Y-52481766D01*
X217604083Y-52482614D01*
X217610855Y-52483129D01*
X217617718Y-52483302D01*
X219375344Y-52483302D01*
X219382207Y-52483129D01*
X219388979Y-52482614D01*
X219395652Y-52481766D01*
X219402219Y-52480593D01*
X219408671Y-52479104D01*
X219414999Y-52477307D01*
X219421195Y-52475211D01*
X219427251Y-52472823D01*
X219433158Y-52470153D01*
X219438907Y-52467208D01*
X219444492Y-52463997D01*
X219449902Y-52460528D01*
X219455130Y-52456811D01*
X219460168Y-52452852D01*
X219465006Y-52448661D01*
X219469638Y-52444245D01*
X219474053Y-52439614D01*
X219478244Y-52434776D01*
X219482203Y-52429738D01*
X219485921Y-52424510D01*
X219489389Y-52419099D01*
X219492600Y-52413515D01*
X219495545Y-52407765D01*
X219498215Y-52401858D01*
X219500603Y-52395803D01*
X219502700Y-52389607D01*
X219504497Y-52383279D01*
X219505986Y-52376827D01*
X219507158Y-52370260D01*
X219508006Y-52363587D01*
X219508521Y-52356815D01*
X219508695Y-52349952D01*
X219508695Y-51401686D01*
X219508521Y-51394823D01*
X219508006Y-51388051D01*
X219507158Y-51381378D01*
X219505986Y-51374811D01*
X219504497Y-51368359D01*
X219502700Y-51362031D01*
X219500603Y-51355835D01*
X219498215Y-51349779D01*
X219495545Y-51343873D01*
X219492600Y-51338123D01*
X219489389Y-51332538D01*
X219485921Y-51327128D01*
X219482203Y-51321900D01*
X219478244Y-51316862D01*
X219474053Y-51312024D01*
X219469638Y-51307393D01*
X219465006Y-51302977D01*
X219460168Y-51298786D01*
X219455130Y-51294827D01*
X219449902Y-51291110D01*
X219444492Y-51287641D01*
X219438907Y-51284430D01*
X219433158Y-51281485D01*
X219427251Y-51278815D01*
X219421195Y-51276427D01*
X219414999Y-51274331D01*
X219408671Y-51272534D01*
X219402219Y-51271045D01*
X219395652Y-51269872D01*
X219388979Y-51269024D01*
X219382207Y-51268509D01*
X219375344Y-51268336D01*
X217617718Y-51268336D01*
X217610855Y-51268509D01*
X217604083Y-51269024D01*
X217597410Y-51269872D01*
X217590843Y-51271045D01*
X217584391Y-51272534D01*
X217578063Y-51274331D01*
X217571867Y-51276427D01*
X217565811Y-51278815D01*
X217559904Y-51281485D01*
X217554155Y-51284430D01*
X217548570Y-51287641D01*
X217543160Y-51291110D01*
X217537932Y-51294827D01*
X217532894Y-51298786D01*
X217528056Y-51302977D01*
X217523425Y-51307393D01*
X217519009Y-51312024D01*
X217514818Y-51316862D01*
X217510859Y-51321900D01*
X217507142Y-51327128D01*
X217503673Y-51332538D01*
X217500462Y-51338123D01*
X217497517Y-51343873D01*
X217494847Y-51349779D01*
X217492459Y-51355835D01*
X217490363Y-51362031D01*
X217488566Y-51368359D01*
X217487077Y-51374811D01*
X217485904Y-51381378D01*
X217485056Y-51388051D01*
X217484541Y-51394823D01*
X217484368Y-51401686D01*
X217484368Y-52349952D01*
X217079687Y-52349952D01*
X217079687Y-51268336D01*
X217079807Y-51258440D01*
X217080165Y-51248549D01*
X217080762Y-51238669D01*
X217081597Y-51228806D01*
X217082672Y-51218964D01*
X217083985Y-51209149D01*
X217085537Y-51199367D01*
X217087327Y-51189623D01*
X217089356Y-51179922D01*
X217091624Y-51170270D01*
X217094131Y-51160672D01*
X217096877Y-51151134D01*
X217099861Y-51141661D01*
X217103084Y-51132259D01*
X217106546Y-51122932D01*
X217110246Y-51113687D01*
X217114175Y-51104539D01*
X217118319Y-51095503D01*
X217122677Y-51086580D01*
X217127248Y-51077774D01*
X217132031Y-51069087D01*
X217137024Y-51060523D01*
X217142226Y-51052083D01*
X217147636Y-51043771D01*
X217153251Y-51035589D01*
X217159072Y-51027540D01*
X217165096Y-51019627D01*
X217171322Y-51011852D01*
X217177749Y-51004218D01*
X217184375Y-50996727D01*
X217191199Y-50989384D01*
X217198220Y-50982189D01*
X217205415Y-50975168D01*
X217212759Y-50968344D01*
X217220249Y-50961718D01*
X217227883Y-50955291D01*
X217235658Y-50949064D01*
X217243571Y-50943040D01*
X217251620Y-50937220D01*
X217259802Y-50931604D01*
X217268114Y-50926195D01*
X217276554Y-50920993D01*
X217285119Y-50916000D01*
X217293805Y-50911217D01*
X217302611Y-50906646D01*
X217311534Y-50902287D01*
X217320571Y-50898144D01*
X217329719Y-50894215D01*
X217338964Y-50890515D01*
X217348290Y-50887053D01*
X217357692Y-50883830D01*
X217367165Y-50880846D01*
X217376703Y-50878100D01*
X217386301Y-50875593D01*
X217395953Y-50873325D01*
X217405654Y-50871296D01*
X217415398Y-50869505D01*
X217425181Y-50867953D01*
X217434995Y-50866640D01*
X217444837Y-50865566D01*
X217454701Y-50864730D01*
X217464581Y-50864134D01*
X217474472Y-50863775D01*
X217484368Y-50863656D01*
X219508695Y-50863656D01*
X219518591Y-50863775D01*
G37*
D11*
X200161542Y-148610489D02*
X200161542Y-148110489D01*
X200978685Y-147896203D02*
X200978685Y-148610489D01*
X200978685Y-148610489D02*
X199418685Y-148610489D01*
X199418685Y-148610489D02*
X199418685Y-147896203D01*
X200978685Y-147253346D02*
X199418685Y-147253346D01*
X199418685Y-147253346D02*
X200978685Y-146396203D01*
X200978685Y-146396203D02*
X199418685Y-146396203D01*
X200830114Y-144824774D02*
X200904400Y-144896202D01*
X200904400Y-144896202D02*
X200978685Y-145110488D01*
X200978685Y-145110488D02*
X200978685Y-145253345D01*
X200978685Y-145253345D02*
X200904400Y-145467631D01*
X200904400Y-145467631D02*
X200755828Y-145610488D01*
X200755828Y-145610488D02*
X200607257Y-145681917D01*
X200607257Y-145681917D02*
X200310114Y-145753345D01*
X200310114Y-145753345D02*
X200087257Y-145753345D01*
X200087257Y-145753345D02*
X199790114Y-145681917D01*
X199790114Y-145681917D02*
X199641542Y-145610488D01*
X199641542Y-145610488D02*
X199492971Y-145467631D01*
X199492971Y-145467631D02*
X199418685Y-145253345D01*
X199418685Y-145253345D02*
X199418685Y-145110488D01*
X199418685Y-145110488D02*
X199492971Y-144896202D01*
X199492971Y-144896202D02*
X199567257Y-144824774D01*
X200532971Y-144253345D02*
X200532971Y-143539060D01*
X200978685Y-144396202D02*
X199418685Y-143896202D01*
X199418685Y-143896202D02*
X200978685Y-143396202D01*
X202673142Y-148610489D02*
X202673142Y-148110489D01*
X203490285Y-147896203D02*
X203490285Y-148610489D01*
X203490285Y-148610489D02*
X201930285Y-148610489D01*
X201930285Y-148610489D02*
X201930285Y-147896203D01*
X203490285Y-147253346D02*
X201930285Y-147253346D01*
X201930285Y-147253346D02*
X203490285Y-146396203D01*
X203490285Y-146396203D02*
X201930285Y-146396203D01*
X203341714Y-144824774D02*
X203416000Y-144896202D01*
X203416000Y-144896202D02*
X203490285Y-145110488D01*
X203490285Y-145110488D02*
X203490285Y-145253345D01*
X203490285Y-145253345D02*
X203416000Y-145467631D01*
X203416000Y-145467631D02*
X203267428Y-145610488D01*
X203267428Y-145610488D02*
X203118857Y-145681917D01*
X203118857Y-145681917D02*
X202821714Y-145753345D01*
X202821714Y-145753345D02*
X202598857Y-145753345D01*
X202598857Y-145753345D02*
X202301714Y-145681917D01*
X202301714Y-145681917D02*
X202153142Y-145610488D01*
X202153142Y-145610488D02*
X202004571Y-145467631D01*
X202004571Y-145467631D02*
X201930285Y-145253345D01*
X201930285Y-145253345D02*
X201930285Y-145110488D01*
X201930285Y-145110488D02*
X202004571Y-144896202D01*
X202004571Y-144896202D02*
X202078857Y-144824774D01*
X202673142Y-143681917D02*
X202747428Y-143467631D01*
X202747428Y-143467631D02*
X202821714Y-143396202D01*
X202821714Y-143396202D02*
X202970285Y-143324774D01*
X202970285Y-143324774D02*
X203193142Y-143324774D01*
X203193142Y-143324774D02*
X203341714Y-143396202D01*
X203341714Y-143396202D02*
X203416000Y-143467631D01*
X203416000Y-143467631D02*
X203490285Y-143610488D01*
X203490285Y-143610488D02*
X203490285Y-144181917D01*
X203490285Y-144181917D02*
X201930285Y-144181917D01*
X201930285Y-144181917D02*
X201930285Y-143681917D01*
X201930285Y-143681917D02*
X202004571Y-143539060D01*
X202004571Y-143539060D02*
X202078857Y-143467631D01*
X202078857Y-143467631D02*
X202227428Y-143396202D01*
X202227428Y-143396202D02*
X202376000Y-143396202D01*
X202376000Y-143396202D02*
X202524571Y-143467631D01*
X202524571Y-143467631D02*
X202598857Y-143539060D01*
X202598857Y-143539060D02*
X202673142Y-143681917D01*
X202673142Y-143681917D02*
X202673142Y-144181917D01*
X205853314Y-147753346D02*
X205927600Y-147824774D01*
X205927600Y-147824774D02*
X206001885Y-148039060D01*
X206001885Y-148039060D02*
X206001885Y-148181917D01*
X206001885Y-148181917D02*
X205927600Y-148396203D01*
X205927600Y-148396203D02*
X205779028Y-148539060D01*
X205779028Y-148539060D02*
X205630457Y-148610489D01*
X205630457Y-148610489D02*
X205333314Y-148681917D01*
X205333314Y-148681917D02*
X205110457Y-148681917D01*
X205110457Y-148681917D02*
X204813314Y-148610489D01*
X204813314Y-148610489D02*
X204664742Y-148539060D01*
X204664742Y-148539060D02*
X204516171Y-148396203D01*
X204516171Y-148396203D02*
X204441885Y-148181917D01*
X204441885Y-148181917D02*
X204441885Y-148039060D01*
X204441885Y-148039060D02*
X204516171Y-147824774D01*
X204516171Y-147824774D02*
X204590457Y-147753346D01*
X204441885Y-146824774D02*
X204441885Y-146539060D01*
X204441885Y-146539060D02*
X204516171Y-146396203D01*
X204516171Y-146396203D02*
X204664742Y-146253346D01*
X204664742Y-146253346D02*
X204961885Y-146181917D01*
X204961885Y-146181917D02*
X205481885Y-146181917D01*
X205481885Y-146181917D02*
X205779028Y-146253346D01*
X205779028Y-146253346D02*
X205927600Y-146396203D01*
X205927600Y-146396203D02*
X206001885Y-146539060D01*
X206001885Y-146539060D02*
X206001885Y-146824774D01*
X206001885Y-146824774D02*
X205927600Y-146967632D01*
X205927600Y-146967632D02*
X205779028Y-147110489D01*
X205779028Y-147110489D02*
X205481885Y-147181917D01*
X205481885Y-147181917D02*
X204961885Y-147181917D01*
X204961885Y-147181917D02*
X204664742Y-147110489D01*
X204664742Y-147110489D02*
X204516171Y-146967632D01*
X204516171Y-146967632D02*
X204441885Y-146824774D01*
X206001885Y-145539060D02*
X204441885Y-145539060D01*
X204441885Y-145539060D02*
X205556171Y-145039060D01*
X205556171Y-145039060D02*
X204441885Y-144539060D01*
X204441885Y-144539060D02*
X206001885Y-144539060D01*
X205556171Y-143896202D02*
X205556171Y-143181917D01*
X206001885Y-144039059D02*
X204441885Y-143539059D01*
X204441885Y-143539059D02*
X206001885Y-143039059D01*
X208439200Y-148681917D02*
X208513485Y-148467632D01*
X208513485Y-148467632D02*
X208513485Y-148110489D01*
X208513485Y-148110489D02*
X208439200Y-147967632D01*
X208439200Y-147967632D02*
X208364914Y-147896203D01*
X208364914Y-147896203D02*
X208216342Y-147824774D01*
X208216342Y-147824774D02*
X208067771Y-147824774D01*
X208067771Y-147824774D02*
X207919200Y-147896203D01*
X207919200Y-147896203D02*
X207844914Y-147967632D01*
X207844914Y-147967632D02*
X207770628Y-148110489D01*
X207770628Y-148110489D02*
X207696342Y-148396203D01*
X207696342Y-148396203D02*
X207622057Y-148539060D01*
X207622057Y-148539060D02*
X207547771Y-148610489D01*
X207547771Y-148610489D02*
X207399200Y-148681917D01*
X207399200Y-148681917D02*
X207250628Y-148681917D01*
X207250628Y-148681917D02*
X207102057Y-148610489D01*
X207102057Y-148610489D02*
X207027771Y-148539060D01*
X207027771Y-148539060D02*
X206953485Y-148396203D01*
X206953485Y-148396203D02*
X206953485Y-148039060D01*
X206953485Y-148039060D02*
X207027771Y-147824774D01*
X206953485Y-147324775D02*
X208513485Y-146967632D01*
X208513485Y-146967632D02*
X207399200Y-146681918D01*
X207399200Y-146681918D02*
X208513485Y-146396203D01*
X208513485Y-146396203D02*
X206953485Y-146039061D01*
X208513485Y-144681917D02*
X208513485Y-145539060D01*
X208513485Y-145110489D02*
X206953485Y-145110489D01*
X206953485Y-145110489D02*
X207176342Y-145253346D01*
X207176342Y-145253346D02*
X207324914Y-145396203D01*
X207324914Y-145396203D02*
X207399200Y-145539060D01*
X210950800Y-148681917D02*
X211025085Y-148467632D01*
X211025085Y-148467632D02*
X211025085Y-148110489D01*
X211025085Y-148110489D02*
X210950800Y-147967632D01*
X210950800Y-147967632D02*
X210876514Y-147896203D01*
X210876514Y-147896203D02*
X210727942Y-147824774D01*
X210727942Y-147824774D02*
X210579371Y-147824774D01*
X210579371Y-147824774D02*
X210430800Y-147896203D01*
X210430800Y-147896203D02*
X210356514Y-147967632D01*
X210356514Y-147967632D02*
X210282228Y-148110489D01*
X210282228Y-148110489D02*
X210207942Y-148396203D01*
X210207942Y-148396203D02*
X210133657Y-148539060D01*
X210133657Y-148539060D02*
X210059371Y-148610489D01*
X210059371Y-148610489D02*
X209910800Y-148681917D01*
X209910800Y-148681917D02*
X209762228Y-148681917D01*
X209762228Y-148681917D02*
X209613657Y-148610489D01*
X209613657Y-148610489D02*
X209539371Y-148539060D01*
X209539371Y-148539060D02*
X209465085Y-148396203D01*
X209465085Y-148396203D02*
X209465085Y-148039060D01*
X209465085Y-148039060D02*
X209539371Y-147824774D01*
X209465085Y-147324775D02*
X211025085Y-146967632D01*
X211025085Y-146967632D02*
X209910800Y-146681918D01*
X209910800Y-146681918D02*
X211025085Y-146396203D01*
X211025085Y-146396203D02*
X209465085Y-146039061D01*
X209613657Y-145539060D02*
X209539371Y-145467632D01*
X209539371Y-145467632D02*
X209465085Y-145324775D01*
X209465085Y-145324775D02*
X209465085Y-144967632D01*
X209465085Y-144967632D02*
X209539371Y-144824775D01*
X209539371Y-144824775D02*
X209613657Y-144753346D01*
X209613657Y-144753346D02*
X209762228Y-144681917D01*
X209762228Y-144681917D02*
X209910800Y-144681917D01*
X209910800Y-144681917D02*
X210133657Y-144753346D01*
X210133657Y-144753346D02*
X211025085Y-145610489D01*
X211025085Y-145610489D02*
X211025085Y-144681917D01*
X213462400Y-148681917D02*
X213536685Y-148467632D01*
X213536685Y-148467632D02*
X213536685Y-148110489D01*
X213536685Y-148110489D02*
X213462400Y-147967632D01*
X213462400Y-147967632D02*
X213388114Y-147896203D01*
X213388114Y-147896203D02*
X213239542Y-147824774D01*
X213239542Y-147824774D02*
X213090971Y-147824774D01*
X213090971Y-147824774D02*
X212942400Y-147896203D01*
X212942400Y-147896203D02*
X212868114Y-147967632D01*
X212868114Y-147967632D02*
X212793828Y-148110489D01*
X212793828Y-148110489D02*
X212719542Y-148396203D01*
X212719542Y-148396203D02*
X212645257Y-148539060D01*
X212645257Y-148539060D02*
X212570971Y-148610489D01*
X212570971Y-148610489D02*
X212422400Y-148681917D01*
X212422400Y-148681917D02*
X212273828Y-148681917D01*
X212273828Y-148681917D02*
X212125257Y-148610489D01*
X212125257Y-148610489D02*
X212050971Y-148539060D01*
X212050971Y-148539060D02*
X211976685Y-148396203D01*
X211976685Y-148396203D02*
X211976685Y-148039060D01*
X211976685Y-148039060D02*
X212050971Y-147824774D01*
X211976685Y-147324775D02*
X213536685Y-146967632D01*
X213536685Y-146967632D02*
X212422400Y-146681918D01*
X212422400Y-146681918D02*
X213536685Y-146396203D01*
X213536685Y-146396203D02*
X211976685Y-146039061D01*
X211976685Y-145610489D02*
X211976685Y-144681917D01*
X211976685Y-144681917D02*
X212570971Y-145181917D01*
X212570971Y-145181917D02*
X212570971Y-144967632D01*
X212570971Y-144967632D02*
X212645257Y-144824775D01*
X212645257Y-144824775D02*
X212719542Y-144753346D01*
X212719542Y-144753346D02*
X212868114Y-144681917D01*
X212868114Y-144681917D02*
X213239542Y-144681917D01*
X213239542Y-144681917D02*
X213388114Y-144753346D01*
X213388114Y-144753346D02*
X213462400Y-144824775D01*
X213462400Y-144824775D02*
X213536685Y-144967632D01*
X213536685Y-144967632D02*
X213536685Y-145396203D01*
X213536685Y-145396203D02*
X213462400Y-145539060D01*
X213462400Y-145539060D02*
X213388114Y-145610489D01*
X215974000Y-148681917D02*
X216048285Y-148467632D01*
X216048285Y-148467632D02*
X216048285Y-148110489D01*
X216048285Y-148110489D02*
X215974000Y-147967632D01*
X215974000Y-147967632D02*
X215899714Y-147896203D01*
X215899714Y-147896203D02*
X215751142Y-147824774D01*
X215751142Y-147824774D02*
X215602571Y-147824774D01*
X215602571Y-147824774D02*
X215454000Y-147896203D01*
X215454000Y-147896203D02*
X215379714Y-147967632D01*
X215379714Y-147967632D02*
X215305428Y-148110489D01*
X215305428Y-148110489D02*
X215231142Y-148396203D01*
X215231142Y-148396203D02*
X215156857Y-148539060D01*
X215156857Y-148539060D02*
X215082571Y-148610489D01*
X215082571Y-148610489D02*
X214934000Y-148681917D01*
X214934000Y-148681917D02*
X214785428Y-148681917D01*
X214785428Y-148681917D02*
X214636857Y-148610489D01*
X214636857Y-148610489D02*
X214562571Y-148539060D01*
X214562571Y-148539060D02*
X214488285Y-148396203D01*
X214488285Y-148396203D02*
X214488285Y-148039060D01*
X214488285Y-148039060D02*
X214562571Y-147824774D01*
X214488285Y-147324775D02*
X216048285Y-146967632D01*
X216048285Y-146967632D02*
X214934000Y-146681918D01*
X214934000Y-146681918D02*
X216048285Y-146396203D01*
X216048285Y-146396203D02*
X214488285Y-146039061D01*
X215008285Y-144824775D02*
X216048285Y-144824775D01*
X214414000Y-145181917D02*
X215528285Y-145539060D01*
X215528285Y-145539060D02*
X215528285Y-144610489D01*
X218485600Y-148681917D02*
X218559885Y-148467632D01*
X218559885Y-148467632D02*
X218559885Y-148110489D01*
X218559885Y-148110489D02*
X218485600Y-147967632D01*
X218485600Y-147967632D02*
X218411314Y-147896203D01*
X218411314Y-147896203D02*
X218262742Y-147824774D01*
X218262742Y-147824774D02*
X218114171Y-147824774D01*
X218114171Y-147824774D02*
X217965600Y-147896203D01*
X217965600Y-147896203D02*
X217891314Y-147967632D01*
X217891314Y-147967632D02*
X217817028Y-148110489D01*
X217817028Y-148110489D02*
X217742742Y-148396203D01*
X217742742Y-148396203D02*
X217668457Y-148539060D01*
X217668457Y-148539060D02*
X217594171Y-148610489D01*
X217594171Y-148610489D02*
X217445600Y-148681917D01*
X217445600Y-148681917D02*
X217297028Y-148681917D01*
X217297028Y-148681917D02*
X217148457Y-148610489D01*
X217148457Y-148610489D02*
X217074171Y-148539060D01*
X217074171Y-148539060D02*
X216999885Y-148396203D01*
X216999885Y-148396203D02*
X216999885Y-148039060D01*
X216999885Y-148039060D02*
X217074171Y-147824774D01*
X216999885Y-147324775D02*
X218559885Y-146967632D01*
X218559885Y-146967632D02*
X217445600Y-146681918D01*
X217445600Y-146681918D02*
X218559885Y-146396203D01*
X218559885Y-146396203D02*
X216999885Y-146039061D01*
X216999885Y-144753346D02*
X216999885Y-145467632D01*
X216999885Y-145467632D02*
X217742742Y-145539060D01*
X217742742Y-145539060D02*
X217668457Y-145467632D01*
X217668457Y-145467632D02*
X217594171Y-145324775D01*
X217594171Y-145324775D02*
X217594171Y-144967632D01*
X217594171Y-144967632D02*
X217668457Y-144824775D01*
X217668457Y-144824775D02*
X217742742Y-144753346D01*
X217742742Y-144753346D02*
X217891314Y-144681917D01*
X217891314Y-144681917D02*
X218262742Y-144681917D01*
X218262742Y-144681917D02*
X218411314Y-144753346D01*
X218411314Y-144753346D02*
X218485600Y-144824775D01*
X218485600Y-144824775D02*
X218559885Y-144967632D01*
X218559885Y-144967632D02*
X218559885Y-145324775D01*
X218559885Y-145324775D02*
X218485600Y-145467632D01*
X218485600Y-145467632D02*
X218411314Y-145539060D01*
X220922914Y-147753346D02*
X220997200Y-147824774D01*
X220997200Y-147824774D02*
X221071485Y-148039060D01*
X221071485Y-148039060D02*
X221071485Y-148181917D01*
X221071485Y-148181917D02*
X220997200Y-148396203D01*
X220997200Y-148396203D02*
X220848628Y-148539060D01*
X220848628Y-148539060D02*
X220700057Y-148610489D01*
X220700057Y-148610489D02*
X220402914Y-148681917D01*
X220402914Y-148681917D02*
X220180057Y-148681917D01*
X220180057Y-148681917D02*
X219882914Y-148610489D01*
X219882914Y-148610489D02*
X219734342Y-148539060D01*
X219734342Y-148539060D02*
X219585771Y-148396203D01*
X219585771Y-148396203D02*
X219511485Y-148181917D01*
X219511485Y-148181917D02*
X219511485Y-148039060D01*
X219511485Y-148039060D02*
X219585771Y-147824774D01*
X219585771Y-147824774D02*
X219660057Y-147753346D01*
X219511485Y-146824774D02*
X219511485Y-146539060D01*
X219511485Y-146539060D02*
X219585771Y-146396203D01*
X219585771Y-146396203D02*
X219734342Y-146253346D01*
X219734342Y-146253346D02*
X220031485Y-146181917D01*
X220031485Y-146181917D02*
X220551485Y-146181917D01*
X220551485Y-146181917D02*
X220848628Y-146253346D01*
X220848628Y-146253346D02*
X220997200Y-146396203D01*
X220997200Y-146396203D02*
X221071485Y-146539060D01*
X221071485Y-146539060D02*
X221071485Y-146824774D01*
X221071485Y-146824774D02*
X220997200Y-146967632D01*
X220997200Y-146967632D02*
X220848628Y-147110489D01*
X220848628Y-147110489D02*
X220551485Y-147181917D01*
X220551485Y-147181917D02*
X220031485Y-147181917D01*
X220031485Y-147181917D02*
X219734342Y-147110489D01*
X219734342Y-147110489D02*
X219585771Y-146967632D01*
X219585771Y-146967632D02*
X219511485Y-146824774D01*
X221071485Y-145539060D02*
X219511485Y-145539060D01*
X219511485Y-145539060D02*
X220625771Y-145039060D01*
X220625771Y-145039060D02*
X219511485Y-144539060D01*
X219511485Y-144539060D02*
X221071485Y-144539060D01*
X220254342Y-143324774D02*
X220328628Y-143110488D01*
X220328628Y-143110488D02*
X220402914Y-143039059D01*
X220402914Y-143039059D02*
X220551485Y-142967631D01*
X220551485Y-142967631D02*
X220774342Y-142967631D01*
X220774342Y-142967631D02*
X220922914Y-143039059D01*
X220922914Y-143039059D02*
X220997200Y-143110488D01*
X220997200Y-143110488D02*
X221071485Y-143253345D01*
X221071485Y-143253345D02*
X221071485Y-143824774D01*
X221071485Y-143824774D02*
X219511485Y-143824774D01*
X219511485Y-143824774D02*
X219511485Y-143324774D01*
X219511485Y-143324774D02*
X219585771Y-143181917D01*
X219585771Y-143181917D02*
X219660057Y-143110488D01*
X219660057Y-143110488D02*
X219808628Y-143039059D01*
X219808628Y-143039059D02*
X219957200Y-143039059D01*
X219957200Y-143039059D02*
X220105771Y-143110488D01*
X220105771Y-143110488D02*
X220180057Y-143181917D01*
X220180057Y-143181917D02*
X220254342Y-143324774D01*
X220254342Y-143324774D02*
X220254342Y-143824774D01*
X216567492Y-64829638D02*
X217496064Y-64829638D01*
X217496064Y-64829638D02*
X216996064Y-65431542D01*
X216996064Y-65431542D02*
X217210349Y-65431542D01*
X217210349Y-65431542D02*
X217353207Y-65506780D01*
X217353207Y-65506780D02*
X217424635Y-65582019D01*
X217424635Y-65582019D02*
X217496064Y-65732495D01*
X217496064Y-65732495D02*
X217496064Y-66108685D01*
X217496064Y-66108685D02*
X217424635Y-66259161D01*
X217424635Y-66259161D02*
X217353207Y-66334400D01*
X217353207Y-66334400D02*
X217210349Y-66409638D01*
X217210349Y-66409638D02*
X216781778Y-66409638D01*
X216781778Y-66409638D02*
X216638921Y-66334400D01*
X216638921Y-66334400D02*
X216567492Y-66259161D01*
X217996063Y-65356304D02*
X218353206Y-66409638D01*
X218353206Y-66409638D02*
X218710349Y-65356304D01*
X215853206Y-67900104D02*
X215853206Y-69179152D01*
X215853206Y-69179152D02*
X215781777Y-69329628D01*
X215781777Y-69329628D02*
X215710348Y-69404866D01*
X215710348Y-69404866D02*
X215567491Y-69480104D01*
X215567491Y-69480104D02*
X215353206Y-69480104D01*
X215353206Y-69480104D02*
X215210348Y-69404866D01*
X215853206Y-68878200D02*
X215710348Y-68953438D01*
X215710348Y-68953438D02*
X215424634Y-68953438D01*
X215424634Y-68953438D02*
X215281777Y-68878200D01*
X215281777Y-68878200D02*
X215210348Y-68802961D01*
X215210348Y-68802961D02*
X215138920Y-68652485D01*
X215138920Y-68652485D02*
X215138920Y-68201057D01*
X215138920Y-68201057D02*
X215210348Y-68050580D01*
X215210348Y-68050580D02*
X215281777Y-67975342D01*
X215281777Y-67975342D02*
X215424634Y-67900104D01*
X215424634Y-67900104D02*
X215710348Y-67900104D01*
X215710348Y-67900104D02*
X215853206Y-67975342D01*
X216567491Y-67900104D02*
X216567491Y-68953438D01*
X216567491Y-68050580D02*
X216638920Y-67975342D01*
X216638920Y-67975342D02*
X216781777Y-67900104D01*
X216781777Y-67900104D02*
X216996063Y-67900104D01*
X216996063Y-67900104D02*
X217138920Y-67975342D01*
X217138920Y-67975342D02*
X217210349Y-68125819D01*
X217210349Y-68125819D02*
X217210349Y-68953438D01*
X218567492Y-68953438D02*
X218567492Y-67373438D01*
X218567492Y-68878200D02*
X218424634Y-68953438D01*
X218424634Y-68953438D02*
X218138920Y-68953438D01*
X218138920Y-68953438D02*
X217996063Y-68878200D01*
X217996063Y-68878200D02*
X217924634Y-68802961D01*
X217924634Y-68802961D02*
X217853206Y-68652485D01*
X217853206Y-68652485D02*
X217853206Y-68201057D01*
X217853206Y-68201057D02*
X217924634Y-68050580D01*
X217924634Y-68050580D02*
X217996063Y-67975342D01*
X217996063Y-67975342D02*
X218138920Y-67900104D01*
X218138920Y-67900104D02*
X218424634Y-67900104D01*
X218424634Y-67900104D02*
X218567492Y-67975342D01*
X215853206Y-70443904D02*
X215853206Y-71722952D01*
X215853206Y-71722952D02*
X215781777Y-71873428D01*
X215781777Y-71873428D02*
X215710348Y-71948666D01*
X215710348Y-71948666D02*
X215567491Y-72023904D01*
X215567491Y-72023904D02*
X215353206Y-72023904D01*
X215353206Y-72023904D02*
X215210348Y-71948666D01*
X215853206Y-71422000D02*
X215710348Y-71497238D01*
X215710348Y-71497238D02*
X215424634Y-71497238D01*
X215424634Y-71497238D02*
X215281777Y-71422000D01*
X215281777Y-71422000D02*
X215210348Y-71346761D01*
X215210348Y-71346761D02*
X215138920Y-71196285D01*
X215138920Y-71196285D02*
X215138920Y-70744857D01*
X215138920Y-70744857D02*
X215210348Y-70594380D01*
X215210348Y-70594380D02*
X215281777Y-70519142D01*
X215281777Y-70519142D02*
X215424634Y-70443904D01*
X215424634Y-70443904D02*
X215710348Y-70443904D01*
X215710348Y-70443904D02*
X215853206Y-70519142D01*
X216567491Y-70443904D02*
X216567491Y-71497238D01*
X216567491Y-70594380D02*
X216638920Y-70519142D01*
X216638920Y-70519142D02*
X216781777Y-70443904D01*
X216781777Y-70443904D02*
X216996063Y-70443904D01*
X216996063Y-70443904D02*
X217138920Y-70519142D01*
X217138920Y-70519142D02*
X217210349Y-70669619D01*
X217210349Y-70669619D02*
X217210349Y-71497238D01*
X218567492Y-71497238D02*
X218567492Y-69917238D01*
X218567492Y-71422000D02*
X218424634Y-71497238D01*
X218424634Y-71497238D02*
X218138920Y-71497238D01*
X218138920Y-71497238D02*
X217996063Y-71422000D01*
X217996063Y-71422000D02*
X217924634Y-71346761D01*
X217924634Y-71346761D02*
X217853206Y-71196285D01*
X217853206Y-71196285D02*
X217853206Y-70744857D01*
X217853206Y-70744857D02*
X217924634Y-70594380D01*
X217924634Y-70594380D02*
X217996063Y-70519142D01*
X217996063Y-70519142D02*
X218138920Y-70443904D01*
X218138920Y-70443904D02*
X218424634Y-70443904D01*
X218424634Y-70443904D02*
X218567492Y-70519142D01*
X216638920Y-72987704D02*
X216638920Y-74041038D01*
X216638920Y-73138180D02*
X216710349Y-73062942D01*
X216710349Y-73062942D02*
X216853206Y-72987704D01*
X216853206Y-72987704D02*
X217067492Y-72987704D01*
X217067492Y-72987704D02*
X217210349Y-73062942D01*
X217210349Y-73062942D02*
X217281778Y-73213419D01*
X217281778Y-73213419D02*
X217281778Y-74041038D01*
X218638921Y-73965800D02*
X218496063Y-74041038D01*
X218496063Y-74041038D02*
X218210349Y-74041038D01*
X218210349Y-74041038D02*
X218067492Y-73965800D01*
X218067492Y-73965800D02*
X217996063Y-73890561D01*
X217996063Y-73890561D02*
X217924635Y-73740085D01*
X217924635Y-73740085D02*
X217924635Y-73288657D01*
X217924635Y-73288657D02*
X217996063Y-73138180D01*
X217996063Y-73138180D02*
X218067492Y-73062942D01*
X218067492Y-73062942D02*
X218210349Y-72987704D01*
X218210349Y-72987704D02*
X218496063Y-72987704D01*
X218496063Y-72987704D02*
X218638921Y-73062942D01*
X217210350Y-76584838D02*
X216353207Y-76584838D01*
X216781778Y-76584838D02*
X216781778Y-75004838D01*
X216781778Y-75004838D02*
X216638921Y-75230552D01*
X216638921Y-75230552D02*
X216496064Y-75381028D01*
X216496064Y-75381028D02*
X216353207Y-75456266D01*
X218496064Y-75004838D02*
X218210349Y-75004838D01*
X218210349Y-75004838D02*
X218067492Y-75080076D01*
X218067492Y-75080076D02*
X217996064Y-75155314D01*
X217996064Y-75155314D02*
X217853206Y-75381028D01*
X217853206Y-75381028D02*
X217781778Y-75681980D01*
X217781778Y-75681980D02*
X217781778Y-76283885D01*
X217781778Y-76283885D02*
X217853206Y-76434361D01*
X217853206Y-76434361D02*
X217924635Y-76509600D01*
X217924635Y-76509600D02*
X218067492Y-76584838D01*
X218067492Y-76584838D02*
X218353206Y-76584838D01*
X218353206Y-76584838D02*
X218496064Y-76509600D01*
X218496064Y-76509600D02*
X218567492Y-76434361D01*
X218567492Y-76434361D02*
X218638921Y-76283885D01*
X218638921Y-76283885D02*
X218638921Y-75907695D01*
X218638921Y-75907695D02*
X218567492Y-75757219D01*
X218567492Y-75757219D02*
X218496064Y-75681980D01*
X218496064Y-75681980D02*
X218353206Y-75606742D01*
X218353206Y-75606742D02*
X218067492Y-75606742D01*
X218067492Y-75606742D02*
X217924635Y-75681980D01*
X217924635Y-75681980D02*
X217853206Y-75757219D01*
X217853206Y-75757219D02*
X217781778Y-75907695D01*
X216353207Y-77699114D02*
X216424635Y-77623876D01*
X216424635Y-77623876D02*
X216567493Y-77548638D01*
X216567493Y-77548638D02*
X216924635Y-77548638D01*
X216924635Y-77548638D02*
X217067493Y-77623876D01*
X217067493Y-77623876D02*
X217138921Y-77699114D01*
X217138921Y-77699114D02*
X217210350Y-77849590D01*
X217210350Y-77849590D02*
X217210350Y-78000066D01*
X217210350Y-78000066D02*
X217138921Y-78225780D01*
X217138921Y-78225780D02*
X216281778Y-79128638D01*
X216281778Y-79128638D02*
X217210350Y-79128638D01*
X218638921Y-79128638D02*
X217781778Y-79128638D01*
X218210349Y-79128638D02*
X218210349Y-77548638D01*
X218210349Y-77548638D02*
X218067492Y-77774352D01*
X218067492Y-77774352D02*
X217924635Y-77924828D01*
X217924635Y-77924828D02*
X217781778Y-78000066D01*
X217210350Y-81672438D02*
X216353207Y-81672438D01*
X216781778Y-81672438D02*
X216781778Y-80092438D01*
X216781778Y-80092438D02*
X216638921Y-80318152D01*
X216638921Y-80318152D02*
X216496064Y-80468628D01*
X216496064Y-80468628D02*
X216353207Y-80543866D01*
X217710349Y-80092438D02*
X218710349Y-80092438D01*
X218710349Y-80092438D02*
X218067492Y-81672438D01*
X217210350Y-84216238D02*
X216353207Y-84216238D01*
X216781778Y-84216238D02*
X216781778Y-82636238D01*
X216781778Y-82636238D02*
X216638921Y-82861952D01*
X216638921Y-82861952D02*
X216496064Y-83012428D01*
X216496064Y-83012428D02*
X216353207Y-83087666D01*
X218067492Y-83313380D02*
X217924635Y-83238142D01*
X217924635Y-83238142D02*
X217853206Y-83162904D01*
X217853206Y-83162904D02*
X217781778Y-83012428D01*
X217781778Y-83012428D02*
X217781778Y-82937190D01*
X217781778Y-82937190D02*
X217853206Y-82786714D01*
X217853206Y-82786714D02*
X217924635Y-82711476D01*
X217924635Y-82711476D02*
X218067492Y-82636238D01*
X218067492Y-82636238D02*
X218353206Y-82636238D01*
X218353206Y-82636238D02*
X218496064Y-82711476D01*
X218496064Y-82711476D02*
X218567492Y-82786714D01*
X218567492Y-82786714D02*
X218638921Y-82937190D01*
X218638921Y-82937190D02*
X218638921Y-83012428D01*
X218638921Y-83012428D02*
X218567492Y-83162904D01*
X218567492Y-83162904D02*
X218496064Y-83238142D01*
X218496064Y-83238142D02*
X218353206Y-83313380D01*
X218353206Y-83313380D02*
X218067492Y-83313380D01*
X218067492Y-83313380D02*
X217924635Y-83388619D01*
X217924635Y-83388619D02*
X217853206Y-83463857D01*
X217853206Y-83463857D02*
X217781778Y-83614333D01*
X217781778Y-83614333D02*
X217781778Y-83915285D01*
X217781778Y-83915285D02*
X217853206Y-84065761D01*
X217853206Y-84065761D02*
X217924635Y-84141000D01*
X217924635Y-84141000D02*
X218067492Y-84216238D01*
X218067492Y-84216238D02*
X218353206Y-84216238D01*
X218353206Y-84216238D02*
X218496064Y-84141000D01*
X218496064Y-84141000D02*
X218567492Y-84065761D01*
X218567492Y-84065761D02*
X218638921Y-83915285D01*
X218638921Y-83915285D02*
X218638921Y-83614333D01*
X218638921Y-83614333D02*
X218567492Y-83463857D01*
X218567492Y-83463857D02*
X218496064Y-83388619D01*
X218496064Y-83388619D02*
X218353206Y-83313380D01*
X217067493Y-85706704D02*
X217067493Y-86760038D01*
X216710350Y-85104800D02*
X216353207Y-86233371D01*
X216353207Y-86233371D02*
X217281778Y-86233371D01*
X218496064Y-85706704D02*
X218496064Y-86760038D01*
X218138921Y-85104800D02*
X217781778Y-86233371D01*
X217781778Y-86233371D02*
X218710349Y-86233371D01*
X217067493Y-88250504D02*
X217067493Y-89303838D01*
X216710350Y-87648600D02*
X216353207Y-88777171D01*
X216353207Y-88777171D02*
X217281778Y-88777171D01*
X217710349Y-87723838D02*
X218638921Y-87723838D01*
X218638921Y-87723838D02*
X218138921Y-88325742D01*
X218138921Y-88325742D02*
X218353206Y-88325742D01*
X218353206Y-88325742D02*
X218496064Y-88400980D01*
X218496064Y-88400980D02*
X218567492Y-88476219D01*
X218567492Y-88476219D02*
X218638921Y-88626695D01*
X218638921Y-88626695D02*
X218638921Y-89002885D01*
X218638921Y-89002885D02*
X218567492Y-89153361D01*
X218567492Y-89153361D02*
X218496064Y-89228600D01*
X218496064Y-89228600D02*
X218353206Y-89303838D01*
X218353206Y-89303838D02*
X217924635Y-89303838D01*
X217924635Y-89303838D02*
X217781778Y-89228600D01*
X217781778Y-89228600D02*
X217710349Y-89153361D01*
X215853206Y-90794304D02*
X215853206Y-92073352D01*
X215853206Y-92073352D02*
X215781777Y-92223828D01*
X215781777Y-92223828D02*
X215710348Y-92299066D01*
X215710348Y-92299066D02*
X215567491Y-92374304D01*
X215567491Y-92374304D02*
X215353206Y-92374304D01*
X215353206Y-92374304D02*
X215210348Y-92299066D01*
X215853206Y-91772400D02*
X215710348Y-91847638D01*
X215710348Y-91847638D02*
X215424634Y-91847638D01*
X215424634Y-91847638D02*
X215281777Y-91772400D01*
X215281777Y-91772400D02*
X215210348Y-91697161D01*
X215210348Y-91697161D02*
X215138920Y-91546685D01*
X215138920Y-91546685D02*
X215138920Y-91095257D01*
X215138920Y-91095257D02*
X215210348Y-90944780D01*
X215210348Y-90944780D02*
X215281777Y-90869542D01*
X215281777Y-90869542D02*
X215424634Y-90794304D01*
X215424634Y-90794304D02*
X215710348Y-90794304D01*
X215710348Y-90794304D02*
X215853206Y-90869542D01*
X216567491Y-90794304D02*
X216567491Y-91847638D01*
X216567491Y-90944780D02*
X216638920Y-90869542D01*
X216638920Y-90869542D02*
X216781777Y-90794304D01*
X216781777Y-90794304D02*
X216996063Y-90794304D01*
X216996063Y-90794304D02*
X217138920Y-90869542D01*
X217138920Y-90869542D02*
X217210349Y-91020019D01*
X217210349Y-91020019D02*
X217210349Y-91847638D01*
X218567492Y-91847638D02*
X218567492Y-90267638D01*
X218567492Y-91772400D02*
X218424634Y-91847638D01*
X218424634Y-91847638D02*
X218138920Y-91847638D01*
X218138920Y-91847638D02*
X217996063Y-91772400D01*
X217996063Y-91772400D02*
X217924634Y-91697161D01*
X217924634Y-91697161D02*
X217853206Y-91546685D01*
X217853206Y-91546685D02*
X217853206Y-91095257D01*
X217853206Y-91095257D02*
X217924634Y-90944780D01*
X217924634Y-90944780D02*
X217996063Y-90869542D01*
X217996063Y-90869542D02*
X218138920Y-90794304D01*
X218138920Y-90794304D02*
X218424634Y-90794304D01*
X218424634Y-90794304D02*
X218567492Y-90869542D01*
X215853206Y-93338104D02*
X215853206Y-94617152D01*
X215853206Y-94617152D02*
X215781777Y-94767628D01*
X215781777Y-94767628D02*
X215710348Y-94842866D01*
X215710348Y-94842866D02*
X215567491Y-94918104D01*
X215567491Y-94918104D02*
X215353206Y-94918104D01*
X215353206Y-94918104D02*
X215210348Y-94842866D01*
X215853206Y-94316200D02*
X215710348Y-94391438D01*
X215710348Y-94391438D02*
X215424634Y-94391438D01*
X215424634Y-94391438D02*
X215281777Y-94316200D01*
X215281777Y-94316200D02*
X215210348Y-94240961D01*
X215210348Y-94240961D02*
X215138920Y-94090485D01*
X215138920Y-94090485D02*
X215138920Y-93639057D01*
X215138920Y-93639057D02*
X215210348Y-93488580D01*
X215210348Y-93488580D02*
X215281777Y-93413342D01*
X215281777Y-93413342D02*
X215424634Y-93338104D01*
X215424634Y-93338104D02*
X215710348Y-93338104D01*
X215710348Y-93338104D02*
X215853206Y-93413342D01*
X216567491Y-93338104D02*
X216567491Y-94391438D01*
X216567491Y-93488580D02*
X216638920Y-93413342D01*
X216638920Y-93413342D02*
X216781777Y-93338104D01*
X216781777Y-93338104D02*
X216996063Y-93338104D01*
X216996063Y-93338104D02*
X217138920Y-93413342D01*
X217138920Y-93413342D02*
X217210349Y-93563819D01*
X217210349Y-93563819D02*
X217210349Y-94391438D01*
X218567492Y-94391438D02*
X218567492Y-92811438D01*
X218567492Y-94316200D02*
X218424634Y-94391438D01*
X218424634Y-94391438D02*
X218138920Y-94391438D01*
X218138920Y-94391438D02*
X217996063Y-94316200D01*
X217996063Y-94316200D02*
X217924634Y-94240961D01*
X217924634Y-94240961D02*
X217853206Y-94090485D01*
X217853206Y-94090485D02*
X217853206Y-93639057D01*
X217853206Y-93639057D02*
X217924634Y-93488580D01*
X217924634Y-93488580D02*
X217996063Y-93413342D01*
X217996063Y-93413342D02*
X218138920Y-93338104D01*
X218138920Y-93338104D02*
X218424634Y-93338104D01*
X218424634Y-93338104D02*
X218567492Y-93413342D01*
X196347971Y-132530939D02*
X196273685Y-132673797D01*
X196273685Y-132673797D02*
X196273685Y-132888082D01*
X196273685Y-132888082D02*
X196347971Y-133102368D01*
X196347971Y-133102368D02*
X196496542Y-133245225D01*
X196496542Y-133245225D02*
X196645114Y-133316654D01*
X196645114Y-133316654D02*
X196942257Y-133388082D01*
X196942257Y-133388082D02*
X197165114Y-133388082D01*
X197165114Y-133388082D02*
X197462257Y-133316654D01*
X197462257Y-133316654D02*
X197610828Y-133245225D01*
X197610828Y-133245225D02*
X197759400Y-133102368D01*
X197759400Y-133102368D02*
X197833685Y-132888082D01*
X197833685Y-132888082D02*
X197833685Y-132745225D01*
X197833685Y-132745225D02*
X197759400Y-132530939D01*
X197759400Y-132530939D02*
X197685114Y-132459511D01*
X197685114Y-132459511D02*
X197165114Y-132459511D01*
X197165114Y-132459511D02*
X197165114Y-132745225D01*
X197833685Y-131816654D02*
X196273685Y-131816654D01*
X196273685Y-131816654D02*
X197833685Y-130959511D01*
X197833685Y-130959511D02*
X196273685Y-130959511D01*
X197833685Y-130245225D02*
X196273685Y-130245225D01*
X196273685Y-130245225D02*
X196273685Y-129888082D01*
X196273685Y-129888082D02*
X196347971Y-129673796D01*
X196347971Y-129673796D02*
X196496542Y-129530939D01*
X196496542Y-129530939D02*
X196645114Y-129459510D01*
X196645114Y-129459510D02*
X196942257Y-129388082D01*
X196942257Y-129388082D02*
X197165114Y-129388082D01*
X197165114Y-129388082D02*
X197462257Y-129459510D01*
X197462257Y-129459510D02*
X197610828Y-129530939D01*
X197610828Y-129530939D02*
X197759400Y-129673796D01*
X197759400Y-129673796D02*
X197833685Y-129888082D01*
X197833685Y-129888082D02*
X197833685Y-130245225D01*
X198785285Y-131602367D02*
X198785285Y-130673795D01*
X198785285Y-130673795D02*
X199379571Y-131173795D01*
X199379571Y-131173795D02*
X199379571Y-130959510D01*
X199379571Y-130959510D02*
X199453857Y-130816653D01*
X199453857Y-130816653D02*
X199528142Y-130745224D01*
X199528142Y-130745224D02*
X199676714Y-130673795D01*
X199676714Y-130673795D02*
X200048142Y-130673795D01*
X200048142Y-130673795D02*
X200196714Y-130745224D01*
X200196714Y-130745224D02*
X200271000Y-130816653D01*
X200271000Y-130816653D02*
X200345285Y-130959510D01*
X200345285Y-130959510D02*
X200345285Y-131388081D01*
X200345285Y-131388081D02*
X200271000Y-131530938D01*
X200271000Y-131530938D02*
X200196714Y-131602367D01*
X198785285Y-130245224D02*
X200345285Y-129745224D01*
X200345285Y-129745224D02*
X198785285Y-129245224D01*
X202782600Y-131745224D02*
X202856885Y-131530939D01*
X202856885Y-131530939D02*
X202856885Y-131173796D01*
X202856885Y-131173796D02*
X202782600Y-131030939D01*
X202782600Y-131030939D02*
X202708314Y-130959510D01*
X202708314Y-130959510D02*
X202559742Y-130888081D01*
X202559742Y-130888081D02*
X202411171Y-130888081D01*
X202411171Y-130888081D02*
X202262600Y-130959510D01*
X202262600Y-130959510D02*
X202188314Y-131030939D01*
X202188314Y-131030939D02*
X202114028Y-131173796D01*
X202114028Y-131173796D02*
X202039742Y-131459510D01*
X202039742Y-131459510D02*
X201965457Y-131602367D01*
X201965457Y-131602367D02*
X201891171Y-131673796D01*
X201891171Y-131673796D02*
X201742600Y-131745224D01*
X201742600Y-131745224D02*
X201594028Y-131745224D01*
X201594028Y-131745224D02*
X201445457Y-131673796D01*
X201445457Y-131673796D02*
X201371171Y-131602367D01*
X201371171Y-131602367D02*
X201296885Y-131459510D01*
X201296885Y-131459510D02*
X201296885Y-131102367D01*
X201296885Y-131102367D02*
X201371171Y-130888081D01*
X202856885Y-130245225D02*
X201296885Y-130245225D01*
X201296885Y-130245225D02*
X201296885Y-129888082D01*
X201296885Y-129888082D02*
X201371171Y-129673796D01*
X201371171Y-129673796D02*
X201519742Y-129530939D01*
X201519742Y-129530939D02*
X201668314Y-129459510D01*
X201668314Y-129459510D02*
X201965457Y-129388082D01*
X201965457Y-129388082D02*
X202188314Y-129388082D01*
X202188314Y-129388082D02*
X202485457Y-129459510D01*
X202485457Y-129459510D02*
X202634028Y-129530939D01*
X202634028Y-129530939D02*
X202782600Y-129673796D01*
X202782600Y-129673796D02*
X202856885Y-129888082D01*
X202856885Y-129888082D02*
X202856885Y-130245225D01*
X202563796Y-64829638D02*
X201849510Y-64829638D01*
X201849510Y-64829638D02*
X201778082Y-65582019D01*
X201778082Y-65582019D02*
X201849510Y-65506780D01*
X201849510Y-65506780D02*
X201992368Y-65431542D01*
X201992368Y-65431542D02*
X202349510Y-65431542D01*
X202349510Y-65431542D02*
X202492368Y-65506780D01*
X202492368Y-65506780D02*
X202563796Y-65582019D01*
X202563796Y-65582019D02*
X202635225Y-65732495D01*
X202635225Y-65732495D02*
X202635225Y-66108685D01*
X202635225Y-66108685D02*
X202563796Y-66259161D01*
X202563796Y-66259161D02*
X202492368Y-66334400D01*
X202492368Y-66334400D02*
X202349510Y-66409638D01*
X202349510Y-66409638D02*
X201992368Y-66409638D01*
X201992368Y-66409638D02*
X201849510Y-66334400D01*
X201849510Y-66334400D02*
X201778082Y-66259161D01*
X203135224Y-65356304D02*
X203492367Y-66409638D01*
X203492367Y-66409638D02*
X203849510Y-65356304D01*
X202492368Y-67900104D02*
X202492368Y-69179152D01*
X202492368Y-69179152D02*
X202420939Y-69329628D01*
X202420939Y-69329628D02*
X202349510Y-69404866D01*
X202349510Y-69404866D02*
X202206653Y-69480104D01*
X202206653Y-69480104D02*
X201992368Y-69480104D01*
X201992368Y-69480104D02*
X201849510Y-69404866D01*
X202492368Y-68878200D02*
X202349510Y-68953438D01*
X202349510Y-68953438D02*
X202063796Y-68953438D01*
X202063796Y-68953438D02*
X201920939Y-68878200D01*
X201920939Y-68878200D02*
X201849510Y-68802961D01*
X201849510Y-68802961D02*
X201778082Y-68652485D01*
X201778082Y-68652485D02*
X201778082Y-68201057D01*
X201778082Y-68201057D02*
X201849510Y-68050580D01*
X201849510Y-68050580D02*
X201920939Y-67975342D01*
X201920939Y-67975342D02*
X202063796Y-67900104D01*
X202063796Y-67900104D02*
X202349510Y-67900104D01*
X202349510Y-67900104D02*
X202492368Y-67975342D01*
X203206653Y-67900104D02*
X203206653Y-68953438D01*
X203206653Y-68050580D02*
X203278082Y-67975342D01*
X203278082Y-67975342D02*
X203420939Y-67900104D01*
X203420939Y-67900104D02*
X203635225Y-67900104D01*
X203635225Y-67900104D02*
X203778082Y-67975342D01*
X203778082Y-67975342D02*
X203849511Y-68125819D01*
X203849511Y-68125819D02*
X203849511Y-68953438D01*
X205206654Y-68953438D02*
X205206654Y-67373438D01*
X205206654Y-68878200D02*
X205063796Y-68953438D01*
X205063796Y-68953438D02*
X204778082Y-68953438D01*
X204778082Y-68953438D02*
X204635225Y-68878200D01*
X204635225Y-68878200D02*
X204563796Y-68802961D01*
X204563796Y-68802961D02*
X204492368Y-68652485D01*
X204492368Y-68652485D02*
X204492368Y-68201057D01*
X204492368Y-68201057D02*
X204563796Y-68050580D01*
X204563796Y-68050580D02*
X204635225Y-67975342D01*
X204635225Y-67975342D02*
X204778082Y-67900104D01*
X204778082Y-67900104D02*
X205063796Y-67900104D01*
X205063796Y-67900104D02*
X205206654Y-67975342D01*
X201849510Y-70443904D02*
X201849510Y-71497238D01*
X201849510Y-70594380D02*
X201920939Y-70519142D01*
X201920939Y-70519142D02*
X202063796Y-70443904D01*
X202063796Y-70443904D02*
X202278082Y-70443904D01*
X202278082Y-70443904D02*
X202420939Y-70519142D01*
X202420939Y-70519142D02*
X202492368Y-70669619D01*
X202492368Y-70669619D02*
X202492368Y-71497238D01*
X203849511Y-71422000D02*
X203706653Y-71497238D01*
X203706653Y-71497238D02*
X203420939Y-71497238D01*
X203420939Y-71497238D02*
X203278082Y-71422000D01*
X203278082Y-71422000D02*
X203206653Y-71346761D01*
X203206653Y-71346761D02*
X203135225Y-71196285D01*
X203135225Y-71196285D02*
X203135225Y-70744857D01*
X203135225Y-70744857D02*
X203206653Y-70594380D01*
X203206653Y-70594380D02*
X203278082Y-70519142D01*
X203278082Y-70519142D02*
X203420939Y-70443904D01*
X203420939Y-70443904D02*
X203706653Y-70443904D01*
X203706653Y-70443904D02*
X203849511Y-70519142D01*
X201849510Y-72987704D02*
X201849510Y-74041038D01*
X201849510Y-73138180D02*
X201920939Y-73062942D01*
X201920939Y-73062942D02*
X202063796Y-72987704D01*
X202063796Y-72987704D02*
X202278082Y-72987704D01*
X202278082Y-72987704D02*
X202420939Y-73062942D01*
X202420939Y-73062942D02*
X202492368Y-73213419D01*
X202492368Y-73213419D02*
X202492368Y-74041038D01*
X203849511Y-73965800D02*
X203706653Y-74041038D01*
X203706653Y-74041038D02*
X203420939Y-74041038D01*
X203420939Y-74041038D02*
X203278082Y-73965800D01*
X203278082Y-73965800D02*
X203206653Y-73890561D01*
X203206653Y-73890561D02*
X203135225Y-73740085D01*
X203135225Y-73740085D02*
X203135225Y-73288657D01*
X203135225Y-73288657D02*
X203206653Y-73138180D01*
X203206653Y-73138180D02*
X203278082Y-73062942D01*
X203278082Y-73062942D02*
X203420939Y-72987704D01*
X203420939Y-72987704D02*
X203706653Y-72987704D01*
X203706653Y-72987704D02*
X203849511Y-73062942D01*
X202635225Y-76584838D02*
X201778082Y-76584838D01*
X202206653Y-76584838D02*
X202206653Y-75004838D01*
X202206653Y-75004838D02*
X202063796Y-75230552D01*
X202063796Y-75230552D02*
X201920939Y-75381028D01*
X201920939Y-75381028D02*
X201778082Y-75456266D01*
X203135224Y-75004838D02*
X204063796Y-75004838D01*
X204063796Y-75004838D02*
X203563796Y-75606742D01*
X203563796Y-75606742D02*
X203778081Y-75606742D01*
X203778081Y-75606742D02*
X203920939Y-75681980D01*
X203920939Y-75681980D02*
X203992367Y-75757219D01*
X203992367Y-75757219D02*
X204063796Y-75907695D01*
X204063796Y-75907695D02*
X204063796Y-76283885D01*
X204063796Y-76283885D02*
X203992367Y-76434361D01*
X203992367Y-76434361D02*
X203920939Y-76509600D01*
X203920939Y-76509600D02*
X203778081Y-76584838D01*
X203778081Y-76584838D02*
X203349510Y-76584838D01*
X203349510Y-76584838D02*
X203206653Y-76509600D01*
X203206653Y-76509600D02*
X203135224Y-76434361D01*
X202635225Y-79128638D02*
X201778082Y-79128638D01*
X202206653Y-79128638D02*
X202206653Y-77548638D01*
X202206653Y-77548638D02*
X202063796Y-77774352D01*
X202063796Y-77774352D02*
X201920939Y-77924828D01*
X201920939Y-77924828D02*
X201778082Y-78000066D01*
X203206653Y-77699114D02*
X203278081Y-77623876D01*
X203278081Y-77623876D02*
X203420939Y-77548638D01*
X203420939Y-77548638D02*
X203778081Y-77548638D01*
X203778081Y-77548638D02*
X203920939Y-77623876D01*
X203920939Y-77623876D02*
X203992367Y-77699114D01*
X203992367Y-77699114D02*
X204063796Y-77849590D01*
X204063796Y-77849590D02*
X204063796Y-78000066D01*
X204063796Y-78000066D02*
X203992367Y-78225780D01*
X203992367Y-78225780D02*
X203135224Y-79128638D01*
X203135224Y-79128638D02*
X204063796Y-79128638D01*
X202635225Y-81672438D02*
X201778082Y-81672438D01*
X202206653Y-81672438D02*
X202206653Y-80092438D01*
X202206653Y-80092438D02*
X202063796Y-80318152D01*
X202063796Y-80318152D02*
X201920939Y-80468628D01*
X201920939Y-80468628D02*
X201778082Y-80543866D01*
X204063796Y-81672438D02*
X203206653Y-81672438D01*
X203635224Y-81672438D02*
X203635224Y-80092438D01*
X203635224Y-80092438D02*
X203492367Y-80318152D01*
X203492367Y-80318152D02*
X203349510Y-80468628D01*
X203349510Y-80468628D02*
X203206653Y-80543866D01*
X202635225Y-84216238D02*
X201778082Y-84216238D01*
X202206653Y-84216238D02*
X202206653Y-82636238D01*
X202206653Y-82636238D02*
X202063796Y-82861952D01*
X202063796Y-82861952D02*
X201920939Y-83012428D01*
X201920939Y-83012428D02*
X201778082Y-83087666D01*
X203563796Y-82636238D02*
X203706653Y-82636238D01*
X203706653Y-82636238D02*
X203849510Y-82711476D01*
X203849510Y-82711476D02*
X203920939Y-82786714D01*
X203920939Y-82786714D02*
X203992367Y-82937190D01*
X203992367Y-82937190D02*
X204063796Y-83238142D01*
X204063796Y-83238142D02*
X204063796Y-83614333D01*
X204063796Y-83614333D02*
X203992367Y-83915285D01*
X203992367Y-83915285D02*
X203920939Y-84065761D01*
X203920939Y-84065761D02*
X203849510Y-84141000D01*
X203849510Y-84141000D02*
X203706653Y-84216238D01*
X203706653Y-84216238D02*
X203563796Y-84216238D01*
X203563796Y-84216238D02*
X203420939Y-84141000D01*
X203420939Y-84141000D02*
X203349510Y-84065761D01*
X203349510Y-84065761D02*
X203278081Y-83915285D01*
X203278081Y-83915285D02*
X203206653Y-83614333D01*
X203206653Y-83614333D02*
X203206653Y-83238142D01*
X203206653Y-83238142D02*
X203278081Y-82937190D01*
X203278081Y-82937190D02*
X203349510Y-82786714D01*
X203349510Y-82786714D02*
X203420939Y-82711476D01*
X203420939Y-82711476D02*
X203563796Y-82636238D01*
X201706653Y-85180038D02*
X202635225Y-85180038D01*
X202635225Y-85180038D02*
X202135225Y-85781942D01*
X202135225Y-85781942D02*
X202349510Y-85781942D01*
X202349510Y-85781942D02*
X202492368Y-85857180D01*
X202492368Y-85857180D02*
X202563796Y-85932419D01*
X202563796Y-85932419D02*
X202635225Y-86082895D01*
X202635225Y-86082895D02*
X202635225Y-86459085D01*
X202635225Y-86459085D02*
X202563796Y-86609561D01*
X202563796Y-86609561D02*
X202492368Y-86684800D01*
X202492368Y-86684800D02*
X202349510Y-86760038D01*
X202349510Y-86760038D02*
X201920939Y-86760038D01*
X201920939Y-86760038D02*
X201778082Y-86684800D01*
X201778082Y-86684800D02*
X201706653Y-86609561D01*
X201778082Y-87874314D02*
X201849510Y-87799076D01*
X201849510Y-87799076D02*
X201992368Y-87723838D01*
X201992368Y-87723838D02*
X202349510Y-87723838D01*
X202349510Y-87723838D02*
X202492368Y-87799076D01*
X202492368Y-87799076D02*
X202563796Y-87874314D01*
X202563796Y-87874314D02*
X202635225Y-88024790D01*
X202635225Y-88024790D02*
X202635225Y-88175266D01*
X202635225Y-88175266D02*
X202563796Y-88400980D01*
X202563796Y-88400980D02*
X201706653Y-89303838D01*
X201706653Y-89303838D02*
X202635225Y-89303838D01*
X202635225Y-91847638D02*
X201778082Y-91847638D01*
X202206653Y-91847638D02*
X202206653Y-90267638D01*
X202206653Y-90267638D02*
X202063796Y-90493352D01*
X202063796Y-90493352D02*
X201920939Y-90643828D01*
X201920939Y-90643828D02*
X201778082Y-90719066D01*
X201706653Y-92811438D02*
X202635225Y-92811438D01*
X202635225Y-92811438D02*
X202135225Y-93413342D01*
X202135225Y-93413342D02*
X202349510Y-93413342D01*
X202349510Y-93413342D02*
X202492368Y-93488580D01*
X202492368Y-93488580D02*
X202563796Y-93563819D01*
X202563796Y-93563819D02*
X202635225Y-93714295D01*
X202635225Y-93714295D02*
X202635225Y-94090485D01*
X202635225Y-94090485D02*
X202563796Y-94240961D01*
X202563796Y-94240961D02*
X202492368Y-94316200D01*
X202492368Y-94316200D02*
X202349510Y-94391438D01*
X202349510Y-94391438D02*
X201920939Y-94391438D01*
X201920939Y-94391438D02*
X201778082Y-94316200D01*
X201778082Y-94316200D02*
X201706653Y-94240961D01*
X203135224Y-93338104D02*
X203492367Y-94391438D01*
X203492367Y-94391438D02*
X203849510Y-93338104D01*
G36*
X212767742Y-57734000D02*
G01*
X212767742Y-56033288D01*
X213101085Y-56033288D01*
X213096786Y-56676526D01*
X213102942Y-56661241D01*
X213111717Y-56647881D01*
X213119061Y-56637447D01*
X213129063Y-56624267D01*
X213139724Y-56611691D01*
X213151045Y-56599720D01*
X213163025Y-56588354D01*
X213175664Y-56577592D01*
X213180024Y-56574139D01*
X213193635Y-56564389D01*
X213207795Y-56555656D01*
X213222504Y-56547939D01*
X213237763Y-56541240D01*
X213253572Y-56535556D01*
X213258963Y-56533888D01*
X213275404Y-56529505D01*
X213291900Y-56526029D01*
X213308450Y-56523460D01*
X213325056Y-56521798D01*
X213341716Y-56521042D01*
X213347282Y-56520992D01*
X213364218Y-56521488D01*
X213381079Y-56522976D01*
X213397863Y-56525457D01*
X213414571Y-56528930D01*
X213431202Y-56533395D01*
X213447757Y-56538852D01*
X213454358Y-56541313D01*
X213470585Y-56548037D01*
X213486048Y-56555754D01*
X213500749Y-56564462D01*
X213514686Y-56574163D01*
X213527860Y-56584857D01*
X213540270Y-56596542D01*
X213545021Y-56601494D01*
X213556504Y-56614161D01*
X213567262Y-56627247D01*
X213577295Y-56640752D01*
X213586603Y-56654678D01*
X213595186Y-56669024D01*
X213603044Y-56683789D01*
X213605984Y-56689812D01*
X213612960Y-56705041D01*
X213619478Y-56720442D01*
X213625538Y-56736014D01*
X213631141Y-56751759D01*
X213636285Y-56767674D01*
X213640971Y-56783762D01*
X213642718Y-56790245D01*
X213646876Y-56806422D01*
X213650556Y-56822714D01*
X213653760Y-56839120D01*
X213656487Y-56855641D01*
X213658737Y-56872276D01*
X213660509Y-56889026D01*
X213661085Y-56895758D01*
X213662436Y-56912460D01*
X213663558Y-56929105D01*
X213664451Y-56945692D01*
X213665115Y-56962223D01*
X213665550Y-56978696D01*
X213665756Y-56995111D01*
X213665774Y-57001662D01*
X213665774Y-57734000D01*
X213332432Y-57734000D01*
X213332432Y-57001271D01*
X213332163Y-56984638D01*
X213331357Y-56967956D01*
X213330014Y-56951226D01*
X213328133Y-56934446D01*
X213325471Y-56917911D01*
X213321783Y-56901913D01*
X213317069Y-56886452D01*
X213311329Y-56871529D01*
X213304197Y-56857461D01*
X213295307Y-56844565D01*
X213284658Y-56832841D01*
X213272250Y-56822290D01*
X213258963Y-56813399D01*
X213243549Y-56806434D01*
X213227639Y-56802683D01*
X213216758Y-56801969D01*
X213200488Y-56803576D01*
X213184651Y-56808398D01*
X213169247Y-56816436D01*
X213160875Y-56822290D01*
X213148639Y-56832841D01*
X213138112Y-56844565D01*
X213128313Y-56859155D01*
X213122187Y-56871529D01*
X213116448Y-56886452D01*
X213111734Y-56901913D01*
X213108046Y-56917911D01*
X213105384Y-56934446D01*
X213103503Y-56951226D01*
X213102160Y-56967956D01*
X213101354Y-56984638D01*
X213101085Y-57001271D01*
X213101085Y-57734000D01*
X212767742Y-57734000D01*
G37*
G36*
X214352060Y-56521224D02*
G01*
X214368070Y-56521920D01*
X214384007Y-56523080D01*
X214399871Y-56524704D01*
X214415661Y-56526793D01*
X214431378Y-56529345D01*
X214447022Y-56532361D01*
X214462592Y-56535842D01*
X214478041Y-56539786D01*
X214493318Y-56544195D01*
X214508424Y-56549068D01*
X214523360Y-56554404D01*
X214538124Y-56560205D01*
X214552718Y-56566470D01*
X214567140Y-56573199D01*
X214581392Y-56580392D01*
X214595454Y-56588073D01*
X214609113Y-56596267D01*
X214622370Y-56604975D01*
X214635223Y-56614195D01*
X214647673Y-56623928D01*
X214659721Y-56634174D01*
X214671365Y-56644933D01*
X214682606Y-56656205D01*
X214693389Y-56667818D01*
X214703660Y-56679799D01*
X214713417Y-56692145D01*
X214722662Y-56704858D01*
X214731394Y-56717937D01*
X214739612Y-56731383D01*
X214747318Y-56745195D01*
X214754511Y-56759373D01*
X214761265Y-56773801D01*
X214767456Y-56788364D01*
X214773086Y-56803062D01*
X214778154Y-56817893D01*
X214783699Y-56836622D01*
X214788366Y-56855560D01*
X214792156Y-56874709D01*
X214792808Y-56878563D01*
X214795848Y-56897794D01*
X214798373Y-56917138D01*
X214800021Y-56932697D01*
X214801340Y-56948328D01*
X214802329Y-56964033D01*
X214802989Y-56979811D01*
X214803319Y-56995663D01*
X214803360Y-57003616D01*
X214803360Y-57270915D01*
X214803102Y-57290014D01*
X214802329Y-57309208D01*
X214801041Y-57328497D01*
X214799238Y-57347882D01*
X214797425Y-57363459D01*
X214795281Y-57379096D01*
X214792808Y-57394795D01*
X214789987Y-57410347D01*
X214786605Y-57425741D01*
X214782660Y-57440975D01*
X214778154Y-57456051D01*
X214773086Y-57470968D01*
X214767456Y-57485727D01*
X214761265Y-57500326D01*
X214754511Y-57514767D01*
X214747318Y-57528952D01*
X214739612Y-57542782D01*
X214731394Y-57556258D01*
X214722662Y-57569380D01*
X214713417Y-57582148D01*
X214703660Y-57594561D01*
X214693389Y-57606621D01*
X214682606Y-57618326D01*
X214671365Y-57629512D01*
X214659721Y-57640210D01*
X214647673Y-57650420D01*
X214635223Y-57660140D01*
X214622370Y-57669373D01*
X214609113Y-57678117D01*
X214595454Y-57686372D01*
X214581392Y-57694139D01*
X214567030Y-57701277D01*
X214552474Y-57707841D01*
X214537721Y-57713831D01*
X214522774Y-57719247D01*
X214507631Y-57724089D01*
X214492292Y-57728357D01*
X214476758Y-57732052D01*
X214461029Y-57735172D01*
X214445312Y-57737828D01*
X214429619Y-57740130D01*
X214413951Y-57742078D01*
X214398307Y-57743672D01*
X214382688Y-57744911D01*
X214363198Y-57745962D01*
X214343747Y-57746460D01*
X214335977Y-57746505D01*
X214316531Y-57746228D01*
X214297028Y-57745398D01*
X214281384Y-57744336D01*
X214265703Y-57742919D01*
X214249986Y-57741148D01*
X214234233Y-57739023D01*
X214218442Y-57736544D01*
X214210534Y-57735172D01*
X214194896Y-57732052D01*
X214179441Y-57728357D01*
X214164170Y-57724089D01*
X214149082Y-57719247D01*
X214134177Y-57713831D01*
X214119455Y-57707841D01*
X214104917Y-57701277D01*
X214090561Y-57694139D01*
X214076499Y-57686372D01*
X214062840Y-57678117D01*
X214049584Y-57669373D01*
X214036730Y-57660140D01*
X214024280Y-57650420D01*
X214012233Y-57640210D01*
X214000589Y-57629512D01*
X213989347Y-57618326D01*
X213978558Y-57606621D01*
X213968269Y-57594561D01*
X213958481Y-57582148D01*
X213949194Y-57569380D01*
X213940407Y-57556258D01*
X213932121Y-57542782D01*
X213924336Y-57528952D01*
X213917051Y-57514767D01*
X213910384Y-57500326D01*
X213904253Y-57485727D01*
X213898660Y-57470968D01*
X213893604Y-57456051D01*
X213889086Y-57440975D01*
X213885104Y-57425741D01*
X213881661Y-57410347D01*
X213878754Y-57394795D01*
X213876373Y-57379096D01*
X213874309Y-57363459D01*
X213872563Y-57347882D01*
X213870826Y-57328497D01*
X213869586Y-57309208D01*
X213868842Y-57290014D01*
X213868594Y-57270915D01*
X213868594Y-57265835D01*
X214202327Y-57265835D01*
X214202645Y-57283005D01*
X214203597Y-57300127D01*
X214205185Y-57317199D01*
X214207407Y-57334223D01*
X214210778Y-57350758D01*
X214215418Y-57366756D01*
X214221329Y-57382217D01*
X214228510Y-57397140D01*
X214237205Y-57411037D01*
X214247658Y-57423420D01*
X214259871Y-57434289D01*
X214273841Y-57443644D01*
X214288862Y-57450995D01*
X214304225Y-57456247D01*
X214319930Y-57459397D01*
X214335977Y-57460448D01*
X214352023Y-57459397D01*
X214367728Y-57456247D01*
X214383091Y-57450995D01*
X214398112Y-57443644D01*
X214412083Y-57434289D01*
X214424295Y-57423420D01*
X214434748Y-57411037D01*
X214443444Y-57397140D01*
X214450600Y-57382217D01*
X214456437Y-57366756D01*
X214460956Y-57350758D01*
X214464155Y-57334223D01*
X214466549Y-57317199D01*
X214468259Y-57300127D01*
X214469284Y-57283005D01*
X214469626Y-57265835D01*
X214469626Y-57001662D01*
X214469284Y-56984467D01*
X214468259Y-56967272D01*
X214466549Y-56950078D01*
X214464155Y-56932883D01*
X214460882Y-56915908D01*
X214456144Y-56899764D01*
X214449940Y-56884450D01*
X214442271Y-56869966D01*
X214433210Y-56856411D01*
X214422439Y-56844272D01*
X214409958Y-56833549D01*
X214395767Y-56824244D01*
X214380746Y-56816721D01*
X214365384Y-56811348D01*
X214349679Y-56808124D01*
X214333632Y-56807049D01*
X214317658Y-56808173D01*
X214302173Y-56811543D01*
X214287177Y-56817161D01*
X214272669Y-56825025D01*
X214259211Y-56834673D01*
X214247365Y-56845639D01*
X214237132Y-56857925D01*
X214228510Y-56871529D01*
X214221329Y-56885964D01*
X214215418Y-56901131D01*
X214210778Y-56917032D01*
X214207407Y-56933665D01*
X214205185Y-56950517D01*
X214203597Y-56967468D01*
X214202645Y-56984516D01*
X214202327Y-57001662D01*
X214202327Y-57265835D01*
X213868594Y-57265835D01*
X213868594Y-57003616D01*
X213868752Y-56987728D01*
X213869229Y-56971913D01*
X213870022Y-56956172D01*
X213871134Y-56940503D01*
X213872563Y-56924908D01*
X213874795Y-56905518D01*
X213877524Y-56886242D01*
X213878754Y-56878563D01*
X213881661Y-56863194D01*
X213886049Y-56844172D01*
X213891278Y-56825360D01*
X213896065Y-56810461D01*
X213901389Y-56795696D01*
X213907251Y-56781066D01*
X213913650Y-56766570D01*
X213917051Y-56759373D01*
X213924336Y-56745195D01*
X213932121Y-56731383D01*
X213940407Y-56717937D01*
X213949194Y-56704858D01*
X213958481Y-56692145D01*
X213968269Y-56679799D01*
X213978558Y-56667818D01*
X213989347Y-56656205D01*
X214000582Y-56644933D01*
X214012208Y-56634174D01*
X214024225Y-56623928D01*
X214036633Y-56614195D01*
X214049431Y-56604975D01*
X214062620Y-56596267D01*
X214076200Y-56588073D01*
X214090171Y-56580392D01*
X214104514Y-56573199D01*
X214119016Y-56566470D01*
X214133676Y-56560205D01*
X214148496Y-56554404D01*
X214163474Y-56549068D01*
X214178611Y-56544195D01*
X214193907Y-56539786D01*
X214209361Y-56535842D01*
X214224932Y-56532361D01*
X214240575Y-56529345D01*
X214256292Y-56526793D01*
X214272083Y-56524704D01*
X214287946Y-56523080D01*
X214303883Y-56521920D01*
X214319893Y-56521224D01*
X214335977Y-56520992D01*
X214352060Y-56521224D01*
G37*
G36*
X214963192Y-57734000D02*
G01*
X214963192Y-56533497D01*
X215240261Y-56533497D01*
X215232446Y-56629631D01*
X215234043Y-56613516D01*
X215241043Y-56601494D01*
X215250330Y-56588298D01*
X215260607Y-56575968D01*
X215271873Y-56564503D01*
X215278559Y-56558508D01*
X215291332Y-56548698D01*
X215305033Y-56540372D01*
X215319661Y-56533531D01*
X215328189Y-56530371D01*
X215344078Y-56525837D01*
X215360090Y-56522787D01*
X215376226Y-56521221D01*
X215385244Y-56520992D01*
X215401222Y-56521721D01*
X215417012Y-56523909D01*
X215432616Y-56527555D01*
X215448033Y-56532661D01*
X215456758Y-56536233D01*
X215471603Y-56543480D01*
X215485364Y-56551887D01*
X215498039Y-56561453D01*
X215509631Y-56572179D01*
X215515767Y-56578829D01*
X215525881Y-56590925D01*
X215535023Y-56603619D01*
X215544280Y-56618860D01*
X215551337Y-56632837D01*
X215554065Y-56639010D01*
X215560000Y-56653542D01*
X215564956Y-56669135D01*
X215564616Y-56674572D01*
X215566884Y-56658704D01*
X215572699Y-56644072D01*
X215574386Y-56640182D01*
X215581957Y-56624404D01*
X215590603Y-56609115D01*
X215600324Y-56594314D01*
X215609712Y-56581763D01*
X215611120Y-56580001D01*
X215621731Y-56568308D01*
X215633389Y-56557850D01*
X215646094Y-56548625D01*
X215659846Y-56540635D01*
X215668175Y-56536623D01*
X215683180Y-56530533D01*
X215698447Y-56525938D01*
X215713976Y-56522839D01*
X215729767Y-56521236D01*
X215738908Y-56520992D01*
X215756731Y-56521871D01*
X215773956Y-56524507D01*
X215790583Y-56528902D01*
X215806612Y-56535054D01*
X215815502Y-56539359D01*
X215830347Y-56547803D01*
X215844108Y-56557407D01*
X215856783Y-56568170D01*
X215868375Y-56580092D01*
X215874511Y-56587426D01*
X215884473Y-56600737D01*
X215893500Y-56614685D01*
X215901591Y-56629268D01*
X215908748Y-56644487D01*
X215912418Y-56653469D01*
X215918273Y-56669332D01*
X215923531Y-56685120D01*
X215928190Y-56700833D01*
X215932250Y-56716472D01*
X215934302Y-56725374D01*
X215937612Y-56741045D01*
X215940361Y-56756940D01*
X215942548Y-56773059D01*
X215944175Y-56789403D01*
X215944853Y-56798842D01*
X215945767Y-56815352D01*
X215946456Y-56831711D01*
X215946921Y-56847922D01*
X215947161Y-56863982D01*
X215947198Y-56873092D01*
X215947198Y-57734000D01*
X215670129Y-57734000D01*
X215670129Y-56869184D01*
X215669935Y-56853443D01*
X215669294Y-56837500D01*
X215668956Y-56832060D01*
X215667170Y-56815573D01*
X215664264Y-56800186D01*
X215663485Y-56796889D01*
X215658877Y-56780894D01*
X215652380Y-56766618D01*
X215651371Y-56764844D01*
X215641125Y-56752771D01*
X215633004Y-56750385D01*
X215618097Y-56756612D01*
X215611901Y-56764844D01*
X215604965Y-56779889D01*
X215600059Y-56795769D01*
X215599787Y-56796889D01*
X215596891Y-56812276D01*
X215594950Y-56828762D01*
X215594707Y-56832060D01*
X215594146Y-56848781D01*
X215593932Y-56865472D01*
X215593925Y-56869184D01*
X215593925Y-57734000D01*
X215316465Y-57734000D01*
X215316465Y-56869184D01*
X215316272Y-56853443D01*
X215315631Y-56837500D01*
X215315293Y-56832060D01*
X215313787Y-56815573D01*
X215310988Y-56800186D01*
X215310213Y-56796889D01*
X215305604Y-56780894D01*
X215299107Y-56766618D01*
X215298098Y-56764844D01*
X215287698Y-56753152D01*
X215277386Y-56750385D01*
X215263430Y-56757854D01*
X215258628Y-56764844D01*
X215251692Y-56779889D01*
X215246786Y-56795769D01*
X215246514Y-56796889D01*
X215243618Y-56812276D01*
X215241678Y-56828762D01*
X215241434Y-56832060D01*
X215240592Y-56848781D01*
X215240272Y-56865472D01*
X215240261Y-56869184D01*
X215240261Y-57734000D01*
X214963192Y-57734000D01*
G37*
G36*
X216593859Y-56521278D02*
G01*
X216613363Y-56522137D01*
X216629006Y-56523236D01*
X216644687Y-56524701D01*
X216660404Y-56526533D01*
X216676157Y-56528731D01*
X216691948Y-56531296D01*
X216699857Y-56532715D01*
X216715586Y-56535842D01*
X216731120Y-56539554D01*
X216746458Y-56543853D01*
X216761601Y-56548738D01*
X216776549Y-56554209D01*
X216791301Y-56560266D01*
X216805858Y-56566909D01*
X216820220Y-56574139D01*
X216834276Y-56581918D01*
X216847917Y-56590210D01*
X216861142Y-56599015D01*
X216873953Y-56608333D01*
X216886348Y-56618164D01*
X216898328Y-56628508D01*
X216909893Y-56639364D01*
X216921043Y-56650734D01*
X216931826Y-56662537D01*
X216942097Y-56674694D01*
X216951854Y-56687205D01*
X216961099Y-56700071D01*
X216969830Y-56713290D01*
X216978049Y-56726864D01*
X216985755Y-56740792D01*
X216992948Y-56755074D01*
X216999701Y-56769619D01*
X217005893Y-56784334D01*
X217011523Y-56799221D01*
X217016591Y-56814279D01*
X217021097Y-56829507D01*
X217025042Y-56844907D01*
X217028424Y-56860477D01*
X217031245Y-56876219D01*
X217033718Y-56891930D01*
X217035862Y-56907604D01*
X217037675Y-56923241D01*
X217039159Y-56938842D01*
X217040550Y-56958292D01*
X217041426Y-56977685D01*
X217041786Y-56997020D01*
X217041797Y-57000880D01*
X217041797Y-57269743D01*
X216422788Y-57269743D01*
X216422788Y-57270133D01*
X216423087Y-57286149D01*
X216423984Y-57302051D01*
X216425480Y-57317842D01*
X216427575Y-57333521D01*
X216429040Y-57342429D01*
X216433021Y-57359648D01*
X216438712Y-57376135D01*
X216446113Y-57391889D01*
X216455223Y-57406909D01*
X216466092Y-57420685D01*
X216478768Y-57433092D01*
X216491342Y-57442827D01*
X216505300Y-57451514D01*
X216509543Y-57453804D01*
X216524625Y-57460656D01*
X216539783Y-57465825D01*
X216557197Y-57469672D01*
X216574710Y-57471321D01*
X216579103Y-57471390D01*
X216596009Y-57470817D01*
X216612534Y-57469100D01*
X216628677Y-57466238D01*
X216631859Y-57465528D01*
X216647201Y-57460933D01*
X216662842Y-57454292D01*
X216677191Y-57445988D01*
X216690053Y-57435838D01*
X216700699Y-57423655D01*
X216708454Y-57410817D01*
X216714736Y-57395919D01*
X216719019Y-57380421D01*
X216721736Y-57364985D01*
X216722913Y-57354544D01*
X217037498Y-57354544D01*
X217036564Y-57371580D01*
X217035129Y-57388103D01*
X217033193Y-57404113D01*
X217030757Y-57419610D01*
X217027007Y-57438260D01*
X217022475Y-57456109D01*
X217017161Y-57473157D01*
X217016005Y-57476470D01*
X217009950Y-57492785D01*
X217003266Y-57508756D01*
X216995952Y-57524383D01*
X216988008Y-57539668D01*
X216979435Y-57554608D01*
X216970232Y-57569206D01*
X216966374Y-57574949D01*
X216956280Y-57588867D01*
X216945537Y-57602288D01*
X216934146Y-57615214D01*
X216922105Y-57627644D01*
X216909416Y-57639578D01*
X216896078Y-57651015D01*
X216890561Y-57655451D01*
X216876590Y-57666070D01*
X216862275Y-57675945D01*
X216847617Y-57685075D01*
X216832615Y-57693461D01*
X216817270Y-57701103D01*
X216801581Y-57708001D01*
X216795209Y-57710552D01*
X216779116Y-57716382D01*
X216762832Y-57721658D01*
X216746357Y-57726380D01*
X216729691Y-57730550D01*
X216712834Y-57734166D01*
X216695787Y-57737228D01*
X216688915Y-57738298D01*
X216671705Y-57740662D01*
X216654514Y-57742626D01*
X216637343Y-57744189D01*
X216620191Y-57745351D01*
X216603057Y-57746112D01*
X216585943Y-57746473D01*
X216579103Y-57746505D01*
X216559657Y-57746228D01*
X216540154Y-57745398D01*
X216524510Y-57744336D01*
X216508830Y-57742919D01*
X216493113Y-57741148D01*
X216477359Y-57739023D01*
X216461569Y-57736544D01*
X216453660Y-57735172D01*
X216437931Y-57732064D01*
X216422397Y-57728406D01*
X216407058Y-57724199D01*
X216391915Y-57719443D01*
X216376968Y-57714136D01*
X216362215Y-57708281D01*
X216347658Y-57701875D01*
X216333297Y-57694921D01*
X216319308Y-57687312D01*
X216305673Y-57679143D01*
X216292392Y-57670411D01*
X216279466Y-57661117D01*
X216266893Y-57651262D01*
X216254675Y-57640845D01*
X216242811Y-57629867D01*
X216231301Y-57618326D01*
X216220219Y-57606364D01*
X216209637Y-57594122D01*
X216199556Y-57581598D01*
X216189975Y-57568794D01*
X216180896Y-57555708D01*
X216172317Y-57542342D01*
X216164238Y-57528695D01*
X216156661Y-57514767D01*
X216149718Y-57500503D01*
X216143349Y-57486044D01*
X216137555Y-57471390D01*
X216132334Y-57456540D01*
X216127687Y-57441494D01*
X216123614Y-57426254D01*
X216120116Y-57410817D01*
X216117191Y-57395186D01*
X216114810Y-57379353D01*
X216112746Y-57363508D01*
X216110999Y-57347650D01*
X216109571Y-57331780D01*
X216108459Y-57315898D01*
X216107665Y-57300004D01*
X216107189Y-57284098D01*
X216107030Y-57268180D01*
X216107030Y-56999317D01*
X216107231Y-56983685D01*
X216422788Y-56983685D01*
X216726038Y-56984075D01*
X216725649Y-56966979D01*
X216724476Y-56950078D01*
X216722522Y-56933371D01*
X216719787Y-56916861D01*
X216715879Y-56900789D01*
X216710408Y-56885402D01*
X216703374Y-56870699D01*
X216694776Y-56856679D01*
X216684567Y-56843685D01*
X216672697Y-56832060D01*
X216659166Y-56821801D01*
X216643974Y-56812911D01*
X216629693Y-56806363D01*
X216612730Y-56800849D01*
X216597327Y-56797748D01*
X216581400Y-56796255D01*
X216574414Y-56796107D01*
X216558262Y-56796948D01*
X216542634Y-56799473D01*
X216527530Y-56803680D01*
X216512950Y-56809571D01*
X216504853Y-56813692D01*
X216489808Y-56823047D01*
X216476326Y-56833916D01*
X216464407Y-56846299D01*
X216454051Y-56860196D01*
X216445453Y-56875217D01*
X216438419Y-56890971D01*
X216432948Y-56907457D01*
X216429040Y-56924676D01*
X216426305Y-56941407D01*
X216424161Y-56958652D01*
X216422940Y-56975856D01*
X216422788Y-56983685D01*
X216107231Y-56983685D01*
X216107278Y-56979993D01*
X216108023Y-56960612D01*
X216109263Y-56941174D01*
X216110612Y-56925582D01*
X216112279Y-56909954D01*
X216114264Y-56894288D01*
X216116566Y-56878587D01*
X216117191Y-56874655D01*
X216120097Y-56859012D01*
X216123541Y-56843539D01*
X216127522Y-56828237D01*
X216132041Y-56813106D01*
X216137097Y-56798146D01*
X216142690Y-56783357D01*
X216148820Y-56768740D01*
X216155488Y-56754293D01*
X216162767Y-56740102D01*
X216170534Y-56726254D01*
X216178789Y-56712747D01*
X216187533Y-56699582D01*
X216196765Y-56686759D01*
X216206486Y-56674279D01*
X216216695Y-56662140D01*
X216227393Y-56650343D01*
X216238635Y-56638973D01*
X216250279Y-56628117D01*
X216262326Y-56617773D01*
X216274776Y-56607942D01*
X216287630Y-56598624D01*
X216300886Y-56589819D01*
X216314545Y-56581527D01*
X216328608Y-56573748D01*
X216342969Y-56566519D01*
X216357526Y-56559875D01*
X216372278Y-56553818D01*
X216387226Y-56548347D01*
X216402369Y-56543462D01*
X216417707Y-56539163D01*
X216433241Y-56535451D01*
X216448970Y-56532325D01*
X216464779Y-56529669D01*
X216480551Y-56527367D01*
X216496286Y-56525419D01*
X216511985Y-56523825D01*
X216527647Y-56522586D01*
X216543273Y-56521700D01*
X216562753Y-56521091D01*
X216574414Y-56520992D01*
X216593859Y-56521278D01*
G37*
G36*
X217527938Y-57734000D02*
G01*
X217527938Y-56319345D01*
X217217261Y-56319345D01*
X217217261Y-56033288D01*
X218170003Y-56033288D01*
X218170003Y-56319345D01*
X217859326Y-56319345D01*
X217859326Y-57734000D01*
X217527938Y-57734000D01*
G37*
G36*
X218363834Y-57734000D02*
G01*
X218363834Y-56033288D01*
X218697177Y-56033288D01*
X218692878Y-56676526D01*
X218699034Y-56661241D01*
X218707809Y-56647881D01*
X218715153Y-56637447D01*
X218725155Y-56624267D01*
X218735816Y-56611691D01*
X218747137Y-56599720D01*
X218759117Y-56588354D01*
X218771757Y-56577592D01*
X218776116Y-56574139D01*
X218789727Y-56564389D01*
X218803887Y-56555656D01*
X218818596Y-56547939D01*
X218833855Y-56541240D01*
X218849664Y-56535556D01*
X218855056Y-56533888D01*
X218871496Y-56529505D01*
X218887992Y-56526029D01*
X218904542Y-56523460D01*
X218921148Y-56521798D01*
X218937808Y-56521042D01*
X218943374Y-56520992D01*
X218960310Y-56521488D01*
X218977171Y-56522976D01*
X218993955Y-56525457D01*
X219010663Y-56528930D01*
X219027294Y-56533395D01*
X219043849Y-56538852D01*
X219050450Y-56541313D01*
X219066677Y-56548037D01*
X219082140Y-56555754D01*
X219096841Y-56564462D01*
X219110778Y-56574163D01*
X219123952Y-56584857D01*
X219136362Y-56596542D01*
X219141113Y-56601494D01*
X219152596Y-56614161D01*
X219163354Y-56627247D01*
X219173387Y-56640752D01*
X219182695Y-56654678D01*
X219191278Y-56669024D01*
X219199136Y-56683789D01*
X219202076Y-56689812D01*
X219209052Y-56705041D01*
X219215570Y-56720442D01*
X219221630Y-56736014D01*
X219227233Y-56751759D01*
X219232377Y-56767674D01*
X219237064Y-56783762D01*
X219238810Y-56790245D01*
X219242968Y-56806422D01*
X219246649Y-56822714D01*
X219249852Y-56839120D01*
X219252579Y-56855641D01*
X219254829Y-56872276D01*
X219256601Y-56889026D01*
X219257177Y-56895758D01*
X219258528Y-56912460D01*
X219259650Y-56929105D01*
X219260543Y-56945692D01*
X219261207Y-56962223D01*
X219261642Y-56978696D01*
X219261848Y-56995111D01*
X219261866Y-57001662D01*
X219261866Y-57734000D01*
X218928524Y-57734000D01*
X218928524Y-57001271D01*
X218928255Y-56984638D01*
X218927449Y-56967956D01*
X218926106Y-56951226D01*
X218924225Y-56934446D01*
X218921563Y-56917911D01*
X218917875Y-56901913D01*
X218913161Y-56886452D01*
X218907421Y-56871529D01*
X218900289Y-56857461D01*
X218891399Y-56844565D01*
X218880750Y-56832841D01*
X218868342Y-56822290D01*
X218855056Y-56813399D01*
X218839641Y-56806434D01*
X218823731Y-56802683D01*
X218812850Y-56801969D01*
X218796580Y-56803576D01*
X218780743Y-56808398D01*
X218765339Y-56816436D01*
X218756968Y-56822290D01*
X218744731Y-56832841D01*
X218734204Y-56844565D01*
X218724405Y-56859155D01*
X218718280Y-56871529D01*
X218712540Y-56886452D01*
X218707826Y-56901913D01*
X218704138Y-56917911D01*
X218701476Y-56934446D01*
X218699595Y-56951226D01*
X218698252Y-56967956D01*
X218697446Y-56984638D01*
X218697177Y-57001271D01*
X218697177Y-57734000D01*
X218363834Y-57734000D01*
G37*
G36*
X219525649Y-57734000D02*
G01*
X219525649Y-57447942D01*
X219782397Y-57447942D01*
X219782397Y-56819554D01*
X219557303Y-56819554D01*
X219557303Y-56533497D01*
X220113395Y-56533497D01*
X220113395Y-57447942D01*
X220338489Y-57447942D01*
X220338489Y-57734000D01*
X219525649Y-57734000D01*
G37*
G36*
X219932069Y-56408445D02*
G01*
X219916082Y-56407991D01*
X219900067Y-56406631D01*
X219884025Y-56404364D01*
X219867955Y-56401191D01*
X219851858Y-56397110D01*
X219846486Y-56395549D01*
X219830939Y-56389989D01*
X219816243Y-56383275D01*
X219802399Y-56375408D01*
X219789407Y-56366386D01*
X219777266Y-56356210D01*
X219773409Y-56352562D01*
X219762715Y-56340852D01*
X219753204Y-56328290D01*
X219744873Y-56314877D01*
X219737725Y-56300612D01*
X219731758Y-56285494D01*
X219730031Y-56280266D01*
X219725648Y-56264320D01*
X219722173Y-56248429D01*
X219719603Y-56232593D01*
X219717941Y-56216812D01*
X219717185Y-56201086D01*
X219717135Y-56195856D01*
X219717588Y-56180162D01*
X219718949Y-56164440D01*
X219721215Y-56148691D01*
X219724389Y-56132914D01*
X219728469Y-56117110D01*
X219730031Y-56111836D01*
X219735604Y-56096316D01*
X219742359Y-56081703D01*
X219750296Y-56067996D01*
X219759414Y-56055196D01*
X219769713Y-56043303D01*
X219773409Y-56039540D01*
X219785265Y-56028861D01*
X219797973Y-56019390D01*
X219811533Y-56011129D01*
X219825945Y-56004076D01*
X219841209Y-55998233D01*
X219846486Y-55996554D01*
X219862592Y-55992038D01*
X219878671Y-55988457D01*
X219894723Y-55985810D01*
X219910746Y-55984097D01*
X219926743Y-55983319D01*
X219932069Y-55983267D01*
X219948042Y-55983734D01*
X219964016Y-55985135D01*
X219979989Y-55987471D01*
X219995963Y-55990741D01*
X220011936Y-55994945D01*
X220017261Y-55996554D01*
X220032927Y-56001994D01*
X220047687Y-56008644D01*
X220061540Y-56016502D01*
X220074487Y-56025570D01*
X220086526Y-56035846D01*
X220090338Y-56039540D01*
X220101150Y-56051131D01*
X220110726Y-56063629D01*
X220119066Y-56077033D01*
X220126169Y-56091344D01*
X220132035Y-56106562D01*
X220133716Y-56111836D01*
X220138231Y-56127649D01*
X220141812Y-56143435D01*
X220144459Y-56159193D01*
X220146172Y-56174924D01*
X220146951Y-56190627D01*
X220147002Y-56195856D01*
X220146535Y-56211564D01*
X220145134Y-56227326D01*
X220142798Y-56243144D01*
X220139529Y-56259017D01*
X220135325Y-56274945D01*
X220133716Y-56280266D01*
X220128261Y-56295667D01*
X220121571Y-56310216D01*
X220113644Y-56323914D01*
X220104480Y-56336759D01*
X220094080Y-56348753D01*
X220090338Y-56352562D01*
X220078601Y-56363122D01*
X220065957Y-56372529D01*
X220052406Y-56380781D01*
X220037948Y-56387879D01*
X220022584Y-56393824D01*
X220017261Y-56395549D01*
X220001287Y-56399931D01*
X219985314Y-56403407D01*
X219969340Y-56405976D01*
X219953367Y-56407639D01*
X219937393Y-56408394D01*
X219932069Y-56408445D01*
G37*
G36*
X220602271Y-57734000D02*
G01*
X220602271Y-56533497D01*
X220935614Y-56533497D01*
X220931315Y-56673009D01*
X220937471Y-56657999D01*
X220946246Y-56644920D01*
X220953590Y-56634711D01*
X220963606Y-56621705D01*
X220974308Y-56609359D01*
X220985697Y-56597672D01*
X220997774Y-56586644D01*
X221010537Y-56576276D01*
X221014944Y-56572967D01*
X221028554Y-56563496D01*
X221042714Y-56555015D01*
X221057424Y-56547523D01*
X221072683Y-56541020D01*
X221088492Y-56535506D01*
X221093883Y-56533888D01*
X221110191Y-56529505D01*
X221126581Y-56526029D01*
X221143054Y-56523460D01*
X221159609Y-56521798D01*
X221176246Y-56521042D01*
X221181811Y-56520992D01*
X221198747Y-56521488D01*
X221215608Y-56522976D01*
X221232392Y-56525457D01*
X221249099Y-56528930D01*
X221265731Y-56533395D01*
X221282286Y-56538852D01*
X221288887Y-56541313D01*
X221305114Y-56548037D01*
X221320577Y-56555754D01*
X221335278Y-56564462D01*
X221349215Y-56574163D01*
X221362388Y-56584857D01*
X221374799Y-56596542D01*
X221379550Y-56601494D01*
X221391033Y-56614161D01*
X221401791Y-56627247D01*
X221411824Y-56640752D01*
X221421132Y-56654678D01*
X221429715Y-56669024D01*
X221437573Y-56683789D01*
X221440513Y-56689812D01*
X221447489Y-56705041D01*
X221454007Y-56720442D01*
X221460067Y-56736014D01*
X221465670Y-56751759D01*
X221470814Y-56767674D01*
X221475500Y-56783762D01*
X221477247Y-56790245D01*
X221481405Y-56806422D01*
X221485085Y-56822714D01*
X221488289Y-56839120D01*
X221491016Y-56855641D01*
X221493266Y-56872276D01*
X221495038Y-56889026D01*
X221495614Y-56895758D01*
X221496965Y-56912460D01*
X221498087Y-56929105D01*
X221498980Y-56945692D01*
X221499644Y-56962223D01*
X221500079Y-56978696D01*
X221500285Y-56995111D01*
X221500303Y-57001662D01*
X221500303Y-57734000D01*
X221166961Y-57734000D01*
X221166961Y-56997754D01*
X221166692Y-56981121D01*
X221165886Y-56964439D01*
X221164543Y-56947709D01*
X221162662Y-56930929D01*
X221160000Y-56914223D01*
X221156312Y-56898103D01*
X221151598Y-56882569D01*
X221145858Y-56867621D01*
X221138726Y-56853528D01*
X221129836Y-56840559D01*
X221119187Y-56828713D01*
X221106779Y-56817991D01*
X221093492Y-56809101D01*
X221078078Y-56802135D01*
X221062168Y-56798385D01*
X221051287Y-56797670D01*
X221035017Y-56799278D01*
X221019180Y-56804100D01*
X221003775Y-56812137D01*
X220995404Y-56817991D01*
X220983168Y-56828713D01*
X220972641Y-56840559D01*
X220963824Y-56853528D01*
X220956716Y-56867621D01*
X220950977Y-56882569D01*
X220946263Y-56898103D01*
X220942575Y-56914223D01*
X220939912Y-56930929D01*
X220938032Y-56947709D01*
X220936688Y-56964439D01*
X220935882Y-56981121D01*
X220935614Y-56997754D01*
X220935614Y-57734000D01*
X220602271Y-57734000D01*
G37*
G36*
X222054303Y-56521404D02*
G01*
X222070885Y-56522640D01*
X222087385Y-56524701D01*
X222103803Y-56527586D01*
X222120138Y-56531296D01*
X222125565Y-56532715D01*
X222141717Y-56537487D01*
X222157347Y-56543303D01*
X222172455Y-56550164D01*
X222187041Y-56558068D01*
X222201105Y-56567016D01*
X222205677Y-56570231D01*
X222219067Y-56580407D01*
X222231688Y-56591297D01*
X222243540Y-56602902D01*
X222254623Y-56615221D01*
X222264936Y-56628254D01*
X222268203Y-56632757D01*
X222278084Y-56647068D01*
X222286668Y-56660796D01*
X222290478Y-56672227D01*
X222286179Y-56533497D01*
X222619522Y-56533497D01*
X222619522Y-57752757D01*
X222619274Y-57772062D01*
X222618529Y-57791386D01*
X222617289Y-57810729D01*
X222615553Y-57830091D01*
X222613320Y-57849472D01*
X222611177Y-57864990D01*
X222609361Y-57876637D01*
X222606577Y-57892110D01*
X222603304Y-57907461D01*
X222599543Y-57922689D01*
X222595293Y-57937796D01*
X222590554Y-57952780D01*
X222585328Y-57967642D01*
X222579612Y-57982382D01*
X222573409Y-57997000D01*
X222566784Y-58011368D01*
X222559609Y-58025357D01*
X222551885Y-58038967D01*
X222541457Y-58055448D01*
X222530170Y-58071337D01*
X222518025Y-58086635D01*
X222507690Y-58098447D01*
X222505021Y-58101341D01*
X222494072Y-58112729D01*
X222482721Y-58123640D01*
X222470967Y-58134075D01*
X222458810Y-58144034D01*
X222446250Y-58153517D01*
X222433287Y-58162524D01*
X222419920Y-58171054D01*
X222406151Y-58179108D01*
X222392077Y-58186710D01*
X222377795Y-58193689D01*
X222363305Y-58200045D01*
X222348608Y-58205779D01*
X222333703Y-58210890D01*
X222318590Y-58215378D01*
X222303270Y-58219243D01*
X222287742Y-58222485D01*
X222272214Y-58225233D01*
X222256699Y-58227614D01*
X222241196Y-58229629D01*
X222221834Y-58231633D01*
X222202491Y-58233064D01*
X222183167Y-58233923D01*
X222163862Y-58234209D01*
X222145958Y-58233980D01*
X222128149Y-58233293D01*
X222110436Y-58232148D01*
X222092818Y-58230545D01*
X222075296Y-58228484D01*
X222057868Y-58225966D01*
X222050924Y-58224830D01*
X222033688Y-58221556D01*
X222016662Y-58217594D01*
X221999845Y-58212946D01*
X221983239Y-58207611D01*
X221966842Y-58201589D01*
X221950655Y-58194880D01*
X221944239Y-58192004D01*
X221928554Y-58184295D01*
X221913251Y-58175823D01*
X221898329Y-58166587D01*
X221883789Y-58156588D01*
X221869631Y-58145827D01*
X221855854Y-58134301D01*
X221850450Y-58129478D01*
X221837350Y-58117130D01*
X221824919Y-58104267D01*
X221813155Y-58090889D01*
X221802059Y-58076996D01*
X221791631Y-58062587D01*
X221781871Y-58047664D01*
X221778154Y-58041550D01*
X221769451Y-58026020D01*
X221761416Y-58010203D01*
X221754048Y-57994100D01*
X221747349Y-57977711D01*
X221741317Y-57961036D01*
X221735953Y-57944074D01*
X221733995Y-57937210D01*
X221729650Y-57919647D01*
X221725897Y-57901397D01*
X221722735Y-57882461D01*
X221720631Y-57866817D01*
X221718906Y-57850734D01*
X221717560Y-57834211D01*
X221716592Y-57817248D01*
X221716409Y-57812939D01*
X222050143Y-57812939D01*
X222050582Y-57829816D01*
X222052128Y-57847110D01*
X222054786Y-57862610D01*
X222057177Y-57871948D01*
X222063159Y-57887505D01*
X222070896Y-57901400D01*
X222079452Y-57912590D01*
X222090761Y-57923442D01*
X222103733Y-57932354D01*
X222116968Y-57938773D01*
X222132559Y-57944112D01*
X222148704Y-57947236D01*
X222163862Y-57948152D01*
X222180383Y-57946606D01*
X222196533Y-57941969D01*
X222212312Y-57934241D01*
X222220917Y-57928612D01*
X222233960Y-57918427D01*
X222245342Y-57907021D01*
X222255063Y-57894394D01*
X222263123Y-57880545D01*
X222269717Y-57865964D01*
X222275042Y-57850748D01*
X222279096Y-57834896D01*
X222281880Y-57818410D01*
X222283761Y-57801704D01*
X222285104Y-57784802D01*
X222285910Y-57767705D01*
X222286179Y-57750413D01*
X222290478Y-57592143D01*
X222284322Y-57607653D01*
X222275547Y-57621520D01*
X222268203Y-57632394D01*
X222258146Y-57645959D01*
X222247320Y-57658809D01*
X222235725Y-57670945D01*
X222223360Y-57682367D01*
X222210226Y-57693074D01*
X222205677Y-57696484D01*
X222191787Y-57705927D01*
X222177375Y-57714326D01*
X222162441Y-57721681D01*
X222146985Y-57727991D01*
X222131007Y-57733258D01*
X222125565Y-57734781D01*
X222109257Y-57738765D01*
X222092867Y-57741925D01*
X222076394Y-57744261D01*
X222059839Y-57745772D01*
X222043202Y-57746459D01*
X222037638Y-57746505D01*
X222020138Y-57746047D01*
X222002810Y-57744673D01*
X221985654Y-57742383D01*
X221968669Y-57739177D01*
X221951857Y-57735056D01*
X221935216Y-57730018D01*
X221928608Y-57727747D01*
X221912426Y-57721408D01*
X221896856Y-57714115D01*
X221881896Y-57705868D01*
X221867547Y-57696667D01*
X221853808Y-57686512D01*
X221840680Y-57675403D01*
X221835600Y-57670692D01*
X221823458Y-57658363D01*
X221811946Y-57645558D01*
X221801064Y-57632275D01*
X221790812Y-57618515D01*
X221781189Y-57604279D01*
X221772196Y-57589565D01*
X221768775Y-57583546D01*
X221760757Y-57568195D01*
X221753311Y-57552672D01*
X221746438Y-57536978D01*
X221740138Y-57521111D01*
X221734409Y-57505073D01*
X221729253Y-57488864D01*
X221727351Y-57482332D01*
X221722959Y-57465826D01*
X221719062Y-57449283D01*
X221715662Y-57432701D01*
X221712758Y-57416081D01*
X221710350Y-57399423D01*
X221708438Y-57382726D01*
X221707812Y-57376037D01*
X221706461Y-57359184D01*
X221705339Y-57342332D01*
X221704446Y-57325479D01*
X221703782Y-57308626D01*
X221703347Y-57291773D01*
X221703141Y-57274921D01*
X221703123Y-57268180D01*
X221703123Y-57265835D01*
X222036856Y-57265835D01*
X222037173Y-57283396D01*
X222038126Y-57300908D01*
X222039714Y-57318371D01*
X222041936Y-57335786D01*
X222045307Y-57352663D01*
X222049947Y-57368905D01*
X222055858Y-57384512D01*
X222063039Y-57399484D01*
X222071661Y-57413284D01*
X222081894Y-57425765D01*
X222093740Y-57436927D01*
X222107198Y-57446770D01*
X222121706Y-57454806D01*
X222136702Y-57460545D01*
X222152187Y-57463989D01*
X222168161Y-57465137D01*
X222184607Y-57463847D01*
X222200925Y-57459977D01*
X222208412Y-57457321D01*
X222222535Y-57450067D01*
X222235010Y-57440615D01*
X222242411Y-57433092D01*
X222252376Y-57420526D01*
X222260582Y-57406861D01*
X222265076Y-57397140D01*
X222271030Y-57381734D01*
X222275994Y-57365999D01*
X222278754Y-57355325D01*
X222282198Y-57339040D01*
X222284323Y-57322426D01*
X222285007Y-57311166D01*
X222285674Y-57295407D01*
X222286086Y-57278426D01*
X222286179Y-57265835D01*
X222286179Y-56995800D01*
X222286014Y-56979039D01*
X222285520Y-56962168D01*
X222285007Y-56950859D01*
X222283915Y-56935193D01*
X222281461Y-56918523D01*
X222278754Y-56906309D01*
X222274449Y-56890409D01*
X222269155Y-56874949D01*
X222265076Y-56864886D01*
X222258042Y-56850250D01*
X222249250Y-56836822D01*
X222242411Y-56828542D01*
X222231035Y-56817680D01*
X222216851Y-56808516D01*
X222208412Y-56804704D01*
X222193410Y-56799703D01*
X222177033Y-56796890D01*
X222168161Y-56796498D01*
X222152187Y-56797646D01*
X222136702Y-56801090D01*
X222121706Y-56806829D01*
X222107198Y-56814865D01*
X222093740Y-56824732D01*
X222081894Y-56835967D01*
X222071661Y-56848570D01*
X222063039Y-56862541D01*
X222055858Y-56877367D01*
X222049947Y-56892925D01*
X222045307Y-56909216D01*
X222041936Y-56926240D01*
X222039714Y-56943483D01*
X222038126Y-56960824D01*
X222037173Y-56978263D01*
X222036856Y-56995800D01*
X222036856Y-57265835D01*
X221703123Y-57265835D01*
X221703123Y-56999317D01*
X221703237Y-56982474D01*
X221703580Y-56965650D01*
X221704153Y-56948845D01*
X221704954Y-56932059D01*
X221705985Y-56915292D01*
X221707244Y-56898544D01*
X221707812Y-56891850D01*
X221709526Y-56875036D01*
X221711735Y-56858297D01*
X221714441Y-56841635D01*
X221717643Y-56825050D01*
X221721341Y-56808540D01*
X221725535Y-56792107D01*
X221727351Y-56785556D01*
X221732278Y-56769174D01*
X221737778Y-56753003D01*
X221743849Y-56737041D01*
X221750493Y-56721289D01*
X221757710Y-56705747D01*
X221765499Y-56690415D01*
X221768775Y-56684341D01*
X221777516Y-56669334D01*
X221786887Y-56654841D01*
X221796888Y-56640864D01*
X221807518Y-56627402D01*
X221818778Y-56614456D01*
X221830668Y-56602024D01*
X221835600Y-56597196D01*
X221848484Y-56585592D01*
X221861978Y-56574962D01*
X221876083Y-56565305D01*
X221890799Y-56556621D01*
X221906125Y-56548910D01*
X221922062Y-56542172D01*
X221928608Y-56539750D01*
X221945180Y-56534346D01*
X221961924Y-56529858D01*
X221978839Y-56526286D01*
X221995927Y-56523630D01*
X222013186Y-56521889D01*
X222030617Y-56521065D01*
X222037638Y-56520992D01*
X222054303Y-56521404D01*
G37*
G36*
X214331287Y-60434505D02*
G01*
X214312677Y-60434247D01*
X214293971Y-60433474D01*
X214275170Y-60432186D01*
X214256274Y-60430383D01*
X214237282Y-60428065D01*
X214218195Y-60425231D01*
X214210533Y-60423953D01*
X214191606Y-60420311D01*
X214172927Y-60415733D01*
X214154497Y-60410221D01*
X214136314Y-60403773D01*
X214118379Y-60396390D01*
X214100693Y-60388073D01*
X214093687Y-60384484D01*
X214079991Y-60376827D01*
X214063370Y-60366603D01*
X214047301Y-60355654D01*
X214031786Y-60343980D01*
X214016824Y-60331581D01*
X214002416Y-60318457D01*
X213994036Y-60310234D01*
X213980609Y-60296064D01*
X213967925Y-60281398D01*
X213955986Y-60266236D01*
X213944791Y-60250578D01*
X213934340Y-60234423D01*
X213924633Y-60217773D01*
X213920959Y-60210974D01*
X213912284Y-60193592D01*
X213904335Y-60175887D01*
X213897111Y-60157857D01*
X213890612Y-60139502D01*
X213885934Y-60124585D01*
X213881721Y-60109460D01*
X213877972Y-60094128D01*
X213874766Y-60078478D01*
X213871988Y-60062401D01*
X213869637Y-60045896D01*
X213867714Y-60028964D01*
X213866218Y-60011604D01*
X213865149Y-59993817D01*
X213864508Y-59975603D01*
X213864294Y-59956961D01*
X214197637Y-59956961D01*
X214197898Y-59973241D01*
X214198863Y-59991159D01*
X214200537Y-60007916D01*
X214202923Y-60023515D01*
X214205062Y-60033946D01*
X214209361Y-60049651D01*
X214214832Y-60064721D01*
X214221475Y-60079156D01*
X214229291Y-60092956D01*
X214239578Y-60107134D01*
X214251534Y-60119334D01*
X214265159Y-60129555D01*
X214273450Y-60134379D01*
X214289085Y-60141180D01*
X214305214Y-60145755D01*
X214321838Y-60148104D01*
X214331287Y-60148448D01*
X214347431Y-60147422D01*
X214363038Y-60144344D01*
X214378108Y-60139215D01*
X214392641Y-60132034D01*
X214406391Y-60122924D01*
X214418726Y-60112397D01*
X214429643Y-60100454D01*
X214439144Y-60087094D01*
X214447473Y-60072635D01*
X214454483Y-60057394D01*
X214460174Y-60041371D01*
X214464546Y-60024568D01*
X214467794Y-60007471D01*
X214470114Y-59990569D01*
X214471507Y-59973863D01*
X214471971Y-59957352D01*
X214471215Y-59938997D01*
X214468948Y-59920862D01*
X214465170Y-59902947D01*
X214459881Y-59885251D01*
X214453080Y-59867776D01*
X214450477Y-59862000D01*
X214443530Y-59847923D01*
X214434261Y-59831913D01*
X214423975Y-59816865D01*
X214412673Y-59802778D01*
X214400354Y-59789653D01*
X214393813Y-59783451D01*
X214380120Y-59771604D01*
X214365713Y-59760388D01*
X214350591Y-59749805D01*
X214334755Y-59739854D01*
X214321013Y-59732044D01*
X214312529Y-59727568D01*
X214298353Y-59720174D01*
X214284159Y-59712647D01*
X214269945Y-59704985D01*
X214255712Y-59697191D01*
X214241460Y-59689262D01*
X214227189Y-59681200D01*
X214221475Y-59677938D01*
X214207385Y-59669670D01*
X214193448Y-59661230D01*
X214179664Y-59652619D01*
X214166032Y-59643836D01*
X214152553Y-59634881D01*
X214139226Y-59625754D01*
X214133939Y-59622055D01*
X214120854Y-59612518D01*
X214107980Y-59602714D01*
X214095316Y-59592643D01*
X214082861Y-59582305D01*
X214070617Y-59571699D01*
X214058582Y-59560827D01*
X214053827Y-59556403D01*
X214042115Y-59545147D01*
X214030670Y-59533604D01*
X214019492Y-59521776D01*
X214008581Y-59509661D01*
X213997937Y-59497260D01*
X213987561Y-59484573D01*
X213983485Y-59479418D01*
X213973710Y-59466179D01*
X213964411Y-59452597D01*
X213955590Y-59438671D01*
X213947245Y-59424402D01*
X213939378Y-59409789D01*
X213931988Y-59394833D01*
X213929165Y-59388755D01*
X213922613Y-59373413D01*
X213916633Y-59357919D01*
X213911225Y-59342272D01*
X213906390Y-59326473D01*
X213902127Y-59310521D01*
X213898437Y-59294416D01*
X213897121Y-59287931D01*
X213894194Y-59271605D01*
X213891763Y-59255355D01*
X213889828Y-59239182D01*
X213888389Y-59223085D01*
X213887446Y-59207064D01*
X213887000Y-59191119D01*
X213886960Y-59184763D01*
X213887266Y-59165290D01*
X213888181Y-59145951D01*
X213889708Y-59126746D01*
X213891845Y-59107674D01*
X213894593Y-59088735D01*
X213897951Y-59069931D01*
X213899465Y-59062446D01*
X213903717Y-59043716D01*
X213908655Y-59025138D01*
X213914280Y-59006713D01*
X213920592Y-58988441D01*
X213927592Y-58970321D01*
X213935278Y-58952354D01*
X213938544Y-58945210D01*
X213945426Y-58931111D01*
X213954698Y-58913951D01*
X213964713Y-58897306D01*
X213975473Y-58881176D01*
X213986978Y-58865562D01*
X213999226Y-58850463D01*
X214006932Y-58841651D01*
X214017661Y-58830281D01*
X214031569Y-58816790D01*
X214046031Y-58804101D01*
X214061046Y-58792214D01*
X214076615Y-58781127D01*
X214092737Y-58770842D01*
X214102675Y-58765056D01*
X214119587Y-58755960D01*
X214136862Y-58747722D01*
X214154499Y-58740344D01*
X214172498Y-58733823D01*
X214190861Y-58728162D01*
X214209585Y-58723359D01*
X214217177Y-58721678D01*
X214232527Y-58718656D01*
X214251750Y-58715445D01*
X214271011Y-58712863D01*
X214290310Y-58710911D01*
X214309647Y-58709588D01*
X214329022Y-58708896D01*
X214340666Y-58708782D01*
X214359247Y-58709069D01*
X214377867Y-58709927D01*
X214396525Y-58711358D01*
X214415221Y-58713362D01*
X214433955Y-58715938D01*
X214452727Y-58719086D01*
X214460247Y-58720506D01*
X214478892Y-58724609D01*
X214497212Y-58729589D01*
X214515207Y-58735447D01*
X214532879Y-58742183D01*
X214550226Y-58749796D01*
X214567248Y-58758287D01*
X214573966Y-58761930D01*
X214590411Y-58771490D01*
X214606283Y-58781851D01*
X214621582Y-58793013D01*
X214636309Y-58804978D01*
X214650464Y-58817743D01*
X214664046Y-58831310D01*
X214669319Y-58836961D01*
X214682014Y-58851394D01*
X214693965Y-58866362D01*
X214705171Y-58881864D01*
X214715633Y-58897900D01*
X214725352Y-58914470D01*
X214734326Y-58931575D01*
X214737707Y-58938566D01*
X214745780Y-58956115D01*
X214753148Y-58973836D01*
X214759809Y-58991729D01*
X214765764Y-59009793D01*
X214771014Y-59028030D01*
X214775557Y-59046438D01*
X214777177Y-59053849D01*
X214780779Y-59072793D01*
X214783222Y-59088498D01*
X214785273Y-59104691D01*
X214786934Y-59121373D01*
X214788204Y-59138543D01*
X214789083Y-59156202D01*
X214789572Y-59174349D01*
X214789682Y-59188280D01*
X214456339Y-59188280D01*
X214456147Y-59171908D01*
X214455436Y-59154023D01*
X214454202Y-59137447D01*
X214452150Y-59120106D01*
X214450868Y-59112076D01*
X214447141Y-59094924D01*
X214442117Y-59078636D01*
X214435793Y-59063215D01*
X214431719Y-59055021D01*
X214423287Y-59041193D01*
X214412939Y-59028725D01*
X214400674Y-59017618D01*
X214393031Y-59012034D01*
X214378778Y-59003723D01*
X214364153Y-58998131D01*
X214347468Y-58995108D01*
X214340666Y-58994840D01*
X214324018Y-58996293D01*
X214307926Y-59000651D01*
X214292391Y-59007915D01*
X214284001Y-59013207D01*
X214271692Y-59022854D01*
X214259711Y-59035284D01*
X214249710Y-59049384D01*
X214244141Y-59059711D01*
X214237913Y-59074072D01*
X214232515Y-59089020D01*
X214227948Y-59104554D01*
X214224211Y-59120674D01*
X214221475Y-59136916D01*
X214219521Y-59153207D01*
X214218349Y-59169547D01*
X214217958Y-59185935D01*
X214218659Y-59204249D01*
X214220761Y-59222260D01*
X214224264Y-59239969D01*
X214229169Y-59257376D01*
X214235475Y-59274481D01*
X214237888Y-59280115D01*
X214246086Y-59296583D01*
X214255437Y-59312282D01*
X214265943Y-59327211D01*
X214277602Y-59341371D01*
X214290416Y-59354762D01*
X214294943Y-59359055D01*
X214309021Y-59371300D01*
X214323703Y-59382832D01*
X214338990Y-59393649D01*
X214352190Y-59402117D01*
X214365811Y-59410089D01*
X214377009Y-59416110D01*
X214391259Y-59423363D01*
X214405433Y-59430711D01*
X214419530Y-59438155D01*
X214433551Y-59445694D01*
X214447496Y-59453328D01*
X214461364Y-59461058D01*
X214466890Y-59464177D01*
X214480784Y-59472117D01*
X214494620Y-59480304D01*
X214508398Y-59488740D01*
X214522120Y-59497424D01*
X214535784Y-59506356D01*
X214549391Y-59515536D01*
X214554818Y-59519278D01*
X214568240Y-59528712D01*
X214581395Y-59538451D01*
X214594282Y-59548495D01*
X214606903Y-59558845D01*
X214619256Y-59569500D01*
X214631342Y-59580461D01*
X214636102Y-59584930D01*
X214647805Y-59596215D01*
X214659221Y-59607843D01*
X214670351Y-59619815D01*
X214681195Y-59632130D01*
X214691753Y-59644789D01*
X214702025Y-59657791D01*
X214706053Y-59663088D01*
X214715931Y-59676523D01*
X214725295Y-59690207D01*
X214734143Y-59704138D01*
X214742476Y-59718318D01*
X214750293Y-59732745D01*
X214757596Y-59747421D01*
X214760373Y-59753360D01*
X214767038Y-59768374D01*
X214773111Y-59783616D01*
X214778594Y-59799087D01*
X214783484Y-59814787D01*
X214787783Y-59830717D01*
X214791491Y-59846875D01*
X214792808Y-59853402D01*
X214795848Y-59869673D01*
X214798372Y-59886001D01*
X214800382Y-59902386D01*
X214801876Y-59918829D01*
X214802854Y-59935328D01*
X214803318Y-59951885D01*
X214803359Y-59958524D01*
X214803140Y-59974247D01*
X214802480Y-59989958D01*
X214801381Y-60005657D01*
X214799842Y-60021344D01*
X214797864Y-60037018D01*
X214795446Y-60052680D01*
X214792588Y-60068330D01*
X214789291Y-60083967D01*
X214785560Y-60099404D01*
X214781402Y-60114644D01*
X214776816Y-60129690D01*
X214771803Y-60144540D01*
X214766363Y-60159194D01*
X214758961Y-60177238D01*
X214750891Y-60194976D01*
X214747477Y-60201986D01*
X214738518Y-60219117D01*
X214728739Y-60235828D01*
X214718139Y-60252120D01*
X214709068Y-60264851D01*
X214699473Y-60277314D01*
X214689352Y-60289508D01*
X214678706Y-60301433D01*
X214675962Y-60304372D01*
X214664739Y-60315748D01*
X214653150Y-60326623D01*
X214641194Y-60336997D01*
X214628872Y-60346870D01*
X214616184Y-60356243D01*
X214603129Y-60365115D01*
X214589708Y-60373487D01*
X214575920Y-60381357D01*
X214561938Y-60388587D01*
X214547735Y-60395230D01*
X214533312Y-60401288D01*
X214514975Y-60408035D01*
X214500058Y-60412773D01*
X214484921Y-60416925D01*
X214469564Y-60420491D01*
X214457902Y-60422781D01*
X214442332Y-60425529D01*
X214426688Y-60427910D01*
X214410971Y-60429925D01*
X214395181Y-60431574D01*
X214379317Y-60432856D01*
X214363380Y-60433772D01*
X214347370Y-60434322D01*
X214331287Y-60434505D01*
G37*
G36*
X215459884Y-60434505D02*
G01*
X215440457Y-60434219D01*
X215421011Y-60433360D01*
X215401546Y-60431929D01*
X215385961Y-60430372D01*
X215370363Y-60428448D01*
X215354752Y-60426158D01*
X215339130Y-60423502D01*
X215335223Y-60422781D01*
X215319786Y-60419667D01*
X215304546Y-60415991D01*
X215285770Y-60410606D01*
X215267299Y-60404344D01*
X215249133Y-60397204D01*
X215234820Y-60390859D01*
X215220703Y-60383953D01*
X215217204Y-60382139D01*
X215203490Y-60374561D01*
X215190093Y-60366483D01*
X215177014Y-60357904D01*
X215164253Y-60348824D01*
X215151808Y-60339244D01*
X215139682Y-60329163D01*
X215127873Y-60318581D01*
X215116381Y-60307498D01*
X215105396Y-60295909D01*
X215094912Y-60284002D01*
X215084929Y-60271778D01*
X215075446Y-60259236D01*
X215066464Y-60246377D01*
X215057983Y-60233200D01*
X215050002Y-60219705D01*
X215042522Y-60205893D01*
X215035506Y-60191727D01*
X215028918Y-60177366D01*
X215022757Y-60162809D01*
X215017023Y-60148057D01*
X215011717Y-60133109D01*
X215006838Y-60117966D01*
X215002387Y-60102628D01*
X214998363Y-60087094D01*
X214994882Y-60071261D01*
X214991866Y-60055025D01*
X214989314Y-60038386D01*
X214987225Y-60021344D01*
X214985601Y-60003898D01*
X214984441Y-59986050D01*
X214983745Y-59967799D01*
X214983513Y-59949145D01*
X215316856Y-59949145D01*
X215317117Y-59966250D01*
X215317900Y-59982393D01*
X215319473Y-60000011D01*
X215321757Y-60016320D01*
X215324281Y-60029257D01*
X215328628Y-60045377D01*
X215334246Y-60060911D01*
X215341133Y-60075859D01*
X215349291Y-60090220D01*
X215358841Y-60103311D01*
X215369905Y-60114840D01*
X215382484Y-60124805D01*
X215396576Y-60133207D01*
X215411817Y-60139875D01*
X215427449Y-60144637D01*
X215443471Y-60147495D01*
X215459884Y-60148448D01*
X215476932Y-60147300D01*
X215493687Y-60143856D01*
X215510149Y-60138116D01*
X215524313Y-60131210D01*
X215526318Y-60130080D01*
X215539608Y-60121428D01*
X215553011Y-60110028D01*
X215564509Y-60097016D01*
X215574102Y-60082392D01*
X215575167Y-60080450D01*
X215583056Y-60064477D01*
X215589117Y-60049939D01*
X215594393Y-60034878D01*
X215598884Y-60019293D01*
X215600568Y-60012453D01*
X215603918Y-59996401D01*
X215606445Y-59980386D01*
X215608149Y-59964408D01*
X215609031Y-59948468D01*
X215609165Y-59939376D01*
X215608698Y-59922637D01*
X215607295Y-59906272D01*
X215604958Y-59890281D01*
X215601685Y-59874663D01*
X215599396Y-59865907D01*
X215594713Y-59850744D01*
X215588870Y-59836030D01*
X215581869Y-59821765D01*
X215573707Y-59807949D01*
X215568523Y-59800255D01*
X215558861Y-59787216D01*
X215548338Y-59775112D01*
X215536955Y-59763942D01*
X215524712Y-59753708D01*
X215517330Y-59748280D01*
X215504056Y-59739344D01*
X215490221Y-59731343D01*
X215475824Y-59724277D01*
X215460867Y-59718147D01*
X215452068Y-59715063D01*
X215436513Y-59710345D01*
X215420621Y-59706450D01*
X215404392Y-59703378D01*
X215387826Y-59701129D01*
X215378209Y-59700213D01*
X215360875Y-59698843D01*
X215345093Y-59697936D01*
X215328460Y-59697276D01*
X215310976Y-59696864D01*
X215292639Y-59696699D01*
X215289500Y-59696696D01*
X215289500Y-59410639D01*
X215307150Y-59410639D01*
X215323755Y-59410639D01*
X215341809Y-59410639D01*
X215358441Y-59410639D01*
X215371566Y-59410639D01*
X215388419Y-59409906D01*
X215404978Y-59407708D01*
X215421245Y-59404044D01*
X215437218Y-59398915D01*
X215452899Y-59392467D01*
X215467895Y-59384847D01*
X215482208Y-59376054D01*
X215495837Y-59366089D01*
X215508513Y-59354951D01*
X215519968Y-59343032D01*
X215530202Y-59330332D01*
X215539214Y-59316849D01*
X215547103Y-59302439D01*
X215553966Y-59287345D01*
X215559804Y-59271567D01*
X215564615Y-59255105D01*
X215568377Y-59238228D01*
X215571063Y-59221204D01*
X215572675Y-59204034D01*
X215573213Y-59186717D01*
X215572780Y-59169386D01*
X215571669Y-59153669D01*
X215569874Y-59137658D01*
X215567742Y-59123409D01*
X215564567Y-59107094D01*
X215560512Y-59091364D01*
X215555578Y-59076221D01*
X215549766Y-59061665D01*
X215541804Y-59046360D01*
X215531988Y-59032539D01*
X215520317Y-59020201D01*
X215513031Y-59013988D01*
X215499190Y-59004732D01*
X215484482Y-58998505D01*
X215468910Y-58995307D01*
X215459884Y-58994840D01*
X215443207Y-58996595D01*
X215427369Y-59001862D01*
X215412371Y-59010639D01*
X215409472Y-59012816D01*
X215397338Y-59023670D01*
X215386872Y-59036007D01*
X215378076Y-59049828D01*
X215373911Y-59058147D01*
X215367526Y-59073593D01*
X215362439Y-59089595D01*
X215358650Y-59106154D01*
X215357107Y-59115593D01*
X215355226Y-59131469D01*
X215353883Y-59149006D01*
X215353148Y-59165713D01*
X215352825Y-59183691D01*
X215352808Y-59189062D01*
X215019465Y-59189062D01*
X215019661Y-59171098D01*
X215020247Y-59153549D01*
X215021224Y-59136415D01*
X215022592Y-59119697D01*
X215024350Y-59103393D01*
X215026500Y-59087505D01*
X215029040Y-59072033D01*
X215031971Y-59056975D01*
X215036193Y-59038415D01*
X215041046Y-59020102D01*
X215046528Y-59002038D01*
X215052640Y-58984221D01*
X215059381Y-58966653D01*
X215066752Y-58949333D01*
X215069877Y-58942474D01*
X215078300Y-58925455D01*
X215087447Y-58908837D01*
X215097320Y-58892620D01*
X215107918Y-58876803D01*
X215119241Y-58861387D01*
X215131289Y-58846372D01*
X215136311Y-58840478D01*
X215149298Y-58826224D01*
X215162857Y-58812772D01*
X215176989Y-58800121D01*
X215191693Y-58788271D01*
X215206970Y-58777223D01*
X215222819Y-58766976D01*
X215229319Y-58763102D01*
X215245845Y-58753922D01*
X215262696Y-58745677D01*
X215279871Y-58738367D01*
X215297371Y-58731992D01*
X215315195Y-58726552D01*
X215333343Y-58722046D01*
X215340694Y-58720506D01*
X215359266Y-58717129D01*
X215377857Y-58714324D01*
X215396467Y-58712091D01*
X215415096Y-58710431D01*
X215433744Y-58709343D01*
X215452412Y-58708828D01*
X215459884Y-58708782D01*
X215479141Y-58709097D01*
X215498322Y-58710042D01*
X215517426Y-58711616D01*
X215536454Y-58713820D01*
X215555406Y-58716654D01*
X215574281Y-58720117D01*
X215581810Y-58721678D01*
X215600539Y-58726138D01*
X215618866Y-58731456D01*
X215636793Y-58737633D01*
X215654320Y-58744668D01*
X215671445Y-58752562D01*
X215688170Y-58761315D01*
X215694748Y-58765056D01*
X215710817Y-58775020D01*
X215726294Y-58785862D01*
X215741179Y-58797582D01*
X215755473Y-58810180D01*
X215769175Y-58823655D01*
X215782286Y-58838008D01*
X215787365Y-58843995D01*
X215797287Y-58856122D01*
X215809021Y-58871589D01*
X215820010Y-58887400D01*
X215830254Y-58903555D01*
X215839755Y-58920053D01*
X215848512Y-58936894D01*
X215853408Y-58947163D01*
X215861060Y-58964394D01*
X215868139Y-58981892D01*
X215874646Y-58999657D01*
X215880580Y-59017689D01*
X215885942Y-59035988D01*
X215890732Y-59054554D01*
X215892487Y-59062055D01*
X215896540Y-59080938D01*
X215899906Y-59099974D01*
X215902585Y-59119162D01*
X215904577Y-59138503D01*
X215905882Y-59157997D01*
X215906432Y-59173702D01*
X215906555Y-59185545D01*
X215906212Y-59203017D01*
X215905182Y-59220509D01*
X215903464Y-59238020D01*
X215901060Y-59255551D01*
X215897969Y-59273100D01*
X215894191Y-59290668D01*
X215892487Y-59297701D01*
X215887831Y-59315143D01*
X215882412Y-59332299D01*
X215876230Y-59349169D01*
X215869284Y-59365753D01*
X215861575Y-59382050D01*
X215853103Y-59398062D01*
X215849500Y-59404386D01*
X215840148Y-59419882D01*
X215830167Y-59434863D01*
X215819556Y-59449329D01*
X215808315Y-59463279D01*
X215796444Y-59476714D01*
X215783944Y-59489634D01*
X215778768Y-59494658D01*
X215766138Y-59506542D01*
X215754137Y-59517281D01*
X215740568Y-59528657D01*
X215727906Y-59538384D01*
X215714279Y-59547648D01*
X215708816Y-59550932D01*
X215724687Y-59559633D01*
X215739333Y-59568966D01*
X215752272Y-59578066D01*
X215765879Y-59588368D01*
X215780154Y-59599872D01*
X215792054Y-59609941D01*
X215803937Y-59620559D01*
X215815355Y-59631508D01*
X215826309Y-59642785D01*
X215836800Y-59654393D01*
X215849260Y-59669366D01*
X215860995Y-59684855D01*
X215872005Y-59700858D01*
X215874120Y-59704121D01*
X215884334Y-59720705D01*
X215893728Y-59737727D01*
X215902301Y-59755189D01*
X215910054Y-59773089D01*
X215915666Y-59787725D01*
X215920752Y-59802642D01*
X215925313Y-59817840D01*
X215929343Y-59833234D01*
X215932836Y-59848737D01*
X215935791Y-59864350D01*
X215938209Y-59880073D01*
X215940090Y-59895907D01*
X215941433Y-59911849D01*
X215942239Y-59927902D01*
X215942508Y-59944065D01*
X215942270Y-59959727D01*
X215941555Y-59975450D01*
X215940365Y-59991234D01*
X215938698Y-60007080D01*
X215936555Y-60022986D01*
X215933935Y-60038953D01*
X215930839Y-60054982D01*
X215927267Y-60071071D01*
X215923335Y-60087088D01*
X215918963Y-60102896D01*
X215914151Y-60118497D01*
X215908900Y-60133891D01*
X215903209Y-60149076D01*
X215897079Y-60164055D01*
X215890509Y-60178825D01*
X215883499Y-60193388D01*
X215876123Y-60207603D01*
X215868258Y-60221525D01*
X215859905Y-60235154D01*
X215851063Y-60248489D01*
X215841733Y-60261532D01*
X215831915Y-60274281D01*
X215821608Y-60286738D01*
X215810812Y-60298901D01*
X215799663Y-60310564D01*
X215788098Y-60321713D01*
X215776118Y-60332350D01*
X215763722Y-60342474D01*
X215750912Y-60352085D01*
X215737686Y-60361183D01*
X215724045Y-60369768D01*
X215709989Y-60377840D01*
X215695609Y-60385369D01*
X215680997Y-60392324D01*
X215666153Y-60398705D01*
X215651077Y-60404512D01*
X215635770Y-60409745D01*
X215620230Y-60414404D01*
X215604458Y-60418489D01*
X215588454Y-60422000D01*
X215572340Y-60424930D01*
X215556238Y-60427471D01*
X215540148Y-60429620D01*
X215524071Y-60431378D01*
X215508006Y-60432746D01*
X215491953Y-60433723D01*
X215475913Y-60434309D01*
X215459884Y-60434505D01*
G37*
G36*
X217505271Y-60422000D02*
G01*
X217190296Y-58721288D01*
X217529110Y-58721288D01*
X217681517Y-59850276D01*
X217684367Y-59868228D01*
X217687106Y-59886180D01*
X217689732Y-59904131D01*
X217692245Y-59922083D01*
X217693632Y-59932341D01*
X217695635Y-59950387D01*
X217696459Y-59966003D01*
X217696459Y-59981757D01*
X217695635Y-59997648D01*
X217693986Y-60013676D01*
X217693632Y-60016361D01*
X217691832Y-60000310D01*
X217690829Y-59984396D01*
X217690623Y-59968619D01*
X217691214Y-59952980D01*
X217692910Y-59934908D01*
X217693241Y-59932341D01*
X217695843Y-59914390D01*
X217698519Y-59896438D01*
X217701271Y-59878486D01*
X217704097Y-59860534D01*
X217705746Y-59850276D01*
X217858154Y-58721288D01*
X218196967Y-58721288D01*
X217881992Y-60422000D01*
X217505271Y-60422000D01*
G37*
G36*
X218828933Y-58709021D02*
G01*
X218844943Y-58709735D01*
X218860880Y-58710926D01*
X218876744Y-58712593D01*
X218892534Y-58714736D01*
X218908251Y-58717355D01*
X218923895Y-58720451D01*
X218939465Y-58724023D01*
X218954920Y-58727974D01*
X218970216Y-58732401D01*
X218985353Y-58737304D01*
X219000331Y-58742683D01*
X219015150Y-58748539D01*
X219029811Y-58754871D01*
X219044313Y-58761679D01*
X219058656Y-58768964D01*
X219072712Y-58776749D01*
X219086353Y-58785060D01*
X219099579Y-58793895D01*
X219112389Y-58803256D01*
X219124785Y-58813141D01*
X219136765Y-58823552D01*
X219148330Y-58834488D01*
X219159479Y-58845949D01*
X219170263Y-58857758D01*
X219180533Y-58869934D01*
X219190291Y-58882476D01*
X219199535Y-58895384D01*
X219208267Y-58908659D01*
X219216486Y-58922300D01*
X219224192Y-58936307D01*
X219231384Y-58950681D01*
X219238138Y-58965207D01*
X219244329Y-58979868D01*
X219249959Y-58994663D01*
X219255027Y-59009592D01*
X219259533Y-59024656D01*
X219263478Y-59039854D01*
X219266861Y-59055186D01*
X219269682Y-59070653D01*
X219272155Y-59086223D01*
X219274298Y-59101867D01*
X219276111Y-59117584D01*
X219277595Y-59133374D01*
X219278749Y-59149238D01*
X219279574Y-59165175D01*
X219280068Y-59181185D01*
X219280233Y-59197268D01*
X219280233Y-59952662D01*
X219279975Y-59972118D01*
X219279203Y-59991650D01*
X219278213Y-60007330D01*
X219276895Y-60023059D01*
X219275246Y-60038837D01*
X219273268Y-60054664D01*
X219270959Y-60070540D01*
X219269682Y-60078496D01*
X219266861Y-60094238D01*
X219263478Y-60109808D01*
X219259533Y-60125208D01*
X219255027Y-60140436D01*
X219249959Y-60155494D01*
X219244329Y-60170381D01*
X219238138Y-60185096D01*
X219231384Y-60199641D01*
X219224192Y-60213929D01*
X219216486Y-60227875D01*
X219208267Y-60241480D01*
X219199535Y-60254742D01*
X219190291Y-60267662D01*
X219180533Y-60280241D01*
X219170263Y-60292478D01*
X219159479Y-60304372D01*
X219148330Y-60315748D01*
X219136765Y-60326623D01*
X219124785Y-60336997D01*
X219112389Y-60346870D01*
X219099579Y-60356243D01*
X219086353Y-60365115D01*
X219072712Y-60373487D01*
X219058656Y-60381357D01*
X219044294Y-60388587D01*
X219029738Y-60395230D01*
X219014985Y-60401288D01*
X219000038Y-60406759D01*
X218984895Y-60411644D01*
X218969556Y-60415942D01*
X218954022Y-60419655D01*
X218938293Y-60422781D01*
X218922484Y-60425529D01*
X218906712Y-60427910D01*
X218890977Y-60429925D01*
X218875278Y-60431574D01*
X218859616Y-60432856D01*
X218843991Y-60433772D01*
X218824511Y-60434402D01*
X218812850Y-60434505D01*
X218793404Y-60434219D01*
X218773901Y-60433360D01*
X218758257Y-60432261D01*
X218742577Y-60430795D01*
X218726860Y-60428963D01*
X218711106Y-60426765D01*
X218695316Y-60424201D01*
X218687407Y-60422781D01*
X218671678Y-60419655D01*
X218656144Y-60415942D01*
X218640805Y-60411644D01*
X218625662Y-60406759D01*
X218610715Y-60401288D01*
X218595962Y-60395230D01*
X218581405Y-60388587D01*
X218567044Y-60381357D01*
X218552982Y-60373487D01*
X218539322Y-60365115D01*
X218526066Y-60356243D01*
X218513213Y-60346870D01*
X218500763Y-60336997D01*
X218488715Y-60326623D01*
X218477071Y-60315748D01*
X218465830Y-60304372D01*
X218455132Y-60292478D01*
X218444923Y-60280241D01*
X218435202Y-60267662D01*
X218425969Y-60254742D01*
X218417225Y-60241480D01*
X218408970Y-60227875D01*
X218401203Y-60213929D01*
X218393925Y-60199641D01*
X218387257Y-60185096D01*
X218381126Y-60170381D01*
X218375533Y-60155494D01*
X218370477Y-60140436D01*
X218365959Y-60125208D01*
X218361978Y-60109808D01*
X218358534Y-60094238D01*
X218355627Y-60078496D01*
X218353246Y-60062596D01*
X218351182Y-60046745D01*
X218349436Y-60030942D01*
X218348007Y-60015189D01*
X218346896Y-59999484D01*
X218346102Y-59983828D01*
X218345556Y-59964327D01*
X218345467Y-59952662D01*
X218345467Y-59950709D01*
X218679200Y-59950709D01*
X218679518Y-59968074D01*
X218680470Y-59985391D01*
X218682058Y-60002659D01*
X218684281Y-60019878D01*
X218687651Y-60036804D01*
X218692292Y-60053193D01*
X218698202Y-60069044D01*
X218705383Y-60084358D01*
X218714078Y-60098427D01*
X218724532Y-60110932D01*
X218736744Y-60121874D01*
X218750715Y-60131253D01*
X218765736Y-60138775D01*
X218781098Y-60144149D01*
X218796803Y-60147373D01*
X218812850Y-60148448D01*
X218828897Y-60147373D01*
X218844602Y-60144149D01*
X218859964Y-60138775D01*
X218874985Y-60131253D01*
X218888956Y-60121874D01*
X218901168Y-60110932D01*
X218911622Y-60098427D01*
X218920317Y-60084358D01*
X218927473Y-60069044D01*
X218933311Y-60053193D01*
X218937829Y-60036804D01*
X218941029Y-60019878D01*
X218943422Y-60002659D01*
X218945132Y-59985391D01*
X218946158Y-59968074D01*
X218946500Y-59950709D01*
X218946500Y-59600562D01*
X218679200Y-59813151D01*
X218679200Y-59950709D01*
X218345467Y-59950709D01*
X218345467Y-59551323D01*
X218679200Y-59551323D01*
X218946500Y-59338343D01*
X218946500Y-59197659D01*
X218946238Y-59181930D01*
X218945452Y-59166200D01*
X218944143Y-59150471D01*
X218942311Y-59134742D01*
X218941029Y-59125754D01*
X218938245Y-59110324D01*
X218933690Y-59093422D01*
X218927669Y-59077302D01*
X218920183Y-59061964D01*
X218919144Y-59060101D01*
X218909936Y-59046009D01*
X218899117Y-59033430D01*
X218886685Y-59022366D01*
X218872641Y-59012816D01*
X218857620Y-59004951D01*
X218842257Y-58999334D01*
X218826552Y-58995963D01*
X218810505Y-58994840D01*
X218794678Y-58996012D01*
X218779242Y-58999529D01*
X218764197Y-59005391D01*
X218749542Y-59013598D01*
X218736084Y-59023465D01*
X218724239Y-59034700D01*
X218714005Y-59047303D01*
X218705383Y-59061274D01*
X218698202Y-59076270D01*
X218692292Y-59091951D01*
X218687651Y-59108315D01*
X218684281Y-59125363D01*
X218682058Y-59142802D01*
X218680470Y-59160339D01*
X218679518Y-59177973D01*
X218679200Y-59195705D01*
X218679200Y-59551323D01*
X218345467Y-59551323D01*
X218345467Y-59197268D01*
X218345626Y-59181185D01*
X218346102Y-59165175D01*
X218346896Y-59149238D01*
X218348007Y-59133374D01*
X218349436Y-59117584D01*
X218351182Y-59101867D01*
X218353246Y-59086223D01*
X218355627Y-59070653D01*
X218358534Y-59055186D01*
X218361978Y-59039854D01*
X218365959Y-59024656D01*
X218370477Y-59009592D01*
X218375533Y-58994663D01*
X218381126Y-58979868D01*
X218387257Y-58965207D01*
X218393925Y-58950681D01*
X218401203Y-58936307D01*
X218408970Y-58922300D01*
X218417225Y-58908659D01*
X218425969Y-58895384D01*
X218435202Y-58882476D01*
X218444923Y-58869934D01*
X218455132Y-58857758D01*
X218465830Y-58845949D01*
X218477071Y-58834488D01*
X218488715Y-58823552D01*
X218500763Y-58813141D01*
X218513213Y-58803256D01*
X218526066Y-58793895D01*
X218539322Y-58785060D01*
X218552982Y-58776749D01*
X218567044Y-58768964D01*
X218581387Y-58761679D01*
X218595889Y-58754871D01*
X218610550Y-58748539D01*
X218625369Y-58742683D01*
X218640347Y-58737304D01*
X218655484Y-58732401D01*
X218670780Y-58727974D01*
X218686234Y-58724023D01*
X218701805Y-58720451D01*
X218717449Y-58717355D01*
X218733166Y-58714736D01*
X218748956Y-58712593D01*
X218764820Y-58710926D01*
X218780756Y-58709735D01*
X218796767Y-58709021D01*
X218812850Y-58708782D01*
X218828933Y-58709021D01*
G37*
G36*
X219932068Y-60434505D02*
G01*
X219915996Y-60434123D01*
X219900019Y-60432978D01*
X219884138Y-60431070D01*
X219868352Y-60428399D01*
X219852661Y-60424964D01*
X219837066Y-60420766D01*
X219830854Y-60418873D01*
X219815650Y-60413332D01*
X219801057Y-60406722D01*
X219787074Y-60399044D01*
X219773701Y-60390297D01*
X219760940Y-60380481D01*
X219748789Y-60369597D01*
X219744099Y-60364944D01*
X219733135Y-60352671D01*
X219723201Y-60339787D01*
X219714298Y-60326293D01*
X219706425Y-60312188D01*
X219699582Y-60297472D01*
X219693770Y-60282146D01*
X219691733Y-60275845D01*
X219687343Y-60259809D01*
X219683696Y-60243696D01*
X219680794Y-60227507D01*
X219678636Y-60211242D01*
X219677222Y-60194901D01*
X219676552Y-60178483D01*
X219676493Y-60171895D01*
X219676865Y-60155456D01*
X219677981Y-60139113D01*
X219679841Y-60122865D01*
X219682446Y-60106713D01*
X219685795Y-60090655D01*
X219689888Y-60074694D01*
X219691733Y-60068336D01*
X219697133Y-60052662D01*
X219703564Y-60037638D01*
X219711025Y-60023262D01*
X219719516Y-60009534D01*
X219729038Y-59996456D01*
X219739590Y-59984026D01*
X219744099Y-59979236D01*
X219756006Y-59967822D01*
X219768523Y-59957514D01*
X219781651Y-59948313D01*
X219795390Y-59940218D01*
X219809739Y-59933231D01*
X219824699Y-59927350D01*
X219830854Y-59925307D01*
X219846411Y-59920691D01*
X219862064Y-59916858D01*
X219877812Y-59913807D01*
X219893655Y-59911538D01*
X219909594Y-59910052D01*
X219925628Y-59909348D01*
X219932068Y-59909285D01*
X219948141Y-59909676D01*
X219964118Y-59910850D01*
X219979999Y-59912805D01*
X219995785Y-59915544D01*
X220011476Y-59919064D01*
X220027071Y-59923367D01*
X220033283Y-59925307D01*
X220048477Y-59930745D01*
X220063042Y-59937290D01*
X220076977Y-59944942D01*
X220090283Y-59953700D01*
X220102959Y-59963566D01*
X220115005Y-59974537D01*
X220119647Y-59979236D01*
X220130714Y-59991406D01*
X220140713Y-60004225D01*
X220149643Y-60017693D01*
X220157505Y-60031809D01*
X220164298Y-60046575D01*
X220170022Y-60061989D01*
X220172013Y-60068336D01*
X220176516Y-60084259D01*
X220180256Y-60100278D01*
X220183232Y-60116393D01*
X220185446Y-60132602D01*
X220186896Y-60148907D01*
X220187583Y-60165308D01*
X220187644Y-60171895D01*
X220187262Y-60188343D01*
X220186118Y-60204715D01*
X220184209Y-60221011D01*
X220181538Y-60237230D01*
X220178103Y-60253373D01*
X220173905Y-60269439D01*
X220172013Y-60275845D01*
X220166716Y-60291415D01*
X220160350Y-60306375D01*
X220152916Y-60320724D01*
X220144413Y-60334463D01*
X220134842Y-60347591D01*
X220124202Y-60360108D01*
X220119647Y-60364944D01*
X220107853Y-60376256D01*
X220095429Y-60386499D01*
X220082375Y-60395673D01*
X220068692Y-60403779D01*
X220054379Y-60410816D01*
X220039436Y-60416785D01*
X220033283Y-60418873D01*
X220017725Y-60423376D01*
X220002073Y-60427116D01*
X219986325Y-60430093D01*
X219970482Y-60432307D01*
X219954543Y-60433757D01*
X219938509Y-60434444D01*
X219932068Y-60434505D01*
G37*
G36*
X221055976Y-60434505D02*
G01*
X221036549Y-60434219D01*
X221017103Y-60433360D01*
X220997638Y-60431929D01*
X220982053Y-60430372D01*
X220966455Y-60428448D01*
X220950845Y-60426158D01*
X220935222Y-60423502D01*
X220931315Y-60422781D01*
X220915879Y-60419667D01*
X220900638Y-60415991D01*
X220881862Y-60410606D01*
X220863391Y-60404344D01*
X220845225Y-60397204D01*
X220830913Y-60390859D01*
X220816795Y-60383953D01*
X220813297Y-60382139D01*
X220799582Y-60374561D01*
X220786186Y-60366483D01*
X220773106Y-60357904D01*
X220760345Y-60348824D01*
X220747901Y-60339244D01*
X220735774Y-60329163D01*
X220723965Y-60318581D01*
X220712473Y-60307498D01*
X220701488Y-60295909D01*
X220691004Y-60284002D01*
X220681021Y-60271778D01*
X220671538Y-60259236D01*
X220662556Y-60246377D01*
X220654075Y-60233200D01*
X220646094Y-60219705D01*
X220638614Y-60205893D01*
X220631598Y-60191727D01*
X220625010Y-60177366D01*
X220618849Y-60162809D01*
X220613115Y-60148057D01*
X220607809Y-60133109D01*
X220602930Y-60117966D01*
X220598479Y-60102628D01*
X220594455Y-60087094D01*
X220590975Y-60071261D01*
X220587958Y-60055025D01*
X220585406Y-60038386D01*
X220583317Y-60021344D01*
X220581693Y-60003898D01*
X220580533Y-59986050D01*
X220579837Y-59967799D01*
X220579605Y-59949145D01*
X220912948Y-59949145D01*
X220913209Y-59966250D01*
X220913992Y-59982393D01*
X220915565Y-60000011D01*
X220917849Y-60016320D01*
X220920373Y-60029257D01*
X220924720Y-60045377D01*
X220930338Y-60060911D01*
X220937225Y-60075859D01*
X220945383Y-60090220D01*
X220954933Y-60103311D01*
X220965997Y-60114840D01*
X220978576Y-60124805D01*
X220992669Y-60133207D01*
X221007909Y-60139875D01*
X221023541Y-60144637D01*
X221039563Y-60147495D01*
X221055976Y-60148448D01*
X221073024Y-60147300D01*
X221089779Y-60143856D01*
X221106241Y-60138116D01*
X221120405Y-60131210D01*
X221122410Y-60130080D01*
X221135701Y-60121428D01*
X221149103Y-60110028D01*
X221160601Y-60097016D01*
X221170194Y-60082392D01*
X221171259Y-60080450D01*
X221179148Y-60064477D01*
X221185209Y-60049939D01*
X221190485Y-60034878D01*
X221194976Y-60019293D01*
X221196660Y-60012453D01*
X221200010Y-59996401D01*
X221202537Y-59980386D01*
X221204242Y-59964408D01*
X221205123Y-59948468D01*
X221205257Y-59939376D01*
X221204790Y-59922637D01*
X221203387Y-59906272D01*
X221201050Y-59890281D01*
X221197778Y-59874663D01*
X221195488Y-59865907D01*
X221190805Y-59850744D01*
X221184962Y-59836030D01*
X221177961Y-59821765D01*
X221169800Y-59807949D01*
X221164615Y-59800255D01*
X221154953Y-59787216D01*
X221144430Y-59775112D01*
X221133047Y-59763942D01*
X221120804Y-59753708D01*
X221113422Y-59748280D01*
X221100148Y-59739344D01*
X221086313Y-59731343D01*
X221071917Y-59724277D01*
X221056959Y-59718147D01*
X221048160Y-59715063D01*
X221032605Y-59710345D01*
X221016713Y-59706450D01*
X221000484Y-59703378D01*
X220983919Y-59701129D01*
X220974301Y-59700213D01*
X220956967Y-59698843D01*
X220941186Y-59697936D01*
X220924553Y-59697276D01*
X220907068Y-59696864D01*
X220888731Y-59696699D01*
X220885592Y-59696696D01*
X220885592Y-59410639D01*
X220903242Y-59410639D01*
X220919848Y-59410639D01*
X220937901Y-59410639D01*
X220954533Y-59410639D01*
X220967658Y-59410639D01*
X220984511Y-59409906D01*
X221001070Y-59407708D01*
X221017337Y-59404044D01*
X221033311Y-59398915D01*
X221048991Y-59392467D01*
X221063987Y-59384847D01*
X221078300Y-59376054D01*
X221091929Y-59366089D01*
X221104605Y-59354951D01*
X221116060Y-59343032D01*
X221126294Y-59330332D01*
X221135306Y-59316849D01*
X221143195Y-59302439D01*
X221150059Y-59287345D01*
X221155896Y-59271567D01*
X221160708Y-59255105D01*
X221164469Y-59238228D01*
X221167156Y-59221204D01*
X221168768Y-59204034D01*
X221169305Y-59186717D01*
X221168872Y-59169386D01*
X221167761Y-59153669D01*
X221165966Y-59137658D01*
X221163834Y-59123409D01*
X221160659Y-59107094D01*
X221156604Y-59091364D01*
X221151671Y-59076221D01*
X221145858Y-59061665D01*
X221137896Y-59046360D01*
X221128080Y-59032539D01*
X221116409Y-59020201D01*
X221109123Y-59013988D01*
X221095282Y-59004732D01*
X221080575Y-58998505D01*
X221065002Y-58995307D01*
X221055976Y-58994840D01*
X221039299Y-58996595D01*
X221023461Y-59001862D01*
X221008463Y-59010639D01*
X221005565Y-59012816D01*
X220993430Y-59023670D01*
X220982964Y-59036007D01*
X220974168Y-59049828D01*
X220970003Y-59058147D01*
X220963618Y-59073593D01*
X220958531Y-59089595D01*
X220954743Y-59106154D01*
X220953199Y-59115593D01*
X220951318Y-59131469D01*
X220949975Y-59149006D01*
X220949240Y-59165713D01*
X220948917Y-59183691D01*
X220948900Y-59189062D01*
X220615558Y-59189062D01*
X220615753Y-59171098D01*
X220616339Y-59153549D01*
X220617316Y-59136415D01*
X220618684Y-59119697D01*
X220620442Y-59103393D01*
X220622592Y-59087505D01*
X220625132Y-59072033D01*
X220628063Y-59056975D01*
X220632286Y-59038415D01*
X220637138Y-59020102D01*
X220642620Y-59002038D01*
X220648732Y-58984221D01*
X220655473Y-58966653D01*
X220662844Y-58949333D01*
X220665969Y-58942474D01*
X220674392Y-58925455D01*
X220683539Y-58908837D01*
X220693412Y-58892620D01*
X220704010Y-58876803D01*
X220715333Y-58861387D01*
X220727381Y-58846372D01*
X220732403Y-58840478D01*
X220745390Y-58826224D01*
X220758949Y-58812772D01*
X220773081Y-58800121D01*
X220787785Y-58788271D01*
X220803062Y-58777223D01*
X220818911Y-58766976D01*
X220825411Y-58763102D01*
X220841937Y-58753922D01*
X220858788Y-58745677D01*
X220875964Y-58738367D01*
X220893463Y-58731992D01*
X220911287Y-58726552D01*
X220929436Y-58722046D01*
X220936786Y-58720506D01*
X220955358Y-58717129D01*
X220973949Y-58714324D01*
X220992559Y-58712091D01*
X221011188Y-58710431D01*
X221029837Y-58709343D01*
X221048504Y-58708828D01*
X221055976Y-58708782D01*
X221075233Y-58709097D01*
X221094414Y-58710042D01*
X221113518Y-58711616D01*
X221132546Y-58713820D01*
X221151498Y-58716654D01*
X221170373Y-58720117D01*
X221177902Y-58721678D01*
X221196631Y-58726138D01*
X221214959Y-58731456D01*
X221232886Y-58737633D01*
X221250412Y-58744668D01*
X221267537Y-58752562D01*
X221284262Y-58761315D01*
X221290840Y-58765056D01*
X221306909Y-58775020D01*
X221322386Y-58785862D01*
X221337271Y-58797582D01*
X221351565Y-58810180D01*
X221365267Y-58823655D01*
X221378378Y-58838008D01*
X221383457Y-58843995D01*
X221393379Y-58856122D01*
X221405113Y-58871589D01*
X221416102Y-58887400D01*
X221426346Y-58903555D01*
X221435847Y-58920053D01*
X221444604Y-58936894D01*
X221449500Y-58947163D01*
X221457152Y-58964394D01*
X221464231Y-58981892D01*
X221470738Y-58999657D01*
X221476672Y-59017689D01*
X221482034Y-59035988D01*
X221486824Y-59054554D01*
X221488579Y-59062055D01*
X221492632Y-59080938D01*
X221495998Y-59099974D01*
X221498677Y-59119162D01*
X221500669Y-59138503D01*
X221501974Y-59157997D01*
X221502524Y-59173702D01*
X221502648Y-59185545D01*
X221502304Y-59203017D01*
X221501274Y-59220509D01*
X221499556Y-59238020D01*
X221497152Y-59255551D01*
X221494061Y-59273100D01*
X221490283Y-59290668D01*
X221488579Y-59297701D01*
X221483923Y-59315143D01*
X221478504Y-59332299D01*
X221472322Y-59349169D01*
X221465376Y-59365753D01*
X221457667Y-59382050D01*
X221449195Y-59398062D01*
X221445592Y-59404386D01*
X221436241Y-59419882D01*
X221426259Y-59434863D01*
X221415648Y-59449329D01*
X221404407Y-59463279D01*
X221392536Y-59476714D01*
X221380036Y-59489634D01*
X221374860Y-59494658D01*
X221362230Y-59506542D01*
X221350229Y-59517281D01*
X221336660Y-59528657D01*
X221323998Y-59538384D01*
X221310371Y-59547648D01*
X221304909Y-59550932D01*
X221320779Y-59559633D01*
X221335425Y-59568966D01*
X221348364Y-59578066D01*
X221361971Y-59588368D01*
X221376246Y-59599872D01*
X221388147Y-59609941D01*
X221400029Y-59620559D01*
X221411447Y-59631508D01*
X221422402Y-59642785D01*
X221432892Y-59654393D01*
X221445352Y-59669366D01*
X221457087Y-59684855D01*
X221468097Y-59700858D01*
X221470212Y-59704121D01*
X221480426Y-59720705D01*
X221489820Y-59737727D01*
X221498394Y-59755189D01*
X221506146Y-59773089D01*
X221511758Y-59787725D01*
X221516844Y-59802642D01*
X221521405Y-59817840D01*
X221525435Y-59833234D01*
X221528928Y-59848737D01*
X221531883Y-59864350D01*
X221534301Y-59880073D01*
X221536182Y-59895907D01*
X221537525Y-59911849D01*
X221538331Y-59927902D01*
X221538600Y-59944065D01*
X221538362Y-59959727D01*
X221537648Y-59975450D01*
X221536457Y-59991234D01*
X221534790Y-60007080D01*
X221532647Y-60022986D01*
X221530027Y-60038953D01*
X221526931Y-60054982D01*
X221523359Y-60071071D01*
X221519427Y-60087088D01*
X221515055Y-60102896D01*
X221510244Y-60118497D01*
X221504992Y-60133891D01*
X221499301Y-60149076D01*
X221493171Y-60164055D01*
X221486601Y-60178825D01*
X221479591Y-60193388D01*
X221472215Y-60207603D01*
X221464350Y-60221525D01*
X221455997Y-60235154D01*
X221447156Y-60248489D01*
X221437826Y-60261532D01*
X221428007Y-60274281D01*
X221417700Y-60286738D01*
X221406904Y-60298901D01*
X221395755Y-60310564D01*
X221384190Y-60321713D01*
X221372210Y-60332350D01*
X221359814Y-60342474D01*
X221347004Y-60352085D01*
X221333778Y-60361183D01*
X221320137Y-60369768D01*
X221306081Y-60377840D01*
X221291701Y-60385369D01*
X221277089Y-60392324D01*
X221262245Y-60398705D01*
X221247170Y-60404512D01*
X221231862Y-60409745D01*
X221216322Y-60414404D01*
X221200550Y-60418489D01*
X221184546Y-60422000D01*
X221168432Y-60424930D01*
X221152330Y-60427471D01*
X221136241Y-60429620D01*
X221120163Y-60431378D01*
X221104098Y-60432746D01*
X221088045Y-60433723D01*
X221072005Y-60434309D01*
X221055976Y-60434505D01*
G37*
X197833685Y-139065939D02*
X197833685Y-139808796D01*
X197833685Y-139808796D02*
X196273685Y-139808796D01*
X197833685Y-137654510D02*
X197090828Y-138174510D01*
X197833685Y-138545939D02*
X196273685Y-138545939D01*
X196273685Y-138545939D02*
X196273685Y-137951653D01*
X196273685Y-137951653D02*
X196347971Y-137803082D01*
X196347971Y-137803082D02*
X196422257Y-137728796D01*
X196422257Y-137728796D02*
X196570828Y-137654510D01*
X196570828Y-137654510D02*
X196793685Y-137654510D01*
X196793685Y-137654510D02*
X196942257Y-137728796D01*
X196942257Y-137728796D02*
X197016542Y-137803082D01*
X197016542Y-137803082D02*
X197090828Y-137951653D01*
X197090828Y-137951653D02*
X197090828Y-138545939D01*
X198785285Y-140403081D02*
X200345285Y-140031653D01*
X200345285Y-140031653D02*
X199231000Y-139734510D01*
X199231000Y-139734510D02*
X200345285Y-139437367D01*
X200345285Y-139437367D02*
X198785285Y-139065939D01*
X200271000Y-138545939D02*
X200345285Y-138323082D01*
X200345285Y-138323082D02*
X200345285Y-137951653D01*
X200345285Y-137951653D02*
X200271000Y-137803082D01*
X200271000Y-137803082D02*
X200196714Y-137728796D01*
X200196714Y-137728796D02*
X200048142Y-137654510D01*
X200048142Y-137654510D02*
X199899571Y-137654510D01*
X199899571Y-137654510D02*
X199751000Y-137728796D01*
X199751000Y-137728796D02*
X199676714Y-137803082D01*
X199676714Y-137803082D02*
X199602428Y-137951653D01*
X199602428Y-137951653D02*
X199528142Y-138248796D01*
X199528142Y-138248796D02*
X199453857Y-138397367D01*
X199453857Y-138397367D02*
X199379571Y-138471653D01*
X199379571Y-138471653D02*
X199231000Y-138545939D01*
X199231000Y-138545939D02*
X199082428Y-138545939D01*
X199082428Y-138545939D02*
X198933857Y-138471653D01*
X198933857Y-138471653D02*
X198859571Y-138397367D01*
X198859571Y-138397367D02*
X198785285Y-138248796D01*
X198785285Y-138248796D02*
X198785285Y-137877367D01*
X198785285Y-137877367D02*
X198859571Y-137654510D01*
X202782600Y-141665939D02*
X202856885Y-141443082D01*
X202856885Y-141443082D02*
X202856885Y-141071653D01*
X202856885Y-141071653D02*
X202782600Y-140923082D01*
X202782600Y-140923082D02*
X202708314Y-140848796D01*
X202708314Y-140848796D02*
X202559742Y-140774510D01*
X202559742Y-140774510D02*
X202411171Y-140774510D01*
X202411171Y-140774510D02*
X202262600Y-140848796D01*
X202262600Y-140848796D02*
X202188314Y-140923082D01*
X202188314Y-140923082D02*
X202114028Y-141071653D01*
X202114028Y-141071653D02*
X202039742Y-141368796D01*
X202039742Y-141368796D02*
X201965457Y-141517367D01*
X201965457Y-141517367D02*
X201891171Y-141591653D01*
X201891171Y-141591653D02*
X201742600Y-141665939D01*
X201742600Y-141665939D02*
X201594028Y-141665939D01*
X201594028Y-141665939D02*
X201445457Y-141591653D01*
X201445457Y-141591653D02*
X201371171Y-141517367D01*
X201371171Y-141517367D02*
X201296885Y-141368796D01*
X201296885Y-141368796D02*
X201296885Y-140997367D01*
X201296885Y-140997367D02*
X201371171Y-140774510D01*
X202708314Y-139214510D02*
X202782600Y-139288796D01*
X202782600Y-139288796D02*
X202856885Y-139511653D01*
X202856885Y-139511653D02*
X202856885Y-139660225D01*
X202856885Y-139660225D02*
X202782600Y-139883082D01*
X202782600Y-139883082D02*
X202634028Y-140031653D01*
X202634028Y-140031653D02*
X202485457Y-140105939D01*
X202485457Y-140105939D02*
X202188314Y-140180225D01*
X202188314Y-140180225D02*
X201965457Y-140180225D01*
X201965457Y-140180225D02*
X201668314Y-140105939D01*
X201668314Y-140105939D02*
X201519742Y-140031653D01*
X201519742Y-140031653D02*
X201371171Y-139883082D01*
X201371171Y-139883082D02*
X201296885Y-139660225D01*
X201296885Y-139660225D02*
X201296885Y-139511653D01*
X201296885Y-139511653D02*
X201371171Y-139288796D01*
X201371171Y-139288796D02*
X201445457Y-139214510D01*
X202856885Y-138545939D02*
X201296885Y-138545939D01*
X202856885Y-137654510D02*
X201965457Y-138323082D01*
X201296885Y-137654510D02*
X202188314Y-138545939D01*
D12*
X205528152Y-62023333D02*
X206194819Y-62023333D01*
X205147200Y-62261428D02*
X205861485Y-62499523D01*
X205861485Y-62499523D02*
X205861485Y-61880476D01*
X205194819Y-61594761D02*
X205194819Y-60928095D01*
X205194819Y-60928095D02*
X206194819Y-61356666D01*
X205194819Y-60356666D02*
X205194819Y-60261428D01*
X205194819Y-60261428D02*
X205242438Y-60166190D01*
X205242438Y-60166190D02*
X205290057Y-60118571D01*
X205290057Y-60118571D02*
X205385295Y-60070952D01*
X205385295Y-60070952D02*
X205575771Y-60023333D01*
X205575771Y-60023333D02*
X205813866Y-60023333D01*
X205813866Y-60023333D02*
X206004342Y-60070952D01*
X206004342Y-60070952D02*
X206099580Y-60118571D01*
X206099580Y-60118571D02*
X206147200Y-60166190D01*
X206147200Y-60166190D02*
X206194819Y-60261428D01*
X206194819Y-60261428D02*
X206194819Y-60356666D01*
X206194819Y-60356666D02*
X206147200Y-60451904D01*
X206147200Y-60451904D02*
X206099580Y-60499523D01*
X206099580Y-60499523D02*
X206004342Y-60547142D01*
X206004342Y-60547142D02*
X205813866Y-60594761D01*
X205813866Y-60594761D02*
X205575771Y-60594761D01*
X205575771Y-60594761D02*
X205385295Y-60547142D01*
X205385295Y-60547142D02*
X205290057Y-60499523D01*
X205290057Y-60499523D02*
X205242438Y-60451904D01*
X205242438Y-60451904D02*
X205194819Y-60356666D01*
X206194819Y-59451904D02*
X206147200Y-59547142D01*
X206147200Y-59547142D02*
X206099580Y-59594761D01*
X206099580Y-59594761D02*
X206004342Y-59642380D01*
X206004342Y-59642380D02*
X205718628Y-59642380D01*
X205718628Y-59642380D02*
X205623390Y-59594761D01*
X205623390Y-59594761D02*
X205575771Y-59547142D01*
X205575771Y-59547142D02*
X205528152Y-59451904D01*
X205528152Y-59451904D02*
X205528152Y-59309047D01*
X205528152Y-59309047D02*
X205575771Y-59213809D01*
X205575771Y-59213809D02*
X205623390Y-59166190D01*
X205623390Y-59166190D02*
X205718628Y-59118571D01*
X205718628Y-59118571D02*
X206004342Y-59118571D01*
X206004342Y-59118571D02*
X206099580Y-59166190D01*
X206099580Y-59166190D02*
X206147200Y-59213809D01*
X206147200Y-59213809D02*
X206194819Y-59309047D01*
X206194819Y-59309047D02*
X206194819Y-59451904D01*
X206194819Y-58689999D02*
X205194819Y-58689999D01*
X206194819Y-58261428D02*
X205671009Y-58261428D01*
X205671009Y-58261428D02*
X205575771Y-58309047D01*
X205575771Y-58309047D02*
X205528152Y-58404285D01*
X205528152Y-58404285D02*
X205528152Y-58547142D01*
X205528152Y-58547142D02*
X205575771Y-58642380D01*
X205575771Y-58642380D02*
X205623390Y-58689999D01*
X206194819Y-57785237D02*
X205528152Y-57785237D01*
X205623390Y-57785237D02*
X205575771Y-57737618D01*
X205575771Y-57737618D02*
X205528152Y-57642380D01*
X205528152Y-57642380D02*
X205528152Y-57499523D01*
X205528152Y-57499523D02*
X205575771Y-57404285D01*
X205575771Y-57404285D02*
X205671009Y-57356666D01*
X205671009Y-57356666D02*
X206194819Y-57356666D01*
X205671009Y-57356666D02*
X205575771Y-57309047D01*
X205575771Y-57309047D02*
X205528152Y-57213809D01*
X205528152Y-57213809D02*
X205528152Y-57070952D01*
X205528152Y-57070952D02*
X205575771Y-56975713D01*
X205575771Y-56975713D02*
X205671009Y-56928094D01*
X205671009Y-56928094D02*
X206194819Y-56928094D01*
X206137380Y-141139104D02*
X206613570Y-141139104D01*
X206042142Y-141424819D02*
X206375475Y-140424819D01*
X206375475Y-140424819D02*
X206708808Y-141424819D01*
X207042142Y-141424819D02*
X207042142Y-140424819D01*
X207042142Y-140424819D02*
X207613570Y-141424819D01*
X207613570Y-141424819D02*
X207613570Y-140424819D01*
X208280237Y-140424819D02*
X208470713Y-140424819D01*
X208470713Y-140424819D02*
X208565951Y-140472438D01*
X208565951Y-140472438D02*
X208661189Y-140567676D01*
X208661189Y-140567676D02*
X208708808Y-140758152D01*
X208708808Y-140758152D02*
X208708808Y-141091485D01*
X208708808Y-141091485D02*
X208661189Y-141281961D01*
X208661189Y-141281961D02*
X208565951Y-141377200D01*
X208565951Y-141377200D02*
X208470713Y-141424819D01*
X208470713Y-141424819D02*
X208280237Y-141424819D01*
X208280237Y-141424819D02*
X208184999Y-141377200D01*
X208184999Y-141377200D02*
X208089761Y-141281961D01*
X208089761Y-141281961D02*
X208042142Y-141091485D01*
X208042142Y-141091485D02*
X208042142Y-140758152D01*
X208042142Y-140758152D02*
X208089761Y-140567676D01*
X208089761Y-140567676D02*
X208184999Y-140472438D01*
X208184999Y-140472438D02*
X208280237Y-140424819D01*
X210470713Y-141424819D02*
X210137380Y-140948628D01*
X209899285Y-141424819D02*
X209899285Y-140424819D01*
X209899285Y-140424819D02*
X210280237Y-140424819D01*
X210280237Y-140424819D02*
X210375475Y-140472438D01*
X210375475Y-140472438D02*
X210423094Y-140520057D01*
X210423094Y-140520057D02*
X210470713Y-140615295D01*
X210470713Y-140615295D02*
X210470713Y-140758152D01*
X210470713Y-140758152D02*
X210423094Y-140853390D01*
X210423094Y-140853390D02*
X210375475Y-140901009D01*
X210375475Y-140901009D02*
X210280237Y-140948628D01*
X210280237Y-140948628D02*
X209899285Y-140948628D01*
X211042142Y-141424819D02*
X210946904Y-141377200D01*
X210946904Y-141377200D02*
X210899285Y-141329580D01*
X210899285Y-141329580D02*
X210851666Y-141234342D01*
X210851666Y-141234342D02*
X210851666Y-140948628D01*
X210851666Y-140948628D02*
X210899285Y-140853390D01*
X210899285Y-140853390D02*
X210946904Y-140805771D01*
X210946904Y-140805771D02*
X211042142Y-140758152D01*
X211042142Y-140758152D02*
X211184999Y-140758152D01*
X211184999Y-140758152D02*
X211280237Y-140805771D01*
X211280237Y-140805771D02*
X211327856Y-140853390D01*
X211327856Y-140853390D02*
X211375475Y-140948628D01*
X211375475Y-140948628D02*
X211375475Y-141234342D01*
X211375475Y-141234342D02*
X211327856Y-141329580D01*
X211327856Y-141329580D02*
X211280237Y-141377200D01*
X211280237Y-141377200D02*
X211184999Y-141424819D01*
X211184999Y-141424819D02*
X211042142Y-141424819D01*
X211661190Y-140758152D02*
X212042142Y-140758152D01*
X211804047Y-140424819D02*
X211804047Y-141281961D01*
X211804047Y-141281961D02*
X211851666Y-141377200D01*
X211851666Y-141377200D02*
X211946904Y-141424819D01*
X211946904Y-141424819D02*
X212042142Y-141424819D01*
X212804047Y-141424819D02*
X212804047Y-140901009D01*
X212804047Y-140901009D02*
X212756428Y-140805771D01*
X212756428Y-140805771D02*
X212661190Y-140758152D01*
X212661190Y-140758152D02*
X212470714Y-140758152D01*
X212470714Y-140758152D02*
X212375476Y-140805771D01*
X212804047Y-141377200D02*
X212708809Y-141424819D01*
X212708809Y-141424819D02*
X212470714Y-141424819D01*
X212470714Y-141424819D02*
X212375476Y-141377200D01*
X212375476Y-141377200D02*
X212327857Y-141281961D01*
X212327857Y-141281961D02*
X212327857Y-141186723D01*
X212327857Y-141186723D02*
X212375476Y-141091485D01*
X212375476Y-141091485D02*
X212470714Y-141043866D01*
X212470714Y-141043866D02*
X212708809Y-141043866D01*
X212708809Y-141043866D02*
X212804047Y-140996247D01*
X213280238Y-141424819D02*
X213280238Y-140758152D01*
X213280238Y-140948628D02*
X213327857Y-140853390D01*
X213327857Y-140853390D02*
X213375476Y-140805771D01*
X213375476Y-140805771D02*
X213470714Y-140758152D01*
X213470714Y-140758152D02*
X213565952Y-140758152D01*
X213804048Y-140758152D02*
X214042143Y-141424819D01*
X214280238Y-140758152D02*
X214042143Y-141424819D01*
X214042143Y-141424819D02*
X213946905Y-141662914D01*
X213946905Y-141662914D02*
X213899286Y-141710533D01*
X213899286Y-141710533D02*
X213804048Y-141758152D01*
X197421667Y-101372200D02*
X197564524Y-101419819D01*
X197564524Y-101419819D02*
X197802619Y-101419819D01*
X197802619Y-101419819D02*
X197897857Y-101372200D01*
X197897857Y-101372200D02*
X197945476Y-101324580D01*
X197945476Y-101324580D02*
X197993095Y-101229342D01*
X197993095Y-101229342D02*
X197993095Y-101134104D01*
X197993095Y-101134104D02*
X197945476Y-101038866D01*
X197945476Y-101038866D02*
X197897857Y-100991247D01*
X197897857Y-100991247D02*
X197802619Y-100943628D01*
X197802619Y-100943628D02*
X197612143Y-100896009D01*
X197612143Y-100896009D02*
X197516905Y-100848390D01*
X197516905Y-100848390D02*
X197469286Y-100800771D01*
X197469286Y-100800771D02*
X197421667Y-100705533D01*
X197421667Y-100705533D02*
X197421667Y-100610295D01*
X197421667Y-100610295D02*
X197469286Y-100515057D01*
X197469286Y-100515057D02*
X197516905Y-100467438D01*
X197516905Y-100467438D02*
X197612143Y-100419819D01*
X197612143Y-100419819D02*
X197850238Y-100419819D01*
X197850238Y-100419819D02*
X197993095Y-100467438D01*
X198326429Y-100419819D02*
X198564524Y-101419819D01*
X198564524Y-101419819D02*
X198755000Y-100705533D01*
X198755000Y-100705533D02*
X198945476Y-101419819D01*
X198945476Y-101419819D02*
X199183572Y-100419819D01*
X199993095Y-100419819D02*
X199802619Y-100419819D01*
X199802619Y-100419819D02*
X199707381Y-100467438D01*
X199707381Y-100467438D02*
X199659762Y-100515057D01*
X199659762Y-100515057D02*
X199564524Y-100657914D01*
X199564524Y-100657914D02*
X199516905Y-100848390D01*
X199516905Y-100848390D02*
X199516905Y-101229342D01*
X199516905Y-101229342D02*
X199564524Y-101324580D01*
X199564524Y-101324580D02*
X199612143Y-101372200D01*
X199612143Y-101372200D02*
X199707381Y-101419819D01*
X199707381Y-101419819D02*
X199897857Y-101419819D01*
X199897857Y-101419819D02*
X199993095Y-101372200D01*
X199993095Y-101372200D02*
X200040714Y-101324580D01*
X200040714Y-101324580D02*
X200088333Y-101229342D01*
X200088333Y-101229342D02*
X200088333Y-100991247D01*
X200088333Y-100991247D02*
X200040714Y-100896009D01*
X200040714Y-100896009D02*
X199993095Y-100848390D01*
X199993095Y-100848390D02*
X199897857Y-100800771D01*
X199897857Y-100800771D02*
X199707381Y-100800771D01*
X199707381Y-100800771D02*
X199612143Y-100848390D01*
X199612143Y-100848390D02*
X199564524Y-100896009D01*
X199564524Y-100896009D02*
X199516905Y-100991247D01*
X201255476Y-49984819D02*
X201255476Y-48984819D01*
X201255476Y-48984819D02*
X201826904Y-49984819D01*
X201826904Y-49984819D02*
X201826904Y-48984819D01*
X202303095Y-49984819D02*
X202303095Y-48984819D01*
X202303095Y-48984819D02*
X202684047Y-48984819D01*
X202684047Y-48984819D02*
X202779285Y-49032438D01*
X202779285Y-49032438D02*
X202826904Y-49080057D01*
X202826904Y-49080057D02*
X202874523Y-49175295D01*
X202874523Y-49175295D02*
X202874523Y-49318152D01*
X202874523Y-49318152D02*
X202826904Y-49413390D01*
X202826904Y-49413390D02*
X202779285Y-49461009D01*
X202779285Y-49461009D02*
X202684047Y-49508628D01*
X202684047Y-49508628D02*
X202303095Y-49508628D01*
X203303095Y-49984819D02*
X203303095Y-48984819D01*
X203303095Y-48984819D02*
X203874523Y-49984819D01*
X203874523Y-49984819D02*
X203874523Y-48984819D01*
X222069819Y-135699047D02*
X221069819Y-135699047D01*
X221069819Y-135699047D02*
X221069819Y-135318095D01*
X221069819Y-135318095D02*
X221117438Y-135222857D01*
X221117438Y-135222857D02*
X221165057Y-135175238D01*
X221165057Y-135175238D02*
X221260295Y-135127619D01*
X221260295Y-135127619D02*
X221403152Y-135127619D01*
X221403152Y-135127619D02*
X221498390Y-135175238D01*
X221498390Y-135175238D02*
X221546009Y-135222857D01*
X221546009Y-135222857D02*
X221593628Y-135318095D01*
X221593628Y-135318095D02*
X221593628Y-135699047D01*
X221974580Y-134127619D02*
X222022200Y-134175238D01*
X222022200Y-134175238D02*
X222069819Y-134318095D01*
X222069819Y-134318095D02*
X222069819Y-134413333D01*
X222069819Y-134413333D02*
X222022200Y-134556190D01*
X222022200Y-134556190D02*
X221926961Y-134651428D01*
X221926961Y-134651428D02*
X221831723Y-134699047D01*
X221831723Y-134699047D02*
X221641247Y-134746666D01*
X221641247Y-134746666D02*
X221498390Y-134746666D01*
X221498390Y-134746666D02*
X221307914Y-134699047D01*
X221307914Y-134699047D02*
X221212676Y-134651428D01*
X221212676Y-134651428D02*
X221117438Y-134556190D01*
X221117438Y-134556190D02*
X221069819Y-134413333D01*
X221069819Y-134413333D02*
X221069819Y-134318095D01*
X221069819Y-134318095D02*
X221117438Y-134175238D01*
X221117438Y-134175238D02*
X221165057Y-134127619D01*
X221546009Y-133365714D02*
X221546009Y-133699047D01*
X222069819Y-133699047D02*
X221069819Y-133699047D01*
X221069819Y-133699047D02*
X221069819Y-133222857D01*
X221498390Y-132699047D02*
X221450771Y-132794285D01*
X221450771Y-132794285D02*
X221403152Y-132841904D01*
X221403152Y-132841904D02*
X221307914Y-132889523D01*
X221307914Y-132889523D02*
X221260295Y-132889523D01*
X221260295Y-132889523D02*
X221165057Y-132841904D01*
X221165057Y-132841904D02*
X221117438Y-132794285D01*
X221117438Y-132794285D02*
X221069819Y-132699047D01*
X221069819Y-132699047D02*
X221069819Y-132508571D01*
X221069819Y-132508571D02*
X221117438Y-132413333D01*
X221117438Y-132413333D02*
X221165057Y-132365714D01*
X221165057Y-132365714D02*
X221260295Y-132318095D01*
X221260295Y-132318095D02*
X221307914Y-132318095D01*
X221307914Y-132318095D02*
X221403152Y-132365714D01*
X221403152Y-132365714D02*
X221450771Y-132413333D01*
X221450771Y-132413333D02*
X221498390Y-132508571D01*
X221498390Y-132508571D02*
X221498390Y-132699047D01*
X221498390Y-132699047D02*
X221546009Y-132794285D01*
X221546009Y-132794285D02*
X221593628Y-132841904D01*
X221593628Y-132841904D02*
X221688866Y-132889523D01*
X221688866Y-132889523D02*
X221879342Y-132889523D01*
X221879342Y-132889523D02*
X221974580Y-132841904D01*
X221974580Y-132841904D02*
X222022200Y-132794285D01*
X222022200Y-132794285D02*
X222069819Y-132699047D01*
X222069819Y-132699047D02*
X222069819Y-132508571D01*
X222069819Y-132508571D02*
X222022200Y-132413333D01*
X222022200Y-132413333D02*
X221974580Y-132365714D01*
X221974580Y-132365714D02*
X221879342Y-132318095D01*
X221879342Y-132318095D02*
X221688866Y-132318095D01*
X221688866Y-132318095D02*
X221593628Y-132365714D01*
X221593628Y-132365714D02*
X221546009Y-132413333D01*
X221546009Y-132413333D02*
X221498390Y-132508571D01*
X221069819Y-131413333D02*
X221069819Y-131889523D01*
X221069819Y-131889523D02*
X221546009Y-131937142D01*
X221546009Y-131937142D02*
X221498390Y-131889523D01*
X221498390Y-131889523D02*
X221450771Y-131794285D01*
X221450771Y-131794285D02*
X221450771Y-131556190D01*
X221450771Y-131556190D02*
X221498390Y-131460952D01*
X221498390Y-131460952D02*
X221546009Y-131413333D01*
X221546009Y-131413333D02*
X221641247Y-131365714D01*
X221641247Y-131365714D02*
X221879342Y-131365714D01*
X221879342Y-131365714D02*
X221974580Y-131413333D01*
X221974580Y-131413333D02*
X222022200Y-131460952D01*
X222022200Y-131460952D02*
X222069819Y-131556190D01*
X222069819Y-131556190D02*
X222069819Y-131794285D01*
X222069819Y-131794285D02*
X222022200Y-131889523D01*
X222022200Y-131889523D02*
X221974580Y-131937142D01*
X221069819Y-131032380D02*
X221069819Y-130365714D01*
X221069819Y-130365714D02*
X222069819Y-130794285D01*
X221403152Y-129556190D02*
X222069819Y-129556190D01*
X221022200Y-129794285D02*
X221736485Y-130032380D01*
X221736485Y-130032380D02*
X221736485Y-129413333D01*
X222069819Y-129032380D02*
X221069819Y-129032380D01*
X221069819Y-129032380D02*
X222069819Y-128460952D01*
X222069819Y-128460952D02*
X221069819Y-128460952D01*
X218376667Y-101372200D02*
X218519524Y-101419819D01*
X218519524Y-101419819D02*
X218757619Y-101419819D01*
X218757619Y-101419819D02*
X218852857Y-101372200D01*
X218852857Y-101372200D02*
X218900476Y-101324580D01*
X218900476Y-101324580D02*
X218948095Y-101229342D01*
X218948095Y-101229342D02*
X218948095Y-101134104D01*
X218948095Y-101134104D02*
X218900476Y-101038866D01*
X218900476Y-101038866D02*
X218852857Y-100991247D01*
X218852857Y-100991247D02*
X218757619Y-100943628D01*
X218757619Y-100943628D02*
X218567143Y-100896009D01*
X218567143Y-100896009D02*
X218471905Y-100848390D01*
X218471905Y-100848390D02*
X218424286Y-100800771D01*
X218424286Y-100800771D02*
X218376667Y-100705533D01*
X218376667Y-100705533D02*
X218376667Y-100610295D01*
X218376667Y-100610295D02*
X218424286Y-100515057D01*
X218424286Y-100515057D02*
X218471905Y-100467438D01*
X218471905Y-100467438D02*
X218567143Y-100419819D01*
X218567143Y-100419819D02*
X218805238Y-100419819D01*
X218805238Y-100419819D02*
X218948095Y-100467438D01*
X219281429Y-100419819D02*
X219519524Y-101419819D01*
X219519524Y-101419819D02*
X219710000Y-100705533D01*
X219710000Y-100705533D02*
X219900476Y-101419819D01*
X219900476Y-101419819D02*
X220138572Y-100419819D01*
X220662381Y-100848390D02*
X220567143Y-100800771D01*
X220567143Y-100800771D02*
X220519524Y-100753152D01*
X220519524Y-100753152D02*
X220471905Y-100657914D01*
X220471905Y-100657914D02*
X220471905Y-100610295D01*
X220471905Y-100610295D02*
X220519524Y-100515057D01*
X220519524Y-100515057D02*
X220567143Y-100467438D01*
X220567143Y-100467438D02*
X220662381Y-100419819D01*
X220662381Y-100419819D02*
X220852857Y-100419819D01*
X220852857Y-100419819D02*
X220948095Y-100467438D01*
X220948095Y-100467438D02*
X220995714Y-100515057D01*
X220995714Y-100515057D02*
X221043333Y-100610295D01*
X221043333Y-100610295D02*
X221043333Y-100657914D01*
X221043333Y-100657914D02*
X220995714Y-100753152D01*
X220995714Y-100753152D02*
X220948095Y-100800771D01*
X220948095Y-100800771D02*
X220852857Y-100848390D01*
X220852857Y-100848390D02*
X220662381Y-100848390D01*
X220662381Y-100848390D02*
X220567143Y-100896009D01*
X220567143Y-100896009D02*
X220519524Y-100943628D01*
X220519524Y-100943628D02*
X220471905Y-101038866D01*
X220471905Y-101038866D02*
X220471905Y-101229342D01*
X220471905Y-101229342D02*
X220519524Y-101324580D01*
X220519524Y-101324580D02*
X220567143Y-101372200D01*
X220567143Y-101372200D02*
X220662381Y-101419819D01*
X220662381Y-101419819D02*
X220852857Y-101419819D01*
X220852857Y-101419819D02*
X220948095Y-101372200D01*
X220948095Y-101372200D02*
X220995714Y-101324580D01*
X220995714Y-101324580D02*
X221043333Y-101229342D01*
X221043333Y-101229342D02*
X221043333Y-101038866D01*
X221043333Y-101038866D02*
X220995714Y-100943628D01*
X220995714Y-100943628D02*
X220948095Y-100896009D01*
X220948095Y-100896009D02*
X220852857Y-100848390D01*
X209589761Y-96879580D02*
X209542142Y-96927200D01*
X209542142Y-96927200D02*
X209399285Y-96974819D01*
X209399285Y-96974819D02*
X209304047Y-96974819D01*
X209304047Y-96974819D02*
X209161190Y-96927200D01*
X209161190Y-96927200D02*
X209065952Y-96831961D01*
X209065952Y-96831961D02*
X209018333Y-96736723D01*
X209018333Y-96736723D02*
X208970714Y-96546247D01*
X208970714Y-96546247D02*
X208970714Y-96403390D01*
X208970714Y-96403390D02*
X209018333Y-96212914D01*
X209018333Y-96212914D02*
X209065952Y-96117676D01*
X209065952Y-96117676D02*
X209161190Y-96022438D01*
X209161190Y-96022438D02*
X209304047Y-95974819D01*
X209304047Y-95974819D02*
X209399285Y-95974819D01*
X209399285Y-95974819D02*
X209542142Y-96022438D01*
X209542142Y-96022438D02*
X209589761Y-96070057D01*
X210446904Y-96974819D02*
X210446904Y-96451009D01*
X210446904Y-96451009D02*
X210399285Y-96355771D01*
X210399285Y-96355771D02*
X210304047Y-96308152D01*
X210304047Y-96308152D02*
X210113571Y-96308152D01*
X210113571Y-96308152D02*
X210018333Y-96355771D01*
X210446904Y-96927200D02*
X210351666Y-96974819D01*
X210351666Y-96974819D02*
X210113571Y-96974819D01*
X210113571Y-96974819D02*
X210018333Y-96927200D01*
X210018333Y-96927200D02*
X209970714Y-96831961D01*
X209970714Y-96831961D02*
X209970714Y-96736723D01*
X209970714Y-96736723D02*
X210018333Y-96641485D01*
X210018333Y-96641485D02*
X210113571Y-96593866D01*
X210113571Y-96593866D02*
X210351666Y-96593866D01*
X210351666Y-96593866D02*
X210446904Y-96546247D01*
X210923095Y-96308152D02*
X210923095Y-97308152D01*
X210923095Y-96355771D02*
X211018333Y-96308152D01*
X211018333Y-96308152D02*
X211208809Y-96308152D01*
X211208809Y-96308152D02*
X211304047Y-96355771D01*
X211304047Y-96355771D02*
X211351666Y-96403390D01*
X211351666Y-96403390D02*
X211399285Y-96498628D01*
X211399285Y-96498628D02*
X211399285Y-96784342D01*
X211399285Y-96784342D02*
X211351666Y-96879580D01*
X211351666Y-96879580D02*
X211304047Y-96927200D01*
X211304047Y-96927200D02*
X211208809Y-96974819D01*
X211208809Y-96974819D02*
X211018333Y-96974819D01*
X211018333Y-96974819D02*
X210923095Y-96927200D01*
X208161190Y-43904819D02*
X207685000Y-43904819D01*
X207685000Y-43904819D02*
X207637381Y-44381009D01*
X207637381Y-44381009D02*
X207685000Y-44333390D01*
X207685000Y-44333390D02*
X207780238Y-44285771D01*
X207780238Y-44285771D02*
X208018333Y-44285771D01*
X208018333Y-44285771D02*
X208113571Y-44333390D01*
X208113571Y-44333390D02*
X208161190Y-44381009D01*
X208161190Y-44381009D02*
X208208809Y-44476247D01*
X208208809Y-44476247D02*
X208208809Y-44714342D01*
X208208809Y-44714342D02*
X208161190Y-44809580D01*
X208161190Y-44809580D02*
X208113571Y-44857200D01*
X208113571Y-44857200D02*
X208018333Y-44904819D01*
X208018333Y-44904819D02*
X207780238Y-44904819D01*
X207780238Y-44904819D02*
X207685000Y-44857200D01*
X207685000Y-44857200D02*
X207637381Y-44809580D01*
X208637381Y-44904819D02*
X208637381Y-43904819D01*
X208637381Y-43904819D02*
X208970714Y-44619104D01*
X208970714Y-44619104D02*
X209304047Y-43904819D01*
X209304047Y-43904819D02*
X209304047Y-44904819D01*
X209780238Y-44904819D02*
X209780238Y-43904819D01*
X209780238Y-43904819D02*
X210113571Y-44619104D01*
X210113571Y-44619104D02*
X210446904Y-43904819D01*
X210446904Y-43904819D02*
X210446904Y-44904819D01*
X211685000Y-44904819D02*
X211685000Y-43904819D01*
X212732618Y-44904819D02*
X212399285Y-44428628D01*
X212161190Y-44904819D02*
X212161190Y-43904819D01*
X212161190Y-43904819D02*
X212542142Y-43904819D01*
X212542142Y-43904819D02*
X212637380Y-43952438D01*
X212637380Y-43952438D02*
X212684999Y-44000057D01*
X212684999Y-44000057D02*
X212732618Y-44095295D01*
X212732618Y-44095295D02*
X212732618Y-44238152D01*
X212732618Y-44238152D02*
X212684999Y-44333390D01*
X212684999Y-44333390D02*
X212637380Y-44381009D01*
X212637380Y-44381009D02*
X212542142Y-44428628D01*
X212542142Y-44428628D02*
X212161190Y-44428628D01*
X208851667Y-101372200D02*
X208994524Y-101419819D01*
X208994524Y-101419819D02*
X209232619Y-101419819D01*
X209232619Y-101419819D02*
X209327857Y-101372200D01*
X209327857Y-101372200D02*
X209375476Y-101324580D01*
X209375476Y-101324580D02*
X209423095Y-101229342D01*
X209423095Y-101229342D02*
X209423095Y-101134104D01*
X209423095Y-101134104D02*
X209375476Y-101038866D01*
X209375476Y-101038866D02*
X209327857Y-100991247D01*
X209327857Y-100991247D02*
X209232619Y-100943628D01*
X209232619Y-100943628D02*
X209042143Y-100896009D01*
X209042143Y-100896009D02*
X208946905Y-100848390D01*
X208946905Y-100848390D02*
X208899286Y-100800771D01*
X208899286Y-100800771D02*
X208851667Y-100705533D01*
X208851667Y-100705533D02*
X208851667Y-100610295D01*
X208851667Y-100610295D02*
X208899286Y-100515057D01*
X208899286Y-100515057D02*
X208946905Y-100467438D01*
X208946905Y-100467438D02*
X209042143Y-100419819D01*
X209042143Y-100419819D02*
X209280238Y-100419819D01*
X209280238Y-100419819D02*
X209423095Y-100467438D01*
X209756429Y-100419819D02*
X209994524Y-101419819D01*
X209994524Y-101419819D02*
X210185000Y-100705533D01*
X210185000Y-100705533D02*
X210375476Y-101419819D01*
X210375476Y-101419819D02*
X210613572Y-100419819D01*
X210899286Y-100419819D02*
X211565952Y-100419819D01*
X211565952Y-100419819D02*
X211137381Y-101419819D01*
X209004819Y-72508571D02*
X209004819Y-71937143D01*
X210004819Y-72222857D02*
X209004819Y-72222857D01*
X210004819Y-71603809D02*
X209004819Y-71603809D01*
X209004819Y-71603809D02*
X209004819Y-71365714D01*
X209004819Y-71365714D02*
X209052438Y-71222857D01*
X209052438Y-71222857D02*
X209147676Y-71127619D01*
X209147676Y-71127619D02*
X209242914Y-71080000D01*
X209242914Y-71080000D02*
X209433390Y-71032381D01*
X209433390Y-71032381D02*
X209576247Y-71032381D01*
X209576247Y-71032381D02*
X209766723Y-71080000D01*
X209766723Y-71080000D02*
X209861961Y-71127619D01*
X209861961Y-71127619D02*
X209957200Y-71222857D01*
X209957200Y-71222857D02*
X210004819Y-71365714D01*
X210004819Y-71365714D02*
X210004819Y-71603809D01*
X210004819Y-70603809D02*
X209338152Y-70603809D01*
X209004819Y-70603809D02*
X209052438Y-70651428D01*
X209052438Y-70651428D02*
X209100057Y-70603809D01*
X209100057Y-70603809D02*
X209052438Y-70556190D01*
X209052438Y-70556190D02*
X209004819Y-70603809D01*
X209004819Y-70603809D02*
X209100057Y-70603809D01*
X209957200Y-70175238D02*
X210004819Y-70080000D01*
X210004819Y-70080000D02*
X210004819Y-69889524D01*
X210004819Y-69889524D02*
X209957200Y-69794286D01*
X209957200Y-69794286D02*
X209861961Y-69746667D01*
X209861961Y-69746667D02*
X209814342Y-69746667D01*
X209814342Y-69746667D02*
X209719104Y-69794286D01*
X209719104Y-69794286D02*
X209671485Y-69889524D01*
X209671485Y-69889524D02*
X209671485Y-70032381D01*
X209671485Y-70032381D02*
X209623866Y-70127619D01*
X209623866Y-70127619D02*
X209528628Y-70175238D01*
X209528628Y-70175238D02*
X209481009Y-70175238D01*
X209481009Y-70175238D02*
X209385771Y-70127619D01*
X209385771Y-70127619D02*
X209338152Y-70032381D01*
X209338152Y-70032381D02*
X209338152Y-69889524D01*
X209338152Y-69889524D02*
X209385771Y-69794286D01*
X209338152Y-69318095D02*
X210338152Y-69318095D01*
X209385771Y-69318095D02*
X209338152Y-69222857D01*
X209338152Y-69222857D02*
X209338152Y-69032381D01*
X209338152Y-69032381D02*
X209385771Y-68937143D01*
X209385771Y-68937143D02*
X209433390Y-68889524D01*
X209433390Y-68889524D02*
X209528628Y-68841905D01*
X209528628Y-68841905D02*
X209814342Y-68841905D01*
X209814342Y-68841905D02*
X209909580Y-68889524D01*
X209909580Y-68889524D02*
X209957200Y-68937143D01*
X209957200Y-68937143D02*
X210004819Y-69032381D01*
X210004819Y-69032381D02*
X210004819Y-69222857D01*
X210004819Y-69222857D02*
X209957200Y-69318095D01*
X210004819Y-68270476D02*
X209957200Y-68365714D01*
X209957200Y-68365714D02*
X209861961Y-68413333D01*
X209861961Y-68413333D02*
X209004819Y-68413333D01*
X210004819Y-67460952D02*
X209481009Y-67460952D01*
X209481009Y-67460952D02*
X209385771Y-67508571D01*
X209385771Y-67508571D02*
X209338152Y-67603809D01*
X209338152Y-67603809D02*
X209338152Y-67794285D01*
X209338152Y-67794285D02*
X209385771Y-67889523D01*
X209957200Y-67460952D02*
X210004819Y-67556190D01*
X210004819Y-67556190D02*
X210004819Y-67794285D01*
X210004819Y-67794285D02*
X209957200Y-67889523D01*
X209957200Y-67889523D02*
X209861961Y-67937142D01*
X209861961Y-67937142D02*
X209766723Y-67937142D01*
X209766723Y-67937142D02*
X209671485Y-67889523D01*
X209671485Y-67889523D02*
X209623866Y-67794285D01*
X209623866Y-67794285D02*
X209623866Y-67556190D01*
X209623866Y-67556190D02*
X209576247Y-67460952D01*
X209338152Y-67079999D02*
X210004819Y-66841904D01*
X209338152Y-66603809D02*
X210004819Y-66841904D01*
X210004819Y-66841904D02*
X210242914Y-66937142D01*
X210242914Y-66937142D02*
X210290533Y-66984761D01*
X210290533Y-66984761D02*
X210338152Y-67079999D01*
X209957200Y-66270475D02*
X210004819Y-66127618D01*
X210004819Y-66127618D02*
X210004819Y-65889523D01*
X210004819Y-65889523D02*
X209957200Y-65794285D01*
X209957200Y-65794285D02*
X209909580Y-65746666D01*
X209909580Y-65746666D02*
X209814342Y-65699047D01*
X209814342Y-65699047D02*
X209719104Y-65699047D01*
X209719104Y-65699047D02*
X209623866Y-65746666D01*
X209623866Y-65746666D02*
X209576247Y-65794285D01*
X209576247Y-65794285D02*
X209528628Y-65889523D01*
X209528628Y-65889523D02*
X209481009Y-66079999D01*
X209481009Y-66079999D02*
X209433390Y-66175237D01*
X209433390Y-66175237D02*
X209385771Y-66222856D01*
X209385771Y-66222856D02*
X209290533Y-66270475D01*
X209290533Y-66270475D02*
X209195295Y-66270475D01*
X209195295Y-66270475D02*
X209100057Y-66222856D01*
X209100057Y-66222856D02*
X209052438Y-66175237D01*
X209052438Y-66175237D02*
X209004819Y-66079999D01*
X209004819Y-66079999D02*
X209004819Y-65841904D01*
X209004819Y-65841904D02*
X209052438Y-65699047D01*
X209004819Y-65365713D02*
X209004819Y-64746666D01*
X209004819Y-64746666D02*
X209385771Y-65079999D01*
X209385771Y-65079999D02*
X209385771Y-64937142D01*
X209385771Y-64937142D02*
X209433390Y-64841904D01*
X209433390Y-64841904D02*
X209481009Y-64794285D01*
X209481009Y-64794285D02*
X209576247Y-64746666D01*
X209576247Y-64746666D02*
X209814342Y-64746666D01*
X209814342Y-64746666D02*
X209909580Y-64794285D01*
X209909580Y-64794285D02*
X209957200Y-64841904D01*
X209957200Y-64841904D02*
X210004819Y-64937142D01*
X210004819Y-64937142D02*
X210004819Y-65222856D01*
X210004819Y-65222856D02*
X209957200Y-65318094D01*
X209957200Y-65318094D02*
X209909580Y-65365713D01*
X196366191Y-125549819D02*
X196366191Y-124549819D01*
X196842381Y-125549819D02*
X196842381Y-124549819D01*
X196842381Y-124549819D02*
X197413809Y-125549819D01*
X197413809Y-125549819D02*
X197413809Y-124549819D01*
X197890000Y-125549819D02*
X197890000Y-124549819D01*
X197890000Y-124549819D02*
X198223333Y-125264104D01*
X198223333Y-125264104D02*
X198556666Y-124549819D01*
X198556666Y-124549819D02*
X198556666Y-125549819D01*
X199032857Y-125549819D02*
X199032857Y-124549819D01*
X199032857Y-124549819D02*
X199413809Y-124549819D01*
X199413809Y-124549819D02*
X199509047Y-124597438D01*
X199509047Y-124597438D02*
X199556666Y-124645057D01*
X199556666Y-124645057D02*
X199604285Y-124740295D01*
X199604285Y-124740295D02*
X199604285Y-124883152D01*
X199604285Y-124883152D02*
X199556666Y-124978390D01*
X199556666Y-124978390D02*
X199509047Y-125026009D01*
X199509047Y-125026009D02*
X199413809Y-125073628D01*
X199413809Y-125073628D02*
X199032857Y-125073628D01*
X200461428Y-124883152D02*
X200461428Y-125549819D01*
X200223333Y-124502200D02*
X199985238Y-125216485D01*
X199985238Y-125216485D02*
X200604285Y-125216485D01*
X201413809Y-124883152D02*
X201413809Y-125549819D01*
X201175714Y-124502200D02*
X200937619Y-125216485D01*
X200937619Y-125216485D02*
X201556666Y-125216485D01*
X202461428Y-125549819D02*
X201890000Y-125549819D01*
X202175714Y-125549819D02*
X202175714Y-124549819D01*
X202175714Y-124549819D02*
X202080476Y-124692676D01*
X202080476Y-124692676D02*
X201985238Y-124787914D01*
X201985238Y-124787914D02*
X201890000Y-124835533D01*
D13*
%TO.C,470ohm*%
X202915000Y-61610000D02*
X202915000Y-57770000D01*
X204755000Y-61610000D02*
X204755000Y-57770000D01*
%TO.C,INMP441 2*%
X198187000Y-136555000D02*
X203327000Y-136555000D01*
X198187000Y-136555000D02*
X198187000Y-133895000D01*
X203327000Y-136555000D02*
X203327000Y-133895000D01*
X195587000Y-135225000D02*
X195587000Y-133895000D01*
X195587000Y-133895000D02*
X196917000Y-133895000D01*
X198187000Y-133895000D02*
X203327000Y-133895000D01*
%TO.C,ANO Rotary*%
X201295000Y-151825000D02*
X221675000Y-151825000D01*
X201295000Y-151825000D02*
X201295000Y-149165000D01*
X221675000Y-151825000D02*
X221675000Y-149165000D01*
X198695000Y-150495000D02*
X198695000Y-149165000D01*
X198695000Y-149165000D02*
X200025000Y-149165000D01*
X201295000Y-149165000D02*
X221675000Y-149165000D01*
%TO.C,SW6*%
X197486020Y-110585004D02*
X198986020Y-110585004D01*
X201486020Y-109335004D02*
X201486020Y-104835004D01*
X194986020Y-105255004D02*
X194986020Y-109755004D01*
X198986020Y-103585004D02*
X197486020Y-103585004D01*
%TO.C,NPN*%
X204365000Y-50220000D02*
X200765000Y-50220000D01*
X203385000Y-54519999D02*
G75*
G03*
X204376452Y-50227845I-820000J2449999D01*
G01*
X200756555Y-50242316D02*
G75*
G03*
X201785000Y-54520000I1808445J-1827684D01*
G01*
D14*
%TO.C,PCF8574N*%
X218440000Y-122936000D02*
X224790000Y-122936000D01*
X218440000Y-141224000D02*
X224790000Y-141224000D01*
D15*
X216680000Y-123190000D02*
G75*
G03*
X216680000Y-123190000I-100000J0D01*
G01*
D13*
%TO.C,SW8*%
X221454436Y-110586007D02*
X222954436Y-110586007D01*
X225454436Y-109336007D02*
X225454436Y-105256007D01*
X218954436Y-104836007D02*
X218954436Y-109336007D01*
X222954436Y-103586007D02*
X221454436Y-103586007D01*
%TO.C,Cap*%
X207875000Y-95450000D02*
X207875000Y-95465000D01*
X207875000Y-95450000D02*
X212415000Y-95450000D01*
X207875000Y-97575000D02*
X207875000Y-97590000D01*
X207875000Y-97590000D02*
X212415000Y-97590000D01*
X212415000Y-95450000D02*
X212415000Y-95465000D01*
X212415000Y-97575000D02*
X212415000Y-97590000D01*
%TO.C,5MM IR*%
X207553066Y-46715000D02*
X207553066Y-49805000D01*
X213103065Y-48260462D02*
G75*
G03*
X207553067Y-46715170I-2989999J462D01*
G01*
X207553066Y-49804830D02*
G75*
G03*
X213103066Y-48259538I2560000J1544830D01*
G01*
X212613066Y-48260000D02*
G75*
G03*
X212613066Y-48260000I-2500000J0D01*
G01*
%TO.C,SW7*%
X209454436Y-110585525D02*
X210954436Y-110585525D01*
X213454436Y-109335525D02*
X213454436Y-105255525D01*
X206954436Y-104835525D02*
X206954436Y-109335525D01*
X210954436Y-103585525D02*
X209454436Y-103585525D01*
%TO.C,TDisplayS3*%
X197435756Y-66926891D02*
X197435756Y-94926891D01*
X197435756Y-66926891D02*
X200095756Y-66926891D01*
X197435756Y-94926891D02*
X200095756Y-94926891D01*
X198765756Y-64326891D02*
X200095756Y-64326891D01*
X200095756Y-64326891D02*
X200095756Y-65656891D01*
X200095756Y-66926891D02*
X200095756Y-94926891D01*
%TO.C,REF\u002A\u002A*%
X220295756Y-66927409D02*
X220295756Y-94927409D01*
X220295756Y-66927409D02*
X222955756Y-66927409D01*
X220295756Y-94927409D02*
X222955756Y-94927409D01*
X221625756Y-64327409D02*
X222955756Y-64327409D01*
X222955756Y-64327409D02*
X222955756Y-65657409D01*
X222955756Y-66927409D02*
X222955756Y-94927409D01*
%TO.C,INMP441*%
X198120000Y-128965000D02*
X203260000Y-128965000D01*
X198120000Y-128965000D02*
X198120000Y-126305000D01*
X203260000Y-128965000D02*
X203260000Y-126305000D01*
X195520000Y-127635000D02*
X195520000Y-126305000D01*
X195520000Y-126305000D02*
X196850000Y-126305000D01*
X198120000Y-126305000D02*
X203260000Y-126305000D01*
%TD*%
M02*
