M48
; DRILL file {KiCad 7.0.6-0} date 2023 December 10, Sunday 07:55:41
; FORMAT={-:-/ absolute / inch / decimal}
; #@! TF.CreationDate,2023-12-10T07:55:41-08:00
; #@! TF.GenerationSoftware,Kicad,Pcbnew,7.0.6-0
; #@! TF.FileFunction,Plated,1,2,PTH
FMAT,2
INCH
; #@! TA.AperFunction,Plated,PTH,ViaDrill
T1C0.0118
; #@! TA.AperFunction,Plated,PTH,ViaDrill
T2C0.0157
; #@! TA.AperFunction,Plated,PTH,ComponentDrill
T3C0.0276
; #@! TA.AperFunction,Plated,PTH,ComponentDrill
T4C0.0295
; #@! TA.AperFunction,Plated,PTH,ComponentDrill
T5C0.0307
; #@! TA.AperFunction,Plated,PTH,ComponentDrill
T6C0.0315
; #@! TA.AperFunction,Plated,PTH,ComponentDrill
T7C0.0354
; #@! TA.AperFunction,Plated,PTH,ComponentDrill
T8C0.0394
; #@! TA.AperFunction,Plated,PTH,ComponentDrill
T9C0.0433
%
G90
G05
T1
X7.825Y-3.8
X7.85Y-4.775
X8.575Y-4.7
T2
X8.25Y-4.6
X8.475Y-4.35
T3
X8.025Y-2.25
X8.025Y-2.45
T4
X7.925Y-2.05
X7.975Y-2.1
X8.025Y-2.05
T5
X8.5687Y-4.85
X8.5687Y-4.95
X8.5687Y-5.05
X8.5687Y-5.15
X8.5687Y-5.25
X8.5687Y-5.35
X8.5687Y-5.45
X8.5687Y-5.55
X8.8813Y-4.85
X8.8813Y-4.95
X8.8813Y-5.05
X8.8813Y-5.15
X8.8813Y-5.25
X8.8813Y-5.35
X8.8813Y-5.45
X8.8813Y-5.55
T6
X8.175Y-3.8
X8.3719Y-3.8
T7
X8.2222Y-1.9
X8.3222Y-1.9
T8
X7.75Y-5.025
X7.7526Y-5.3238
X7.8254Y-2.5849
X7.8254Y-2.6849
X7.8254Y-2.7849
X7.8254Y-2.8849
X7.8254Y-2.9849
X7.8254Y-3.0849
X7.8254Y-3.1849
X7.8254Y-3.2849
X7.8254Y-3.3849
X7.8254Y-3.4849
X7.8254Y-3.5849
X7.8254Y-3.6849
X7.85Y-5.025
X7.8526Y-5.3238
X7.875Y-5.925
X7.95Y-5.025
X7.9526Y-5.3238
X7.975Y-5.925
X8.075Y-5.925
X8.175Y-5.925
X8.275Y-5.925
X8.375Y-5.925
X8.475Y-5.925
X8.575Y-5.925
X8.675Y-5.925
X8.7254Y-2.5849
X8.7254Y-2.6849
X8.7254Y-2.7849
X8.7254Y-2.8849
X8.7254Y-2.9849
X8.7254Y-3.0849
X8.7254Y-3.1849
X8.7254Y-3.2849
X8.7254Y-3.3849
X8.7254Y-3.4849
X8.7254Y-3.5849
X8.7254Y-3.6849
T9
X7.716Y-4.088
X7.716Y-4.3439
X7.8932Y-4.088
X7.8932Y-4.3439
X8.1872Y-4.088
X8.1872Y-4.3439
X8.3643Y-4.088
X8.3643Y-4.3439
X8.6596Y-4.088
X8.6596Y-4.3439
X8.8368Y-4.088
X8.8368Y-4.3439
T0
M30
