0
SECTION
2
HEADER
9
$INSUNITS
70
4
9
$ACADVER
1
AC1014
9
$HANDSEED
5
FFFF
0
ENDSEC
0
SECTION
2
TABLES
0
TABLE
2
VPORT
5
8
100
AcDbSymbolTable
0
ENDTAB
0
TABLE
2
LTYPE
5
5
100
AcDbSymbolTable
0
LTYPE
5
14
100
AcDbSymbolTableRecord
100
AcDbLinetypeTableRecord
2
BYBLOCK
70
0
0
LTYPE
5
15
100
AcDbSymbolTableRecord
100
AcDbLinetypeTableRecord
2
BYLAYER
70
0
0
ENDTAB
0
TABLE
2
LAYER
5
2
100
AcDbSymbolTable
70
2
0
LAYER
5
50
100
AcDbSymbolTableRecord
100
AcDbLayerTableRecord
2
0
70
0
6
CONTINUOUS
0
ENDTAB
0
TABLE
2
STYLE
5
3
100
AcDbSymbolTable
70
1
0
STYLE
5
11
100
AcDbSymbolTableRecord
100
AcDbTextStyleTableRecord
2
STANDARD
70
0
0
ENDTAB
0
TABLE
2
VIEW
5
6
100
AcDbSymbolTable
70
0
0
ENDTAB
0
TABLE
2
UCS
5
7
100
AcDbSymbolTable
70
0
0
ENDTAB
0
TABLE
2
APPID
5
9
100
AcDbSymbolTable
70
2
0
APPID
5
12
100
AcDbSymbolTableRecord
100
AcDbRegAppTableRecord
2
ACAD
70
0
0
ENDTAB
0
TABLE
2
DIMSTYLE
5
A
100
AcDbSymbolTable
70
1
0
ENDTAB
0
TABLE
2
BLOCK_RECORD
5
1
100
AcDbSymbolTable
70
1
0
BLOCK_RECORD
5
1F
100
AcDbSymbolTableRecord
100
AcDbBlockTableRecord
2
*MODEL_SPACE
0
BLOCK_RECORD
5
1B
100
AcDbSymbolTableRecord
100
AcDbBlockTableRecord
2
*PAPER_SPACE
0
ENDTAB
0
ENDSEC
0
SECTION
2
BLOCKS
0
BLOCK
5
20
100
AcDbEntity
100
AcDbBlockBegin
2
*MODEL_SPACE
0
ENDBLK
5
21
100
AcDbEntity
100
AcDbBlockEnd
0
BLOCK
5
1C
100
AcDbEntity
100
AcDbBlockBegin
2
*PAPER_SPACE
0
ENDBLK
5
1D
100
AcDbEntity
100
AcDbBlockEnd
0
ENDSEC
0
SECTION
2
ENTITIES
0
CIRCLE
5
100
100
AcDbEntity
8
0
100
AcDbCircle
10
-10.74999999999601
20
-7.54
30
0
40
0.5
210
0
220
0
230
1
0
CIRCLE
5
101
100
AcDbEntity
8
0
100
AcDbCircle
10
-8.2099999999960076
20
-2.46
30
0
40
0.5
210
0
220
0
230
1
0
CIRCLE
5
102
100
AcDbEntity
8
0
100
AcDbCircle
10
-13.289999999996009
20
-2.46
30
0
40
0.5
210
0
220
0
230
1
0
CIRCLE
5
103
100
AcDbEntity
8
0
100
AcDbCircle
10
7.6364999999660004
20
-22.809999999999704
30
0
40
0.5
210
0
220
0
230
1
0
CIRCLE
5
104
100
AcDbEntity
8
0
100
AcDbCircle
10
2.5454999999659988
20
-22.809999999999704
30
0
40
0.5
210
0
220
0
230
1
0
CIRCLE
5
105
100
AcDbEntity
8
0
100
AcDbCircle
10
-2.5455000000340009
20
-22.809999999999704
30
0
40
0.5
210
0
220
0
230
1
0
CIRCLE
5
106
100
AcDbEntity
8
0
100
AcDbCircle
10
-7.6365000000340011
20
-22.809999999999704
30
0
40
0.5
210
0
220
0
230
1
0
CIRCLE
5
107
100
AcDbEntity
8
0
100
AcDbCircle
10
-1.3639339828081587
20
82.231527998801653
30
0
40
0.5
210
0
220
0
230
1
0
CIRCLE
5
108
100
AcDbEntity
8
0
100
AcDbCircle
10
-11.442365837034389
20
34.088109457508537
30
0
40
0.5
210
0
220
0
230
1
0
CIRCLE
5
109
100
AcDbEntity
8
0
100
AcDbCircle
10
11.418755744112239
20
62.027590775729777
30
0
40
0.5
210
0
220
0
230
1
0
CIRCLE
5
110
100
AcDbEntity
8
0
100
AcDbCircle
10
11.418653781971484
20
59.48759077777629
30
0
40
0.5
210
0
220
0
230
1
0
CIRCLE
5
111
100
AcDbEntity
8
0
100
AcDbCircle
10
11.418449857689959
20
54.407590781869317
30
0
40
0.5
210
0
220
0
230
1
0
CIRCLE
5
112
100
AcDbEntity
8
0
100
AcDbCircle
10
11.41824593340845
20
49.327590785962343
30
0
40
0.5
210
0
220
0
230
1
0
CIRCLE
5
113
100
AcDbEntity
8
0
100
AcDbCircle
10
11.418042009126925
20
44.247590790055355
30
0
40
0.5
210
0
220
0
230
1
0
CIRCLE
5
114
100
AcDbEntity
8
0
100
AcDbCircle
10
11.417838084845418
20
39.167590794148389
30
0
40
0.5
210
0
220
0
230
1
0
CIRCLE
5
115
100
AcDbEntity
8
0
100
AcDbCircle
10
-11.442263874893637
20
36.628109455462031
30
0
40
0.5
210
0
220
0
230
1
0
CIRCLE
5
116
100
AcDbEntity
8
0
100
AcDbCircle
10
-11.44205995061213
20
41.708109451369012
30
0
40
0.5
210
0
220
0
230
1
0
CIRCLE
5
117
100
AcDbEntity
8
0
100
AcDbCircle
10
-11.441856026330603
20
46.788109447275986
30
0
40
0.5
210
0
220
0
230
1
0
CIRCLE
5
118
100
AcDbEntity
8
0
100
AcDbCircle
10
-11.441652102049096
20
51.868109443182952
30
0
40
0.5
210
0
220
0
230
1
0
CIRCLE
5
119
100
AcDbEntity
8
0
100
AcDbCircle
10
-11.441448177767588
20
56.94810943908994
30
0
40
0.5
210
0
220
0
230
1
0
CIRCLE
5
120
100
AcDbEntity
8
0
100
AcDbCircle
10
-11.441346215626815
20
59.488109437043441
30
0
40
0.5
210
0
220
0
230
1
0
CIRCLE
5
121
100
AcDbEntity
8
0
100
AcDbCircle
10
-11.44155013990834
20
54.408109441136432
30
0
40
0.5
210
0
220
0
230
1
0
CIRCLE
5
122
100
AcDbEntity
8
0
100
AcDbCircle
10
-11.441754064189848
20
49.328109445229458
30
0
40
0.5
210
0
220
0
230
1
0
CIRCLE
5
123
100
AcDbEntity
8
0
100
AcDbCircle
10
-11.441957988471374
20
44.248109449322499
30
0
40
0.5
210
0
220
0
230
1
0
CIRCLE
5
124
100
AcDbEntity
8
0
100
AcDbCircle
10
-11.442161912752882
20
39.168109453415518
30
0
40
0.5
210
0
220
0
230
1
0
CIRCLE
5
125
100
AcDbEntity
8
0
100
AcDbCircle
10
11.417736122704664
20
36.627590796194902
30
0
40
0.5
210
0
220
0
230
1
0
CIRCLE
5
126
100
AcDbEntity
8
0
100
AcDbCircle
10
11.417940046986173
20
41.707590792101897
30
0
40
0.5
210
0
220
0
230
1
0
CIRCLE
5
127
100
AcDbEntity
8
0
100
AcDbCircle
10
11.418143971267698
20
46.787590788008856
30
0
40
0.5
210
0
220
0
230
1
0
CIRCLE
5
128
100
AcDbEntity
8
0
100
AcDbCircle
10
11.418347895549205
20
51.86759078391583
30
0
40
0.5
210
0
220
0
230
1
0
CIRCLE
5
129
100
AcDbEntity
8
0
100
AcDbCircle
10
11.418551819830732
20
56.947590779822804
30
0
40
0.5
210
0
220
0
230
1
0
CIRCLE
5
130
100
AcDbEntity
8
0
100
AcDbCircle
10
-11.441244253495732
20
62.028109434996907
30
0
40
0.5
210
0
220
0
230
1
0
CIRCLE
5
131
100
AcDbEntity
8
0
100
AcDbCircle
10
11.41763416056391
20
34.087590798241415
30
0
40
0.5
210
0
220
0
230
1
0
CIRCLE
5
132
100
AcDbEntity
8
0
100
AcDbCircle
10
1.1760660171918433
20
82.231527998801567
30
0
40
0.5
210
0
220
0
230
1
0
CIRCLE
5
133
100
AcDbEntity
8
0
100
AcDbCircle
10
-10.182000000034019
20
-22.809999999999704
30
0
40
0.5
210
0
220
0
230
1
0
CIRCLE
5
134
100
AcDbEntity
8
0
100
AcDbCircle
10
-5.0910000000340005
20
-22.809999999999704
30
0
40
0.5
210
0
220
0
230
1
0
CIRCLE
5
135
100
AcDbEntity
8
0
100
AcDbCircle
10
-3.4000578408268061e-11
20
-22.809999999999704
30
0
40
0.5
210
0
220
0
230
1
0
CIRCLE
5
136
100
AcDbEntity
8
0
100
AcDbCircle
10
5.0909999999660007
20
-22.809999999999704
30
0
40
0.5
210
0
220
0
230
1
0
CIRCLE
5
137
100
AcDbEntity
8
0
100
AcDbCircle
10
10.181999999965981
20
-22.809999999999704
30
0
40
0.5
210
0
220
0
230
1
0
CIRCLE
5
138
100
AcDbEntity
8
0
100
AcDbCircle
10
-10.74999999999601
20
-2.46
30
0
40
0.5
210
0
220
0
230
1
0
CIRCLE
5
139
100
AcDbEntity
8
0
100
AcDbCircle
10
-8.2099999999960076
20
-7.54
30
0
40
0.5
210
0
220
0
230
1
0
CIRCLE
5
140
100
AcDbEntity
8
0
100
AcDbCircle
10
-13.289999999996009
20
-7.54
30
0
40
0.5
210
0
220
0
230
1
0
LWPOLYLINE
5
141
100
AcDbEntity
8
0
100
AcDbPolyline
90
49
70
1
43
0.0
10
13.319176976066201
20
79.372568369108137
10
13.318801906962737
20
63.927508185627161
10
13.174302943049788
20
63.927511694649802
10
13.174272836849553
20
63.177529907592756
10
13.318783694353556
20
63.177526398281017
10
13.318031131509859
20
32.187544623617306
10
13.317816836617595
20
26.849201609634925
42
0.41421356237310092
10
14.317776693231197
20
25.849161467859947
10
15.998004548249575
20
25.849094019177656
42
-0.41421356237207591
10
16.997964404863176
20
24.849053877406156
10
16.997619510391452
20
16.349029497026233
42
-0.41421356237273471
10
15.99757936862124
20
15.349069640409102
10
13.077769741766126
20
15.349186849088831
42
0.41421356237369072
10
12.077729599995912
20
14.349226992468441
10
12.077448588972672
20
7.3489030046097543
42
0.41421356238039658
10
13.077408445617991
20
6.3488628628415666
10
15.997218072662978
20
6.3487456542405312
42
-0.41421356237257084
10
16.997177929308293
20
5.3487055124990608
10
16.996395149639159
20
-14.151294449409022
42
-0.4142135623682584
10
15.996355007914204
20
-15.151254306056142
10
13.076545380182974
20
-15.15113709750854
42
0.41421356236013024
10
12.076505238458024
20
-16.151096954127908
10
12.076213809758388
20
-23.410937658449505
42
-0.41421356237315227
10
11.076173667988984
20
-24.410897515068868
10
-11.083258259811666
20
-24.410007978407432
42
-0.41421356237345597
10
-12.083218116430832
20
-23.409967836636795
10
-12.082926687720832
20
-16.150127132873294
42
0.41421356237289214
10
-13.082886544338056
20
-15.15008699110264
10
-16.002696171224983
20
-15.149969782419582
42
-0.41421356237229773
10
-17.002656027842207
20
-14.149929640650951
10
-17.001873247643587
20
5.3500703214770873
42
-0.41421356237255913
10
-16.001833105876798
20
6.3500301780970414
10
-13.082023478944206
20
6.3499129694273018
42
0.41421356237196666
10
-12.081983337177416
20
7.3498728260452335
10
-12.081792249616324
20
12.110094473410086
10
-12.081931461975838
20
14.350196883509483
42
0.41421356237293705
10
-13.081993605577713
20
15.350134736045005
10
-16.001803229218908
20
15.349953282919589
42
-0.41421356237345597
10
-17.001865372820788
20
16.349891135456879
10
-17.002393611356332
20
24.849915506593021
42
-0.41421356237564833
10
-16.002455758810399
20
25.84997765019374
10
-14.342018116711056
20
25.850080838959673
42
0.41421356237577517
10
-13.342080264165126
20
26.850142982560833
10
-13.342412000065751
20
32.188192047618713
10
-13.341266069067451
20
79.376782103583537
42
-0.29837436054907457
10
-12.740712727527894
20
80.29351425787722
10
-1.2922739573048769
20
85.281797313891147
42
-0.20711039475165655
10
1.0908210341600877
20
85.287676679437027
10
12.714095315350365
20
80.29130888005588
42
-0.29973146280770702
0
CIRCLE
5
142
100
AcDbEntity
8
0
100
AcDbCircle
10
-14.252305895455946
20
23.849997483464861
30
0
40
0.5
210
0
220
0
230
1
0
CIRCLE
5
143
100
AcDbEntity
8
0
100
AcDbCircle
10
-9.7523058954559456
20
23.849816841876926
30
0
40
0.5
210
0
220
0
230
1
0
CIRCLE
5
144
100
AcDbEntity
8
0
100
AcDbCircle
10
-2.252305905124516
20
23.849515772564104
30
0
40
0.5
210
0
220
0
230
1
0
CIRCLE
5
145
100
AcDbEntity
8
0
100
AcDbCircle
10
2.247694094875484
20
23.849335130976197
30
0
40
0.5
210
0
220
0
230
1
0
CIRCLE
5
146
100
AcDbEntity
8
0
100
AcDbCircle
10
9.747694085206934
20
23.849034061663389
30
0
40
0.5
210
0
220
0
230
1
0
CIRCLE
5
147
100
AcDbEntity
8
0
100
AcDbCircle
10
14.247694085206932
20
23.848853420075468
30
0
40
0.5
210
0
220
0
230
1
0
CIRCLE
5
148
100
AcDbEntity
8
0
100
AcDbCircle
10
14.24743315846904
20
17.348853425312623
30
0
40
0.5
210
0
220
0
230
1
0
CIRCLE
5
149
100
AcDbEntity
8
0
100
AcDbCircle
10
9.7474331584690432
20
17.349034066900526
30
0
40
0.5
210
0
220
0
230
1
0
CIRCLE
5
150
100
AcDbEntity
8
0
100
AcDbCircle
10
2.2474331681375914
20
17.349335136213334
30
0
40
0.5
210
0
220
0
230
1
0
CIRCLE
5
151
100
AcDbEntity
8
0
100
AcDbCircle
10
-2.2525668318624086
20
17.349515777801262
30
0
40
0.5
210
0
220
0
230
1
0
CIRCLE
5
152
100
AcDbEntity
8
0
100
AcDbCircle
10
-9.752566822193856
20
17.349816847114077
30
0
40
0.5
210
0
220
0
230
1
0
CIRCLE
5
153
100
AcDbEntity
8
0
100
AcDbCircle
10
-14.252566822193858
20
17.349997488701995
30
0
40
0.5
210
0
220
0
230
1
0
ENDSEC
0
SECTION
2
OBJECTS
0
DICTIONARY
5
C
100
AcDbDictionary
3
ACAD_GROUP
350
D
3
ACAD_MLINESTYLE
350
17
0
DICTIONARY
5
D
100
AcDbDictionary
0
DICTIONARY
5
1A
330
C
100
AcDbDictionary
0
DICTIONARY
5
17
100
AcDbDictionary
0
ENDSEC
0
EOF
