0
SECTION
2
HEADER
9
$INSUNITS
70
4
9
$ACADVER
1
AC1014
9
$HANDSEED
5
FFFF
0
ENDSEC
0
SECTION
2
TABLES
0
TABLE
2
VPORT
5
8
100
AcDbSymbolTable
0
ENDTAB
0
TABLE
2
LTYPE
5
5
100
AcDbSymbolTable
0
LTYPE
5
14
100
AcDbSymbolTableRecord
100
AcDbLinetypeTableRecord
2
BYBLOCK
70
0
0
LTYPE
5
15
100
AcDbSymbolTableRecord
100
AcDbLinetypeTableRecord
2
BYLAYER
70
0
0
ENDTAB
0
TABLE
2
LAYER
5
2
100
AcDbSymbolTable
70
2
0
LAYER
5
50
100
AcDbSymbolTableRecord
100
AcDbLayerTableRecord
2
0
70
0
6
CONTINUOUS
0
ENDTAB
0
TABLE
2
STYLE
5
3
100
AcDbSymbolTable
70
1
0
STYLE
5
11
100
AcDbSymbolTableRecord
100
AcDbTextStyleTableRecord
2
STANDARD
70
0
0
ENDTAB
0
TABLE
2
VIEW
5
6
100
AcDbSymbolTable
70
0
0
ENDTAB
0
TABLE
2
UCS
5
7
100
AcDbSymbolTable
70
0
0
ENDTAB
0
TABLE
2
APPID
5
9
100
AcDbSymbolTable
70
2
0
APPID
5
12
100
AcDbSymbolTableRecord
100
AcDbRegAppTableRecord
2
ACAD
70
0
0
ENDTAB
0
TABLE
2
DIMSTYLE
5
A
100
AcDbSymbolTable
70
1
0
ENDTAB
0
TABLE
2
BLOCK_RECORD
5
1
100
AcDbSymbolTable
70
1
0
BLOCK_RECORD
5
1F
100
AcDbSymbolTableRecord
100
AcDbBlockTableRecord
2
*MODEL_SPACE
0
BLOCK_RECORD
5
1B
100
AcDbSymbolTableRecord
100
AcDbBlockTableRecord
2
*PAPER_SPACE
0
ENDTAB
0
ENDSEC
0
SECTION
2
BLOCKS
0
BLOCK
5
20
100
AcDbEntity
100
AcDbBlockBegin
2
*MODEL_SPACE
0
ENDBLK
5
21
100
AcDbEntity
100
AcDbBlockEnd
0
BLOCK
5
1C
100
AcDbEntity
100
AcDbBlockBegin
2
*PAPER_SPACE
0
ENDBLK
5
1D
100
AcDbEntity
100
AcDbBlockEnd
0
ENDSEC
0
SECTION
2
ENTITIES
0
CIRCLE
5
100
100
AcDbEntity
8
0
100
AcDbCircle
10
-10.74999999999601
20
-7.54
30
0
40
0.5
210
0
220
0
230
1
0
CIRCLE
5
101
100
AcDbEntity
8
0
100
AcDbCircle
10
-8.2099999999960076
20
-2.46
30
0
40
0.5
210
0
220
0
230
1
0
CIRCLE
5
102
100
AcDbEntity
8
0
100
AcDbCircle
10
-13.289999999996009
20
-2.46
30
0
40
0.5
210
0
220
0
230
1
0
CIRCLE
5
103
100
AcDbEntity
8
0
100
AcDbCircle
10
7.6364999999660004
20
-22.809999999999704
30
0
40
0.5
210
0
220
0
230
1
0
CIRCLE
5
104
100
AcDbEntity
8
0
100
AcDbCircle
10
2.5454999999659988
20
-22.809999999999704
30
0
40
0.5
210
0
220
0
230
1
0
CIRCLE
5
105
100
AcDbEntity
8
0
100
AcDbCircle
10
-2.5455000000340009
20
-22.809999999999704
30
0
40
0.5
210
0
220
0
230
1
0
CIRCLE
5
106
100
AcDbEntity
8
0
100
AcDbCircle
10
-7.6365000000340011
20
-22.809999999999704
30
0
40
0.5
210
0
220
0
230
1
0
CIRCLE
5
107
100
AcDbEntity
8
0
100
AcDbCircle
10
-1.3639339828081742
20
82.83053863799438
30
0
40
0.5
210
0
220
0
230
1
0
CIRCLE
5
108
100
AcDbEntity
8
0
100
AcDbCircle
10
-11.442365837034389
20
34.088109457508537
30
0
40
0.5
210
0
220
0
230
1
0
CIRCLE
5
109
100
AcDbEntity
8
0
100
AcDbCircle
10
11.418755744112239
20
62.027590775729777
30
0
40
0.5
210
0
220
0
230
1
0
CIRCLE
5
110
100
AcDbEntity
8
0
100
AcDbCircle
10
11.418653781971484
20
59.48759077777629
30
0
40
0.5
210
0
220
0
230
1
0
CIRCLE
5
111
100
AcDbEntity
8
0
100
AcDbCircle
10
11.418449857689959
20
54.407590781869317
30
0
40
0.5
210
0
220
0
230
1
0
CIRCLE
5
112
100
AcDbEntity
8
0
100
AcDbCircle
10
11.41824593340845
20
49.327590785962343
30
0
40
0.5
210
0
220
0
230
1
0
CIRCLE
5
113
100
AcDbEntity
8
0
100
AcDbCircle
10
11.418042009126925
20
44.247590790055355
30
0
40
0.5
210
0
220
0
230
1
0
CIRCLE
5
114
100
AcDbEntity
8
0
100
AcDbCircle
10
11.417838084845418
20
39.167590794148389
30
0
40
0.5
210
0
220
0
230
1
0
CIRCLE
5
115
100
AcDbEntity
8
0
100
AcDbCircle
10
-11.442263874893637
20
36.628109455462031
30
0
40
0.5
210
0
220
0
230
1
0
CIRCLE
5
116
100
AcDbEntity
8
0
100
AcDbCircle
10
-11.44205995061213
20
41.708109451369012
30
0
40
0.5
210
0
220
0
230
1
0
CIRCLE
5
117
100
AcDbEntity
8
0
100
AcDbCircle
10
-11.441856026330603
20
46.788109447275986
30
0
40
0.5
210
0
220
0
230
1
0
CIRCLE
5
118
100
AcDbEntity
8
0
100
AcDbCircle
10
-11.441652102049096
20
51.868109443182952
30
0
40
0.5
210
0
220
0
230
1
0
CIRCLE
5
119
100
AcDbEntity
8
0
100
AcDbCircle
10
-11.441448177767588
20
56.94810943908994
30
0
40
0.5
210
0
220
0
230
1
0
CIRCLE
5
120
100
AcDbEntity
8
0
100
AcDbCircle
10
-11.441346215626815
20
59.488109437043441
30
0
40
0.5
210
0
220
0
230
1
0
CIRCLE
5
121
100
AcDbEntity
8
0
100
AcDbCircle
10
-11.44155013990834
20
54.408109441136432
30
0
40
0.5
210
0
220
0
230
1
0
CIRCLE
5
122
100
AcDbEntity
8
0
100
AcDbCircle
10
-11.441754064189848
20
49.328109445229458
30
0
40
0.5
210
0
220
0
230
1
0
CIRCLE
5
123
100
AcDbEntity
8
0
100
AcDbCircle
10
-11.441957988471374
20
44.248109449322499
30
0
40
0.5
210
0
220
0
230
1
0
CIRCLE
5
124
100
AcDbEntity
8
0
100
AcDbCircle
10
-11.442161912752882
20
39.168109453415518
30
0
40
0.5
210
0
220
0
230
1
0
CIRCLE
5
125
100
AcDbEntity
8
0
100
AcDbCircle
10
11.417736122704664
20
36.627590796194902
30
0
40
0.5
210
0
220
0
230
1
0
CIRCLE
5
126
100
AcDbEntity
8
0
100
AcDbCircle
10
11.417940046986173
20
41.707590792101897
30
0
40
0.5
210
0
220
0
230
1
0
CIRCLE
5
127
100
AcDbEntity
8
0
100
AcDbCircle
10
11.418143971267698
20
46.787590788008856
30
0
40
0.5
210
0
220
0
230
1
0
CIRCLE
5
128
100
AcDbEntity
8
0
100
AcDbCircle
10
11.418347895549205
20
51.86759078391583
30
0
40
0.5
210
0
220
0
230
1
0
CIRCLE
5
129
100
AcDbEntity
8
0
100
AcDbCircle
10
11.418551819830732
20
56.947590779822804
30
0
40
0.5
210
0
220
0
230
1
0
CIRCLE
5
130
100
AcDbEntity
8
0
100
AcDbCircle
10
-11.441244253495732
20
62.028109434996907
30
0
40
0.5
210
0
220
0
230
1
0
CIRCLE
5
131
100
AcDbEntity
8
0
100
AcDbCircle
10
11.41763416056391
20
34.087590798241415
30
0
40
0.5
210
0
220
0
230
1
0
CIRCLE
5
132
100
AcDbEntity
8
0
100
AcDbCircle
10
1.176066017191826
20
82.83053863799438
30
0
40
0.5
210
0
220
0
230
1
0
CIRCLE
5
133
100
AcDbEntity
8
0
100
AcDbCircle
10
-10.182000000034019
20
-22.809999999999704
30
0
40
0.5
210
0
220
0
230
1
0
CIRCLE
5
134
100
AcDbEntity
8
0
100
AcDbCircle
10
-5.0910000000340005
20
-22.809999999999704
30
0
40
0.5
210
0
220
0
230
1
0
CIRCLE
5
135
100
AcDbEntity
8
0
100
AcDbCircle
10
-3.4000578408268061e-11
20
-22.809999999999704
30
0
40
0.5
210
0
220
0
230
1
0
CIRCLE
5
136
100
AcDbEntity
8
0
100
AcDbCircle
10
5.0909999999660007
20
-22.809999999999704
30
0
40
0.5
210
0
220
0
230
1
0
CIRCLE
5
137
100
AcDbEntity
8
0
100
AcDbCircle
10
10.181999999965981
20
-22.809999999999704
30
0
40
0.5
210
0
220
0
230
1
0
CIRCLE
5
138
100
AcDbEntity
8
0
100
AcDbCircle
10
-10.74999999999601
20
-2.46
30
0
40
0.5
210
0
220
0
230
1
0
CIRCLE
5
139
100
AcDbEntity
8
0
100
AcDbCircle
10
-8.2099999999960076
20
-7.54
30
0
40
0.5
210
0
220
0
230
1
0
CIRCLE
5
140
100
AcDbEntity
8
0
100
AcDbCircle
10
-13.289999999996009
20
-7.54
30
0
40
0.5
210
0
220
0
230
1
0
LINE
5
141
100
AcDbEntity
8
0
100
AcDbLine
10
13.318031131464267
20
32.187544623531316
30
0
11
16.99799942101922
21
25.813061640950878
31
0
0
LINE
5
142
100
AcDbEntity
8
0
100
AcDbLine
10
13.31902341849556
20
73.049187098059974
30
0
11
13.318031131464267
21
32.187544623531316
31
0
0
LINE
5
143
100
AcDbEntity
8
0
100
AcDbLine
10
1.6267824128454733
20
84.575956620175035
30
0
11
13.31902341849556
21
73.049187098059974
31
0
0
ARC
5
144
100
AcDbEntity
8
0
100
AcDbCircle
10
-0.09393398280817658
20
82.830538637994366
30
0
40
2.4509893608073736
210
0
220
-0
230
1
100
AcDbArc
50
45.408314433839891
51
134.99860862518625
0
LINE
5
145
100
AcDbEntity
8
0
100
AcDbLine
10
-13.34141971304819
20
73.049834522274182
30
0
11
-1.8270030929435468
21
84.563691922122658
31
0
0
LINE
5
146
100
AcDbEntity
8
0
100
AcDbLine
10
-13.342412000065751
20
32.188192047618713
30
0
11
-13.34141971304819
21
73.049834522274182
31
0
0
LINE
5
147
100
AcDbEntity
8
0
100
AcDbLine
10
-17.002453520135937
20
25.813923268717186
30
0
11
-13.342412000065751
21
32.188192047618713
31
0
0
LINE
5
148
100
AcDbEntity
8
0
100
AcDbLine
10
-17.001818764423192
20
15.599903342504106
30
0
11
-17.002453520135937
21
25.813923268717186
31
0
0
LINE
5
149
100
AcDbEntity
8
0
100
AcDbLine
10
-12.082009144654062
20
15.600209086701554
30
0
11
-17.001818764423192
21
15.599903342504106
31
0
0
LINE
5
150
100
AcDbEntity
8
0
100
AcDbLine
10
-12.081792249616324
20
12.110094473410086
30
0
11
-12.082009144654062
21
15.600209086701554
31
0
0
LINE
5
151
100
AcDbEntity
8
0
100
AcDbLine
10
-12.082043553722832
20
5.8498059235686508
30
0
11
-12.081792249616324
21
12.110094473410086
31
0
0
LINE
5
152
100
AcDbEntity
8
0
100
AcDbLine
10
-17.001853179173871
20
5.849999999999195
30
0
11
-12.082043553722832
21
5.8498059235686508
31
0
0
LINE
5
153
100
AcDbEntity
8
0
100
AcDbLine
10
-17.002724252887418
20
-15.849498034059838
30
0
11
-17.001853179173871
21
5.849999999999195
31
0
0
LINE
5
154
100
AcDbEntity
8
0
100
AcDbLine
10
-12.082914627600738
20
-15.849695527894646
30
0
11
-17.002724252887418
21
-15.849498034059838
31
0
0
LINE
5
155
100
AcDbEntity
8
0
100
AcDbLine
10
-12.083258258979178
20
-24.409967835832703
30
0
11
-12.082914627600738
21
-15.849695527894646
31
0
0
LINE
5
156
100
AcDbEntity
8
0
100
AcDbLine
10
12.076173667159441
20
-24.410937657643995
30
0
11
-12.083258258979178
21
-24.409967835832703
31
0
0
LINE
5
157
100
AcDbEntity
8
0
100
AcDbLine
10
12.076517298532202
20
-15.850665349555523
30
0
11
12.076173667159441
21
-24.410937657643995
31
0
0
LINE
5
158
100
AcDbEntity
8
0
100
AcDbLine
10
16.997589403934878
20
15.599041703239269
30
0
11
12.077779778679233
21
15.599239197066787
31
0
0
LINE
5
159
100
AcDbEntity
8
0
100
AcDbLine
10
16.99799942101922
20
25.813061640950878
30
0
11
16.997589403934878
21
15.599041703239269
31
0
0
CIRCLE
5
160
100
AcDbEntity
8
0
100
AcDbCircle
10
-14.252305895455946
20
23.849997483464861
30
0
40
0.5
210
0
220
0
230
1
0
CIRCLE
5
161
100
AcDbEntity
8
0
100
AcDbCircle
10
-9.7523058954559456
20
23.849816841876926
30
0
40
0.5
210
0
220
0
230
1
0
CIRCLE
5
162
100
AcDbEntity
8
0
100
AcDbCircle
10
-2.252305905124516
20
23.849515772564104
30
0
40
0.5
210
0
220
0
230
1
0
CIRCLE
5
163
100
AcDbEntity
8
0
100
AcDbCircle
10
2.247694094875484
20
23.849335130976197
30
0
40
0.5
210
0
220
0
230
1
0
CIRCLE
5
164
100
AcDbEntity
8
0
100
AcDbCircle
10
9.747694085206934
20
23.849034061663389
30
0
40
0.5
210
0
220
0
230
1
0
CIRCLE
5
165
100
AcDbEntity
8
0
100
AcDbCircle
10
14.247694085206932
20
23.848853420075468
30
0
40
0.5
210
0
220
0
230
1
0
CIRCLE
5
166
100
AcDbEntity
8
0
100
AcDbCircle
10
14.24743315846904
20
17.348853425312623
30
0
40
0.5
210
0
220
0
230
1
0
CIRCLE
5
167
100
AcDbEntity
8
0
100
AcDbCircle
10
9.7474331584690432
20
17.349034066900526
30
0
40
0.5
210
0
220
0
230
1
0
CIRCLE
5
168
100
AcDbEntity
8
0
100
AcDbCircle
10
2.2474331681375914
20
17.349335136213334
30
0
40
0.5
210
0
220
0
230
1
0
CIRCLE
5
169
100
AcDbEntity
8
0
100
AcDbCircle
10
-2.2525668318624086
20
17.349515777801262
30
0
40
0.5
210
0
220
0
230
1
0
CIRCLE
5
170
100
AcDbEntity
8
0
100
AcDbCircle
10
-9.752566822193856
20
17.349816847114077
30
0
40
0.5
210
0
220
0
230
1
0
CIRCLE
5
171
100
AcDbEntity
8
0
100
AcDbCircle
10
-14.252566822193858
20
17.349997488701995
30
0
40
0.5
210
0
220
0
230
1
0
LINE
5
172
100
AcDbEntity
8
0
100
AcDbLine
10
12.077388372306006
20
5.8488326845179479
30
0
11
16.997197997619867
21
5.8486351907445169
31
0
0
LINE
5
173
100
AcDbEntity
8
0
100
AcDbLine
10
12.077779778679233
20
15.599239197066787
30
0
11
12.077388372306006
21
5.8488326845179479
31
0
0
LINE
5
174
100
AcDbEntity
8
0
100
AcDbLine
10
16.996326924143201
20
-15.850862843314529
30
0
11
12.076517298532202
21
-15.850665349555523
31
0
0
LINE
5
175
100
AcDbEntity
8
0
100
AcDbLine
10
16.997197997619867
20
5.8486351907445169
30
0
11
16.996326924143201
21
-15.850862843314529
31
0
0
ENDSEC
0
SECTION
2
OBJECTS
0
DICTIONARY
5
C
100
AcDbDictionary
3
ACAD_GROUP
350
D
3
ACAD_MLINESTYLE
350
17
0
DICTIONARY
5
D
100
AcDbDictionary
0
DICTIONARY
5
1A
330
C
100
AcDbDictionary
0
DICTIONARY
5
17
100
AcDbDictionary
0
ENDSEC
0
EOF
