0
SECTION
2
HEADER
9
$INSUNITS
70
4
9
$ACADVER
1
AC1014
9
$HANDSEED
5
FFFF
0
ENDSEC
0
SECTION
2
TABLES
0
TABLE
2
VPORT
5
8
100
AcDbSymbolTable
0
ENDTAB
0
TABLE
2
LTYPE
5
5
100
AcDbSymbolTable
0
LTYPE
5
14
100
AcDbSymbolTableRecord
100
AcDbLinetypeTableRecord
2
BYBLOCK
70
0
0
LTYPE
5
15
100
AcDbSymbolTableRecord
100
AcDbLinetypeTableRecord
2
BYLAYER
70
0
0
ENDTAB
0
TABLE
2
LAYER
5
2
100
AcDbSymbolTable
70
2
0
LAYER
5
50
100
AcDbSymbolTableRecord
100
AcDbLayerTableRecord
2
0
70
0
6
CONTINUOUS
0
ENDTAB
0
TABLE
2
STYLE
5
3
100
AcDbSymbolTable
70
1
0
STYLE
5
11
100
AcDbSymbolTableRecord
100
AcDbTextStyleTableRecord
2
STANDARD
70
0
0
ENDTAB
0
TABLE
2
VIEW
5
6
100
AcDbSymbolTable
70
0
0
ENDTAB
0
TABLE
2
UCS
5
7
100
AcDbSymbolTable
70
0
0
ENDTAB
0
TABLE
2
APPID
5
9
100
AcDbSymbolTable
70
2
0
APPID
5
12
100
AcDbSymbolTableRecord
100
AcDbRegAppTableRecord
2
ACAD
70
0
0
ENDTAB
0
TABLE
2
DIMSTYLE
5
A
100
AcDbSymbolTable
70
1
0
ENDTAB
0
TABLE
2
BLOCK_RECORD
5
1
100
AcDbSymbolTable
70
1
0
BLOCK_RECORD
5
1F
100
AcDbSymbolTableRecord
100
AcDbBlockTableRecord
2
*MODEL_SPACE
0
BLOCK_RECORD
5
1B
100
AcDbSymbolTableRecord
100
AcDbBlockTableRecord
2
*PAPER_SPACE
0
ENDTAB
0
ENDSEC
0
SECTION
2
BLOCKS
0
BLOCK
5
20
100
AcDbEntity
100
AcDbBlockBegin
2
*MODEL_SPACE
0
ENDBLK
5
21
100
AcDbEntity
100
AcDbBlockEnd
0
BLOCK
5
1C
100
AcDbEntity
100
AcDbBlockBegin
2
*PAPER_SPACE
0
ENDBLK
5
1D
100
AcDbEntity
100
AcDbBlockEnd
0
ENDSEC
0
SECTION
2
ENTITIES
0
CIRCLE
5
100
100
AcDbEntity
8
0
100
AcDbCircle
10
11.417634160603402
20
-34.087590798241415
30
0
40
0.70159899999999997
210
-5.143229747395941e-28
220
-1.1913288107940527e-39
230
1
0
CIRCLE
5
101
100
AcDbEntity
8
0
100
AcDbCircle
10
-11.442365836994897
20
-34.088109457508537
30
2.7755575615628914e-16
40
0.80159900000000006
210
-1.1042619126643603e-28
220
2.4651903032375894e-32
230
1
0
CIRCLE
5
102
100
AcDbEntity
8
0
100
AcDbCircle
10
-11.442263874854143
20
-36.628109455462031
30
1.3877787807814457e-16
40
0.70159899999999997
210
-5.143229747395941e-28
220
-1.1913288107940527e-39
230
1
0
CIRCLE
5
103
100
AcDbEntity
8
0
100
AcDbCircle
10
-11.442161912713388
20
-39.168109453415518
30
-1.3877787807814457e-16
40
0.70159899999999997
210
-5.143229747395941e-28
220
-1.1913288107940527e-39
230
1
0
CIRCLE
5
104
100
AcDbEntity
8
0
100
AcDbCircle
10
-11.442059950572636
20
-41.708109451369012
30
-4.163336342344337e-16
40
0.70159899999999997
210
-5.143229747395941e-28
220
-1.1913288107940527e-39
230
1
0
CIRCLE
5
105
100
AcDbEntity
8
0
100
AcDbCircle
10
-11.441957988431881
20
-44.248109449322499
30
5.5511151231257827e-16
40
0.70159899999999997
210
-5.143229747395941e-28
220
-1.1913288107940527e-39
230
1
0
CIRCLE
5
106
100
AcDbEntity
8
0
100
AcDbCircle
10
-11.441856026291111
20
-46.788109447275986
30
-8.3266726846886741e-16
40
0.70159899999999997
210
-5.143229747395941e-28
220
-1.1913288107940527e-39
230
1
0
CIRCLE
5
107
100
AcDbEntity
8
0
100
AcDbCircle
10
-11.441754064150356
20
-49.328109445229458
30
0
40
0.70159899999999997
210
-5.143229747395941e-28
220
-1.1913288107940527e-39
230
1
0
CIRCLE
5
108
100
AcDbEntity
8
0
100
AcDbCircle
10
-11.441652102009602
20
-51.868109443182952
30
-2.7755575615628914e-16
40
0.70159899999999997
210
-5.143229747395941e-28
220
-1.1913288107940527e-39
230
1
0
CIRCLE
5
109
100
AcDbEntity
8
0
100
AcDbCircle
10
-11.441550139868848
20
-54.408109441136432
30
6.9388939039072284e-16
40
0.70159899999999997
210
-5.143229747395941e-28
220
-1.1913288107940527e-39
230
1
0
CIRCLE
5
110
100
AcDbEntity
8
0
100
AcDbCircle
10
-11.441448177728095
20
-56.94810943908994
30
-6.9388939039072284e-16
40
0.70159899999999997
210
-5.143229747395941e-28
220
-1.1913288107940527e-39
230
1
0
CIRCLE
5
111
100
AcDbEntity
8
0
100
AcDbCircle
10
-11.441346215587323
20
-59.488109437043441
30
-9.7144514654701197e-16
40
0.70159899999999997
210
-5.143229747395941e-28
220
-1.1913288107940527e-39
230
1
0
CIRCLE
5
112
100
AcDbEntity
8
0
100
AcDbCircle
10
-11.44124425344657
20
-62.028109434996907
30
0
40
0.70159899999999997
210
-5.143229747395941e-28
220
-1.1913288107940527e-39
230
1
0
CIRCLE
5
113
100
AcDbEntity
8
0
100
AcDbCircle
10
11.418755744151731
20
-62.027590775729777
30
-8.3266726846886741e-16
40
0.80159900000000006
210
-1.1042619126643603e-28
220
2.4651903032375894e-32
230
1
0
CIRCLE
5
114
100
AcDbEntity
8
0
100
AcDbCircle
10
11.418653782010978
20
-59.48759077777629
30
-6.9388939039072284e-16
40
0.80159900000000006
210
-1.1042619126643603e-28
220
2.4651903032375894e-32
230
1
0
CIRCLE
5
115
100
AcDbEntity
8
0
100
AcDbCircle
10
11.418551819870224
20
-56.947590779822804
30
-4.163336342344337e-16
40
0.80159900000000006
210
-1.1042619126643603e-28
220
2.4651903032375894e-32
230
1
0
CIRCLE
5
116
100
AcDbEntity
8
0
100
AcDbCircle
10
11.418449857729451
20
-54.407590781869317
30
9.7144514654701197e-16
40
0.80159900000000006
210
-1.1042619126643603e-28
220
2.4651903032375894e-32
230
1
0
CIRCLE
5
117
100
AcDbEntity
8
0
100
AcDbCircle
10
11.418347895588699
20
-51.86759078391583
30
1.3877787807814457e-16
40
0.80159900000000006
210
-1.1042619126643603e-28
220
2.4651903032375894e-32
230
1
0
CIRCLE
5
118
100
AcDbEntity
8
0
100
AcDbCircle
10
11.418245933447944
20
-49.327590785962343
30
-8.3266726846886741e-16
40
0.80159900000000006
210
-1.1042619126643603e-28
220
2.4651903032375894e-32
230
1
0
CIRCLE
5
119
100
AcDbEntity
8
0
100
AcDbCircle
10
11.418143971307192
20
-46.787590788008856
30
0
40
0.70159899999999997
210
-5.143229747395941e-28
220
-1.1913288107940527e-39
230
1
0
CIRCLE
5
120
100
AcDbEntity
8
0
100
AcDbCircle
10
11.418042009166419
20
-44.247590790055355
30
2.7755575615628914e-16
40
0.70159899999999997
210
-5.143229747395941e-28
220
-1.1913288107940527e-39
230
1
0
CIRCLE
5
121
100
AcDbEntity
8
0
100
AcDbCircle
10
11.417940047025665
20
-41.707590792101897
30
-6.9388939039072284e-16
40
0.70159899999999997
210
-5.143229747395941e-28
220
-1.1913288107940527e-39
230
1
0
CIRCLE
5
122
100
AcDbEntity
8
0
100
AcDbCircle
10
11.417838084884909
20
-39.167590794148389
30
-4.163336342344337e-16
40
0.70159899999999997
210
-5.143229747395941e-28
220
-1.1913288107940527e-39
230
1
0
CIRCLE
5
123
100
AcDbEntity
8
0
100
AcDbCircle
10
11.417736122744158
20
-36.627590796194902
30
-1.3877787807814457e-16
40
0.70159899999999997
210
-5.143229747395941e-28
220
-1.1913288107940527e-39
230
1
0
LINE
5
124
100
AcDbEntity
8
0
100
AcDbLine
10
-13.342571987243408
20
-25.600041252574833
30
0
11
-13.341238019096748
21
-80.531851977680034
31
9.3597728581104495e-17
0
LINE
5
125
100
AcDbEntity
8
0
100
AcDbLine
10
13.319205112599866
20
-80.531204553518322
30
9.3597728581104495e-17
11
13.317871134178754
21
-25.598971033734799
31
0
0
LWPOLYLINE
5
126
100
AcDbEntity
8
0
100
AcDbPolyline
90
4
70
1
43
0.0
10
-10.292412001894222
20
-32.938063294474148
10
-12.592412000029295
20
-32.938155622392976
10
-12.591198088552709
20
-63.178155598075286
10
-10.291198090421837
20
-63.178063270152307
0
LWPOLYLINE
5
127
100
AcDbEntity
8
0
100
AcDbPolyline
90
4
70
1
43
0.0
10
10.268801909104761
20
-63.177636938773539
10
10.267587997519207
20
-32.937636963131936
10
12.567587995715613
20
-32.937544635206748
10
12.568801907255704
20
-63.177544610843711
0
CIRCLE
5
128
100
AcDbEntity
8
0
100
AcDbCircle
10
-11.44124425345624
20
-62.028109434996907
30
0
40
1.1499999999999979
210
0
220
0
230
1
0
CIRCLE
5
129
100
AcDbEntity
8
0
100
AcDbCircle
10
7.7795931257384814e-12
20
-83.03152799880155
30
9.7144514654701197e-16
40
2.5
210
0
220
-0
230
1
0
LINE
5
130
100
AcDbEntity
8
0
100
AcDbLine
10
13.318801907208611
20
-63.927508185642587
30
-1.98633131330538e-16
11
-13.341641224491491
21
-63.928155609800697
31
-1.98633131330538e-16
0
LINE
5
131
100
AcDbEntity
8
0
100
AcDbLine
10
11.750351352685195
20
-25.248377434994662
30
-8.3266726846886741e-16
11
-11.754850809966369
21
-25.249320994338511
31
-8.3266726847289069e-16
0
ARC
5
132
100
AcDbEntity
8
0
100
AcDbCircle
10
11.750391495260292
20
-26.248377434188939
30
-1.2490009027033011e-15
40
1.0000000000000013
210
2.066048315127239e-22
220
1.1718365407307308e-18
230
1
100
AcDbArc
50
-0.010101751624068501
51
90.00230000013245
0
LINE
5
133
100
AcDbEntity
8
0
100
AcDbLine
10
12.740027659152997
20
-85.030762206376664
30
0
11
12.750391479717893
21
-26.248553743014607
31
-1.2490009027030051e-15
0
ARC
5
134
100
AcDbEntity
8
0
100
AcDbCircle
10
-11.754810667391277
20
-26.249320993532788
30
-1.3877787807814457e-15
40
0.99999999999998967
210
-5.5272113013968627e-17
220
-5.5511373152077018e-16
230
1
100
AcDbArc
50
90.002300000132166
51
180.02528377869285
0
LINE
5
135
100
AcDbEntity
8
0
100
AcDbLine
10
-12.754810570024972
20
-26.249762278704342
30
-1.3877787807818417e-15
11
-12.728870850882391
21
-85.031969284788843
31
-9.7144514654701592e-16
0
ARC
5
136
100
AcDbEntity
8
0
100
AcDbCircle
10
-11.728870948250997
20
-85.031527999607277
30
9.7144514654701197e-16
40
0.99999999999770495
210
-1.9428900849059748e-15
220
-9.0047109728732601e-19
230
1
100
AcDbArc
50
180.02528377926947
51
270.00230000013295
0
ARC
5
137
100
AcDbEntity
8
0
100
AcDbCircle
10
11.740027674669802
20
-85.030585897581005
30
8.3266726846886741e-16
40
0.99999999999998967
210
4.6381792156734467e-17
220
-6.9388752906475163e-16
230
1
100
AcDbArc
50
270.00230000013323
51
359.98989825007163
0
CIRCLE
5
138
100
AcDbEntity
8
0
100
AcDbCircle
10
11.418755744151731
20
-62.027590775729777
30
-4.163336342344337e-16
40
1.1500000000000024
210
0
220
0
230
1
0
CIRCLE
5
139
100
AcDbEntity
8
0
100
AcDbCircle
10
-11.442365836994897
20
-34.088109457508537
30
4.163336342344337e-16
40
1.1499999999999999
210
0
220
0
230
1
0
CIRCLE
5
140
100
AcDbEntity
8
0
100
AcDbCircle
10
11.417634160603402
20
-34.087590798241415
30
6.9388939039072284e-16
40
1.1499999999999999
210
0
220
0
230
1
0
LINE
5
141
100
AcDbEntity
8
0
100
AcDbLine
10
-13.341238019096748
20
-80.531851977680034
30
9.3597728581104495e-17
11
13.319205112599866
21
-80.531204553518322
31
9.3597728581104495e-17
0
LINE
5
142
100
AcDbEntity
8
0
100
AcDbLine
10
13.319205112599866
20
-80.531204553518322
30
9.3597728581104495e-17
11
1.1924829605000853
21
-85.784341902598072
31
9.7144514654701197e-16
0
CIRCLE
5
143
100
AcDbEntity
8
0
100
AcDbCircle
10
1.2700014809669509
20
-83.03152799880155
30
9.7144514654701197e-16
40
0.249999999999996
210
0
220
0
230
1
0
LWPOLYLINE
5
144
100
AcDbEntity
8
0
100
AcDbPolyline
90
4
70
1
43
0.0
10
-3.0023159383116456
20
-23.59954587969677
10
-3.0025567937620079
20
-17.59954588453105
10
2.9974432014037156
20
-17.599305029080689
10
2.9976840568540775
20
-23.599305024246409
0
LWPOLYLINE
5
145
100
AcDbEntity
8
0
100
AcDbPolyline
90
4
70
1
43
0.0
10
8.9976840520197978
20
-23.599064168796048
10
8.997443196569435
20
-17.599064173630321
10
14.997443191735162
20
-17.59882331817996
10
14.997684047185523
20
-23.598823313345683
0
LWPOLYLINE
5
146
100
AcDbEntity
8
0
100
AcDbPolyline
90
4
70
1
43
0.0
10
-3.0023159383116456
20
-23.59954587969677
10
-3.0025567937620079
20
-17.59954588453105
10
2.9974432014037156
20
-17.599305029080689
10
2.9976840568540775
20
-23.599305024246409
0
LWPOLYLINE
5
147
100
AcDbEntity
8
0
100
AcDbPolyline
90
4
70
1
43
0.0
10
-9.0023159334773712
20
-23.599786735147127
10
-15.002315928643091
20
-23.600027590597499
10
-15.002556784093455
20
-17.600027595431772
10
-9.002556788927734
20
-17.599786739981415
0
LWPOLYLINE
5
148
100
AcDbEntity
8
0
100
AcDbPolyline
90
4
70
1
43
0.0
10
8.9976840520197978
20
-23.599064168796048
10
8.997443196569435
20
-17.599064173630321
10
14.997443191735162
20
-17.59882331817996
10
14.997684047185523
20
-23.598823313345683
0
LWPOLYLINE
5
149
100
AcDbEntity
8
0
100
AcDbPolyline
90
4
70
1
43
0.0
10
-3.0023159383116456
20
-23.59954587969677
10
-3.0025567937620079
20
-17.59954588453105
10
2.9974432014037156
20
-17.599305029080689
10
2.9976840568540775
20
-23.599305024246409
0
LWPOLYLINE
5
150
100
AcDbEntity
8
0
100
AcDbPolyline
90
4
70
1
43
0.0
10
-9.0023159334773712
20
-23.599786735147127
10
-15.002315928643091
20
-23.600027590597499
10
-15.002556784093455
20
-17.600027595431772
10
-9.002556788927734
20
-17.599786739981415
0
LWPOLYLINE
5
151
100
AcDbEntity
8
0
100
AcDbPolyline
90
4
70
1
43
0.0
10
-17.002637072472059
20
-15.600027595431772
10
-17.002235640264484
20
-25.60018816089784
10
16.996059119501815
20
-25.598823381797384
10
16.999067941335639
20
-15.600027595431772
0
LINE
5
152
100
AcDbEntity
8
0
100
AcDbLine
10
-12.031999999994527
20
24.409999999999702
30
0
11
12.032000000005477
21
24.410000000000487
31
0
0
CIRCLE
5
153
100
AcDbEntity
8
0
100
AcDbCircle
10
-7.6364999999945082
20
22.809999999999704
30
-1.3877787807814457e-16
40
1.1000000000000001
210
-2.7192620154941373e-32
220
2.4651903288156616e-32
230
1
0
CIRCLE
5
154
100
AcDbEntity
8
0
100
AcDbCircle
10
-2.5454999999945076
20
22.809999999999704
30
-2.7755575615628914e-16
40
1.1000000000000001
210
-2.7192620154941373e-32
220
2.4651903288156616e-32
230
1
0
CIRCLE
5
155
100
AcDbEntity
8
0
100
AcDbCircle
10
7.6365000000054923
20
22.809999999999704
30
1.3877787807814457e-16
40
1.1000000000000001
210
-1.1412790765711282e-43
220
2.4651903288156619e-32
230
1
0
CIRCLE
5
156
100
AcDbEntity
8
0
100
AcDbCircle
10
2.5455000000054921
20
22.809999999999704
30
2.7755575615628914e-16
40
1.1000000000000001
210
-1.1412790765711282e-43
220
2.4651903288156619e-32
230
1
0
CIRCLE
5
157
100
AcDbEntity
8
0
100
AcDbCircle
10
-15.249999999994529
20
19.650000000000809
30
1.3877787807814457e-16
40
1.25
210
-1.1413139099829753e-43
220
-3.2338541545589005e-71
230
1
0
CIRCLE
5
158
100
AcDbEntity
8
0
100
AcDbCircle
10
15.250000000005473
20
19.650000000000901
30
-4.163336342344337e-16
40
1.25
210
-1.1413139099829753e-43
220
-3.2338541545589005e-71
230
1
0
CIRCLE
5
159
100
AcDbEntity
8
0
100
AcDbCircle
10
5.4923900366552828e-12
20
22.809999999999704
30
0
40
1.1000000000000001
210
-1.1412790765711282e-43
220
2.4651903288156619e-32
230
1
0
CIRCLE
5
160
100
AcDbEntity
8
0
100
AcDbCircle
10
5.0910000000054936
20
22.809999999999704
30
0
40
1.1000000000000001
210
-1.1412790765711282e-43
220
2.4651903288156619e-32
230
1
0
CIRCLE
5
161
100
AcDbEntity
8
0
100
AcDbCircle
10
10.182000000005473
20
22.809999999999704
30
-1.3877787807814457e-16
40
1.1000000000000001
210
-1.1412790765711282e-43
220
2.4651903288156619e-32
230
1
0
CIRCLE
5
162
100
AcDbEntity
8
0
100
AcDbCircle
10
-5.0909999999945077
20
22.809999999999704
30
0
40
1.1000000000000001
210
-2.7192620154941373e-32
220
2.4651903288156616e-32
230
1
0
CIRCLE
5
163
100
AcDbEntity
8
0
100
AcDbCircle
10
-10.181999999994527
20
22.809999999999704
30
1.3877787807814457e-16
40
1.1000000000000001
210
-2.7192620154941373e-32
220
2.4651903288156616e-32
230
1
0
LWPOLYLINE
5
164
100
AcDbEntity
8
0
100
AcDbPolyline
90
4
70
1
43
0.0
10
-11.281999999994527
20
21.709999999999706
10
11.282000000005475
20
21.709999999999706
10
11.282000000005475
20
23.909999999999702
10
-11.281999999994527
20
23.909999999999702
0
CIRCLE
5
165
100
AcDbEntity
8
0
100
AcDbCircle
10
11.997563621883327
20
-20.598943743488004
30
4.163336342344337e-16
40
1.9999999999999996
210
-1.1420255068250016e-43
220
-2.4651903288156619e-32
230
1
0
CIRCLE
5
166
100
AcDbEntity
8
0
100
AcDbCircle
10
-12.002436358779565
20
-20.599907165289459
30
-1.6653345369377348e-15
40
1.9999999999999996
210
-1.1420255068250016e-43
220
-2.4651903288156619e-32
230
1
0
CIRCLE
5
167
100
AcDbEntity
8
0
100
AcDbCircle
10
-0.0024363684481176419
20
-20.599425454388737
30
-1.6653345369377348e-15
40
2
210
-1.1420255068250018e-43
220
0
230
1
0
CIRCLE
5
168
100
AcDbEntity
8
0
100
AcDbCircle
10
-0.0024363684481176419
20
-20.599425454388737
30
-1.6653345369377348e-15
40
2
210
-1.1420255068250018e-43
220
0
230
1
0
CIRCLE
5
169
100
AcDbEntity
8
0
100
AcDbCircle
10
11.997563621883327
20
-20.598943743488004
30
4.163336342344337e-16
40
1.9999999999999996
210
-1.1420255068250016e-43
220
-2.4651903288156619e-32
230
1
0
CIRCLE
5
170
100
AcDbEntity
8
0
100
AcDbCircle
10
-12.002436358779565
20
-20.599907165289459
30
-1.6653345369377348e-15
40
1.9999999999999996
210
-1.1420255068250016e-43
220
-2.4651903288156619e-32
230
1
0
CIRCLE
5
171
100
AcDbEntity
8
0
100
AcDbCircle
10
-0.0024363684481176419
20
-20.599425454388737
30
-1.6653345369377348e-15
40
2
210
-1.1420255068250018e-43
220
0
230
1
0
LINE
5
172
100
AcDbEntity
8
0
100
AcDbLine
10
-12.591198088552709
20
-63.178155598075286
30
0
11
-12.591179875938867
21
-63.928137385541945
31
0
0
LINE
5
173
100
AcDbEntity
8
0
100
AcDbLine
10
-12.592412000029295
20
-32.938155622392976
30
0
11
-13.342393787490083
21
-32.938173835006154
31
0
0
LINE
5
174
100
AcDbEntity
8
0
100
AcDbLine
10
12.568801907255704
20
-63.177544610843711
30
0
11
12.568820119866487
21
-63.92752639824554
31
0
0
LINE
5
175
100
AcDbEntity
8
0
100
AcDbLine
10
12.568801907255704
20
-63.177544610843711
30
0
11
13.318783694595385
21
-63.177526398234505
31
0
0
CIRCLE
5
176
100
AcDbEntity
8
0
100
AcDbCircle
10
-10.749999999956517
20
7.5399999999999956
30
-9.7144514654701197e-16
40
0.5
210
-1.1420255068250018e-43
220
0
230
1
0
CIRCLE
5
177
100
AcDbEntity
8
0
100
AcDbCircle
10
-8.2099999999565156
20
2.4599999999999964
30
9.7144514654701197e-16
40
0.5
210
-1.1420255068250018e-43
220
0
230
1
0
CIRCLE
5
178
100
AcDbEntity
8
0
100
AcDbCircle
10
-13.289999999956517
20
2.4599999999999964
30
-5.5511151231257827e-16
40
0.5
210
-1.1420255068250018e-43
220
0
230
1
0
CIRCLE
5
179
100
AcDbEntity
8
0
100
AcDbCircle
10
-10.749999999956517
20
2.4599999999999964
30
1.3877787807814457e-16
40
0.5
210
-1.1420255068250018e-43
220
0
230
1
0
CIRCLE
5
180
100
AcDbEntity
8
0
100
AcDbCircle
10
-8.2099999999565156
20
7.5399999999999956
30
-1.3877787807814457e-16
40
0.5
210
-1.1420255068250018e-43
220
0
230
1
0
CIRCLE
5
181
100
AcDbEntity
8
0
100
AcDbCircle
10
-13.289999999956517
20
7.5399999999999956
30
-1.6653345369377348e-15
40
0.5
210
-1.1420255068250018e-43
220
0
230
1
0
CIRCLE
5
182
100
AcDbEntity
8
0
100
AcDbCircle
10
-10.749999999956517
20
4.9999999999999964
30
6.9388939039072284e-16
40
7.0000000000000009
210
-1.1420255068250018e-43
220
-0
230
1
0
LINE
5
183
100
AcDbEntity
8
0
100
AcDbLine
10
-17.162791539265555
20
-6.3499999999991976
30
0
11
-17.162791539266106
21
15.149996185556926
31
0
0
LINE
5
184
100
AcDbEntity
8
0
100
AcDbLine
10
-17.162791539266106
20
15.149996185556926
30
0
11
-12.031999999994527
21
15.149996185556915
31
0
0
LINE
5
185
100
AcDbEntity
8
0
100
AcDbLine
10
17.159222408129132
20
-6.3499999999991026
30
0
11
11.999067941335639
21
-6.3500000000023968
31
0
0
LINE
5
186
100
AcDbEntity
8
0
100
AcDbLine
10
17.159222408129132
20
-6.3499999999991026
30
0
11
17.159222408128258
21
15.150000000000901
31
0
0
LINE
5
187
100
AcDbEntity
8
0
100
AcDbLine
10
17.159222408128258
20
15.150000000000901
30
0
11
12.032000000005475
21
15.150000000000885
31
0
0
CIRCLE
5
188
100
AcDbEntity
8
0
100
AcDbCircle
10
7.7795931257384814e-12
20
-83.03152799880155
30
9.7144514654701197e-16
40
3
210
0
220
-2.4651903288156619e-32
230
1
0
LINE
5
189
100
AcDbEntity
8
0
100
AcDbLine
10
7.7795931453577757e-12
20
-83.03152799880155
30
-1.3877787807798766e-16
11
1.2700014809669509
21
-83.03152799880155
31
9.7144514654701197e-16
0
LINE
5
190
100
AcDbEntity
8
0
100
AcDbLine
10
-13.341238019096748
20
-80.531851977680034
30
9.3597728581104495e-17
11
-1.1905377291269423
21
-85.785183735364626
31
9.7144514654701178e-16
0
LINE
5
191
100
AcDbEntity
8
0
100
AcDbLine
10
7.7795931257384814e-12
20
-83.03152799880155
30
9.7144514654701197e-16
11
-1.2699985190330447
21
-83.031527998801309
31
9.7144514654701197e-16
0
LINE
5
192
100
AcDbEntity
8
0
100
AcDbLine
10
-17.002436356368275
20
-20.600107878164806
30
0
11
-15.002436356368275
21
-20.600027593014634
31
-1.4571677198200634e-15
0
LINE
5
193
100
AcDbEntity
8
0
100
AcDbLine
10
14.99756361946034
20
-20.598823315762822
30
2.7755575615583347e-16
11
16.997563530418731
21
-20.599425488614575
31
0
0
LINE
5
194
100
AcDbEntity
8
0
100
AcDbLine
10
-12.031999999994527
20
15.149996185556915
30
0
11
-12.031999999994527
21
24.409999999999702
31
0
0
LINE
5
195
100
AcDbEntity
8
0
100
AcDbLine
10
12.032000000005475
20
15.150000000000885
30
0
11
12.032000000005477
21
24.410000000000487
31
0
0
LINE
5
196
100
AcDbEntity
8
0
100
AcDbLine
10
-17.162791539265555
20
-6.3499999999991976
30
0
11
-12.00263707247206
21
-6.3499999999991976
31
0
0
LINE
5
197
100
AcDbEntity
8
0
100
AcDbLine
10
-12.00263707247206
20
-6.3499999999991976
30
0
11
-12.00263707247206
21
-15.600027595431772
31
0
0
LINE
5
198
100
AcDbEntity
8
0
100
AcDbLine
10
11.999067941335639
20
-6.3500000000023968
30
0
11
11.999067941335639
21
-15.600027595431772
31
0
0
LINE
5
199
100
AcDbEntity
8
0
100
AcDbLine
10
5.4754242589591384e-12
20
22.809996081196946
30
0
11
5.4756194153501858e-12
21
24.410000000000093
31
0
0
LWPOLYLINE
5
200
100
AcDbEntity
8
0
100
AcDbPolyline
90
36
70
1
43
0.0
10
11.412791539281642
20
-85.281527998801579
10
11.412791539281642
20
-86.031527998801565
10
16.412791539281585
20
-86.031527998801565
42
0.4142135623731012
10
19.162791539281734
20
-83.281527998801465
10
19.162791539279855
20
23.650001177397186
42
0.41421354403688526
10
16.412790534045527
20
26.400000000000809
10
-16.412790279082341
20
26.400000000000805
42
0.41421354379613812
10
-19.162791539263441
20
23.650001434605219
10
-19.162791539265545
20
-83.281528647806653
42
0.41421352900651931
10
-16.412791203538603
20
-86.031527998801565
10
-11.412792442327582
20
-86.031527998801565
10
-11.412792442327582
20
-85.281527998801579
10
-16.41279137854206
20
-85.281527998801579
42
-0.41421351360415321
10
-18.412791539268781
20
-83.28152849253668
10
-18.412791539264251
20
-13.849999999999092
10
-15.250000447125361
20
-13.849999999999099
42
1.0000000745058086
10
-15.249999999989257
20
-7.8499999999991976
10
-18.412791539264138
20
-7.8499999999990955
10
-18.412791539263665
20
16.650000000000791
10
-15.24999992992845
20
16.650000000000805
42
0.99999997892657611
10
-15.249999968170071
20
22.650000000000805
10
-18.412791539263551
20
22.650000000000791
10
-18.412791539263534
20
23.650001034567953
42
-0.4142135513991359
10
-16.412790579633814
20
25.649999999998311
10
16.412790534045527
20
25.650000000000798
42
-0.41421353716108894
10
18.412791539281532
20
23.650001177395261
10
18.412791539278452
20
22.650000000000922
10
15.250000000010747
20
22.650000000000912
42
0.99999999999999989
10
15.250000000010743
20
16.650000000000901
10
18.412791539278636
20
16.650000000000912
10
18.412791539279393
20
-7.8499999999991044
10
15.249999885878804
20
-7.8499999999991044
42
0.99999998028761683
10
15.250000000010742
20
-13.849999999999099
10
18.412791539279574
20
-13.849999999999119
10
18.412791539281724
20
-83.281527998801465
42
-0.41421356237310353
10
16.412791539281585
20
-85.28152799880155
0
LWPOLYLINE
5
201
100
AcDbEntity
8
0
100
AcDbPolyline
90
8
70
1
43
0.0
10
11.99748333670998
20
-18.598943745099426
42
0.99999999999999989
10
11.997643907010239
20
-22.598943741876568
10
6.99754355460116
20
-22.599144458780458
10
6.9975636258886906
20
-23.099144458377602
10
11.997663978297764
20
-23.098943741473718
42
0.99999999999999989
10
11.997463265422448
20
-18.098943745502286
10
6.9973629130133759
20
-18.099144462406169
10
6.9973829843009074
20
-18.599144462003309
0
LWPOLYLINE
5
202
100
AcDbEntity
8
0
100
AcDbPolyline
90
8
70
1
43
0.0
10
-12.002356073652669
20
-22.599907163678029
42
0.99999999999999989
10
-12.002516643952903
20
-18.599907166900881
10
-7.0024162915438257
20
-18.599706449997029
10
-7.0024363628313546
20
-18.099706450399879
10
-12.002536715240428
20
-18.099907167303737
42
0.99999999999999989
10
-12.002336002365139
20
-23.099907163275169
10
-7.0022356499560612
20
-23.099706446371322
10
-7.0022557212435892
20
-22.599706446774171
0
LWPOLYLINE
5
203
100
AcDbEntity
8
0
100
AcDbPolyline
90
8
70
1
43
0.0
10
1.9975636315286616
20
-20.599425454388729
42
0.99999999999999989
10
-2.0024363684713404
20
-20.599425424586411
10
-2.0024363684713391
20
-15.599425454388731
10
-2.5024363684713382
20
-15.599425454388731
10
-2.5024363664570561
20
-20.599525810826357
42
1.0000200722937387
10
2.4975636234712058
20
-20.599224737485184
10
2.4971622057777312
20
-15.599425454388731
10
1.9975636315286616
20
-15.599425454388731
0
CIRCLE
5
204
100
AcDbEntity
8
0
100
AcDbCircle
10
-6.3689276037709195e-12
20
4.4000000000008512
30
0
40
16.312701101229898
210
-4.0389678347315804e-28
220
-3.6727921292757437e-60
230
1
0
LWPOLYLINE
5
205
100
AcDbEntity
8
0
100
AcDbPolyline
90
24
70
1
43
0.0
10
15.249999815581132
20
-7.5999999999991141
42
0.99999997313654987
10
15.250000000010742
20
-14.099999999999117
10
17.662791539283013
20
-14.099999999999111
10
17.662791539282875
20
-23.89814009353028
10
11.972696069234644
20
-23.898368509364268
10
-11.977303911470973
20
-23.899329923090498
10
-17.66279153926865
20
-23.899329924037261
10
-17.662791539269101
20
-14.099999999999206
10
-15.249999999989257
20
-14.099999999999199
42
0.99999998509883881
10
-15.249999915176362
20
-7.5999999999992021
10
-17.662791539269136
20
-7.5999999999992074
10
-17.662791539269264
20
16.400000000000794
10
-15.249999999989258
20
16.400000000000801
42
1.0000000247107805
10
-15.250000155969579
20
22.900000000000791
10
-17.6627915392693
20
22.90000000000078
10
-17.662791539269534
20
24.650000000000851
42
-0.41421370290814463
10
-16.412790939498585
20
25.900000000000848
10
16.412790911008418
20
25.900000000000681
42
-0.41421370958666226
10
17.662791539281635
20
24.650000000000894
10
17.662791539281699
20
22.900000000000897
10
15.249999830518885
20
22.900000000000897
42
0.99999997313654987
10
15.250000000010742
20
16.400000000000897
10
17.662791539281926
20
16.400000000000905
10
17.662791539282779
20
-7.5999999999991079
0
LINE
5
206
100
AcDbEntity
8
0
100
AcDbLine
10
-12.591179875938867
20
-63.928137385541945
30
0
11
-12.590776670542512
21
-80.531833753421168
31
0
0
LINE
5
207
100
AcDbEntity
8
0
100
AcDbLine
10
10.028928185562965
20
-68.377621616879352
30
0
11
12.568928184813382
21
-68.377559935325834
31
0
0
LINE
5
208
100
AcDbEntity
8
0
100
AcDbLine
10
12.56917491101235
20
-78.537559930085976
30
0
11
10.029174911761929
21
-78.537621611643729
31
0
0
CIRCLE
5
209
100
AcDbEntity
8
0
100
AcDbCircle
10
11.298959025962976
20
-69.647590775729782
30
0
40
1.2699999999996798
210
0
220
0
230
1
0
CIRCLE
5
210
100
AcDbEntity
8
0
100
AcDbCircle
10
11.298959025962976
20
-72.187590775729774
30
0
40
1.2699999999996798
210
0
220
0
230
1
0
CIRCLE
5
211
100
AcDbEntity
8
0
100
AcDbCircle
10
11.298959025962976
20
-74.72759077572978
30
0
40
1.2699999999996798
210
0
220
0
230
1
0
CIRCLE
5
212
100
AcDbEntity
8
0
100
AcDbCircle
10
11.298959025962976
20
-77.267590775729786
30
0
40
1.2699999999996798
210
0
220
0
230
1
0
LINE
5
213
100
AcDbEntity
8
0
100
AcDbLine
10
10.029174911761929
20
-78.537621611643729
30
0
11
10.028928185562965
21
-68.377621616879352
31
0
0
LINE
5
214
100
AcDbEntity
8
0
100
AcDbLine
10
12.568820119866487
20
-63.92752639824554
30
0
11
12.569223325263135
21
-80.531222766131222
31
0
0
ENDSEC
0
SECTION
2
OBJECTS
0
DICTIONARY
5
C
100
AcDbDictionary
3
ACAD_GROUP
350
D
3
ACAD_MLINESTYLE
350
17
0
DICTIONARY
5
D
100
AcDbDictionary
0
DICTIONARY
5
1A
330
C
100
AcDbDictionary
0
DICTIONARY
5
17
100
AcDbDictionary
0
ENDSEC
0
EOF
