<svg version="1.2" xmlns="http://www.w3.org/2000/svg" viewBox="0 0 806 796" width="806" height="796">
	<title>homeThingLogo-svg</title>
	<style>
		.s0 { fill: #ffffff } 
	</style>
	<path id="Layer" class="s0" d="m800.5 353.9l-389.1-350.2c-5.5-4.9-13.8-4.9-19.3 0l-387.3 350.2c-9.8 8.9-3.6 25.1 9.6 25.1h76.2c8 0 14.4 6.5 14.4 14.4v312.5c0 8 6.5 14.4 14.4 14.4l94.3-0.1q0 0.1 0 0.2l48.6-0.3c8-0.1 14.4-6.5 14.3-14.5-0.3-57.3-1.7-279.6-1.7-296.8 0-44.5 23-84 73.7-84h235c34.9 0 53.2 27.3 61.6 45.6 2.4 5.2 7.5 8.5 13.2 8.5h23.3q0 0.1 0 0.1h109.2c13.2 0 19.4-16.3 9.6-25.1z"/>
	<path id="Layer" fill-rule="evenodd" class="s0" d="m613.4 385c2.2 5.3 3.3 11 3.3 16.7v349.7c0 5.8-1.1 11.5-3.3 16.8-2.2 5.3-5.4 10.1-9.5 14.1-4.1 4.1-8.9 7.3-14.2 9.5-5.3 2.2-11 3.3-16.7 3.3h-218.6c-5.7 0-11.4-1.1-16.7-3.3-5.3-2.2-10.1-5.4-14.2-9.5-4.1-4-7.3-8.8-9.5-14.1-2.2-5.3-3.3-11-3.3-16.8v-349.7c0-5.7 1.1-11.4 3.3-16.7 2.2-5.3 5.4-10.1 9.5-14.2 4.1-4.1 8.9-7.3 14.2-9.5 5.3-2.2 11-3.3 16.7-3.3h218.6c5.7 0 11.4 1.1 16.7 3.3 5.3 2.2 10.1 5.4 14.2 9.5 4.1 4.1 7.3 8.9 9.5 14.2zm-62.2 279.1c0-11.5-2.3-22.9-6.7-33.5-4.4-10.6-10.8-20.2-19-28.4-8.1-8.1-17.7-14.5-28.3-18.9-10.6-4.4-22-6.7-33.5-6.7-11.5 0-22.8 2.3-33.4 6.7-10.6 4.4-20.3 10.8-28.4 18.9-8.1 8.2-14.6 17.8-18.9 28.4-4.4 10.6-6.7 22-6.7 33.5 0 11.4 2.3 22.8 6.7 33.4 4.3 10.6 10.8 20.3 18.9 28.4 8.1 8.1 17.8 14.5 28.4 18.9 10.6 4.4 21.9 6.7 33.4 6.7 11.5 0 22.9-2.3 33.5-6.7 10.6-4.4 20.2-10.8 28.3-18.9 8.2-8.1 14.6-17.8 19-28.4 4.4-10.6 6.7-22 6.7-33.4zm21.8-145.6v-102.4c0-7.9-6.4-14.4-14.4-14.4h-189.8c-7.9 0-14.4 6.5-14.4 14.4v102.4c0 8 6.5 14.4 14.4 14.4h189.8c8 0 14.4-6.4 14.4-14.4z"/>
	<path id="Layer" class="s0" d="m494.6 633.1c-4-4-8.8-7.2-14.1-9.4-5.3-2.2-11-3.4-16.8-3.4-5.7 0-11.4 1.2-16.7 3.4-5.3 2.2-10.1 5.4-14.2 9.4-4 4.1-7.3 8.9-9.5 14.2-2.2 5.3-3.3 11-3.3 16.8 0 5.7 1.1 11.4 3.3 16.7 2.2 5.3 5.5 10.1 9.5 14.2 4.1 4 8.9 7.2 14.2 9.4 5.3 2.2 11 3.4 16.7 3.4 5.8 0 11.5-1.2 16.8-3.4 5.3-2.2 10.1-5.4 14.1-9.4 4.1-4.1 7.3-8.9 9.5-14.2 2.2-5.3 3.3-11 3.3-16.7 0-5.8-1.1-11.5-3.3-16.8-2.2-5.3-5.4-10.1-9.5-14.2z"/>
</svg>