<?xml version="1.0" encoding="utf-8"?>
<svg id="Layer_3" viewBox="0 0 805.333 795.107" xmlns="http://www.w3.org/2000/svg">
  <path d="M800.536,353.903L411.387,3.696c-5.486-4.937-13.816-4.927-19.29,.023L4.771,353.926c-9.777,8.84-3.523,25.081,9.658,25.081H90.632c7.953,0,14.4,6.447,14.4,14.4v312.49c0,7.957,6.453,14.406,14.41,14.4l94.289-.067c0,.062,0,.13,.001,.181l48.599-.313c7.953-.051,14.358-6.538,14.307-14.49-.368-57.333-1.707-279.596-1.707-296.818,0-44.512,22.953-83.982,73.7-83.982h235c34.84,0,53.203,27.315,61.6,45.632,2.358,5.145,7.461,8.47,13.121,8.47h23.355c.015,.059,.024,.098,.024,.098h109.172c13.198,0,19.443-16.275,9.633-25.104Z" style="fill: rgb(255, 255, 255);"/>
  <path d="M603.938,370.807c-4.1-4.1-8.9-7.3-14.2-9.5s-11-3.3-16.7-3.3h-218.6c-5.7,0-11.4,1.1-16.7,3.3s-10.1,5.4-14.2,9.5-7.3,8.9-9.5,14.2c-2.2,5.3-3.3,11-3.3,16.7v349.7c0,5.8,1.1,11.5,3.3,16.8s5.4,10.1,9.5,14.1c4.1,4.1,8.9,7.3,14.2,9.5s11,3.3,16.7,3.3h218.6c5.7,0,11.4-1.1,16.7-3.3s10.1-5.4,14.2-9.5c4.1-4,7.3-8.8,9.5-14.1s3.3-11,3.3-16.8V401.707c0-5.7-1.1-11.4-3.3-16.7-2.2-5.3-5.4-10.1-9.5-14.2Zm-59.4,326.7c-4.4,10.6-10.8,20.3-19,28.4-8.1,8.1-17.7,14.5-28.3,18.9s-22,6.7-33.5,6.7-22.8-2.3-33.4-6.7c-10.6-4.4-20.3-10.8-28.4-18.9s-14.6-17.8-18.9-28.4c-4.4-10.6-6.7-22-6.7-33.4,0-11.5,2.3-22.9,6.7-33.5,4.3-10.6,10.8-20.2,18.9-28.4,8.1-8.1,17.8-14.5,28.4-18.9,10.6-4.4,21.9-6.7,33.4-6.7s22.9,2.3,33.5,6.7,20.2,10.8,28.3,18.9c8.2,8.2,14.6,17.8,19,28.4s6.7,22,6.7,33.5c0,11.4-2.3,22.8-6.7,33.4Zm14.1-164.6h-189.8c-7.953,0-14.4-6.447-14.4-14.4v-102.4c0-7.953,6.447-14.4,14.4-14.4h189.8c7.953,0,14.4,6.447,14.4,14.4v102.4c0,7.953-6.447,14.4-14.4,14.4Z"/>
  <path d="M494.638,633.107c-4-4-8.8-7.2-14.1-9.4s-11-3.4-16.8-3.4c-5.7,0-11.4,1.2-16.7,3.4s-10.1,5.4-14.2,9.4c-4,4.1-7.3,8.9-9.5,14.2s-3.3,11-3.3,16.8c0,5.7,1.1,11.4,3.3,16.7s5.5,10.1,9.5,14.2c4.1,4,8.9,7.2,14.2,9.4s11,3.4,16.7,3.4c5.8,0,11.5-1.2,16.8-3.4s10.1-5.4,14.1-9.4c4.1-4.1,7.3-8.9,9.5-14.2s3.3-11,3.3-16.7c0-5.8-1.1-11.5-3.3-16.8s-5.4-10.1-9.5-14.2Z"/>
</svg>