%TF.GenerationSoftware,KiCad,Pcbnew,7.0.6-0*%
%TF.CreationDate,2024-05-26T05:01:00-07:00*%
%TF.ProjectId,s3,73332e6b-6963-4616-945f-706362585858,rev?*%
%TF.SameCoordinates,Original*%
%TF.FileFunction,Legend,Top*%
%TF.FilePolarity,Positive*%
%FSLAX46Y46*%
G04 Gerber Fmt 4.6, Leading zero omitted, Abs format (unit mm)*
G04 Created by KiCad (PCBNEW 7.0.6-0) date 2024-05-26 05:01:00*
%MOMM*%
%LPD*%
G01*
G04 APERTURE LIST*
%ADD10C,0.150000*%
%ADD11C,0.200000*%
%ADD12C,0.000000*%
%ADD13C,0.300000*%
%ADD14C,0.120000*%
%ADD15C,0.127000*%
G04 APERTURE END LIST*
D10*
X213601541Y-47891819D02*
X214220588Y-47891819D01*
X214220588Y-47891819D02*
X213887255Y-48272771D01*
X213887255Y-48272771D02*
X214030112Y-48272771D01*
X214030112Y-48272771D02*
X214125350Y-48320390D01*
X214125350Y-48320390D02*
X214172969Y-48368009D01*
X214172969Y-48368009D02*
X214220588Y-48463247D01*
X214220588Y-48463247D02*
X214220588Y-48701342D01*
X214220588Y-48701342D02*
X214172969Y-48796580D01*
X214172969Y-48796580D02*
X214125350Y-48844200D01*
X214125350Y-48844200D02*
X214030112Y-48891819D01*
X214030112Y-48891819D02*
X213744398Y-48891819D01*
X213744398Y-48891819D02*
X213649160Y-48844200D01*
X213649160Y-48844200D02*
X213601541Y-48796580D01*
X214553922Y-48225152D02*
X214792017Y-48891819D01*
X214792017Y-48891819D02*
X215030112Y-48225152D01*
D11*
X220726000Y-123190000D02*
G75*
G03*
X222758000Y-123190000I1016000J0D01*
G01*
D12*
G36*
X216344006Y-49787104D02*
G01*
X216349990Y-49787499D01*
X216355955Y-49788162D01*
X216361891Y-49789094D01*
X216367789Y-49790294D01*
X216373639Y-49791763D01*
X216379431Y-49793499D01*
X216385156Y-49795504D01*
X216390804Y-49797777D01*
X216396365Y-49800319D01*
X216401830Y-49803129D01*
X216407189Y-49806207D01*
X216412432Y-49809554D01*
X216417550Y-49813169D01*
X216422533Y-49817053D01*
X216427371Y-49821204D01*
X220031053Y-53064267D01*
X220031052Y-53064276D01*
X220039136Y-53072137D01*
X220046364Y-53080361D01*
X220052751Y-53088909D01*
X220058314Y-53097740D01*
X220063068Y-53106814D01*
X220067027Y-53116091D01*
X220070208Y-53125531D01*
X220072626Y-53135093D01*
X220074296Y-53144738D01*
X220075234Y-53154424D01*
X220075455Y-53164112D01*
X220074975Y-53173762D01*
X220073808Y-53183334D01*
X220071972Y-53192786D01*
X220069480Y-53202079D01*
X220066348Y-53211173D01*
X220062593Y-53220028D01*
X220058228Y-53228603D01*
X220053270Y-53236857D01*
X220047734Y-53244752D01*
X220041636Y-53252246D01*
X220034991Y-53259300D01*
X220027814Y-53265872D01*
X220020121Y-53271924D01*
X220011927Y-53277414D01*
X220003248Y-53282303D01*
X219994099Y-53286550D01*
X219984496Y-53290115D01*
X219974454Y-53292957D01*
X219963988Y-53295038D01*
X219953114Y-53296315D01*
X219941847Y-53296750D01*
X218930868Y-53296750D01*
X218930809Y-53296501D01*
X218930740Y-53296215D01*
X218930646Y-53295843D01*
X218714369Y-53295843D01*
X218709471Y-53295753D01*
X218704607Y-53295485D01*
X218699781Y-53295042D01*
X218694996Y-53294426D01*
X218690256Y-53293641D01*
X218685564Y-53292687D01*
X218680925Y-53291568D01*
X218676343Y-53290287D01*
X218671820Y-53288846D01*
X218667361Y-53287247D01*
X218662969Y-53285494D01*
X218658648Y-53283588D01*
X218654402Y-53281532D01*
X218650235Y-53279329D01*
X218646150Y-53276981D01*
X218642150Y-53274492D01*
X218638240Y-53271862D01*
X218634423Y-53269096D01*
X218630704Y-53266195D01*
X218627085Y-53263162D01*
X218623570Y-53260000D01*
X218620164Y-53256711D01*
X218616869Y-53253298D01*
X218613690Y-53249763D01*
X218610631Y-53246108D01*
X218607694Y-53242338D01*
X218604884Y-53238453D01*
X218602204Y-53234456D01*
X218599659Y-53230351D01*
X218597251Y-53226139D01*
X218594985Y-53221824D01*
X218592864Y-53217407D01*
X218577188Y-53184708D01*
X218559260Y-53150549D01*
X218538993Y-53115422D01*
X218516298Y-53079820D01*
X218491086Y-53044236D01*
X218463270Y-53009161D01*
X218432761Y-52975089D01*
X218399471Y-52942513D01*
X218363311Y-52911924D01*
X218344127Y-52897528D01*
X218324193Y-52883815D01*
X218303497Y-52870845D01*
X218282029Y-52858679D01*
X218259777Y-52847380D01*
X218236730Y-52837009D01*
X218212877Y-52827628D01*
X218188208Y-52819297D01*
X218162711Y-52812079D01*
X218136375Y-52806036D01*
X218109189Y-52801228D01*
X218081143Y-52797718D01*
X218052224Y-52795566D01*
X218022422Y-52794836D01*
X215846225Y-52794836D01*
X215802921Y-52795897D01*
X215761117Y-52799041D01*
X215720804Y-52804210D01*
X215681975Y-52811346D01*
X215644622Y-52820390D01*
X215608735Y-52831284D01*
X215574307Y-52843969D01*
X215541330Y-52858387D01*
X215509795Y-52874480D01*
X215479695Y-52892189D01*
X215451021Y-52911456D01*
X215423764Y-52932222D01*
X215397917Y-52954429D01*
X215373471Y-52978020D01*
X215350419Y-53002934D01*
X215328752Y-53029115D01*
X215308461Y-53056503D01*
X215289539Y-53085041D01*
X215271977Y-53114669D01*
X215255768Y-53145330D01*
X215240902Y-53176965D01*
X215227372Y-53209515D01*
X215204287Y-53277130D01*
X215186445Y-53347708D01*
X215173783Y-53420780D01*
X215166234Y-53495882D01*
X215163732Y-53572544D01*
X215179540Y-56321202D01*
X215179410Y-56328064D01*
X215178939Y-56334839D01*
X215178134Y-56341517D01*
X215177003Y-56348090D01*
X215175556Y-56354551D01*
X215173799Y-56360889D01*
X215171743Y-56367098D01*
X215169394Y-56373168D01*
X215166762Y-56379091D01*
X215163854Y-56384859D01*
X215160679Y-56390463D01*
X215157246Y-56395894D01*
X215153562Y-56401145D01*
X215149636Y-56406208D01*
X215145476Y-56411072D01*
X215141090Y-56415731D01*
X215136488Y-56420175D01*
X215131676Y-56424397D01*
X215126665Y-56428387D01*
X215121460Y-56432138D01*
X215116073Y-56435640D01*
X215110509Y-56438886D01*
X215104778Y-56441867D01*
X215098889Y-56444575D01*
X215092849Y-56447001D01*
X215086666Y-56449137D01*
X215080350Y-56450974D01*
X215073908Y-56452504D01*
X215067349Y-56453719D01*
X215060681Y-56454610D01*
X215053912Y-56455168D01*
X215047051Y-56455385D01*
X214597004Y-56458284D01*
X214596999Y-56457903D01*
X214596996Y-56457484D01*
X214596995Y-56456607D01*
X213723839Y-56457228D01*
X213716974Y-56457059D01*
X213710198Y-56456549D01*
X213703520Y-56455705D01*
X213696950Y-56454536D01*
X213690494Y-56453050D01*
X213684162Y-56451257D01*
X213677963Y-56449163D01*
X213671903Y-56446777D01*
X213665992Y-56444109D01*
X213660239Y-56441165D01*
X213654650Y-56437956D01*
X213649236Y-56434488D01*
X213644004Y-56430771D01*
X213638963Y-56426812D01*
X213634121Y-56422621D01*
X213629486Y-56418205D01*
X213625067Y-56413574D01*
X213620873Y-56408734D01*
X213616911Y-56403696D01*
X213613190Y-56398466D01*
X213609719Y-56393054D01*
X213606505Y-56387468D01*
X213603558Y-56381716D01*
X213600885Y-56375807D01*
X213598495Y-56369749D01*
X213596397Y-56363551D01*
X213594599Y-56357220D01*
X213593108Y-56350766D01*
X213591935Y-56344196D01*
X213591086Y-56337519D01*
X213590570Y-56330744D01*
X213590397Y-56323878D01*
X213590397Y-53430090D01*
X213590223Y-53423228D01*
X213589708Y-53416456D01*
X213588860Y-53409782D01*
X213587688Y-53403216D01*
X213586199Y-53396764D01*
X213584402Y-53390436D01*
X213582305Y-53384240D01*
X213579918Y-53378184D01*
X213577247Y-53372277D01*
X213574302Y-53366528D01*
X213571091Y-53360943D01*
X213567623Y-53355533D01*
X213563905Y-53350305D01*
X213559946Y-53345267D01*
X213555755Y-53340429D01*
X213551340Y-53335797D01*
X213546709Y-53331382D01*
X213541870Y-53327191D01*
X213536833Y-53323232D01*
X213531604Y-53319514D01*
X213526194Y-53316046D01*
X213520610Y-53312835D01*
X213514860Y-53309890D01*
X213508953Y-53307220D01*
X213502897Y-53304832D01*
X213496701Y-53302736D01*
X213490373Y-53300939D01*
X213483922Y-53299450D01*
X213477355Y-53298277D01*
X213470681Y-53297429D01*
X213463909Y-53296914D01*
X213457047Y-53296741D01*
X212751375Y-53296741D01*
X212740122Y-53296307D01*
X212729261Y-53295032D01*
X212718806Y-53292955D01*
X212708774Y-53290118D01*
X212699179Y-53286560D01*
X212690037Y-53282321D01*
X212681363Y-53277442D01*
X212673174Y-53271962D01*
X212665484Y-53265921D01*
X212658308Y-53259360D01*
X212651663Y-53252318D01*
X212645564Y-53244837D01*
X212640025Y-53236955D01*
X212635064Y-53228713D01*
X212630694Y-53220150D01*
X212626931Y-53211308D01*
X212623792Y-53202227D01*
X212621291Y-53192945D01*
X212619443Y-53183504D01*
X212618265Y-53173943D01*
X212617771Y-53164303D01*
X212617977Y-53154623D01*
X212618899Y-53144944D01*
X212620552Y-53135306D01*
X212622951Y-53125749D01*
X212626111Y-53116313D01*
X212630049Y-53107037D01*
X212634780Y-53097963D01*
X212640319Y-53089130D01*
X212646681Y-53080579D01*
X212653882Y-53072349D01*
X212661938Y-53064480D01*
X216248738Y-49821417D01*
X216253566Y-49817254D01*
X216258540Y-49813359D01*
X216263649Y-49809731D01*
X216268884Y-49806372D01*
X216274235Y-49803281D01*
X216279693Y-49800458D01*
X216285248Y-49797903D01*
X216290891Y-49795617D01*
X216296611Y-49793598D01*
X216302399Y-49791848D01*
X216308245Y-49790365D01*
X216314140Y-49789151D01*
X216320074Y-49788205D01*
X216326037Y-49787528D01*
X216332020Y-49787118D01*
X216338013Y-49786977D01*
X216344006Y-49787104D01*
G37*
G36*
X216922223Y-55531408D02*
G01*
X216932256Y-55531796D01*
X216942260Y-55532438D01*
X216952229Y-55533333D01*
X216962161Y-55534477D01*
X216972050Y-55535869D01*
X216981894Y-55537504D01*
X216991687Y-55539381D01*
X217001426Y-55541497D01*
X217011107Y-55543849D01*
X217020725Y-55546434D01*
X217030277Y-55549249D01*
X217039758Y-55552293D01*
X217049165Y-55555562D01*
X217058493Y-55559053D01*
X217067738Y-55562764D01*
X217076886Y-55566692D01*
X217085921Y-55570835D01*
X217094839Y-55575188D01*
X217103637Y-55579751D01*
X217112310Y-55584520D01*
X217120854Y-55589493D01*
X217129265Y-55594666D01*
X217137539Y-55600038D01*
X217145672Y-55605604D01*
X217153660Y-55611363D01*
X217161498Y-55617313D01*
X217169184Y-55623449D01*
X217176712Y-55629770D01*
X217184078Y-55636273D01*
X217191279Y-55642954D01*
X217198311Y-55649812D01*
X217205332Y-55657007D01*
X217212156Y-55664350D01*
X217218782Y-55671841D01*
X217225209Y-55679475D01*
X217231435Y-55687250D01*
X217237459Y-55695163D01*
X217243280Y-55703212D01*
X217248896Y-55711394D01*
X217254305Y-55719706D01*
X217259507Y-55728146D01*
X217264500Y-55736711D01*
X217269283Y-55745397D01*
X217273854Y-55754203D01*
X217278212Y-55763126D01*
X217282356Y-55772162D01*
X217286284Y-55781310D01*
X217289985Y-55790555D01*
X217293447Y-55799883D01*
X217296670Y-55809290D01*
X217299654Y-55818771D01*
X217302400Y-55828323D01*
X217304906Y-55837942D01*
X217307174Y-55847622D01*
X217309204Y-55857361D01*
X217310994Y-55867155D01*
X217312546Y-55876998D01*
X217313859Y-55886888D01*
X217314934Y-55896819D01*
X217315769Y-55906789D01*
X217316366Y-55916793D01*
X217316724Y-55926826D01*
X217316844Y-55936885D01*
X217316724Y-55946781D01*
X217316366Y-55956672D01*
X217315769Y-55966552D01*
X217314934Y-55976416D01*
X217313859Y-55986258D01*
X217312546Y-55996072D01*
X217310995Y-56005855D01*
X217309204Y-56015599D01*
X217307175Y-56025300D01*
X217304907Y-56034952D01*
X217302400Y-56044549D01*
X217299654Y-56054087D01*
X217296670Y-56063560D01*
X217293447Y-56072963D01*
X217289985Y-56082289D01*
X217286284Y-56091534D01*
X217282356Y-56100682D01*
X217278212Y-56109719D01*
X217273854Y-56118641D01*
X217269283Y-56127447D01*
X217264500Y-56136134D01*
X217259507Y-56144698D01*
X217254305Y-56153138D01*
X217248895Y-56161450D01*
X217243280Y-56169632D01*
X217237459Y-56177682D01*
X217231435Y-56185595D01*
X217225209Y-56193370D01*
X217218782Y-56201004D01*
X217212156Y-56208494D01*
X217205332Y-56215838D01*
X217198311Y-56223032D01*
X217191279Y-56229890D01*
X217184078Y-56236572D01*
X217176712Y-56243075D01*
X217169184Y-56249396D01*
X217161498Y-56255532D01*
X217153660Y-56261481D01*
X217145672Y-56267240D01*
X217137539Y-56272807D01*
X217129265Y-56278178D01*
X217120854Y-56283352D01*
X217112310Y-56288324D01*
X217103637Y-56293093D01*
X217094839Y-56297656D01*
X217085921Y-56302010D01*
X217076886Y-56306153D01*
X217067738Y-56310081D01*
X217058493Y-56313791D01*
X217049165Y-56317283D01*
X217039758Y-56320551D01*
X217030277Y-56323595D01*
X217020725Y-56326411D01*
X217011107Y-56328996D01*
X217001426Y-56331347D01*
X216991687Y-56333463D01*
X216981894Y-56335340D01*
X216972051Y-56336975D01*
X216962161Y-56338367D01*
X216952229Y-56339511D01*
X216942260Y-56340406D01*
X216932256Y-56341049D01*
X216922223Y-56341436D01*
X216912164Y-56341566D01*
X216902267Y-56341436D01*
X216892377Y-56341049D01*
X216882497Y-56340406D01*
X216872633Y-56339511D01*
X216862791Y-56338367D01*
X216852977Y-56336975D01*
X216843194Y-56335340D01*
X216833450Y-56333463D01*
X216823749Y-56331347D01*
X216814097Y-56328996D01*
X216804499Y-56326411D01*
X216794961Y-56323595D01*
X216785488Y-56320551D01*
X216776086Y-56317283D01*
X216766759Y-56313791D01*
X216757514Y-56310081D01*
X216748367Y-56306153D01*
X216739330Y-56302010D01*
X216730407Y-56297656D01*
X216721601Y-56293093D01*
X216712915Y-56288324D01*
X216704350Y-56283352D01*
X216695911Y-56278178D01*
X216687598Y-56272807D01*
X216679416Y-56267240D01*
X216671367Y-56261481D01*
X216663454Y-56255532D01*
X216655679Y-56249396D01*
X216648045Y-56243075D01*
X216640555Y-56236572D01*
X216633211Y-56229890D01*
X216626017Y-56223032D01*
X216619148Y-56215838D01*
X216612437Y-56208494D01*
X216605889Y-56201004D01*
X216599509Y-56193370D01*
X216593302Y-56185595D01*
X216587275Y-56177681D01*
X216581432Y-56169632D01*
X216575779Y-56161450D01*
X216570321Y-56153138D01*
X216565064Y-56144698D01*
X216560013Y-56136134D01*
X216555174Y-56127447D01*
X216550552Y-56118641D01*
X216546153Y-56109719D01*
X216541981Y-56100682D01*
X216538043Y-56091534D01*
X216534342Y-56082289D01*
X216530880Y-56072963D01*
X216527657Y-56063560D01*
X216524673Y-56054087D01*
X216521927Y-56044549D01*
X216519421Y-56034952D01*
X216517152Y-56025300D01*
X216515123Y-56015599D01*
X216513333Y-56005855D01*
X216511781Y-55996072D01*
X216510468Y-55986258D01*
X216509393Y-55976416D01*
X216508558Y-55966552D01*
X216507961Y-55956672D01*
X216507603Y-55946781D01*
X216507483Y-55936885D01*
X216507603Y-55926826D01*
X216507961Y-55916793D01*
X216508558Y-55906789D01*
X216509393Y-55896819D01*
X216510468Y-55886888D01*
X216511781Y-55876998D01*
X216513332Y-55867155D01*
X216515123Y-55857361D01*
X216517152Y-55847622D01*
X216519420Y-55837942D01*
X216521927Y-55828323D01*
X216524673Y-55818771D01*
X216527657Y-55809290D01*
X216530880Y-55799883D01*
X216534342Y-55790555D01*
X216538043Y-55781310D01*
X216541981Y-55772162D01*
X216546153Y-55763126D01*
X216550552Y-55754203D01*
X216555174Y-55745397D01*
X216560014Y-55736711D01*
X216565064Y-55728146D01*
X216570321Y-55719706D01*
X216575779Y-55711394D01*
X216581432Y-55703212D01*
X216587275Y-55695163D01*
X216593302Y-55687249D01*
X216599509Y-55679474D01*
X216605889Y-55671840D01*
X216612437Y-55664350D01*
X216619148Y-55657007D01*
X216626017Y-55649812D01*
X216633211Y-55642954D01*
X216640555Y-55636273D01*
X216648045Y-55629770D01*
X216655679Y-55623449D01*
X216663454Y-55617313D01*
X216671367Y-55611363D01*
X216679416Y-55605604D01*
X216687598Y-55600038D01*
X216695911Y-55594666D01*
X216704350Y-55589493D01*
X216712915Y-55584520D01*
X216721601Y-55579751D01*
X216730407Y-55575188D01*
X216739330Y-55570835D01*
X216748367Y-55566692D01*
X216757514Y-55562764D01*
X216766759Y-55559053D01*
X216776086Y-55555562D01*
X216785488Y-55552293D01*
X216794961Y-55549249D01*
X216804499Y-55546434D01*
X216814097Y-55543849D01*
X216823749Y-55541497D01*
X216833450Y-55539381D01*
X216843194Y-55537504D01*
X216852977Y-55535869D01*
X216862791Y-55534477D01*
X216872633Y-55533333D01*
X216882497Y-55532438D01*
X216892377Y-55531796D01*
X216902267Y-55531408D01*
X216912164Y-55531278D01*
X216922223Y-55531408D01*
G37*
G36*
X217934223Y-53102391D02*
G01*
X217944114Y-53102749D01*
X217953994Y-53103346D01*
X217963857Y-53104182D01*
X217973699Y-53105256D01*
X217983514Y-53106569D01*
X217993296Y-53108121D01*
X218003040Y-53109912D01*
X218012741Y-53111941D01*
X218022393Y-53114209D01*
X218031991Y-53116716D01*
X218041529Y-53119461D01*
X218051002Y-53122446D01*
X218060404Y-53125669D01*
X218069731Y-53129131D01*
X218078976Y-53132831D01*
X218088124Y-53136760D01*
X218097160Y-53140903D01*
X218106083Y-53145262D01*
X218114889Y-53149833D01*
X218123576Y-53154616D01*
X218132140Y-53159609D01*
X218140580Y-53164811D01*
X218148892Y-53170220D01*
X218157074Y-53175836D01*
X218165123Y-53181657D01*
X218173037Y-53187681D01*
X218180812Y-53193907D01*
X218188446Y-53200334D01*
X218195936Y-53206960D01*
X218203279Y-53213784D01*
X218210474Y-53220805D01*
X218217495Y-53227999D01*
X218224319Y-53235343D01*
X218230945Y-53242833D01*
X218237372Y-53250467D01*
X218243598Y-53258242D01*
X218249623Y-53266156D01*
X218255443Y-53274205D01*
X218261059Y-53282387D01*
X218266468Y-53290699D01*
X218271670Y-53299139D01*
X218276663Y-53307703D01*
X218281446Y-53316390D01*
X218286017Y-53325196D01*
X218290376Y-53334119D01*
X218294520Y-53343155D01*
X218298448Y-53352303D01*
X218302148Y-53361548D01*
X218305610Y-53370874D01*
X218308833Y-53380277D01*
X218311817Y-53389750D01*
X218314563Y-53399288D01*
X218317070Y-53408886D01*
X218319338Y-53418538D01*
X218321367Y-53428238D01*
X218323158Y-53437983D01*
X218324709Y-53447765D01*
X218326023Y-53457580D01*
X218327097Y-53467422D01*
X218327932Y-53477285D01*
X218328529Y-53487165D01*
X218328887Y-53497056D01*
X218329007Y-53506952D01*
X218329007Y-56745320D01*
X218328887Y-56755379D01*
X218328529Y-56765412D01*
X218327932Y-56775416D01*
X218327097Y-56785386D01*
X218326023Y-56795317D01*
X218324709Y-56805207D01*
X218323158Y-56815050D01*
X218321367Y-56824844D01*
X218319338Y-56834583D01*
X218317070Y-56844263D01*
X218314563Y-56853882D01*
X218311817Y-56863433D01*
X218308833Y-56872915D01*
X218305610Y-56882321D01*
X218302148Y-56891649D01*
X218298448Y-56900895D01*
X218294520Y-56910042D01*
X218290376Y-56919077D01*
X218286017Y-56927996D01*
X218281446Y-56936793D01*
X218276663Y-56945466D01*
X218271670Y-56954010D01*
X218266468Y-56962421D01*
X218261059Y-56970695D01*
X218255443Y-56978828D01*
X218249623Y-56986816D01*
X218243598Y-56994654D01*
X218237372Y-57002339D01*
X218230945Y-57009867D01*
X218224319Y-57017234D01*
X218217495Y-57024435D01*
X218210474Y-57031466D01*
X218203279Y-57038487D01*
X218195936Y-57045312D01*
X218188445Y-57051938D01*
X218180811Y-57058365D01*
X218173036Y-57064591D01*
X218165123Y-57070615D01*
X218157074Y-57076436D01*
X218148892Y-57082051D01*
X218140580Y-57087461D01*
X218132140Y-57092663D01*
X218123575Y-57097656D01*
X218114889Y-57102439D01*
X218106083Y-57107010D01*
X218097160Y-57111368D01*
X218088124Y-57115512D01*
X218078976Y-57119441D01*
X218069731Y-57123141D01*
X218060404Y-57126603D01*
X218051002Y-57129826D01*
X218041529Y-57132810D01*
X218031991Y-57135556D01*
X218022393Y-57138063D01*
X218012741Y-57140331D01*
X218003040Y-57142360D01*
X217993296Y-57144151D01*
X217983514Y-57145702D01*
X217973699Y-57147016D01*
X217963857Y-57148090D01*
X217953994Y-57148926D01*
X217944114Y-57149522D01*
X217934223Y-57149881D01*
X217924327Y-57150000D01*
X215900000Y-57150000D01*
X215890104Y-57149881D01*
X215880213Y-57149522D01*
X215870333Y-57148926D01*
X215860469Y-57148090D01*
X215850627Y-57147016D01*
X215840813Y-57145702D01*
X215831030Y-57144151D01*
X215821286Y-57142360D01*
X215811585Y-57140331D01*
X215801933Y-57138063D01*
X215792335Y-57135556D01*
X215782797Y-57132810D01*
X215773324Y-57129826D01*
X215763922Y-57126603D01*
X215754596Y-57123141D01*
X215745351Y-57119441D01*
X215736203Y-57115512D01*
X215727166Y-57111368D01*
X215718243Y-57107010D01*
X215709437Y-57102439D01*
X215700751Y-57097656D01*
X215692186Y-57092663D01*
X215683746Y-57087461D01*
X215675434Y-57082051D01*
X215667252Y-57076436D01*
X215659203Y-57070615D01*
X215651290Y-57064591D01*
X215643515Y-57058365D01*
X215635881Y-57051938D01*
X215628391Y-57045312D01*
X215621047Y-57038487D01*
X215613852Y-57031466D01*
X215606831Y-57024435D01*
X215600007Y-57017234D01*
X215593381Y-57009867D01*
X215586954Y-57002339D01*
X215580728Y-56994654D01*
X215574704Y-56986816D01*
X215568883Y-56978828D01*
X215563267Y-56970695D01*
X215557858Y-56962421D01*
X215552656Y-56954010D01*
X215547663Y-56945466D01*
X215542880Y-56936793D01*
X215538309Y-56927996D01*
X215533951Y-56919077D01*
X215529807Y-56910042D01*
X215525878Y-56900895D01*
X215522178Y-56891649D01*
X215518716Y-56882321D01*
X215515493Y-56872915D01*
X215512509Y-56863433D01*
X215509763Y-56853882D01*
X215507257Y-56844263D01*
X215504989Y-56834583D01*
X215502959Y-56824844D01*
X215501169Y-56815050D01*
X215499617Y-56805207D01*
X215498304Y-56795317D01*
X215497229Y-56785386D01*
X215496394Y-56775416D01*
X215495797Y-56765412D01*
X215495439Y-56755379D01*
X215495319Y-56745320D01*
X215495319Y-55936885D01*
X216102803Y-55936885D01*
X216103052Y-55956678D01*
X216103798Y-55976459D01*
X216105037Y-55996219D01*
X216106768Y-56015946D01*
X216108986Y-56035630D01*
X216111691Y-56055260D01*
X216114878Y-56074824D01*
X216118546Y-56094312D01*
X216122691Y-56113714D01*
X216127311Y-56133018D01*
X216132403Y-56152214D01*
X216137964Y-56171290D01*
X216143992Y-56190236D01*
X216150483Y-56209040D01*
X216157436Y-56227693D01*
X216164848Y-56246183D01*
X216172552Y-56264489D01*
X216180724Y-56282590D01*
X216189359Y-56300477D01*
X216198446Y-56318140D01*
X216207978Y-56335569D01*
X216217947Y-56352756D01*
X216228344Y-56369690D01*
X216239163Y-56386363D01*
X216250393Y-56402764D01*
X216262028Y-56418885D01*
X216274059Y-56434715D01*
X216286477Y-56450245D01*
X216299276Y-56465466D01*
X216312446Y-56480369D01*
X216325980Y-56494943D01*
X216339870Y-56509179D01*
X216354106Y-56523058D01*
X216368680Y-56536565D01*
X216383582Y-56549693D01*
X216398803Y-56562441D01*
X216414334Y-56574804D01*
X216430164Y-56586777D01*
X216446285Y-56598357D01*
X216462686Y-56609539D01*
X216479358Y-56620320D01*
X216496293Y-56630695D01*
X216513480Y-56640661D01*
X216530909Y-56650213D01*
X216548572Y-56659347D01*
X216566459Y-56668059D01*
X216584560Y-56676345D01*
X216602865Y-56684201D01*
X216621345Y-56691613D01*
X216639970Y-56698566D01*
X216658734Y-56705058D01*
X216677629Y-56711086D01*
X216696649Y-56716647D01*
X216715786Y-56721739D01*
X216735035Y-56726359D01*
X216754389Y-56730504D01*
X216773840Y-56734171D01*
X216793382Y-56737359D01*
X216813008Y-56740063D01*
X216832712Y-56742282D01*
X216852486Y-56744012D01*
X216872324Y-56745252D01*
X216892218Y-56745997D01*
X216912163Y-56746246D01*
X216932119Y-56745997D01*
X216952043Y-56745252D01*
X216971926Y-56744012D01*
X216991760Y-56742282D01*
X217011533Y-56740063D01*
X217031238Y-56737359D01*
X217050863Y-56734171D01*
X217070401Y-56730504D01*
X217089841Y-56726359D01*
X217109173Y-56721739D01*
X217128389Y-56716647D01*
X217147479Y-56711086D01*
X217166433Y-56705058D01*
X217185242Y-56698566D01*
X217203897Y-56691613D01*
X217222387Y-56684201D01*
X217240682Y-56676345D01*
X217258754Y-56668059D01*
X217276595Y-56659347D01*
X217294199Y-56650213D01*
X217311558Y-56640661D01*
X217328667Y-56630695D01*
X217345517Y-56620320D01*
X217362104Y-56609539D01*
X217378419Y-56598357D01*
X217394455Y-56586777D01*
X217410207Y-56574804D01*
X217425668Y-56562441D01*
X217440830Y-56549693D01*
X217455686Y-56536564D01*
X217470231Y-56523058D01*
X217484457Y-56509179D01*
X217498499Y-56494943D01*
X217512148Y-56480369D01*
X217525401Y-56465466D01*
X217538254Y-56450245D01*
X217550707Y-56434715D01*
X217562755Y-56418884D01*
X217574396Y-56402764D01*
X217585627Y-56386363D01*
X217596446Y-56369690D01*
X217606850Y-56352756D01*
X217616836Y-56335569D01*
X217626402Y-56318139D01*
X217635544Y-56300477D01*
X217644261Y-56282590D01*
X217652549Y-56264489D01*
X217660405Y-56246183D01*
X217667817Y-56227693D01*
X217674770Y-56209040D01*
X217681261Y-56190235D01*
X217687289Y-56171289D01*
X217692850Y-56152213D01*
X217697942Y-56133018D01*
X217702562Y-56113714D01*
X217706707Y-56094312D01*
X217710375Y-56074824D01*
X217713562Y-56055259D01*
X217716266Y-56035630D01*
X217718485Y-56015946D01*
X217720216Y-55996219D01*
X217721455Y-55976459D01*
X217722201Y-55956678D01*
X217722450Y-55936885D01*
X217722201Y-55916930D01*
X217721455Y-55897006D01*
X217720216Y-55877122D01*
X217718485Y-55857289D01*
X217716266Y-55837516D01*
X217713562Y-55817811D01*
X217710375Y-55798185D01*
X217706707Y-55778648D01*
X217702562Y-55759208D01*
X217697942Y-55739875D01*
X217692850Y-55720659D01*
X217687289Y-55701569D01*
X217681261Y-55682615D01*
X217674770Y-55663806D01*
X217667817Y-55645152D01*
X217660405Y-55626661D01*
X217652549Y-55608366D01*
X217644261Y-55590292D01*
X217635544Y-55572447D01*
X217626402Y-55554835D01*
X217616836Y-55537462D01*
X217606850Y-55520333D01*
X217596446Y-55503453D01*
X217585627Y-55486829D01*
X217574396Y-55470465D01*
X217562755Y-55454367D01*
X217550707Y-55438540D01*
X217538254Y-55422990D01*
X217525401Y-55407722D01*
X217512148Y-55392742D01*
X217498499Y-55378054D01*
X217484457Y-55363665D01*
X217470231Y-55349786D01*
X217455686Y-55336280D01*
X217440830Y-55323151D01*
X217425668Y-55310403D01*
X217410208Y-55298041D01*
X217394456Y-55286067D01*
X217378419Y-55274488D01*
X217362104Y-55263305D01*
X217345518Y-55252524D01*
X217328667Y-55242149D01*
X217311558Y-55232184D01*
X217294199Y-55222632D01*
X217276595Y-55213498D01*
X217258754Y-55204785D01*
X217240683Y-55196499D01*
X217222387Y-55188643D01*
X217203897Y-55181231D01*
X217185242Y-55174278D01*
X217166433Y-55167787D01*
X217147479Y-55161759D01*
X217128389Y-55156197D01*
X217109173Y-55151106D01*
X217089840Y-55146486D01*
X217070401Y-55142341D01*
X217050863Y-55138673D01*
X217031237Y-55135486D01*
X217011533Y-55132782D01*
X216991760Y-55130563D01*
X216971926Y-55128832D01*
X216952043Y-55127593D01*
X216932119Y-55126847D01*
X216912163Y-55126598D01*
X216892218Y-55126847D01*
X216872324Y-55127593D01*
X216852486Y-55128832D01*
X216832712Y-55130563D01*
X216813008Y-55132782D01*
X216793382Y-55135486D01*
X216773840Y-55138673D01*
X216754389Y-55142341D01*
X216735035Y-55146486D01*
X216715786Y-55151106D01*
X216696649Y-55156197D01*
X216677629Y-55161759D01*
X216658734Y-55167787D01*
X216639970Y-55174278D01*
X216621345Y-55181231D01*
X216602865Y-55188643D01*
X216584560Y-55196499D01*
X216566459Y-55204785D01*
X216548572Y-55213498D01*
X216530909Y-55222632D01*
X216513480Y-55232184D01*
X216496293Y-55242149D01*
X216479358Y-55252525D01*
X216462686Y-55263305D01*
X216446285Y-55274488D01*
X216430164Y-55286068D01*
X216414334Y-55298041D01*
X216398803Y-55310403D01*
X216383582Y-55323151D01*
X216368680Y-55336280D01*
X216354106Y-55349786D01*
X216339870Y-55363665D01*
X216325980Y-55378054D01*
X216312446Y-55392742D01*
X216299276Y-55407722D01*
X216286477Y-55422990D01*
X216274059Y-55438540D01*
X216262028Y-55454367D01*
X216250393Y-55470465D01*
X216239163Y-55486829D01*
X216228344Y-55503454D01*
X216217947Y-55520333D01*
X216207978Y-55537462D01*
X216198446Y-55554835D01*
X216189359Y-55572447D01*
X216180724Y-55590293D01*
X216172552Y-55608366D01*
X216164848Y-55626661D01*
X216157436Y-55645152D01*
X216150483Y-55663806D01*
X216143992Y-55682615D01*
X216137964Y-55701569D01*
X216132402Y-55720659D01*
X216127311Y-55739875D01*
X216122691Y-55759208D01*
X216118546Y-55778648D01*
X216114878Y-55798185D01*
X216111691Y-55817811D01*
X216108986Y-55837515D01*
X216106768Y-55857289D01*
X216105037Y-55877122D01*
X216103798Y-55897006D01*
X216103052Y-55916930D01*
X216102803Y-55936885D01*
X215495319Y-55936885D01*
X215495319Y-54588568D01*
X215900000Y-54588568D01*
X215900173Y-54595431D01*
X215900688Y-54602203D01*
X215901536Y-54608876D01*
X215902709Y-54615443D01*
X215904198Y-54621895D01*
X215905995Y-54628223D01*
X215908091Y-54634419D01*
X215910479Y-54640474D01*
X215913149Y-54646381D01*
X215916094Y-54652131D01*
X215919305Y-54657715D01*
X215922774Y-54663126D01*
X215926491Y-54668354D01*
X215930450Y-54673392D01*
X215934641Y-54678230D01*
X215939057Y-54682861D01*
X215943688Y-54687277D01*
X215948526Y-54691468D01*
X215953564Y-54695427D01*
X215958792Y-54699144D01*
X215964202Y-54702613D01*
X215969787Y-54705824D01*
X215975536Y-54708769D01*
X215981443Y-54711439D01*
X215987499Y-54713827D01*
X215993695Y-54715923D01*
X216000023Y-54717720D01*
X216006475Y-54719209D01*
X216013042Y-54720382D01*
X216019715Y-54721230D01*
X216026487Y-54721745D01*
X216033350Y-54721918D01*
X217790976Y-54721918D01*
X217797839Y-54721745D01*
X217804611Y-54721230D01*
X217811284Y-54720382D01*
X217817851Y-54719209D01*
X217824303Y-54717720D01*
X217830631Y-54715923D01*
X217836827Y-54713827D01*
X217842883Y-54711439D01*
X217848790Y-54708769D01*
X217854539Y-54705824D01*
X217860124Y-54702613D01*
X217865534Y-54699144D01*
X217870762Y-54695427D01*
X217875800Y-54691468D01*
X217880638Y-54687277D01*
X217885270Y-54682861D01*
X217889685Y-54678230D01*
X217893876Y-54673392D01*
X217897835Y-54668354D01*
X217901553Y-54663126D01*
X217905021Y-54657715D01*
X217908232Y-54652131D01*
X217911177Y-54646381D01*
X217913847Y-54640474D01*
X217916235Y-54634419D01*
X217918332Y-54628223D01*
X217920129Y-54621895D01*
X217921618Y-54615443D01*
X217922790Y-54608876D01*
X217923638Y-54602203D01*
X217924153Y-54595431D01*
X217924327Y-54588568D01*
X217924327Y-53640302D01*
X217924153Y-53633439D01*
X217923638Y-53626667D01*
X217922790Y-53619994D01*
X217921618Y-53613427D01*
X217920129Y-53606975D01*
X217918332Y-53600647D01*
X217916235Y-53594451D01*
X217913847Y-53588395D01*
X217911177Y-53582489D01*
X217908232Y-53576739D01*
X217905021Y-53571154D01*
X217901553Y-53565744D01*
X217897835Y-53560516D01*
X217893876Y-53555478D01*
X217889685Y-53550640D01*
X217885270Y-53546009D01*
X217880638Y-53541593D01*
X217875800Y-53537402D01*
X217870762Y-53533443D01*
X217865534Y-53529726D01*
X217860124Y-53526257D01*
X217854539Y-53523046D01*
X217848790Y-53520101D01*
X217842883Y-53517431D01*
X217836827Y-53515043D01*
X217830631Y-53512947D01*
X217824303Y-53511150D01*
X217817851Y-53509661D01*
X217811284Y-53508488D01*
X217804611Y-53507640D01*
X217797839Y-53507125D01*
X217790976Y-53506952D01*
X216033350Y-53506952D01*
X216026487Y-53507125D01*
X216019715Y-53507640D01*
X216013042Y-53508488D01*
X216006475Y-53509661D01*
X216000023Y-53511150D01*
X215993695Y-53512947D01*
X215987499Y-53515043D01*
X215981443Y-53517431D01*
X215975536Y-53520101D01*
X215969787Y-53523046D01*
X215964202Y-53526257D01*
X215958792Y-53529726D01*
X215953564Y-53533443D01*
X215948526Y-53537402D01*
X215943688Y-53541593D01*
X215939057Y-53546009D01*
X215934641Y-53550640D01*
X215930450Y-53555478D01*
X215926491Y-53560516D01*
X215922774Y-53565744D01*
X215919305Y-53571154D01*
X215916094Y-53576739D01*
X215913149Y-53582489D01*
X215910479Y-53588395D01*
X215908091Y-53594451D01*
X215905995Y-53600647D01*
X215904198Y-53606975D01*
X215902709Y-53613427D01*
X215901536Y-53619994D01*
X215900688Y-53626667D01*
X215900173Y-53633439D01*
X215900000Y-53640302D01*
X215900000Y-54588568D01*
X215495319Y-54588568D01*
X215495319Y-53506952D01*
X215495439Y-53497056D01*
X215495797Y-53487165D01*
X215496394Y-53477285D01*
X215497229Y-53467422D01*
X215498304Y-53457580D01*
X215499617Y-53447765D01*
X215501169Y-53437983D01*
X215502959Y-53428239D01*
X215504988Y-53418538D01*
X215507256Y-53408886D01*
X215509763Y-53399288D01*
X215512509Y-53389750D01*
X215515493Y-53380277D01*
X215518716Y-53370875D01*
X215522178Y-53361548D01*
X215525878Y-53352303D01*
X215529807Y-53343155D01*
X215533951Y-53334119D01*
X215538309Y-53325196D01*
X215542880Y-53316390D01*
X215547663Y-53307703D01*
X215552656Y-53299139D01*
X215557858Y-53290699D01*
X215563268Y-53282387D01*
X215568883Y-53274205D01*
X215574704Y-53266156D01*
X215580728Y-53258243D01*
X215586954Y-53250468D01*
X215593381Y-53242834D01*
X215600007Y-53235343D01*
X215606831Y-53228000D01*
X215613852Y-53220805D01*
X215621047Y-53213784D01*
X215628391Y-53206960D01*
X215635881Y-53200334D01*
X215643515Y-53193907D01*
X215651290Y-53187680D01*
X215659203Y-53181656D01*
X215667252Y-53175836D01*
X215675434Y-53170220D01*
X215683746Y-53164811D01*
X215692186Y-53159609D01*
X215700751Y-53154616D01*
X215709437Y-53149833D01*
X215718243Y-53145262D01*
X215727166Y-53140903D01*
X215736203Y-53136760D01*
X215745351Y-53132831D01*
X215754596Y-53129131D01*
X215763922Y-53125669D01*
X215773324Y-53122446D01*
X215782797Y-53119462D01*
X215792335Y-53116716D01*
X215801933Y-53114209D01*
X215811585Y-53111941D01*
X215821286Y-53109912D01*
X215831030Y-53108121D01*
X215840813Y-53106569D01*
X215850627Y-53105256D01*
X215860469Y-53104182D01*
X215870333Y-53103346D01*
X215880213Y-53102750D01*
X215890104Y-53102391D01*
X215900000Y-53102272D01*
X217924327Y-53102272D01*
X217934223Y-53102391D01*
G37*
D13*
X200161542Y-148610489D02*
X200161542Y-148110489D01*
X200978685Y-147896203D02*
X200978685Y-148610489D01*
X200978685Y-148610489D02*
X199418685Y-148610489D01*
X199418685Y-148610489D02*
X199418685Y-147896203D01*
X200978685Y-147253346D02*
X199418685Y-147253346D01*
X199418685Y-147253346D02*
X200978685Y-146396203D01*
X200978685Y-146396203D02*
X199418685Y-146396203D01*
X200830114Y-144824774D02*
X200904400Y-144896202D01*
X200904400Y-144896202D02*
X200978685Y-145110488D01*
X200978685Y-145110488D02*
X200978685Y-145253345D01*
X200978685Y-145253345D02*
X200904400Y-145467631D01*
X200904400Y-145467631D02*
X200755828Y-145610488D01*
X200755828Y-145610488D02*
X200607257Y-145681917D01*
X200607257Y-145681917D02*
X200310114Y-145753345D01*
X200310114Y-145753345D02*
X200087257Y-145753345D01*
X200087257Y-145753345D02*
X199790114Y-145681917D01*
X199790114Y-145681917D02*
X199641542Y-145610488D01*
X199641542Y-145610488D02*
X199492971Y-145467631D01*
X199492971Y-145467631D02*
X199418685Y-145253345D01*
X199418685Y-145253345D02*
X199418685Y-145110488D01*
X199418685Y-145110488D02*
X199492971Y-144896202D01*
X199492971Y-144896202D02*
X199567257Y-144824774D01*
X200532971Y-144253345D02*
X200532971Y-143539060D01*
X200978685Y-144396202D02*
X199418685Y-143896202D01*
X199418685Y-143896202D02*
X200978685Y-143396202D01*
X202673142Y-148610489D02*
X202673142Y-148110489D01*
X203490285Y-147896203D02*
X203490285Y-148610489D01*
X203490285Y-148610489D02*
X201930285Y-148610489D01*
X201930285Y-148610489D02*
X201930285Y-147896203D01*
X203490285Y-147253346D02*
X201930285Y-147253346D01*
X201930285Y-147253346D02*
X203490285Y-146396203D01*
X203490285Y-146396203D02*
X201930285Y-146396203D01*
X203341714Y-144824774D02*
X203416000Y-144896202D01*
X203416000Y-144896202D02*
X203490285Y-145110488D01*
X203490285Y-145110488D02*
X203490285Y-145253345D01*
X203490285Y-145253345D02*
X203416000Y-145467631D01*
X203416000Y-145467631D02*
X203267428Y-145610488D01*
X203267428Y-145610488D02*
X203118857Y-145681917D01*
X203118857Y-145681917D02*
X202821714Y-145753345D01*
X202821714Y-145753345D02*
X202598857Y-145753345D01*
X202598857Y-145753345D02*
X202301714Y-145681917D01*
X202301714Y-145681917D02*
X202153142Y-145610488D01*
X202153142Y-145610488D02*
X202004571Y-145467631D01*
X202004571Y-145467631D02*
X201930285Y-145253345D01*
X201930285Y-145253345D02*
X201930285Y-145110488D01*
X201930285Y-145110488D02*
X202004571Y-144896202D01*
X202004571Y-144896202D02*
X202078857Y-144824774D01*
X202673142Y-143681917D02*
X202747428Y-143467631D01*
X202747428Y-143467631D02*
X202821714Y-143396202D01*
X202821714Y-143396202D02*
X202970285Y-143324774D01*
X202970285Y-143324774D02*
X203193142Y-143324774D01*
X203193142Y-143324774D02*
X203341714Y-143396202D01*
X203341714Y-143396202D02*
X203416000Y-143467631D01*
X203416000Y-143467631D02*
X203490285Y-143610488D01*
X203490285Y-143610488D02*
X203490285Y-144181917D01*
X203490285Y-144181917D02*
X201930285Y-144181917D01*
X201930285Y-144181917D02*
X201930285Y-143681917D01*
X201930285Y-143681917D02*
X202004571Y-143539060D01*
X202004571Y-143539060D02*
X202078857Y-143467631D01*
X202078857Y-143467631D02*
X202227428Y-143396202D01*
X202227428Y-143396202D02*
X202376000Y-143396202D01*
X202376000Y-143396202D02*
X202524571Y-143467631D01*
X202524571Y-143467631D02*
X202598857Y-143539060D01*
X202598857Y-143539060D02*
X202673142Y-143681917D01*
X202673142Y-143681917D02*
X202673142Y-144181917D01*
X205853314Y-147753346D02*
X205927600Y-147824774D01*
X205927600Y-147824774D02*
X206001885Y-148039060D01*
X206001885Y-148039060D02*
X206001885Y-148181917D01*
X206001885Y-148181917D02*
X205927600Y-148396203D01*
X205927600Y-148396203D02*
X205779028Y-148539060D01*
X205779028Y-148539060D02*
X205630457Y-148610489D01*
X205630457Y-148610489D02*
X205333314Y-148681917D01*
X205333314Y-148681917D02*
X205110457Y-148681917D01*
X205110457Y-148681917D02*
X204813314Y-148610489D01*
X204813314Y-148610489D02*
X204664742Y-148539060D01*
X204664742Y-148539060D02*
X204516171Y-148396203D01*
X204516171Y-148396203D02*
X204441885Y-148181917D01*
X204441885Y-148181917D02*
X204441885Y-148039060D01*
X204441885Y-148039060D02*
X204516171Y-147824774D01*
X204516171Y-147824774D02*
X204590457Y-147753346D01*
X204441885Y-146824774D02*
X204441885Y-146539060D01*
X204441885Y-146539060D02*
X204516171Y-146396203D01*
X204516171Y-146396203D02*
X204664742Y-146253346D01*
X204664742Y-146253346D02*
X204961885Y-146181917D01*
X204961885Y-146181917D02*
X205481885Y-146181917D01*
X205481885Y-146181917D02*
X205779028Y-146253346D01*
X205779028Y-146253346D02*
X205927600Y-146396203D01*
X205927600Y-146396203D02*
X206001885Y-146539060D01*
X206001885Y-146539060D02*
X206001885Y-146824774D01*
X206001885Y-146824774D02*
X205927600Y-146967632D01*
X205927600Y-146967632D02*
X205779028Y-147110489D01*
X205779028Y-147110489D02*
X205481885Y-147181917D01*
X205481885Y-147181917D02*
X204961885Y-147181917D01*
X204961885Y-147181917D02*
X204664742Y-147110489D01*
X204664742Y-147110489D02*
X204516171Y-146967632D01*
X204516171Y-146967632D02*
X204441885Y-146824774D01*
X206001885Y-145539060D02*
X204441885Y-145539060D01*
X204441885Y-145539060D02*
X205556171Y-145039060D01*
X205556171Y-145039060D02*
X204441885Y-144539060D01*
X204441885Y-144539060D02*
X206001885Y-144539060D01*
X205556171Y-143896202D02*
X205556171Y-143181917D01*
X206001885Y-144039059D02*
X204441885Y-143539059D01*
X204441885Y-143539059D02*
X206001885Y-143039059D01*
X208439200Y-148681917D02*
X208513485Y-148467632D01*
X208513485Y-148467632D02*
X208513485Y-148110489D01*
X208513485Y-148110489D02*
X208439200Y-147967632D01*
X208439200Y-147967632D02*
X208364914Y-147896203D01*
X208364914Y-147896203D02*
X208216342Y-147824774D01*
X208216342Y-147824774D02*
X208067771Y-147824774D01*
X208067771Y-147824774D02*
X207919200Y-147896203D01*
X207919200Y-147896203D02*
X207844914Y-147967632D01*
X207844914Y-147967632D02*
X207770628Y-148110489D01*
X207770628Y-148110489D02*
X207696342Y-148396203D01*
X207696342Y-148396203D02*
X207622057Y-148539060D01*
X207622057Y-148539060D02*
X207547771Y-148610489D01*
X207547771Y-148610489D02*
X207399200Y-148681917D01*
X207399200Y-148681917D02*
X207250628Y-148681917D01*
X207250628Y-148681917D02*
X207102057Y-148610489D01*
X207102057Y-148610489D02*
X207027771Y-148539060D01*
X207027771Y-148539060D02*
X206953485Y-148396203D01*
X206953485Y-148396203D02*
X206953485Y-148039060D01*
X206953485Y-148039060D02*
X207027771Y-147824774D01*
X206953485Y-147324775D02*
X208513485Y-146967632D01*
X208513485Y-146967632D02*
X207399200Y-146681918D01*
X207399200Y-146681918D02*
X208513485Y-146396203D01*
X208513485Y-146396203D02*
X206953485Y-146039061D01*
X208513485Y-144681917D02*
X208513485Y-145539060D01*
X208513485Y-145110489D02*
X206953485Y-145110489D01*
X206953485Y-145110489D02*
X207176342Y-145253346D01*
X207176342Y-145253346D02*
X207324914Y-145396203D01*
X207324914Y-145396203D02*
X207399200Y-145539060D01*
X210950800Y-148681917D02*
X211025085Y-148467632D01*
X211025085Y-148467632D02*
X211025085Y-148110489D01*
X211025085Y-148110489D02*
X210950800Y-147967632D01*
X210950800Y-147967632D02*
X210876514Y-147896203D01*
X210876514Y-147896203D02*
X210727942Y-147824774D01*
X210727942Y-147824774D02*
X210579371Y-147824774D01*
X210579371Y-147824774D02*
X210430800Y-147896203D01*
X210430800Y-147896203D02*
X210356514Y-147967632D01*
X210356514Y-147967632D02*
X210282228Y-148110489D01*
X210282228Y-148110489D02*
X210207942Y-148396203D01*
X210207942Y-148396203D02*
X210133657Y-148539060D01*
X210133657Y-148539060D02*
X210059371Y-148610489D01*
X210059371Y-148610489D02*
X209910800Y-148681917D01*
X209910800Y-148681917D02*
X209762228Y-148681917D01*
X209762228Y-148681917D02*
X209613657Y-148610489D01*
X209613657Y-148610489D02*
X209539371Y-148539060D01*
X209539371Y-148539060D02*
X209465085Y-148396203D01*
X209465085Y-148396203D02*
X209465085Y-148039060D01*
X209465085Y-148039060D02*
X209539371Y-147824774D01*
X209465085Y-147324775D02*
X211025085Y-146967632D01*
X211025085Y-146967632D02*
X209910800Y-146681918D01*
X209910800Y-146681918D02*
X211025085Y-146396203D01*
X211025085Y-146396203D02*
X209465085Y-146039061D01*
X209613657Y-145539060D02*
X209539371Y-145467632D01*
X209539371Y-145467632D02*
X209465085Y-145324775D01*
X209465085Y-145324775D02*
X209465085Y-144967632D01*
X209465085Y-144967632D02*
X209539371Y-144824775D01*
X209539371Y-144824775D02*
X209613657Y-144753346D01*
X209613657Y-144753346D02*
X209762228Y-144681917D01*
X209762228Y-144681917D02*
X209910800Y-144681917D01*
X209910800Y-144681917D02*
X210133657Y-144753346D01*
X210133657Y-144753346D02*
X211025085Y-145610489D01*
X211025085Y-145610489D02*
X211025085Y-144681917D01*
X213462400Y-148681917D02*
X213536685Y-148467632D01*
X213536685Y-148467632D02*
X213536685Y-148110489D01*
X213536685Y-148110489D02*
X213462400Y-147967632D01*
X213462400Y-147967632D02*
X213388114Y-147896203D01*
X213388114Y-147896203D02*
X213239542Y-147824774D01*
X213239542Y-147824774D02*
X213090971Y-147824774D01*
X213090971Y-147824774D02*
X212942400Y-147896203D01*
X212942400Y-147896203D02*
X212868114Y-147967632D01*
X212868114Y-147967632D02*
X212793828Y-148110489D01*
X212793828Y-148110489D02*
X212719542Y-148396203D01*
X212719542Y-148396203D02*
X212645257Y-148539060D01*
X212645257Y-148539060D02*
X212570971Y-148610489D01*
X212570971Y-148610489D02*
X212422400Y-148681917D01*
X212422400Y-148681917D02*
X212273828Y-148681917D01*
X212273828Y-148681917D02*
X212125257Y-148610489D01*
X212125257Y-148610489D02*
X212050971Y-148539060D01*
X212050971Y-148539060D02*
X211976685Y-148396203D01*
X211976685Y-148396203D02*
X211976685Y-148039060D01*
X211976685Y-148039060D02*
X212050971Y-147824774D01*
X211976685Y-147324775D02*
X213536685Y-146967632D01*
X213536685Y-146967632D02*
X212422400Y-146681918D01*
X212422400Y-146681918D02*
X213536685Y-146396203D01*
X213536685Y-146396203D02*
X211976685Y-146039061D01*
X211976685Y-145610489D02*
X211976685Y-144681917D01*
X211976685Y-144681917D02*
X212570971Y-145181917D01*
X212570971Y-145181917D02*
X212570971Y-144967632D01*
X212570971Y-144967632D02*
X212645257Y-144824775D01*
X212645257Y-144824775D02*
X212719542Y-144753346D01*
X212719542Y-144753346D02*
X212868114Y-144681917D01*
X212868114Y-144681917D02*
X213239542Y-144681917D01*
X213239542Y-144681917D02*
X213388114Y-144753346D01*
X213388114Y-144753346D02*
X213462400Y-144824775D01*
X213462400Y-144824775D02*
X213536685Y-144967632D01*
X213536685Y-144967632D02*
X213536685Y-145396203D01*
X213536685Y-145396203D02*
X213462400Y-145539060D01*
X213462400Y-145539060D02*
X213388114Y-145610489D01*
X215974000Y-148681917D02*
X216048285Y-148467632D01*
X216048285Y-148467632D02*
X216048285Y-148110489D01*
X216048285Y-148110489D02*
X215974000Y-147967632D01*
X215974000Y-147967632D02*
X215899714Y-147896203D01*
X215899714Y-147896203D02*
X215751142Y-147824774D01*
X215751142Y-147824774D02*
X215602571Y-147824774D01*
X215602571Y-147824774D02*
X215454000Y-147896203D01*
X215454000Y-147896203D02*
X215379714Y-147967632D01*
X215379714Y-147967632D02*
X215305428Y-148110489D01*
X215305428Y-148110489D02*
X215231142Y-148396203D01*
X215231142Y-148396203D02*
X215156857Y-148539060D01*
X215156857Y-148539060D02*
X215082571Y-148610489D01*
X215082571Y-148610489D02*
X214934000Y-148681917D01*
X214934000Y-148681917D02*
X214785428Y-148681917D01*
X214785428Y-148681917D02*
X214636857Y-148610489D01*
X214636857Y-148610489D02*
X214562571Y-148539060D01*
X214562571Y-148539060D02*
X214488285Y-148396203D01*
X214488285Y-148396203D02*
X214488285Y-148039060D01*
X214488285Y-148039060D02*
X214562571Y-147824774D01*
X214488285Y-147324775D02*
X216048285Y-146967632D01*
X216048285Y-146967632D02*
X214934000Y-146681918D01*
X214934000Y-146681918D02*
X216048285Y-146396203D01*
X216048285Y-146396203D02*
X214488285Y-146039061D01*
X215008285Y-144824775D02*
X216048285Y-144824775D01*
X214414000Y-145181917D02*
X215528285Y-145539060D01*
X215528285Y-145539060D02*
X215528285Y-144610489D01*
X218485600Y-148681917D02*
X218559885Y-148467632D01*
X218559885Y-148467632D02*
X218559885Y-148110489D01*
X218559885Y-148110489D02*
X218485600Y-147967632D01*
X218485600Y-147967632D02*
X218411314Y-147896203D01*
X218411314Y-147896203D02*
X218262742Y-147824774D01*
X218262742Y-147824774D02*
X218114171Y-147824774D01*
X218114171Y-147824774D02*
X217965600Y-147896203D01*
X217965600Y-147896203D02*
X217891314Y-147967632D01*
X217891314Y-147967632D02*
X217817028Y-148110489D01*
X217817028Y-148110489D02*
X217742742Y-148396203D01*
X217742742Y-148396203D02*
X217668457Y-148539060D01*
X217668457Y-148539060D02*
X217594171Y-148610489D01*
X217594171Y-148610489D02*
X217445600Y-148681917D01*
X217445600Y-148681917D02*
X217297028Y-148681917D01*
X217297028Y-148681917D02*
X217148457Y-148610489D01*
X217148457Y-148610489D02*
X217074171Y-148539060D01*
X217074171Y-148539060D02*
X216999885Y-148396203D01*
X216999885Y-148396203D02*
X216999885Y-148039060D01*
X216999885Y-148039060D02*
X217074171Y-147824774D01*
X216999885Y-147324775D02*
X218559885Y-146967632D01*
X218559885Y-146967632D02*
X217445600Y-146681918D01*
X217445600Y-146681918D02*
X218559885Y-146396203D01*
X218559885Y-146396203D02*
X216999885Y-146039061D01*
X216999885Y-144753346D02*
X216999885Y-145467632D01*
X216999885Y-145467632D02*
X217742742Y-145539060D01*
X217742742Y-145539060D02*
X217668457Y-145467632D01*
X217668457Y-145467632D02*
X217594171Y-145324775D01*
X217594171Y-145324775D02*
X217594171Y-144967632D01*
X217594171Y-144967632D02*
X217668457Y-144824775D01*
X217668457Y-144824775D02*
X217742742Y-144753346D01*
X217742742Y-144753346D02*
X217891314Y-144681917D01*
X217891314Y-144681917D02*
X218262742Y-144681917D01*
X218262742Y-144681917D02*
X218411314Y-144753346D01*
X218411314Y-144753346D02*
X218485600Y-144824775D01*
X218485600Y-144824775D02*
X218559885Y-144967632D01*
X218559885Y-144967632D02*
X218559885Y-145324775D01*
X218559885Y-145324775D02*
X218485600Y-145467632D01*
X218485600Y-145467632D02*
X218411314Y-145539060D01*
X220922914Y-147753346D02*
X220997200Y-147824774D01*
X220997200Y-147824774D02*
X221071485Y-148039060D01*
X221071485Y-148039060D02*
X221071485Y-148181917D01*
X221071485Y-148181917D02*
X220997200Y-148396203D01*
X220997200Y-148396203D02*
X220848628Y-148539060D01*
X220848628Y-148539060D02*
X220700057Y-148610489D01*
X220700057Y-148610489D02*
X220402914Y-148681917D01*
X220402914Y-148681917D02*
X220180057Y-148681917D01*
X220180057Y-148681917D02*
X219882914Y-148610489D01*
X219882914Y-148610489D02*
X219734342Y-148539060D01*
X219734342Y-148539060D02*
X219585771Y-148396203D01*
X219585771Y-148396203D02*
X219511485Y-148181917D01*
X219511485Y-148181917D02*
X219511485Y-148039060D01*
X219511485Y-148039060D02*
X219585771Y-147824774D01*
X219585771Y-147824774D02*
X219660057Y-147753346D01*
X219511485Y-146824774D02*
X219511485Y-146539060D01*
X219511485Y-146539060D02*
X219585771Y-146396203D01*
X219585771Y-146396203D02*
X219734342Y-146253346D01*
X219734342Y-146253346D02*
X220031485Y-146181917D01*
X220031485Y-146181917D02*
X220551485Y-146181917D01*
X220551485Y-146181917D02*
X220848628Y-146253346D01*
X220848628Y-146253346D02*
X220997200Y-146396203D01*
X220997200Y-146396203D02*
X221071485Y-146539060D01*
X221071485Y-146539060D02*
X221071485Y-146824774D01*
X221071485Y-146824774D02*
X220997200Y-146967632D01*
X220997200Y-146967632D02*
X220848628Y-147110489D01*
X220848628Y-147110489D02*
X220551485Y-147181917D01*
X220551485Y-147181917D02*
X220031485Y-147181917D01*
X220031485Y-147181917D02*
X219734342Y-147110489D01*
X219734342Y-147110489D02*
X219585771Y-146967632D01*
X219585771Y-146967632D02*
X219511485Y-146824774D01*
X221071485Y-145539060D02*
X219511485Y-145539060D01*
X219511485Y-145539060D02*
X220625771Y-145039060D01*
X220625771Y-145039060D02*
X219511485Y-144539060D01*
X219511485Y-144539060D02*
X221071485Y-144539060D01*
X220254342Y-143324774D02*
X220328628Y-143110488D01*
X220328628Y-143110488D02*
X220402914Y-143039059D01*
X220402914Y-143039059D02*
X220551485Y-142967631D01*
X220551485Y-142967631D02*
X220774342Y-142967631D01*
X220774342Y-142967631D02*
X220922914Y-143039059D01*
X220922914Y-143039059D02*
X220997200Y-143110488D01*
X220997200Y-143110488D02*
X221071485Y-143253345D01*
X221071485Y-143253345D02*
X221071485Y-143824774D01*
X221071485Y-143824774D02*
X219511485Y-143824774D01*
X219511485Y-143824774D02*
X219511485Y-143324774D01*
X219511485Y-143324774D02*
X219585771Y-143181917D01*
X219585771Y-143181917D02*
X219660057Y-143110488D01*
X219660057Y-143110488D02*
X219808628Y-143039059D01*
X219808628Y-143039059D02*
X219957200Y-143039059D01*
X219957200Y-143039059D02*
X220105771Y-143110488D01*
X220105771Y-143110488D02*
X220180057Y-143181917D01*
X220180057Y-143181917D02*
X220254342Y-143324774D01*
X220254342Y-143324774D02*
X220254342Y-143824774D01*
X216567492Y-64829638D02*
X217496064Y-64829638D01*
X217496064Y-64829638D02*
X216996064Y-65431542D01*
X216996064Y-65431542D02*
X217210349Y-65431542D01*
X217210349Y-65431542D02*
X217353207Y-65506780D01*
X217353207Y-65506780D02*
X217424635Y-65582019D01*
X217424635Y-65582019D02*
X217496064Y-65732495D01*
X217496064Y-65732495D02*
X217496064Y-66108685D01*
X217496064Y-66108685D02*
X217424635Y-66259161D01*
X217424635Y-66259161D02*
X217353207Y-66334400D01*
X217353207Y-66334400D02*
X217210349Y-66409638D01*
X217210349Y-66409638D02*
X216781778Y-66409638D01*
X216781778Y-66409638D02*
X216638921Y-66334400D01*
X216638921Y-66334400D02*
X216567492Y-66259161D01*
X217996063Y-65356304D02*
X218353206Y-66409638D01*
X218353206Y-66409638D02*
X218710349Y-65356304D01*
X215853206Y-67900104D02*
X215853206Y-69179152D01*
X215853206Y-69179152D02*
X215781777Y-69329628D01*
X215781777Y-69329628D02*
X215710348Y-69404866D01*
X215710348Y-69404866D02*
X215567491Y-69480104D01*
X215567491Y-69480104D02*
X215353206Y-69480104D01*
X215353206Y-69480104D02*
X215210348Y-69404866D01*
X215853206Y-68878200D02*
X215710348Y-68953438D01*
X215710348Y-68953438D02*
X215424634Y-68953438D01*
X215424634Y-68953438D02*
X215281777Y-68878200D01*
X215281777Y-68878200D02*
X215210348Y-68802961D01*
X215210348Y-68802961D02*
X215138920Y-68652485D01*
X215138920Y-68652485D02*
X215138920Y-68201057D01*
X215138920Y-68201057D02*
X215210348Y-68050580D01*
X215210348Y-68050580D02*
X215281777Y-67975342D01*
X215281777Y-67975342D02*
X215424634Y-67900104D01*
X215424634Y-67900104D02*
X215710348Y-67900104D01*
X215710348Y-67900104D02*
X215853206Y-67975342D01*
X216567491Y-67900104D02*
X216567491Y-68953438D01*
X216567491Y-68050580D02*
X216638920Y-67975342D01*
X216638920Y-67975342D02*
X216781777Y-67900104D01*
X216781777Y-67900104D02*
X216996063Y-67900104D01*
X216996063Y-67900104D02*
X217138920Y-67975342D01*
X217138920Y-67975342D02*
X217210349Y-68125819D01*
X217210349Y-68125819D02*
X217210349Y-68953438D01*
X218567492Y-68953438D02*
X218567492Y-67373438D01*
X218567492Y-68878200D02*
X218424634Y-68953438D01*
X218424634Y-68953438D02*
X218138920Y-68953438D01*
X218138920Y-68953438D02*
X217996063Y-68878200D01*
X217996063Y-68878200D02*
X217924634Y-68802961D01*
X217924634Y-68802961D02*
X217853206Y-68652485D01*
X217853206Y-68652485D02*
X217853206Y-68201057D01*
X217853206Y-68201057D02*
X217924634Y-68050580D01*
X217924634Y-68050580D02*
X217996063Y-67975342D01*
X217996063Y-67975342D02*
X218138920Y-67900104D01*
X218138920Y-67900104D02*
X218424634Y-67900104D01*
X218424634Y-67900104D02*
X218567492Y-67975342D01*
X215853206Y-70443904D02*
X215853206Y-71722952D01*
X215853206Y-71722952D02*
X215781777Y-71873428D01*
X215781777Y-71873428D02*
X215710348Y-71948666D01*
X215710348Y-71948666D02*
X215567491Y-72023904D01*
X215567491Y-72023904D02*
X215353206Y-72023904D01*
X215353206Y-72023904D02*
X215210348Y-71948666D01*
X215853206Y-71422000D02*
X215710348Y-71497238D01*
X215710348Y-71497238D02*
X215424634Y-71497238D01*
X215424634Y-71497238D02*
X215281777Y-71422000D01*
X215281777Y-71422000D02*
X215210348Y-71346761D01*
X215210348Y-71346761D02*
X215138920Y-71196285D01*
X215138920Y-71196285D02*
X215138920Y-70744857D01*
X215138920Y-70744857D02*
X215210348Y-70594380D01*
X215210348Y-70594380D02*
X215281777Y-70519142D01*
X215281777Y-70519142D02*
X215424634Y-70443904D01*
X215424634Y-70443904D02*
X215710348Y-70443904D01*
X215710348Y-70443904D02*
X215853206Y-70519142D01*
X216567491Y-70443904D02*
X216567491Y-71497238D01*
X216567491Y-70594380D02*
X216638920Y-70519142D01*
X216638920Y-70519142D02*
X216781777Y-70443904D01*
X216781777Y-70443904D02*
X216996063Y-70443904D01*
X216996063Y-70443904D02*
X217138920Y-70519142D01*
X217138920Y-70519142D02*
X217210349Y-70669619D01*
X217210349Y-70669619D02*
X217210349Y-71497238D01*
X218567492Y-71497238D02*
X218567492Y-69917238D01*
X218567492Y-71422000D02*
X218424634Y-71497238D01*
X218424634Y-71497238D02*
X218138920Y-71497238D01*
X218138920Y-71497238D02*
X217996063Y-71422000D01*
X217996063Y-71422000D02*
X217924634Y-71346761D01*
X217924634Y-71346761D02*
X217853206Y-71196285D01*
X217853206Y-71196285D02*
X217853206Y-70744857D01*
X217853206Y-70744857D02*
X217924634Y-70594380D01*
X217924634Y-70594380D02*
X217996063Y-70519142D01*
X217996063Y-70519142D02*
X218138920Y-70443904D01*
X218138920Y-70443904D02*
X218424634Y-70443904D01*
X218424634Y-70443904D02*
X218567492Y-70519142D01*
X216638920Y-72987704D02*
X216638920Y-74041038D01*
X216638920Y-73138180D02*
X216710349Y-73062942D01*
X216710349Y-73062942D02*
X216853206Y-72987704D01*
X216853206Y-72987704D02*
X217067492Y-72987704D01*
X217067492Y-72987704D02*
X217210349Y-73062942D01*
X217210349Y-73062942D02*
X217281778Y-73213419D01*
X217281778Y-73213419D02*
X217281778Y-74041038D01*
X218638921Y-73965800D02*
X218496063Y-74041038D01*
X218496063Y-74041038D02*
X218210349Y-74041038D01*
X218210349Y-74041038D02*
X218067492Y-73965800D01*
X218067492Y-73965800D02*
X217996063Y-73890561D01*
X217996063Y-73890561D02*
X217924635Y-73740085D01*
X217924635Y-73740085D02*
X217924635Y-73288657D01*
X217924635Y-73288657D02*
X217996063Y-73138180D01*
X217996063Y-73138180D02*
X218067492Y-73062942D01*
X218067492Y-73062942D02*
X218210349Y-72987704D01*
X218210349Y-72987704D02*
X218496063Y-72987704D01*
X218496063Y-72987704D02*
X218638921Y-73062942D01*
X217210350Y-76584838D02*
X216353207Y-76584838D01*
X216781778Y-76584838D02*
X216781778Y-75004838D01*
X216781778Y-75004838D02*
X216638921Y-75230552D01*
X216638921Y-75230552D02*
X216496064Y-75381028D01*
X216496064Y-75381028D02*
X216353207Y-75456266D01*
X218496064Y-75004838D02*
X218210349Y-75004838D01*
X218210349Y-75004838D02*
X218067492Y-75080076D01*
X218067492Y-75080076D02*
X217996064Y-75155314D01*
X217996064Y-75155314D02*
X217853206Y-75381028D01*
X217853206Y-75381028D02*
X217781778Y-75681980D01*
X217781778Y-75681980D02*
X217781778Y-76283885D01*
X217781778Y-76283885D02*
X217853206Y-76434361D01*
X217853206Y-76434361D02*
X217924635Y-76509600D01*
X217924635Y-76509600D02*
X218067492Y-76584838D01*
X218067492Y-76584838D02*
X218353206Y-76584838D01*
X218353206Y-76584838D02*
X218496064Y-76509600D01*
X218496064Y-76509600D02*
X218567492Y-76434361D01*
X218567492Y-76434361D02*
X218638921Y-76283885D01*
X218638921Y-76283885D02*
X218638921Y-75907695D01*
X218638921Y-75907695D02*
X218567492Y-75757219D01*
X218567492Y-75757219D02*
X218496064Y-75681980D01*
X218496064Y-75681980D02*
X218353206Y-75606742D01*
X218353206Y-75606742D02*
X218067492Y-75606742D01*
X218067492Y-75606742D02*
X217924635Y-75681980D01*
X217924635Y-75681980D02*
X217853206Y-75757219D01*
X217853206Y-75757219D02*
X217781778Y-75907695D01*
X216353207Y-77699114D02*
X216424635Y-77623876D01*
X216424635Y-77623876D02*
X216567493Y-77548638D01*
X216567493Y-77548638D02*
X216924635Y-77548638D01*
X216924635Y-77548638D02*
X217067493Y-77623876D01*
X217067493Y-77623876D02*
X217138921Y-77699114D01*
X217138921Y-77699114D02*
X217210350Y-77849590D01*
X217210350Y-77849590D02*
X217210350Y-78000066D01*
X217210350Y-78000066D02*
X217138921Y-78225780D01*
X217138921Y-78225780D02*
X216281778Y-79128638D01*
X216281778Y-79128638D02*
X217210350Y-79128638D01*
X218638921Y-79128638D02*
X217781778Y-79128638D01*
X218210349Y-79128638D02*
X218210349Y-77548638D01*
X218210349Y-77548638D02*
X218067492Y-77774352D01*
X218067492Y-77774352D02*
X217924635Y-77924828D01*
X217924635Y-77924828D02*
X217781778Y-78000066D01*
X217210350Y-81672438D02*
X216353207Y-81672438D01*
X216781778Y-81672438D02*
X216781778Y-80092438D01*
X216781778Y-80092438D02*
X216638921Y-80318152D01*
X216638921Y-80318152D02*
X216496064Y-80468628D01*
X216496064Y-80468628D02*
X216353207Y-80543866D01*
X217710349Y-80092438D02*
X218710349Y-80092438D01*
X218710349Y-80092438D02*
X218067492Y-81672438D01*
X217210350Y-84216238D02*
X216353207Y-84216238D01*
X216781778Y-84216238D02*
X216781778Y-82636238D01*
X216781778Y-82636238D02*
X216638921Y-82861952D01*
X216638921Y-82861952D02*
X216496064Y-83012428D01*
X216496064Y-83012428D02*
X216353207Y-83087666D01*
X218067492Y-83313380D02*
X217924635Y-83238142D01*
X217924635Y-83238142D02*
X217853206Y-83162904D01*
X217853206Y-83162904D02*
X217781778Y-83012428D01*
X217781778Y-83012428D02*
X217781778Y-82937190D01*
X217781778Y-82937190D02*
X217853206Y-82786714D01*
X217853206Y-82786714D02*
X217924635Y-82711476D01*
X217924635Y-82711476D02*
X218067492Y-82636238D01*
X218067492Y-82636238D02*
X218353206Y-82636238D01*
X218353206Y-82636238D02*
X218496064Y-82711476D01*
X218496064Y-82711476D02*
X218567492Y-82786714D01*
X218567492Y-82786714D02*
X218638921Y-82937190D01*
X218638921Y-82937190D02*
X218638921Y-83012428D01*
X218638921Y-83012428D02*
X218567492Y-83162904D01*
X218567492Y-83162904D02*
X218496064Y-83238142D01*
X218496064Y-83238142D02*
X218353206Y-83313380D01*
X218353206Y-83313380D02*
X218067492Y-83313380D01*
X218067492Y-83313380D02*
X217924635Y-83388619D01*
X217924635Y-83388619D02*
X217853206Y-83463857D01*
X217853206Y-83463857D02*
X217781778Y-83614333D01*
X217781778Y-83614333D02*
X217781778Y-83915285D01*
X217781778Y-83915285D02*
X217853206Y-84065761D01*
X217853206Y-84065761D02*
X217924635Y-84141000D01*
X217924635Y-84141000D02*
X218067492Y-84216238D01*
X218067492Y-84216238D02*
X218353206Y-84216238D01*
X218353206Y-84216238D02*
X218496064Y-84141000D01*
X218496064Y-84141000D02*
X218567492Y-84065761D01*
X218567492Y-84065761D02*
X218638921Y-83915285D01*
X218638921Y-83915285D02*
X218638921Y-83614333D01*
X218638921Y-83614333D02*
X218567492Y-83463857D01*
X218567492Y-83463857D02*
X218496064Y-83388619D01*
X218496064Y-83388619D02*
X218353206Y-83313380D01*
X217067493Y-85706704D02*
X217067493Y-86760038D01*
X216710350Y-85104800D02*
X216353207Y-86233371D01*
X216353207Y-86233371D02*
X217281778Y-86233371D01*
X218496064Y-85706704D02*
X218496064Y-86760038D01*
X218138921Y-85104800D02*
X217781778Y-86233371D01*
X217781778Y-86233371D02*
X218710349Y-86233371D01*
X217067493Y-88250504D02*
X217067493Y-89303838D01*
X216710350Y-87648600D02*
X216353207Y-88777171D01*
X216353207Y-88777171D02*
X217281778Y-88777171D01*
X217710349Y-87723838D02*
X218638921Y-87723838D01*
X218638921Y-87723838D02*
X218138921Y-88325742D01*
X218138921Y-88325742D02*
X218353206Y-88325742D01*
X218353206Y-88325742D02*
X218496064Y-88400980D01*
X218496064Y-88400980D02*
X218567492Y-88476219D01*
X218567492Y-88476219D02*
X218638921Y-88626695D01*
X218638921Y-88626695D02*
X218638921Y-89002885D01*
X218638921Y-89002885D02*
X218567492Y-89153361D01*
X218567492Y-89153361D02*
X218496064Y-89228600D01*
X218496064Y-89228600D02*
X218353206Y-89303838D01*
X218353206Y-89303838D02*
X217924635Y-89303838D01*
X217924635Y-89303838D02*
X217781778Y-89228600D01*
X217781778Y-89228600D02*
X217710349Y-89153361D01*
X215853206Y-90794304D02*
X215853206Y-92073352D01*
X215853206Y-92073352D02*
X215781777Y-92223828D01*
X215781777Y-92223828D02*
X215710348Y-92299066D01*
X215710348Y-92299066D02*
X215567491Y-92374304D01*
X215567491Y-92374304D02*
X215353206Y-92374304D01*
X215353206Y-92374304D02*
X215210348Y-92299066D01*
X215853206Y-91772400D02*
X215710348Y-91847638D01*
X215710348Y-91847638D02*
X215424634Y-91847638D01*
X215424634Y-91847638D02*
X215281777Y-91772400D01*
X215281777Y-91772400D02*
X215210348Y-91697161D01*
X215210348Y-91697161D02*
X215138920Y-91546685D01*
X215138920Y-91546685D02*
X215138920Y-91095257D01*
X215138920Y-91095257D02*
X215210348Y-90944780D01*
X215210348Y-90944780D02*
X215281777Y-90869542D01*
X215281777Y-90869542D02*
X215424634Y-90794304D01*
X215424634Y-90794304D02*
X215710348Y-90794304D01*
X215710348Y-90794304D02*
X215853206Y-90869542D01*
X216567491Y-90794304D02*
X216567491Y-91847638D01*
X216567491Y-90944780D02*
X216638920Y-90869542D01*
X216638920Y-90869542D02*
X216781777Y-90794304D01*
X216781777Y-90794304D02*
X216996063Y-90794304D01*
X216996063Y-90794304D02*
X217138920Y-90869542D01*
X217138920Y-90869542D02*
X217210349Y-91020019D01*
X217210349Y-91020019D02*
X217210349Y-91847638D01*
X218567492Y-91847638D02*
X218567492Y-90267638D01*
X218567492Y-91772400D02*
X218424634Y-91847638D01*
X218424634Y-91847638D02*
X218138920Y-91847638D01*
X218138920Y-91847638D02*
X217996063Y-91772400D01*
X217996063Y-91772400D02*
X217924634Y-91697161D01*
X217924634Y-91697161D02*
X217853206Y-91546685D01*
X217853206Y-91546685D02*
X217853206Y-91095257D01*
X217853206Y-91095257D02*
X217924634Y-90944780D01*
X217924634Y-90944780D02*
X217996063Y-90869542D01*
X217996063Y-90869542D02*
X218138920Y-90794304D01*
X218138920Y-90794304D02*
X218424634Y-90794304D01*
X218424634Y-90794304D02*
X218567492Y-90869542D01*
X215853206Y-93338104D02*
X215853206Y-94617152D01*
X215853206Y-94617152D02*
X215781777Y-94767628D01*
X215781777Y-94767628D02*
X215710348Y-94842866D01*
X215710348Y-94842866D02*
X215567491Y-94918104D01*
X215567491Y-94918104D02*
X215353206Y-94918104D01*
X215353206Y-94918104D02*
X215210348Y-94842866D01*
X215853206Y-94316200D02*
X215710348Y-94391438D01*
X215710348Y-94391438D02*
X215424634Y-94391438D01*
X215424634Y-94391438D02*
X215281777Y-94316200D01*
X215281777Y-94316200D02*
X215210348Y-94240961D01*
X215210348Y-94240961D02*
X215138920Y-94090485D01*
X215138920Y-94090485D02*
X215138920Y-93639057D01*
X215138920Y-93639057D02*
X215210348Y-93488580D01*
X215210348Y-93488580D02*
X215281777Y-93413342D01*
X215281777Y-93413342D02*
X215424634Y-93338104D01*
X215424634Y-93338104D02*
X215710348Y-93338104D01*
X215710348Y-93338104D02*
X215853206Y-93413342D01*
X216567491Y-93338104D02*
X216567491Y-94391438D01*
X216567491Y-93488580D02*
X216638920Y-93413342D01*
X216638920Y-93413342D02*
X216781777Y-93338104D01*
X216781777Y-93338104D02*
X216996063Y-93338104D01*
X216996063Y-93338104D02*
X217138920Y-93413342D01*
X217138920Y-93413342D02*
X217210349Y-93563819D01*
X217210349Y-93563819D02*
X217210349Y-94391438D01*
X218567492Y-94391438D02*
X218567492Y-92811438D01*
X218567492Y-94316200D02*
X218424634Y-94391438D01*
X218424634Y-94391438D02*
X218138920Y-94391438D01*
X218138920Y-94391438D02*
X217996063Y-94316200D01*
X217996063Y-94316200D02*
X217924634Y-94240961D01*
X217924634Y-94240961D02*
X217853206Y-94090485D01*
X217853206Y-94090485D02*
X217853206Y-93639057D01*
X217853206Y-93639057D02*
X217924634Y-93488580D01*
X217924634Y-93488580D02*
X217996063Y-93413342D01*
X217996063Y-93413342D02*
X218138920Y-93338104D01*
X218138920Y-93338104D02*
X218424634Y-93338104D01*
X218424634Y-93338104D02*
X218567492Y-93413342D01*
X196347971Y-132530939D02*
X196273685Y-132673797D01*
X196273685Y-132673797D02*
X196273685Y-132888082D01*
X196273685Y-132888082D02*
X196347971Y-133102368D01*
X196347971Y-133102368D02*
X196496542Y-133245225D01*
X196496542Y-133245225D02*
X196645114Y-133316654D01*
X196645114Y-133316654D02*
X196942257Y-133388082D01*
X196942257Y-133388082D02*
X197165114Y-133388082D01*
X197165114Y-133388082D02*
X197462257Y-133316654D01*
X197462257Y-133316654D02*
X197610828Y-133245225D01*
X197610828Y-133245225D02*
X197759400Y-133102368D01*
X197759400Y-133102368D02*
X197833685Y-132888082D01*
X197833685Y-132888082D02*
X197833685Y-132745225D01*
X197833685Y-132745225D02*
X197759400Y-132530939D01*
X197759400Y-132530939D02*
X197685114Y-132459511D01*
X197685114Y-132459511D02*
X197165114Y-132459511D01*
X197165114Y-132459511D02*
X197165114Y-132745225D01*
X197833685Y-131816654D02*
X196273685Y-131816654D01*
X196273685Y-131816654D02*
X197833685Y-130959511D01*
X197833685Y-130959511D02*
X196273685Y-130959511D01*
X197833685Y-130245225D02*
X196273685Y-130245225D01*
X196273685Y-130245225D02*
X196273685Y-129888082D01*
X196273685Y-129888082D02*
X196347971Y-129673796D01*
X196347971Y-129673796D02*
X196496542Y-129530939D01*
X196496542Y-129530939D02*
X196645114Y-129459510D01*
X196645114Y-129459510D02*
X196942257Y-129388082D01*
X196942257Y-129388082D02*
X197165114Y-129388082D01*
X197165114Y-129388082D02*
X197462257Y-129459510D01*
X197462257Y-129459510D02*
X197610828Y-129530939D01*
X197610828Y-129530939D02*
X197759400Y-129673796D01*
X197759400Y-129673796D02*
X197833685Y-129888082D01*
X197833685Y-129888082D02*
X197833685Y-130245225D01*
X198785285Y-131602367D02*
X198785285Y-130673795D01*
X198785285Y-130673795D02*
X199379571Y-131173795D01*
X199379571Y-131173795D02*
X199379571Y-130959510D01*
X199379571Y-130959510D02*
X199453857Y-130816653D01*
X199453857Y-130816653D02*
X199528142Y-130745224D01*
X199528142Y-130745224D02*
X199676714Y-130673795D01*
X199676714Y-130673795D02*
X200048142Y-130673795D01*
X200048142Y-130673795D02*
X200196714Y-130745224D01*
X200196714Y-130745224D02*
X200271000Y-130816653D01*
X200271000Y-130816653D02*
X200345285Y-130959510D01*
X200345285Y-130959510D02*
X200345285Y-131388081D01*
X200345285Y-131388081D02*
X200271000Y-131530938D01*
X200271000Y-131530938D02*
X200196714Y-131602367D01*
X198785285Y-130245224D02*
X200345285Y-129745224D01*
X200345285Y-129745224D02*
X198785285Y-129245224D01*
X202782600Y-131745224D02*
X202856885Y-131530939D01*
X202856885Y-131530939D02*
X202856885Y-131173796D01*
X202856885Y-131173796D02*
X202782600Y-131030939D01*
X202782600Y-131030939D02*
X202708314Y-130959510D01*
X202708314Y-130959510D02*
X202559742Y-130888081D01*
X202559742Y-130888081D02*
X202411171Y-130888081D01*
X202411171Y-130888081D02*
X202262600Y-130959510D01*
X202262600Y-130959510D02*
X202188314Y-131030939D01*
X202188314Y-131030939D02*
X202114028Y-131173796D01*
X202114028Y-131173796D02*
X202039742Y-131459510D01*
X202039742Y-131459510D02*
X201965457Y-131602367D01*
X201965457Y-131602367D02*
X201891171Y-131673796D01*
X201891171Y-131673796D02*
X201742600Y-131745224D01*
X201742600Y-131745224D02*
X201594028Y-131745224D01*
X201594028Y-131745224D02*
X201445457Y-131673796D01*
X201445457Y-131673796D02*
X201371171Y-131602367D01*
X201371171Y-131602367D02*
X201296885Y-131459510D01*
X201296885Y-131459510D02*
X201296885Y-131102367D01*
X201296885Y-131102367D02*
X201371171Y-130888081D01*
X202856885Y-130245225D02*
X201296885Y-130245225D01*
X201296885Y-130245225D02*
X201296885Y-129888082D01*
X201296885Y-129888082D02*
X201371171Y-129673796D01*
X201371171Y-129673796D02*
X201519742Y-129530939D01*
X201519742Y-129530939D02*
X201668314Y-129459510D01*
X201668314Y-129459510D02*
X201965457Y-129388082D01*
X201965457Y-129388082D02*
X202188314Y-129388082D01*
X202188314Y-129388082D02*
X202485457Y-129459510D01*
X202485457Y-129459510D02*
X202634028Y-129530939D01*
X202634028Y-129530939D02*
X202782600Y-129673796D01*
X202782600Y-129673796D02*
X202856885Y-129888082D01*
X202856885Y-129888082D02*
X202856885Y-130245225D01*
X202563796Y-64829638D02*
X201849510Y-64829638D01*
X201849510Y-64829638D02*
X201778082Y-65582019D01*
X201778082Y-65582019D02*
X201849510Y-65506780D01*
X201849510Y-65506780D02*
X201992368Y-65431542D01*
X201992368Y-65431542D02*
X202349510Y-65431542D01*
X202349510Y-65431542D02*
X202492368Y-65506780D01*
X202492368Y-65506780D02*
X202563796Y-65582019D01*
X202563796Y-65582019D02*
X202635225Y-65732495D01*
X202635225Y-65732495D02*
X202635225Y-66108685D01*
X202635225Y-66108685D02*
X202563796Y-66259161D01*
X202563796Y-66259161D02*
X202492368Y-66334400D01*
X202492368Y-66334400D02*
X202349510Y-66409638D01*
X202349510Y-66409638D02*
X201992368Y-66409638D01*
X201992368Y-66409638D02*
X201849510Y-66334400D01*
X201849510Y-66334400D02*
X201778082Y-66259161D01*
X203135224Y-65356304D02*
X203492367Y-66409638D01*
X203492367Y-66409638D02*
X203849510Y-65356304D01*
X202492368Y-67900104D02*
X202492368Y-69179152D01*
X202492368Y-69179152D02*
X202420939Y-69329628D01*
X202420939Y-69329628D02*
X202349510Y-69404866D01*
X202349510Y-69404866D02*
X202206653Y-69480104D01*
X202206653Y-69480104D02*
X201992368Y-69480104D01*
X201992368Y-69480104D02*
X201849510Y-69404866D01*
X202492368Y-68878200D02*
X202349510Y-68953438D01*
X202349510Y-68953438D02*
X202063796Y-68953438D01*
X202063796Y-68953438D02*
X201920939Y-68878200D01*
X201920939Y-68878200D02*
X201849510Y-68802961D01*
X201849510Y-68802961D02*
X201778082Y-68652485D01*
X201778082Y-68652485D02*
X201778082Y-68201057D01*
X201778082Y-68201057D02*
X201849510Y-68050580D01*
X201849510Y-68050580D02*
X201920939Y-67975342D01*
X201920939Y-67975342D02*
X202063796Y-67900104D01*
X202063796Y-67900104D02*
X202349510Y-67900104D01*
X202349510Y-67900104D02*
X202492368Y-67975342D01*
X203206653Y-67900104D02*
X203206653Y-68953438D01*
X203206653Y-68050580D02*
X203278082Y-67975342D01*
X203278082Y-67975342D02*
X203420939Y-67900104D01*
X203420939Y-67900104D02*
X203635225Y-67900104D01*
X203635225Y-67900104D02*
X203778082Y-67975342D01*
X203778082Y-67975342D02*
X203849511Y-68125819D01*
X203849511Y-68125819D02*
X203849511Y-68953438D01*
X205206654Y-68953438D02*
X205206654Y-67373438D01*
X205206654Y-68878200D02*
X205063796Y-68953438D01*
X205063796Y-68953438D02*
X204778082Y-68953438D01*
X204778082Y-68953438D02*
X204635225Y-68878200D01*
X204635225Y-68878200D02*
X204563796Y-68802961D01*
X204563796Y-68802961D02*
X204492368Y-68652485D01*
X204492368Y-68652485D02*
X204492368Y-68201057D01*
X204492368Y-68201057D02*
X204563796Y-68050580D01*
X204563796Y-68050580D02*
X204635225Y-67975342D01*
X204635225Y-67975342D02*
X204778082Y-67900104D01*
X204778082Y-67900104D02*
X205063796Y-67900104D01*
X205063796Y-67900104D02*
X205206654Y-67975342D01*
X201849510Y-70443904D02*
X201849510Y-71497238D01*
X201849510Y-70594380D02*
X201920939Y-70519142D01*
X201920939Y-70519142D02*
X202063796Y-70443904D01*
X202063796Y-70443904D02*
X202278082Y-70443904D01*
X202278082Y-70443904D02*
X202420939Y-70519142D01*
X202420939Y-70519142D02*
X202492368Y-70669619D01*
X202492368Y-70669619D02*
X202492368Y-71497238D01*
X203849511Y-71422000D02*
X203706653Y-71497238D01*
X203706653Y-71497238D02*
X203420939Y-71497238D01*
X203420939Y-71497238D02*
X203278082Y-71422000D01*
X203278082Y-71422000D02*
X203206653Y-71346761D01*
X203206653Y-71346761D02*
X203135225Y-71196285D01*
X203135225Y-71196285D02*
X203135225Y-70744857D01*
X203135225Y-70744857D02*
X203206653Y-70594380D01*
X203206653Y-70594380D02*
X203278082Y-70519142D01*
X203278082Y-70519142D02*
X203420939Y-70443904D01*
X203420939Y-70443904D02*
X203706653Y-70443904D01*
X203706653Y-70443904D02*
X203849511Y-70519142D01*
X201849510Y-72987704D02*
X201849510Y-74041038D01*
X201849510Y-73138180D02*
X201920939Y-73062942D01*
X201920939Y-73062942D02*
X202063796Y-72987704D01*
X202063796Y-72987704D02*
X202278082Y-72987704D01*
X202278082Y-72987704D02*
X202420939Y-73062942D01*
X202420939Y-73062942D02*
X202492368Y-73213419D01*
X202492368Y-73213419D02*
X202492368Y-74041038D01*
X203849511Y-73965800D02*
X203706653Y-74041038D01*
X203706653Y-74041038D02*
X203420939Y-74041038D01*
X203420939Y-74041038D02*
X203278082Y-73965800D01*
X203278082Y-73965800D02*
X203206653Y-73890561D01*
X203206653Y-73890561D02*
X203135225Y-73740085D01*
X203135225Y-73740085D02*
X203135225Y-73288657D01*
X203135225Y-73288657D02*
X203206653Y-73138180D01*
X203206653Y-73138180D02*
X203278082Y-73062942D01*
X203278082Y-73062942D02*
X203420939Y-72987704D01*
X203420939Y-72987704D02*
X203706653Y-72987704D01*
X203706653Y-72987704D02*
X203849511Y-73062942D01*
X202635225Y-76584838D02*
X201778082Y-76584838D01*
X202206653Y-76584838D02*
X202206653Y-75004838D01*
X202206653Y-75004838D02*
X202063796Y-75230552D01*
X202063796Y-75230552D02*
X201920939Y-75381028D01*
X201920939Y-75381028D02*
X201778082Y-75456266D01*
X203135224Y-75004838D02*
X204063796Y-75004838D01*
X204063796Y-75004838D02*
X203563796Y-75606742D01*
X203563796Y-75606742D02*
X203778081Y-75606742D01*
X203778081Y-75606742D02*
X203920939Y-75681980D01*
X203920939Y-75681980D02*
X203992367Y-75757219D01*
X203992367Y-75757219D02*
X204063796Y-75907695D01*
X204063796Y-75907695D02*
X204063796Y-76283885D01*
X204063796Y-76283885D02*
X203992367Y-76434361D01*
X203992367Y-76434361D02*
X203920939Y-76509600D01*
X203920939Y-76509600D02*
X203778081Y-76584838D01*
X203778081Y-76584838D02*
X203349510Y-76584838D01*
X203349510Y-76584838D02*
X203206653Y-76509600D01*
X203206653Y-76509600D02*
X203135224Y-76434361D01*
X202635225Y-79128638D02*
X201778082Y-79128638D01*
X202206653Y-79128638D02*
X202206653Y-77548638D01*
X202206653Y-77548638D02*
X202063796Y-77774352D01*
X202063796Y-77774352D02*
X201920939Y-77924828D01*
X201920939Y-77924828D02*
X201778082Y-78000066D01*
X203206653Y-77699114D02*
X203278081Y-77623876D01*
X203278081Y-77623876D02*
X203420939Y-77548638D01*
X203420939Y-77548638D02*
X203778081Y-77548638D01*
X203778081Y-77548638D02*
X203920939Y-77623876D01*
X203920939Y-77623876D02*
X203992367Y-77699114D01*
X203992367Y-77699114D02*
X204063796Y-77849590D01*
X204063796Y-77849590D02*
X204063796Y-78000066D01*
X204063796Y-78000066D02*
X203992367Y-78225780D01*
X203992367Y-78225780D02*
X203135224Y-79128638D01*
X203135224Y-79128638D02*
X204063796Y-79128638D01*
X202635225Y-81672438D02*
X201778082Y-81672438D01*
X202206653Y-81672438D02*
X202206653Y-80092438D01*
X202206653Y-80092438D02*
X202063796Y-80318152D01*
X202063796Y-80318152D02*
X201920939Y-80468628D01*
X201920939Y-80468628D02*
X201778082Y-80543866D01*
X204063796Y-81672438D02*
X203206653Y-81672438D01*
X203635224Y-81672438D02*
X203635224Y-80092438D01*
X203635224Y-80092438D02*
X203492367Y-80318152D01*
X203492367Y-80318152D02*
X203349510Y-80468628D01*
X203349510Y-80468628D02*
X203206653Y-80543866D01*
X202635225Y-84216238D02*
X201778082Y-84216238D01*
X202206653Y-84216238D02*
X202206653Y-82636238D01*
X202206653Y-82636238D02*
X202063796Y-82861952D01*
X202063796Y-82861952D02*
X201920939Y-83012428D01*
X201920939Y-83012428D02*
X201778082Y-83087666D01*
X203563796Y-82636238D02*
X203706653Y-82636238D01*
X203706653Y-82636238D02*
X203849510Y-82711476D01*
X203849510Y-82711476D02*
X203920939Y-82786714D01*
X203920939Y-82786714D02*
X203992367Y-82937190D01*
X203992367Y-82937190D02*
X204063796Y-83238142D01*
X204063796Y-83238142D02*
X204063796Y-83614333D01*
X204063796Y-83614333D02*
X203992367Y-83915285D01*
X203992367Y-83915285D02*
X203920939Y-84065761D01*
X203920939Y-84065761D02*
X203849510Y-84141000D01*
X203849510Y-84141000D02*
X203706653Y-84216238D01*
X203706653Y-84216238D02*
X203563796Y-84216238D01*
X203563796Y-84216238D02*
X203420939Y-84141000D01*
X203420939Y-84141000D02*
X203349510Y-84065761D01*
X203349510Y-84065761D02*
X203278081Y-83915285D01*
X203278081Y-83915285D02*
X203206653Y-83614333D01*
X203206653Y-83614333D02*
X203206653Y-83238142D01*
X203206653Y-83238142D02*
X203278081Y-82937190D01*
X203278081Y-82937190D02*
X203349510Y-82786714D01*
X203349510Y-82786714D02*
X203420939Y-82711476D01*
X203420939Y-82711476D02*
X203563796Y-82636238D01*
X201706653Y-85180038D02*
X202635225Y-85180038D01*
X202635225Y-85180038D02*
X202135225Y-85781942D01*
X202135225Y-85781942D02*
X202349510Y-85781942D01*
X202349510Y-85781942D02*
X202492368Y-85857180D01*
X202492368Y-85857180D02*
X202563796Y-85932419D01*
X202563796Y-85932419D02*
X202635225Y-86082895D01*
X202635225Y-86082895D02*
X202635225Y-86459085D01*
X202635225Y-86459085D02*
X202563796Y-86609561D01*
X202563796Y-86609561D02*
X202492368Y-86684800D01*
X202492368Y-86684800D02*
X202349510Y-86760038D01*
X202349510Y-86760038D02*
X201920939Y-86760038D01*
X201920939Y-86760038D02*
X201778082Y-86684800D01*
X201778082Y-86684800D02*
X201706653Y-86609561D01*
X201778082Y-87874314D02*
X201849510Y-87799076D01*
X201849510Y-87799076D02*
X201992368Y-87723838D01*
X201992368Y-87723838D02*
X202349510Y-87723838D01*
X202349510Y-87723838D02*
X202492368Y-87799076D01*
X202492368Y-87799076D02*
X202563796Y-87874314D01*
X202563796Y-87874314D02*
X202635225Y-88024790D01*
X202635225Y-88024790D02*
X202635225Y-88175266D01*
X202635225Y-88175266D02*
X202563796Y-88400980D01*
X202563796Y-88400980D02*
X201706653Y-89303838D01*
X201706653Y-89303838D02*
X202635225Y-89303838D01*
X202635225Y-91847638D02*
X201778082Y-91847638D01*
X202206653Y-91847638D02*
X202206653Y-90267638D01*
X202206653Y-90267638D02*
X202063796Y-90493352D01*
X202063796Y-90493352D02*
X201920939Y-90643828D01*
X201920939Y-90643828D02*
X201778082Y-90719066D01*
X201706653Y-92811438D02*
X202635225Y-92811438D01*
X202635225Y-92811438D02*
X202135225Y-93413342D01*
X202135225Y-93413342D02*
X202349510Y-93413342D01*
X202349510Y-93413342D02*
X202492368Y-93488580D01*
X202492368Y-93488580D02*
X202563796Y-93563819D01*
X202563796Y-93563819D02*
X202635225Y-93714295D01*
X202635225Y-93714295D02*
X202635225Y-94090485D01*
X202635225Y-94090485D02*
X202563796Y-94240961D01*
X202563796Y-94240961D02*
X202492368Y-94316200D01*
X202492368Y-94316200D02*
X202349510Y-94391438D01*
X202349510Y-94391438D02*
X201920939Y-94391438D01*
X201920939Y-94391438D02*
X201778082Y-94316200D01*
X201778082Y-94316200D02*
X201706653Y-94240961D01*
X203135224Y-93338104D02*
X203492367Y-94391438D01*
X203492367Y-94391438D02*
X203849510Y-93338104D01*
G36*
X209504546Y-59972616D02*
G01*
X209504546Y-58271904D01*
X209837889Y-58271904D01*
X209833590Y-58915142D01*
X209839746Y-58899857D01*
X209848521Y-58886497D01*
X209855865Y-58876063D01*
X209865867Y-58862883D01*
X209876528Y-58850307D01*
X209887849Y-58838336D01*
X209899829Y-58826970D01*
X209912468Y-58816208D01*
X209916828Y-58812755D01*
X209930439Y-58803005D01*
X209944599Y-58794272D01*
X209959308Y-58786555D01*
X209974567Y-58779856D01*
X209990376Y-58774172D01*
X209995767Y-58772504D01*
X210012208Y-58768121D01*
X210028704Y-58764645D01*
X210045254Y-58762076D01*
X210061860Y-58760414D01*
X210078520Y-58759658D01*
X210084086Y-58759608D01*
X210101022Y-58760104D01*
X210117883Y-58761592D01*
X210134667Y-58764073D01*
X210151375Y-58767546D01*
X210168006Y-58772011D01*
X210184561Y-58777468D01*
X210191162Y-58779929D01*
X210207389Y-58786653D01*
X210222852Y-58794370D01*
X210237553Y-58803078D01*
X210251490Y-58812779D01*
X210264664Y-58823473D01*
X210277074Y-58835158D01*
X210281825Y-58840110D01*
X210293308Y-58852777D01*
X210304066Y-58865863D01*
X210314099Y-58879368D01*
X210323407Y-58893294D01*
X210331990Y-58907640D01*
X210339848Y-58922405D01*
X210342788Y-58928428D01*
X210349764Y-58943657D01*
X210356282Y-58959058D01*
X210362342Y-58974630D01*
X210367945Y-58990375D01*
X210373089Y-59006290D01*
X210377775Y-59022378D01*
X210379522Y-59028861D01*
X210383680Y-59045038D01*
X210387360Y-59061330D01*
X210390564Y-59077736D01*
X210393291Y-59094257D01*
X210395541Y-59110892D01*
X210397313Y-59127642D01*
X210397889Y-59134374D01*
X210399240Y-59151076D01*
X210400362Y-59167721D01*
X210401255Y-59184308D01*
X210401919Y-59200839D01*
X210402354Y-59217312D01*
X210402560Y-59233727D01*
X210402578Y-59240278D01*
X210402578Y-59972616D01*
X210069236Y-59972616D01*
X210069236Y-59239887D01*
X210068967Y-59223254D01*
X210068161Y-59206572D01*
X210066818Y-59189842D01*
X210064937Y-59173062D01*
X210062275Y-59156527D01*
X210058587Y-59140529D01*
X210053873Y-59125068D01*
X210048133Y-59110145D01*
X210041001Y-59096077D01*
X210032111Y-59083181D01*
X210021462Y-59071457D01*
X210009054Y-59060906D01*
X209995767Y-59052015D01*
X209980353Y-59045050D01*
X209964443Y-59041299D01*
X209953562Y-59040585D01*
X209937292Y-59042192D01*
X209921455Y-59047014D01*
X209906051Y-59055052D01*
X209897679Y-59060906D01*
X209885443Y-59071457D01*
X209874916Y-59083181D01*
X209865117Y-59097771D01*
X209858991Y-59110145D01*
X209853252Y-59125068D01*
X209848538Y-59140529D01*
X209844850Y-59156527D01*
X209842188Y-59173062D01*
X209840307Y-59189842D01*
X209838964Y-59206572D01*
X209838158Y-59223254D01*
X209837889Y-59239887D01*
X209837889Y-59972616D01*
X209504546Y-59972616D01*
G37*
G36*
X211088864Y-58759840D02*
G01*
X211104874Y-58760536D01*
X211120811Y-58761696D01*
X211136675Y-58763320D01*
X211152465Y-58765409D01*
X211168182Y-58767961D01*
X211183826Y-58770977D01*
X211199396Y-58774458D01*
X211214845Y-58778402D01*
X211230122Y-58782811D01*
X211245228Y-58787684D01*
X211260164Y-58793020D01*
X211274928Y-58798821D01*
X211289522Y-58805086D01*
X211303944Y-58811815D01*
X211318196Y-58819008D01*
X211332258Y-58826689D01*
X211345917Y-58834883D01*
X211359174Y-58843591D01*
X211372027Y-58852811D01*
X211384477Y-58862544D01*
X211396525Y-58872790D01*
X211408169Y-58883549D01*
X211419410Y-58894821D01*
X211430193Y-58906434D01*
X211440464Y-58918415D01*
X211450221Y-58930761D01*
X211459466Y-58943474D01*
X211468198Y-58956553D01*
X211476416Y-58969999D01*
X211484122Y-58983811D01*
X211491315Y-58997989D01*
X211498069Y-59012417D01*
X211504260Y-59026980D01*
X211509890Y-59041678D01*
X211514958Y-59056509D01*
X211520503Y-59075238D01*
X211525170Y-59094176D01*
X211528960Y-59113325D01*
X211529612Y-59117179D01*
X211532652Y-59136410D01*
X211535177Y-59155754D01*
X211536825Y-59171313D01*
X211538144Y-59186944D01*
X211539133Y-59202649D01*
X211539793Y-59218427D01*
X211540123Y-59234279D01*
X211540164Y-59242232D01*
X211540164Y-59509531D01*
X211539906Y-59528630D01*
X211539133Y-59547824D01*
X211537845Y-59567113D01*
X211536042Y-59586498D01*
X211534229Y-59602075D01*
X211532085Y-59617712D01*
X211529612Y-59633411D01*
X211526791Y-59648963D01*
X211523409Y-59664357D01*
X211519464Y-59679591D01*
X211514958Y-59694667D01*
X211509890Y-59709584D01*
X211504260Y-59724343D01*
X211498069Y-59738942D01*
X211491315Y-59753383D01*
X211484122Y-59767568D01*
X211476416Y-59781398D01*
X211468198Y-59794874D01*
X211459466Y-59807996D01*
X211450221Y-59820764D01*
X211440464Y-59833177D01*
X211430193Y-59845237D01*
X211419410Y-59856942D01*
X211408169Y-59868128D01*
X211396525Y-59878826D01*
X211384477Y-59889036D01*
X211372027Y-59898756D01*
X211359174Y-59907989D01*
X211345917Y-59916733D01*
X211332258Y-59924988D01*
X211318196Y-59932755D01*
X211303834Y-59939893D01*
X211289278Y-59946457D01*
X211274525Y-59952447D01*
X211259578Y-59957863D01*
X211244435Y-59962705D01*
X211229096Y-59966973D01*
X211213562Y-59970668D01*
X211197833Y-59973788D01*
X211182116Y-59976444D01*
X211166423Y-59978746D01*
X211150755Y-59980694D01*
X211135111Y-59982288D01*
X211119492Y-59983527D01*
X211100002Y-59984578D01*
X211080551Y-59985076D01*
X211072781Y-59985121D01*
X211053335Y-59984844D01*
X211033832Y-59984014D01*
X211018188Y-59982952D01*
X211002507Y-59981535D01*
X210986790Y-59979764D01*
X210971037Y-59977639D01*
X210955246Y-59975160D01*
X210947338Y-59973788D01*
X210931700Y-59970668D01*
X210916245Y-59966973D01*
X210900974Y-59962705D01*
X210885886Y-59957863D01*
X210870981Y-59952447D01*
X210856259Y-59946457D01*
X210841721Y-59939893D01*
X210827365Y-59932755D01*
X210813303Y-59924988D01*
X210799644Y-59916733D01*
X210786388Y-59907989D01*
X210773534Y-59898756D01*
X210761084Y-59889036D01*
X210749037Y-59878826D01*
X210737393Y-59868128D01*
X210726151Y-59856942D01*
X210715362Y-59845237D01*
X210705073Y-59833177D01*
X210695285Y-59820764D01*
X210685998Y-59807996D01*
X210677211Y-59794874D01*
X210668925Y-59781398D01*
X210661140Y-59767568D01*
X210653855Y-59753383D01*
X210647188Y-59738942D01*
X210641057Y-59724343D01*
X210635464Y-59709584D01*
X210630408Y-59694667D01*
X210625890Y-59679591D01*
X210621908Y-59664357D01*
X210618465Y-59648963D01*
X210615558Y-59633411D01*
X210613177Y-59617712D01*
X210611113Y-59602075D01*
X210609367Y-59586498D01*
X210607630Y-59567113D01*
X210606390Y-59547824D01*
X210605646Y-59528630D01*
X210605398Y-59509531D01*
X210605398Y-59504451D01*
X210939131Y-59504451D01*
X210939449Y-59521621D01*
X210940401Y-59538743D01*
X210941989Y-59555815D01*
X210944211Y-59572839D01*
X210947582Y-59589374D01*
X210952222Y-59605372D01*
X210958133Y-59620833D01*
X210965314Y-59635756D01*
X210974009Y-59649653D01*
X210984462Y-59662036D01*
X210996675Y-59672905D01*
X211010645Y-59682260D01*
X211025666Y-59689611D01*
X211041029Y-59694863D01*
X211056734Y-59698013D01*
X211072781Y-59699064D01*
X211088827Y-59698013D01*
X211104532Y-59694863D01*
X211119895Y-59689611D01*
X211134916Y-59682260D01*
X211148887Y-59672905D01*
X211161099Y-59662036D01*
X211171552Y-59649653D01*
X211180248Y-59635756D01*
X211187404Y-59620833D01*
X211193241Y-59605372D01*
X211197760Y-59589374D01*
X211200959Y-59572839D01*
X211203353Y-59555815D01*
X211205063Y-59538743D01*
X211206088Y-59521621D01*
X211206430Y-59504451D01*
X211206430Y-59240278D01*
X211206088Y-59223083D01*
X211205063Y-59205888D01*
X211203353Y-59188694D01*
X211200959Y-59171499D01*
X211197686Y-59154524D01*
X211192948Y-59138380D01*
X211186744Y-59123066D01*
X211179075Y-59108582D01*
X211170014Y-59095027D01*
X211159243Y-59082888D01*
X211146762Y-59072165D01*
X211132571Y-59062860D01*
X211117550Y-59055337D01*
X211102188Y-59049964D01*
X211086483Y-59046740D01*
X211070436Y-59045665D01*
X211054462Y-59046789D01*
X211038977Y-59050159D01*
X211023981Y-59055777D01*
X211009473Y-59063641D01*
X210996015Y-59073289D01*
X210984169Y-59084255D01*
X210973936Y-59096541D01*
X210965314Y-59110145D01*
X210958133Y-59124580D01*
X210952222Y-59139747D01*
X210947582Y-59155648D01*
X210944211Y-59172281D01*
X210941989Y-59189133D01*
X210940401Y-59206084D01*
X210939449Y-59223132D01*
X210939131Y-59240278D01*
X210939131Y-59504451D01*
X210605398Y-59504451D01*
X210605398Y-59242232D01*
X210605556Y-59226344D01*
X210606033Y-59210529D01*
X210606826Y-59194788D01*
X210607938Y-59179119D01*
X210609367Y-59163524D01*
X210611599Y-59144134D01*
X210614328Y-59124858D01*
X210615558Y-59117179D01*
X210618465Y-59101810D01*
X210622853Y-59082788D01*
X210628082Y-59063976D01*
X210632869Y-59049077D01*
X210638193Y-59034312D01*
X210644055Y-59019682D01*
X210650454Y-59005186D01*
X210653855Y-58997989D01*
X210661140Y-58983811D01*
X210668925Y-58969999D01*
X210677211Y-58956553D01*
X210685998Y-58943474D01*
X210695285Y-58930761D01*
X210705073Y-58918415D01*
X210715362Y-58906434D01*
X210726151Y-58894821D01*
X210737386Y-58883549D01*
X210749012Y-58872790D01*
X210761029Y-58862544D01*
X210773437Y-58852811D01*
X210786235Y-58843591D01*
X210799424Y-58834883D01*
X210813004Y-58826689D01*
X210826975Y-58819008D01*
X210841318Y-58811815D01*
X210855820Y-58805086D01*
X210870480Y-58798821D01*
X210885300Y-58793020D01*
X210900278Y-58787684D01*
X210915415Y-58782811D01*
X210930711Y-58778402D01*
X210946165Y-58774458D01*
X210961736Y-58770977D01*
X210977379Y-58767961D01*
X210993096Y-58765409D01*
X211008887Y-58763320D01*
X211024750Y-58761696D01*
X211040687Y-58760536D01*
X211056697Y-58759840D01*
X211072781Y-58759608D01*
X211088864Y-58759840D01*
G37*
G36*
X211699996Y-59972616D02*
G01*
X211699996Y-58772113D01*
X211977065Y-58772113D01*
X211969250Y-58868247D01*
X211970847Y-58852132D01*
X211977847Y-58840110D01*
X211987134Y-58826914D01*
X211997411Y-58814584D01*
X212008677Y-58803119D01*
X212015363Y-58797124D01*
X212028136Y-58787314D01*
X212041837Y-58778988D01*
X212056465Y-58772147D01*
X212064993Y-58768987D01*
X212080882Y-58764453D01*
X212096894Y-58761403D01*
X212113030Y-58759837D01*
X212122048Y-58759608D01*
X212138026Y-58760337D01*
X212153816Y-58762525D01*
X212169420Y-58766171D01*
X212184837Y-58771277D01*
X212193562Y-58774849D01*
X212208407Y-58782096D01*
X212222168Y-58790503D01*
X212234843Y-58800069D01*
X212246435Y-58810795D01*
X212252571Y-58817445D01*
X212262685Y-58829541D01*
X212271827Y-58842235D01*
X212281084Y-58857476D01*
X212288141Y-58871453D01*
X212290869Y-58877626D01*
X212296804Y-58892158D01*
X212301760Y-58907751D01*
X212301420Y-58913188D01*
X212303688Y-58897320D01*
X212309503Y-58882688D01*
X212311190Y-58878798D01*
X212318761Y-58863020D01*
X212327407Y-58847731D01*
X212337128Y-58832930D01*
X212346516Y-58820379D01*
X212347924Y-58818617D01*
X212358535Y-58806924D01*
X212370193Y-58796466D01*
X212382898Y-58787241D01*
X212396650Y-58779251D01*
X212404979Y-58775239D01*
X212419984Y-58769149D01*
X212435251Y-58764554D01*
X212450780Y-58761455D01*
X212466571Y-58759852D01*
X212475712Y-58759608D01*
X212493535Y-58760487D01*
X212510760Y-58763123D01*
X212527387Y-58767518D01*
X212543416Y-58773670D01*
X212552306Y-58777975D01*
X212567151Y-58786419D01*
X212580912Y-58796023D01*
X212593587Y-58806786D01*
X212605179Y-58818708D01*
X212611315Y-58826042D01*
X212621277Y-58839353D01*
X212630304Y-58853301D01*
X212638395Y-58867884D01*
X212645552Y-58883103D01*
X212649222Y-58892085D01*
X212655077Y-58907948D01*
X212660335Y-58923736D01*
X212664994Y-58939449D01*
X212669054Y-58955088D01*
X212671106Y-58963990D01*
X212674416Y-58979661D01*
X212677165Y-58995556D01*
X212679352Y-59011675D01*
X212680979Y-59028019D01*
X212681657Y-59037458D01*
X212682571Y-59053968D01*
X212683260Y-59070327D01*
X212683725Y-59086538D01*
X212683965Y-59102598D01*
X212684002Y-59111708D01*
X212684002Y-59972616D01*
X212406933Y-59972616D01*
X212406933Y-59107800D01*
X212406739Y-59092059D01*
X212406098Y-59076116D01*
X212405760Y-59070676D01*
X212403974Y-59054189D01*
X212401068Y-59038802D01*
X212400289Y-59035505D01*
X212395681Y-59019510D01*
X212389184Y-59005234D01*
X212388175Y-59003460D01*
X212377929Y-58991387D01*
X212369808Y-58989001D01*
X212354901Y-58995228D01*
X212348705Y-59003460D01*
X212341769Y-59018505D01*
X212336863Y-59034385D01*
X212336591Y-59035505D01*
X212333695Y-59050892D01*
X212331754Y-59067378D01*
X212331511Y-59070676D01*
X212330950Y-59087397D01*
X212330736Y-59104088D01*
X212330729Y-59107800D01*
X212330729Y-59972616D01*
X212053269Y-59972616D01*
X212053269Y-59107800D01*
X212053076Y-59092059D01*
X212052435Y-59076116D01*
X212052097Y-59070676D01*
X212050591Y-59054189D01*
X212047792Y-59038802D01*
X212047017Y-59035505D01*
X212042408Y-59019510D01*
X212035911Y-59005234D01*
X212034902Y-59003460D01*
X212024502Y-58991768D01*
X212014190Y-58989001D01*
X212000234Y-58996470D01*
X211995432Y-59003460D01*
X211988496Y-59018505D01*
X211983590Y-59034385D01*
X211983318Y-59035505D01*
X211980422Y-59050892D01*
X211978482Y-59067378D01*
X211978238Y-59070676D01*
X211977396Y-59087397D01*
X211977076Y-59104088D01*
X211977065Y-59107800D01*
X211977065Y-59972616D01*
X211699996Y-59972616D01*
G37*
G36*
X213330663Y-58759894D02*
G01*
X213350167Y-58760753D01*
X213365810Y-58761852D01*
X213381491Y-58763317D01*
X213397208Y-58765149D01*
X213412961Y-58767347D01*
X213428752Y-58769912D01*
X213436661Y-58771331D01*
X213452390Y-58774458D01*
X213467924Y-58778170D01*
X213483262Y-58782469D01*
X213498405Y-58787354D01*
X213513353Y-58792825D01*
X213528105Y-58798882D01*
X213542662Y-58805525D01*
X213557024Y-58812755D01*
X213571080Y-58820534D01*
X213584721Y-58828826D01*
X213597946Y-58837631D01*
X213610757Y-58846949D01*
X213623152Y-58856780D01*
X213635132Y-58867124D01*
X213646697Y-58877980D01*
X213657847Y-58889350D01*
X213668630Y-58901153D01*
X213678901Y-58913310D01*
X213688658Y-58925821D01*
X213697903Y-58938687D01*
X213706634Y-58951906D01*
X213714853Y-58965480D01*
X213722559Y-58979408D01*
X213729752Y-58993690D01*
X213736505Y-59008235D01*
X213742697Y-59022950D01*
X213748327Y-59037837D01*
X213753395Y-59052895D01*
X213757901Y-59068123D01*
X213761846Y-59083523D01*
X213765228Y-59099093D01*
X213768049Y-59114835D01*
X213770522Y-59130546D01*
X213772666Y-59146220D01*
X213774479Y-59161857D01*
X213775963Y-59177458D01*
X213777354Y-59196908D01*
X213778230Y-59216301D01*
X213778590Y-59235636D01*
X213778601Y-59239496D01*
X213778601Y-59508359D01*
X213159592Y-59508359D01*
X213159592Y-59508749D01*
X213159891Y-59524765D01*
X213160788Y-59540667D01*
X213162284Y-59556458D01*
X213164379Y-59572137D01*
X213165844Y-59581045D01*
X213169825Y-59598264D01*
X213175516Y-59614751D01*
X213182917Y-59630505D01*
X213192027Y-59645525D01*
X213202896Y-59659301D01*
X213215572Y-59671708D01*
X213228146Y-59681443D01*
X213242104Y-59690130D01*
X213246347Y-59692420D01*
X213261429Y-59699272D01*
X213276587Y-59704441D01*
X213294001Y-59708288D01*
X213311514Y-59709937D01*
X213315907Y-59710006D01*
X213332813Y-59709433D01*
X213349338Y-59707716D01*
X213365481Y-59704854D01*
X213368663Y-59704144D01*
X213384005Y-59699549D01*
X213399646Y-59692908D01*
X213413995Y-59684604D01*
X213426857Y-59674454D01*
X213437503Y-59662271D01*
X213445258Y-59649433D01*
X213451540Y-59634535D01*
X213455823Y-59619037D01*
X213458540Y-59603601D01*
X213459717Y-59593160D01*
X213774302Y-59593160D01*
X213773368Y-59610196D01*
X213771933Y-59626719D01*
X213769997Y-59642729D01*
X213767561Y-59658226D01*
X213763811Y-59676876D01*
X213759279Y-59694725D01*
X213753965Y-59711773D01*
X213752809Y-59715086D01*
X213746754Y-59731401D01*
X213740070Y-59747372D01*
X213732756Y-59762999D01*
X213724812Y-59778284D01*
X213716239Y-59793224D01*
X213707036Y-59807822D01*
X213703178Y-59813565D01*
X213693084Y-59827483D01*
X213682341Y-59840904D01*
X213670950Y-59853830D01*
X213658909Y-59866260D01*
X213646220Y-59878194D01*
X213632882Y-59889631D01*
X213627365Y-59894067D01*
X213613394Y-59904686D01*
X213599079Y-59914561D01*
X213584421Y-59923691D01*
X213569419Y-59932077D01*
X213554074Y-59939719D01*
X213538385Y-59946617D01*
X213532013Y-59949168D01*
X213515920Y-59954998D01*
X213499636Y-59960274D01*
X213483161Y-59964996D01*
X213466495Y-59969166D01*
X213449638Y-59972782D01*
X213432591Y-59975844D01*
X213425719Y-59976914D01*
X213408509Y-59979278D01*
X213391318Y-59981242D01*
X213374147Y-59982805D01*
X213356995Y-59983967D01*
X213339861Y-59984728D01*
X213322747Y-59985089D01*
X213315907Y-59985121D01*
X213296461Y-59984844D01*
X213276958Y-59984014D01*
X213261314Y-59982952D01*
X213245634Y-59981535D01*
X213229917Y-59979764D01*
X213214163Y-59977639D01*
X213198373Y-59975160D01*
X213190464Y-59973788D01*
X213174735Y-59970680D01*
X213159201Y-59967022D01*
X213143862Y-59962815D01*
X213128719Y-59958059D01*
X213113772Y-59952752D01*
X213099019Y-59946897D01*
X213084462Y-59940491D01*
X213070101Y-59933537D01*
X213056112Y-59925928D01*
X213042477Y-59917759D01*
X213029196Y-59909027D01*
X213016270Y-59899733D01*
X213003697Y-59889878D01*
X212991479Y-59879461D01*
X212979615Y-59868483D01*
X212968105Y-59856942D01*
X212957023Y-59844980D01*
X212946441Y-59832738D01*
X212936360Y-59820214D01*
X212926779Y-59807410D01*
X212917700Y-59794324D01*
X212909121Y-59780958D01*
X212901042Y-59767311D01*
X212893465Y-59753383D01*
X212886522Y-59739119D01*
X212880153Y-59724660D01*
X212874359Y-59710006D01*
X212869138Y-59695156D01*
X212864491Y-59680110D01*
X212860418Y-59664870D01*
X212856920Y-59649433D01*
X212853995Y-59633802D01*
X212851614Y-59617969D01*
X212849550Y-59602124D01*
X212847803Y-59586266D01*
X212846375Y-59570396D01*
X212845263Y-59554514D01*
X212844469Y-59538620D01*
X212843993Y-59522714D01*
X212843834Y-59506796D01*
X212843834Y-59237933D01*
X212844035Y-59222301D01*
X213159592Y-59222301D01*
X213462842Y-59222691D01*
X213462453Y-59205595D01*
X213461280Y-59188694D01*
X213459326Y-59171987D01*
X213456591Y-59155477D01*
X213452683Y-59139405D01*
X213447212Y-59124018D01*
X213440178Y-59109315D01*
X213431580Y-59095295D01*
X213421371Y-59082301D01*
X213409501Y-59070676D01*
X213395970Y-59060417D01*
X213380778Y-59051527D01*
X213366497Y-59044979D01*
X213349534Y-59039465D01*
X213334131Y-59036364D01*
X213318204Y-59034871D01*
X213311218Y-59034723D01*
X213295066Y-59035564D01*
X213279438Y-59038089D01*
X213264334Y-59042296D01*
X213249754Y-59048187D01*
X213241657Y-59052308D01*
X213226612Y-59061663D01*
X213213130Y-59072532D01*
X213201211Y-59084915D01*
X213190855Y-59098812D01*
X213182257Y-59113833D01*
X213175223Y-59129587D01*
X213169752Y-59146073D01*
X213165844Y-59163292D01*
X213163109Y-59180023D01*
X213160965Y-59197268D01*
X213159744Y-59214472D01*
X213159592Y-59222301D01*
X212844035Y-59222301D01*
X212844082Y-59218609D01*
X212844827Y-59199228D01*
X212846067Y-59179790D01*
X212847416Y-59164198D01*
X212849083Y-59148570D01*
X212851068Y-59132904D01*
X212853370Y-59117203D01*
X212853995Y-59113271D01*
X212856901Y-59097628D01*
X212860345Y-59082155D01*
X212864326Y-59066853D01*
X212868845Y-59051722D01*
X212873901Y-59036762D01*
X212879494Y-59021973D01*
X212885624Y-59007356D01*
X212892292Y-58992909D01*
X212899571Y-58978718D01*
X212907338Y-58964870D01*
X212915593Y-58951363D01*
X212924337Y-58938198D01*
X212933569Y-58925375D01*
X212943290Y-58912895D01*
X212953499Y-58900756D01*
X212964197Y-58888959D01*
X212975439Y-58877589D01*
X212987083Y-58866733D01*
X212999130Y-58856389D01*
X213011580Y-58846558D01*
X213024434Y-58837240D01*
X213037690Y-58828435D01*
X213051349Y-58820143D01*
X213065412Y-58812364D01*
X213079773Y-58805135D01*
X213094330Y-58798491D01*
X213109082Y-58792434D01*
X213124030Y-58786963D01*
X213139173Y-58782078D01*
X213154511Y-58777779D01*
X213170045Y-58774067D01*
X213185774Y-58770941D01*
X213201583Y-58768285D01*
X213217355Y-58765983D01*
X213233090Y-58764035D01*
X213248789Y-58762441D01*
X213264451Y-58761202D01*
X213280077Y-58760316D01*
X213299557Y-58759707D01*
X213311218Y-58759608D01*
X213330663Y-58759894D01*
G37*
G36*
X214264742Y-59972616D02*
G01*
X214264742Y-58557961D01*
X213954065Y-58557961D01*
X213954065Y-58271904D01*
X214906807Y-58271904D01*
X214906807Y-58557961D01*
X214596130Y-58557961D01*
X214596130Y-59972616D01*
X214264742Y-59972616D01*
G37*
G36*
X215100638Y-59972616D02*
G01*
X215100638Y-58271904D01*
X215433981Y-58271904D01*
X215429682Y-58915142D01*
X215435838Y-58899857D01*
X215444613Y-58886497D01*
X215451957Y-58876063D01*
X215461959Y-58862883D01*
X215472620Y-58850307D01*
X215483941Y-58838336D01*
X215495921Y-58826970D01*
X215508561Y-58816208D01*
X215512920Y-58812755D01*
X215526531Y-58803005D01*
X215540691Y-58794272D01*
X215555400Y-58786555D01*
X215570659Y-58779856D01*
X215586468Y-58774172D01*
X215591860Y-58772504D01*
X215608300Y-58768121D01*
X215624796Y-58764645D01*
X215641346Y-58762076D01*
X215657952Y-58760414D01*
X215674612Y-58759658D01*
X215680178Y-58759608D01*
X215697114Y-58760104D01*
X215713975Y-58761592D01*
X215730759Y-58764073D01*
X215747467Y-58767546D01*
X215764098Y-58772011D01*
X215780653Y-58777468D01*
X215787254Y-58779929D01*
X215803481Y-58786653D01*
X215818944Y-58794370D01*
X215833645Y-58803078D01*
X215847582Y-58812779D01*
X215860756Y-58823473D01*
X215873166Y-58835158D01*
X215877917Y-58840110D01*
X215889400Y-58852777D01*
X215900158Y-58865863D01*
X215910191Y-58879368D01*
X215919499Y-58893294D01*
X215928082Y-58907640D01*
X215935940Y-58922405D01*
X215938880Y-58928428D01*
X215945856Y-58943657D01*
X215952374Y-58959058D01*
X215958434Y-58974630D01*
X215964037Y-58990375D01*
X215969181Y-59006290D01*
X215973868Y-59022378D01*
X215975614Y-59028861D01*
X215979772Y-59045038D01*
X215983453Y-59061330D01*
X215986656Y-59077736D01*
X215989383Y-59094257D01*
X215991633Y-59110892D01*
X215993405Y-59127642D01*
X215993981Y-59134374D01*
X215995332Y-59151076D01*
X215996454Y-59167721D01*
X215997347Y-59184308D01*
X215998011Y-59200839D01*
X215998446Y-59217312D01*
X215998652Y-59233727D01*
X215998670Y-59240278D01*
X215998670Y-59972616D01*
X215665328Y-59972616D01*
X215665328Y-59239887D01*
X215665059Y-59223254D01*
X215664253Y-59206572D01*
X215662910Y-59189842D01*
X215661029Y-59173062D01*
X215658367Y-59156527D01*
X215654679Y-59140529D01*
X215649965Y-59125068D01*
X215644225Y-59110145D01*
X215637093Y-59096077D01*
X215628203Y-59083181D01*
X215617554Y-59071457D01*
X215605146Y-59060906D01*
X215591860Y-59052015D01*
X215576445Y-59045050D01*
X215560535Y-59041299D01*
X215549654Y-59040585D01*
X215533384Y-59042192D01*
X215517547Y-59047014D01*
X215502143Y-59055052D01*
X215493772Y-59060906D01*
X215481535Y-59071457D01*
X215471008Y-59083181D01*
X215461209Y-59097771D01*
X215455084Y-59110145D01*
X215449344Y-59125068D01*
X215444630Y-59140529D01*
X215440942Y-59156527D01*
X215438280Y-59173062D01*
X215436399Y-59189842D01*
X215435056Y-59206572D01*
X215434250Y-59223254D01*
X215433981Y-59239887D01*
X215433981Y-59972616D01*
X215100638Y-59972616D01*
G37*
G36*
X216262453Y-59972616D02*
G01*
X216262453Y-59686558D01*
X216519201Y-59686558D01*
X216519201Y-59058170D01*
X216294107Y-59058170D01*
X216294107Y-58772113D01*
X216850199Y-58772113D01*
X216850199Y-59686558D01*
X217075293Y-59686558D01*
X217075293Y-59972616D01*
X216262453Y-59972616D01*
G37*
G36*
X216668873Y-58647061D02*
G01*
X216652886Y-58646607D01*
X216636871Y-58645247D01*
X216620829Y-58642980D01*
X216604759Y-58639807D01*
X216588662Y-58635726D01*
X216583290Y-58634165D01*
X216567743Y-58628605D01*
X216553047Y-58621891D01*
X216539203Y-58614024D01*
X216526211Y-58605002D01*
X216514070Y-58594826D01*
X216510213Y-58591178D01*
X216499519Y-58579468D01*
X216490008Y-58566906D01*
X216481677Y-58553493D01*
X216474529Y-58539228D01*
X216468562Y-58524110D01*
X216466835Y-58518882D01*
X216462452Y-58502936D01*
X216458977Y-58487045D01*
X216456407Y-58471209D01*
X216454745Y-58455428D01*
X216453989Y-58439702D01*
X216453939Y-58434472D01*
X216454392Y-58418778D01*
X216455753Y-58403056D01*
X216458019Y-58387307D01*
X216461193Y-58371530D01*
X216465273Y-58355726D01*
X216466835Y-58350452D01*
X216472408Y-58334932D01*
X216479163Y-58320319D01*
X216487100Y-58306612D01*
X216496218Y-58293812D01*
X216506517Y-58281919D01*
X216510213Y-58278156D01*
X216522069Y-58267477D01*
X216534777Y-58258006D01*
X216548337Y-58249745D01*
X216562749Y-58242692D01*
X216578013Y-58236849D01*
X216583290Y-58235170D01*
X216599396Y-58230654D01*
X216615475Y-58227073D01*
X216631527Y-58224426D01*
X216647550Y-58222713D01*
X216663547Y-58221935D01*
X216668873Y-58221883D01*
X216684846Y-58222350D01*
X216700820Y-58223751D01*
X216716793Y-58226087D01*
X216732767Y-58229357D01*
X216748740Y-58233561D01*
X216754065Y-58235170D01*
X216769731Y-58240610D01*
X216784491Y-58247260D01*
X216798344Y-58255118D01*
X216811291Y-58264186D01*
X216823330Y-58274462D01*
X216827142Y-58278156D01*
X216837954Y-58289747D01*
X216847530Y-58302245D01*
X216855870Y-58315649D01*
X216862973Y-58329960D01*
X216868839Y-58345178D01*
X216870520Y-58350452D01*
X216875035Y-58366265D01*
X216878616Y-58382051D01*
X216881263Y-58397809D01*
X216882976Y-58413540D01*
X216883755Y-58429243D01*
X216883806Y-58434472D01*
X216883339Y-58450180D01*
X216881938Y-58465942D01*
X216879602Y-58481760D01*
X216876333Y-58497633D01*
X216872129Y-58513561D01*
X216870520Y-58518882D01*
X216865065Y-58534283D01*
X216858375Y-58548832D01*
X216850448Y-58562530D01*
X216841284Y-58575375D01*
X216830884Y-58587369D01*
X216827142Y-58591178D01*
X216815405Y-58601738D01*
X216802761Y-58611145D01*
X216789210Y-58619397D01*
X216774752Y-58626495D01*
X216759388Y-58632440D01*
X216754065Y-58634165D01*
X216738091Y-58638547D01*
X216722118Y-58642023D01*
X216706144Y-58644592D01*
X216690171Y-58646255D01*
X216674197Y-58647010D01*
X216668873Y-58647061D01*
G37*
G36*
X217339075Y-59972616D02*
G01*
X217339075Y-58772113D01*
X217672418Y-58772113D01*
X217668119Y-58911625D01*
X217674275Y-58896615D01*
X217683050Y-58883536D01*
X217690394Y-58873327D01*
X217700410Y-58860321D01*
X217711112Y-58847975D01*
X217722501Y-58836288D01*
X217734578Y-58825260D01*
X217747341Y-58814892D01*
X217751748Y-58811583D01*
X217765358Y-58802112D01*
X217779518Y-58793631D01*
X217794228Y-58786139D01*
X217809487Y-58779636D01*
X217825296Y-58774122D01*
X217830687Y-58772504D01*
X217846995Y-58768121D01*
X217863385Y-58764645D01*
X217879858Y-58762076D01*
X217896413Y-58760414D01*
X217913050Y-58759658D01*
X217918615Y-58759608D01*
X217935551Y-58760104D01*
X217952412Y-58761592D01*
X217969196Y-58764073D01*
X217985903Y-58767546D01*
X218002535Y-58772011D01*
X218019090Y-58777468D01*
X218025691Y-58779929D01*
X218041918Y-58786653D01*
X218057381Y-58794370D01*
X218072082Y-58803078D01*
X218086019Y-58812779D01*
X218099192Y-58823473D01*
X218111603Y-58835158D01*
X218116354Y-58840110D01*
X218127837Y-58852777D01*
X218138595Y-58865863D01*
X218148628Y-58879368D01*
X218157936Y-58893294D01*
X218166519Y-58907640D01*
X218174377Y-58922405D01*
X218177317Y-58928428D01*
X218184293Y-58943657D01*
X218190811Y-58959058D01*
X218196871Y-58974630D01*
X218202474Y-58990375D01*
X218207618Y-59006290D01*
X218212304Y-59022378D01*
X218214051Y-59028861D01*
X218218209Y-59045038D01*
X218221889Y-59061330D01*
X218225093Y-59077736D01*
X218227820Y-59094257D01*
X218230070Y-59110892D01*
X218231842Y-59127642D01*
X218232418Y-59134374D01*
X218233769Y-59151076D01*
X218234891Y-59167721D01*
X218235784Y-59184308D01*
X218236448Y-59200839D01*
X218236883Y-59217312D01*
X218237089Y-59233727D01*
X218237107Y-59240278D01*
X218237107Y-59972616D01*
X217903765Y-59972616D01*
X217903765Y-59236370D01*
X217903496Y-59219737D01*
X217902690Y-59203055D01*
X217901347Y-59186325D01*
X217899466Y-59169545D01*
X217896804Y-59152839D01*
X217893116Y-59136719D01*
X217888402Y-59121185D01*
X217882662Y-59106237D01*
X217875530Y-59092144D01*
X217866640Y-59079175D01*
X217855991Y-59067329D01*
X217843583Y-59056607D01*
X217830296Y-59047717D01*
X217814882Y-59040751D01*
X217798972Y-59037001D01*
X217788091Y-59036286D01*
X217771821Y-59037894D01*
X217755984Y-59042716D01*
X217740579Y-59050753D01*
X217732208Y-59056607D01*
X217719972Y-59067329D01*
X217709445Y-59079175D01*
X217700628Y-59092144D01*
X217693520Y-59106237D01*
X217687781Y-59121185D01*
X217683067Y-59136719D01*
X217679379Y-59152839D01*
X217676716Y-59169545D01*
X217674836Y-59186325D01*
X217673492Y-59203055D01*
X217672686Y-59219737D01*
X217672418Y-59236370D01*
X217672418Y-59972616D01*
X217339075Y-59972616D01*
G37*
G36*
X218791107Y-58760020D02*
G01*
X218807689Y-58761256D01*
X218824189Y-58763317D01*
X218840607Y-58766202D01*
X218856942Y-58769912D01*
X218862369Y-58771331D01*
X218878521Y-58776103D01*
X218894151Y-58781919D01*
X218909259Y-58788780D01*
X218923845Y-58796684D01*
X218937909Y-58805632D01*
X218942481Y-58808847D01*
X218955871Y-58819023D01*
X218968492Y-58829913D01*
X218980344Y-58841518D01*
X218991427Y-58853837D01*
X219001740Y-58866870D01*
X219005007Y-58871373D01*
X219014888Y-58885684D01*
X219023472Y-58899412D01*
X219027282Y-58910843D01*
X219022983Y-58772113D01*
X219356326Y-58772113D01*
X219356326Y-59991373D01*
X219356078Y-60010678D01*
X219355333Y-60030002D01*
X219354093Y-60049345D01*
X219352357Y-60068707D01*
X219350124Y-60088088D01*
X219347981Y-60103606D01*
X219346165Y-60115253D01*
X219343381Y-60130726D01*
X219340108Y-60146077D01*
X219336347Y-60161305D01*
X219332097Y-60176412D01*
X219327358Y-60191396D01*
X219322132Y-60206258D01*
X219316416Y-60220998D01*
X219310213Y-60235616D01*
X219303588Y-60249984D01*
X219296413Y-60263973D01*
X219288689Y-60277583D01*
X219278261Y-60294064D01*
X219266974Y-60309953D01*
X219254829Y-60325251D01*
X219244494Y-60337063D01*
X219241825Y-60339957D01*
X219230876Y-60351345D01*
X219219525Y-60362256D01*
X219207771Y-60372691D01*
X219195614Y-60382650D01*
X219183054Y-60392133D01*
X219170091Y-60401140D01*
X219156724Y-60409670D01*
X219142955Y-60417724D01*
X219128881Y-60425326D01*
X219114599Y-60432305D01*
X219100109Y-60438661D01*
X219085412Y-60444395D01*
X219070507Y-60449506D01*
X219055394Y-60453994D01*
X219040074Y-60457859D01*
X219024546Y-60461101D01*
X219009018Y-60463849D01*
X218993503Y-60466230D01*
X218978000Y-60468245D01*
X218958638Y-60470249D01*
X218939295Y-60471680D01*
X218919971Y-60472539D01*
X218900666Y-60472825D01*
X218882762Y-60472596D01*
X218864953Y-60471909D01*
X218847240Y-60470764D01*
X218829622Y-60469161D01*
X218812100Y-60467100D01*
X218794672Y-60464582D01*
X218787728Y-60463446D01*
X218770492Y-60460172D01*
X218753466Y-60456210D01*
X218736649Y-60451562D01*
X218720043Y-60446227D01*
X218703646Y-60440205D01*
X218687459Y-60433496D01*
X218681043Y-60430620D01*
X218665358Y-60422911D01*
X218650055Y-60414439D01*
X218635133Y-60405203D01*
X218620593Y-60395204D01*
X218606435Y-60384443D01*
X218592658Y-60372917D01*
X218587254Y-60368094D01*
X218574154Y-60355746D01*
X218561723Y-60342883D01*
X218549959Y-60329505D01*
X218538863Y-60315612D01*
X218528435Y-60301203D01*
X218518675Y-60286280D01*
X218514958Y-60280166D01*
X218506255Y-60264636D01*
X218498220Y-60248819D01*
X218490852Y-60232716D01*
X218484153Y-60216327D01*
X218478121Y-60199652D01*
X218472757Y-60182690D01*
X218470799Y-60175826D01*
X218466454Y-60158263D01*
X218462701Y-60140013D01*
X218459539Y-60121077D01*
X218457435Y-60105433D01*
X218455710Y-60089350D01*
X218454364Y-60072827D01*
X218453396Y-60055864D01*
X218453213Y-60051555D01*
X218786947Y-60051555D01*
X218787386Y-60068432D01*
X218788932Y-60085726D01*
X218791590Y-60101226D01*
X218793981Y-60110564D01*
X218799963Y-60126121D01*
X218807700Y-60140016D01*
X218816256Y-60151206D01*
X218827565Y-60162058D01*
X218840537Y-60170970D01*
X218853772Y-60177389D01*
X218869363Y-60182728D01*
X218885508Y-60185852D01*
X218900666Y-60186768D01*
X218917187Y-60185222D01*
X218933337Y-60180585D01*
X218949116Y-60172857D01*
X218957721Y-60167228D01*
X218970764Y-60157043D01*
X218982146Y-60145637D01*
X218991867Y-60133010D01*
X218999927Y-60119161D01*
X219006521Y-60104580D01*
X219011846Y-60089364D01*
X219015900Y-60073512D01*
X219018684Y-60057026D01*
X219020565Y-60040320D01*
X219021908Y-60023418D01*
X219022714Y-60006321D01*
X219022983Y-59989029D01*
X219027282Y-59830759D01*
X219021126Y-59846269D01*
X219012351Y-59860136D01*
X219005007Y-59871010D01*
X218994950Y-59884575D01*
X218984124Y-59897425D01*
X218972529Y-59909561D01*
X218960164Y-59920983D01*
X218947030Y-59931690D01*
X218942481Y-59935100D01*
X218928591Y-59944543D01*
X218914179Y-59952942D01*
X218899245Y-59960297D01*
X218883789Y-59966607D01*
X218867811Y-59971874D01*
X218862369Y-59973397D01*
X218846061Y-59977381D01*
X218829671Y-59980541D01*
X218813198Y-59982877D01*
X218796643Y-59984388D01*
X218780006Y-59985075D01*
X218774442Y-59985121D01*
X218756942Y-59984663D01*
X218739614Y-59983289D01*
X218722458Y-59980999D01*
X218705473Y-59977793D01*
X218688661Y-59973672D01*
X218672020Y-59968634D01*
X218665412Y-59966363D01*
X218649230Y-59960024D01*
X218633660Y-59952731D01*
X218618700Y-59944484D01*
X218604351Y-59935283D01*
X218590612Y-59925128D01*
X218577484Y-59914019D01*
X218572404Y-59909308D01*
X218560262Y-59896979D01*
X218548750Y-59884174D01*
X218537868Y-59870891D01*
X218527616Y-59857131D01*
X218517993Y-59842895D01*
X218509000Y-59828181D01*
X218505579Y-59822162D01*
X218497561Y-59806811D01*
X218490115Y-59791288D01*
X218483242Y-59775594D01*
X218476942Y-59759727D01*
X218471213Y-59743689D01*
X218466057Y-59727480D01*
X218464155Y-59720948D01*
X218459763Y-59704442D01*
X218455866Y-59687899D01*
X218452466Y-59671317D01*
X218449562Y-59654697D01*
X218447154Y-59638039D01*
X218445242Y-59621342D01*
X218444616Y-59614653D01*
X218443265Y-59597800D01*
X218442143Y-59580948D01*
X218441250Y-59564095D01*
X218440586Y-59547242D01*
X218440151Y-59530389D01*
X218439945Y-59513537D01*
X218439927Y-59506796D01*
X218439927Y-59504451D01*
X218773660Y-59504451D01*
X218773977Y-59522012D01*
X218774930Y-59539524D01*
X218776518Y-59556987D01*
X218778740Y-59574402D01*
X218782111Y-59591279D01*
X218786751Y-59607521D01*
X218792662Y-59623128D01*
X218799843Y-59638100D01*
X218808465Y-59651900D01*
X218818698Y-59664381D01*
X218830544Y-59675543D01*
X218844002Y-59685386D01*
X218858510Y-59693422D01*
X218873506Y-59699161D01*
X218888991Y-59702605D01*
X218904965Y-59703753D01*
X218921411Y-59702463D01*
X218937729Y-59698593D01*
X218945216Y-59695937D01*
X218959339Y-59688683D01*
X218971814Y-59679231D01*
X218979215Y-59671708D01*
X218989180Y-59659142D01*
X218997386Y-59645477D01*
X219001880Y-59635756D01*
X219007834Y-59620350D01*
X219012798Y-59604615D01*
X219015558Y-59593941D01*
X219019002Y-59577656D01*
X219021127Y-59561042D01*
X219021811Y-59549782D01*
X219022478Y-59534023D01*
X219022890Y-59517042D01*
X219022983Y-59504451D01*
X219022983Y-59234416D01*
X219022818Y-59217655D01*
X219022324Y-59200784D01*
X219021811Y-59189475D01*
X219020719Y-59173809D01*
X219018265Y-59157139D01*
X219015558Y-59144925D01*
X219011253Y-59129025D01*
X219005959Y-59113565D01*
X219001880Y-59103502D01*
X218994846Y-59088866D01*
X218986054Y-59075438D01*
X218979215Y-59067158D01*
X218967839Y-59056296D01*
X218953655Y-59047132D01*
X218945216Y-59043320D01*
X218930214Y-59038319D01*
X218913837Y-59035506D01*
X218904965Y-59035114D01*
X218888991Y-59036262D01*
X218873506Y-59039706D01*
X218858510Y-59045445D01*
X218844002Y-59053481D01*
X218830544Y-59063348D01*
X218818698Y-59074583D01*
X218808465Y-59087186D01*
X218799843Y-59101157D01*
X218792662Y-59115983D01*
X218786751Y-59131541D01*
X218782111Y-59147832D01*
X218778740Y-59164856D01*
X218776518Y-59182099D01*
X218774930Y-59199440D01*
X218773977Y-59216879D01*
X218773660Y-59234416D01*
X218773660Y-59504451D01*
X218439927Y-59504451D01*
X218439927Y-59237933D01*
X218440041Y-59221090D01*
X218440384Y-59204266D01*
X218440957Y-59187461D01*
X218441758Y-59170675D01*
X218442789Y-59153908D01*
X218444048Y-59137160D01*
X218444616Y-59130466D01*
X218446330Y-59113652D01*
X218448539Y-59096913D01*
X218451245Y-59080251D01*
X218454447Y-59063666D01*
X218458145Y-59047156D01*
X218462339Y-59030723D01*
X218464155Y-59024172D01*
X218469082Y-59007790D01*
X218474582Y-58991619D01*
X218480653Y-58975657D01*
X218487297Y-58959905D01*
X218494514Y-58944363D01*
X218502303Y-58929031D01*
X218505579Y-58922957D01*
X218514320Y-58907950D01*
X218523691Y-58893457D01*
X218533692Y-58879480D01*
X218544322Y-58866018D01*
X218555582Y-58853072D01*
X218567472Y-58840640D01*
X218572404Y-58835812D01*
X218585288Y-58824208D01*
X218598782Y-58813578D01*
X218612887Y-58803921D01*
X218627603Y-58795237D01*
X218642929Y-58787526D01*
X218658866Y-58780788D01*
X218665412Y-58778366D01*
X218681984Y-58772962D01*
X218698728Y-58768474D01*
X218715643Y-58764902D01*
X218732731Y-58762246D01*
X218749990Y-58760505D01*
X218767421Y-58759681D01*
X218774442Y-58759608D01*
X218791107Y-58760020D01*
G37*
G36*
X221141057Y-59985121D02*
G01*
X221122447Y-59984863D01*
X221103741Y-59984090D01*
X221084940Y-59982802D01*
X221066044Y-59980999D01*
X221047052Y-59978681D01*
X221027965Y-59975847D01*
X221020303Y-59974569D01*
X221001376Y-59970927D01*
X220982698Y-59966349D01*
X220964267Y-59960837D01*
X220946084Y-59954389D01*
X220928149Y-59947006D01*
X220910463Y-59938689D01*
X220903458Y-59935100D01*
X220889762Y-59927443D01*
X220873140Y-59917219D01*
X220857071Y-59906270D01*
X220841556Y-59894596D01*
X220826594Y-59882197D01*
X220812186Y-59869073D01*
X220803806Y-59860850D01*
X220790379Y-59846680D01*
X220777695Y-59832014D01*
X220765756Y-59816852D01*
X220754561Y-59801194D01*
X220744110Y-59785039D01*
X220734403Y-59768389D01*
X220730729Y-59761590D01*
X220722055Y-59744208D01*
X220714105Y-59726503D01*
X220706881Y-59708473D01*
X220700382Y-59690118D01*
X220695705Y-59675201D01*
X220691491Y-59660076D01*
X220687742Y-59644744D01*
X220684537Y-59629094D01*
X220681758Y-59613017D01*
X220679408Y-59596512D01*
X220677484Y-59579580D01*
X220675988Y-59562220D01*
X220674920Y-59544433D01*
X220674278Y-59526219D01*
X220674065Y-59507577D01*
X221007407Y-59507577D01*
X221007668Y-59523857D01*
X221008633Y-59541775D01*
X221010308Y-59558532D01*
X221012693Y-59574131D01*
X221014832Y-59584562D01*
X221019131Y-59600267D01*
X221024602Y-59615337D01*
X221031245Y-59629772D01*
X221039061Y-59643572D01*
X221049348Y-59657750D01*
X221061304Y-59669950D01*
X221074929Y-59680171D01*
X221083220Y-59684995D01*
X221098855Y-59691796D01*
X221114984Y-59696371D01*
X221131608Y-59698720D01*
X221141057Y-59699064D01*
X221157201Y-59698038D01*
X221172809Y-59694960D01*
X221187878Y-59689831D01*
X221202411Y-59682650D01*
X221216162Y-59673540D01*
X221228496Y-59663013D01*
X221239414Y-59651070D01*
X221248915Y-59637710D01*
X221257243Y-59623251D01*
X221264253Y-59608010D01*
X221269944Y-59591987D01*
X221274316Y-59575184D01*
X221277564Y-59558087D01*
X221279885Y-59541185D01*
X221281277Y-59524479D01*
X221281741Y-59507968D01*
X221280985Y-59489613D01*
X221278718Y-59471478D01*
X221274940Y-59453563D01*
X221269651Y-59435867D01*
X221262850Y-59418392D01*
X221260248Y-59412616D01*
X221253300Y-59398539D01*
X221244031Y-59382529D01*
X221233745Y-59367481D01*
X221222443Y-59353394D01*
X221210124Y-59340269D01*
X221203583Y-59334067D01*
X221189890Y-59322220D01*
X221175483Y-59311004D01*
X221160361Y-59300421D01*
X221144525Y-59290470D01*
X221130783Y-59282660D01*
X221122299Y-59278184D01*
X221108124Y-59270790D01*
X221093929Y-59263263D01*
X221079715Y-59255601D01*
X221065482Y-59247807D01*
X221051230Y-59239878D01*
X221036959Y-59231816D01*
X221031245Y-59228554D01*
X221017156Y-59220286D01*
X221003219Y-59211846D01*
X220989434Y-59203235D01*
X220975802Y-59194452D01*
X220962323Y-59185497D01*
X220948997Y-59176370D01*
X220943709Y-59172671D01*
X220930625Y-59163134D01*
X220917750Y-59153330D01*
X220905086Y-59143259D01*
X220892632Y-59132921D01*
X220880387Y-59122315D01*
X220868352Y-59111443D01*
X220863597Y-59107019D01*
X220851885Y-59095763D01*
X220840440Y-59084220D01*
X220829262Y-59072392D01*
X220818351Y-59060277D01*
X220807708Y-59047876D01*
X220797331Y-59035189D01*
X220793255Y-59030034D01*
X220783480Y-59016795D01*
X220774181Y-59003213D01*
X220765360Y-58989287D01*
X220757016Y-58975018D01*
X220749148Y-58960405D01*
X220741758Y-58945449D01*
X220738936Y-58939371D01*
X220732383Y-58924029D01*
X220726403Y-58908535D01*
X220720995Y-58892888D01*
X220716160Y-58877089D01*
X220711897Y-58861137D01*
X220708207Y-58845032D01*
X220706891Y-58838547D01*
X220703964Y-58822221D01*
X220701533Y-58805971D01*
X220699598Y-58789798D01*
X220698159Y-58773701D01*
X220697217Y-58757680D01*
X220696770Y-58741735D01*
X220696730Y-58735379D01*
X220697036Y-58715906D01*
X220697952Y-58696567D01*
X220699478Y-58677362D01*
X220701615Y-58658290D01*
X220704363Y-58639351D01*
X220707721Y-58620547D01*
X220709236Y-58613062D01*
X220713487Y-58594332D01*
X220718425Y-58575754D01*
X220724051Y-58557329D01*
X220730363Y-58539057D01*
X220737362Y-58520937D01*
X220745048Y-58502970D01*
X220748315Y-58495826D01*
X220755196Y-58481727D01*
X220764468Y-58464567D01*
X220774484Y-58447922D01*
X220785244Y-58431792D01*
X220796748Y-58416178D01*
X220808996Y-58401079D01*
X220816703Y-58392267D01*
X220827431Y-58380897D01*
X220841339Y-58367406D01*
X220855801Y-58354717D01*
X220870816Y-58342830D01*
X220886385Y-58331743D01*
X220902507Y-58321458D01*
X220912446Y-58315672D01*
X220929358Y-58306576D01*
X220946632Y-58298338D01*
X220964269Y-58290960D01*
X220982269Y-58284439D01*
X221000631Y-58278778D01*
X221019355Y-58273975D01*
X221026947Y-58272294D01*
X221042297Y-58269272D01*
X221061520Y-58266061D01*
X221080781Y-58263479D01*
X221100080Y-58261527D01*
X221119417Y-58260204D01*
X221138792Y-58259512D01*
X221150436Y-58259398D01*
X221169017Y-58259685D01*
X221187637Y-58260543D01*
X221206295Y-58261974D01*
X221224991Y-58263978D01*
X221243725Y-58266554D01*
X221262498Y-58269702D01*
X221270017Y-58271122D01*
X221288662Y-58275225D01*
X221306982Y-58280205D01*
X221324978Y-58286063D01*
X221342649Y-58292799D01*
X221359996Y-58300412D01*
X221377019Y-58308903D01*
X221383737Y-58312546D01*
X221400181Y-58322106D01*
X221416053Y-58332467D01*
X221431353Y-58343629D01*
X221446080Y-58355594D01*
X221460234Y-58368359D01*
X221473817Y-58381926D01*
X221479089Y-58387577D01*
X221491784Y-58402010D01*
X221503735Y-58416978D01*
X221514941Y-58432480D01*
X221525404Y-58448516D01*
X221535122Y-58465086D01*
X221544096Y-58482191D01*
X221547477Y-58489182D01*
X221555550Y-58506731D01*
X221562918Y-58524452D01*
X221569579Y-58542345D01*
X221575535Y-58560409D01*
X221580784Y-58578646D01*
X221585327Y-58597054D01*
X221586947Y-58604465D01*
X221590549Y-58623409D01*
X221592992Y-58639114D01*
X221595043Y-58655307D01*
X221596704Y-58671989D01*
X221597974Y-58689159D01*
X221598854Y-58706818D01*
X221599342Y-58724965D01*
X221599452Y-58738896D01*
X221266109Y-58738896D01*
X221265917Y-58722524D01*
X221265206Y-58704639D01*
X221263972Y-58688063D01*
X221261921Y-58670722D01*
X221260638Y-58662692D01*
X221256912Y-58645540D01*
X221251887Y-58629252D01*
X221245564Y-58613831D01*
X221241490Y-58605637D01*
X221233058Y-58591809D01*
X221222709Y-58579341D01*
X221210444Y-58568234D01*
X221202802Y-58562650D01*
X221188548Y-58554339D01*
X221173923Y-58548747D01*
X221157238Y-58545724D01*
X221150436Y-58545456D01*
X221133788Y-58546909D01*
X221117697Y-58551267D01*
X221102162Y-58558531D01*
X221093772Y-58563823D01*
X221081462Y-58573470D01*
X221069482Y-58585900D01*
X221059480Y-58600000D01*
X221053911Y-58610327D01*
X221047683Y-58624688D01*
X221042285Y-58639636D01*
X221037718Y-58655170D01*
X221033981Y-58671290D01*
X221031245Y-58687532D01*
X221029291Y-58703823D01*
X221028119Y-58720163D01*
X221027728Y-58736551D01*
X221028429Y-58754865D01*
X221030531Y-58772876D01*
X221034034Y-58790585D01*
X221038939Y-58807992D01*
X221045245Y-58825097D01*
X221047659Y-58830731D01*
X221055856Y-58847199D01*
X221065207Y-58862898D01*
X221075713Y-58877827D01*
X221087372Y-58891987D01*
X221100186Y-58905378D01*
X221104714Y-58909671D01*
X221118791Y-58921916D01*
X221133473Y-58933448D01*
X221148760Y-58944265D01*
X221161960Y-58952733D01*
X221175581Y-58960705D01*
X221186779Y-58966726D01*
X221201029Y-58973979D01*
X221215203Y-58981327D01*
X221229300Y-58988771D01*
X221243322Y-58996310D01*
X221257266Y-59003944D01*
X221271135Y-59011674D01*
X221276661Y-59014793D01*
X221290554Y-59022733D01*
X221304390Y-59030920D01*
X221318169Y-59039356D01*
X221331890Y-59048040D01*
X221345554Y-59056972D01*
X221359161Y-59066152D01*
X221364588Y-59069894D01*
X221378010Y-59079328D01*
X221391165Y-59089067D01*
X221404052Y-59099111D01*
X221416673Y-59109461D01*
X221429026Y-59120116D01*
X221441112Y-59131077D01*
X221445872Y-59135546D01*
X221457575Y-59146831D01*
X221468991Y-59158459D01*
X221480121Y-59170431D01*
X221490965Y-59182746D01*
X221501523Y-59195405D01*
X221511795Y-59208407D01*
X221515823Y-59213704D01*
X221525702Y-59227139D01*
X221535065Y-59240823D01*
X221543913Y-59254754D01*
X221552246Y-59268934D01*
X221560064Y-59283361D01*
X221567366Y-59298037D01*
X221570143Y-59303976D01*
X221576808Y-59318990D01*
X221582882Y-59334232D01*
X221588364Y-59349703D01*
X221593254Y-59365403D01*
X221597553Y-59381333D01*
X221601261Y-59397491D01*
X221602578Y-59404018D01*
X221605618Y-59420289D01*
X221608142Y-59436617D01*
X221610152Y-59453002D01*
X221611646Y-59469445D01*
X221612625Y-59485944D01*
X221613088Y-59502501D01*
X221613130Y-59509140D01*
X221612910Y-59524863D01*
X221612250Y-59540574D01*
X221611151Y-59556273D01*
X221609612Y-59571960D01*
X221607634Y-59587634D01*
X221605216Y-59603296D01*
X221602358Y-59618946D01*
X221599061Y-59634583D01*
X221595330Y-59650020D01*
X221591172Y-59665260D01*
X221586587Y-59680306D01*
X221581573Y-59695156D01*
X221576133Y-59709810D01*
X221568731Y-59727854D01*
X221560662Y-59745592D01*
X221557247Y-59752602D01*
X221548288Y-59769733D01*
X221538509Y-59786444D01*
X221527909Y-59802736D01*
X221518838Y-59815467D01*
X221509243Y-59827930D01*
X221499122Y-59840124D01*
X221488476Y-59852049D01*
X221485733Y-59854988D01*
X221474510Y-59866364D01*
X221462920Y-59877239D01*
X221450965Y-59887613D01*
X221438643Y-59897486D01*
X221425954Y-59906859D01*
X221412899Y-59915731D01*
X221399478Y-59924103D01*
X221385691Y-59931973D01*
X221371708Y-59939203D01*
X221357505Y-59945846D01*
X221343082Y-59951904D01*
X221324745Y-59958651D01*
X221309828Y-59963389D01*
X221294691Y-59967541D01*
X221279334Y-59971107D01*
X221267673Y-59973397D01*
X221252102Y-59976145D01*
X221236458Y-59978526D01*
X221220741Y-59980541D01*
X221204951Y-59982190D01*
X221189087Y-59983472D01*
X221173151Y-59984388D01*
X221157140Y-59984938D01*
X221141057Y-59985121D01*
G37*
G36*
X222269654Y-59985121D02*
G01*
X222250228Y-59984835D01*
X222230782Y-59983976D01*
X222211317Y-59982545D01*
X222195731Y-59980988D01*
X222180133Y-59979064D01*
X222164523Y-59976774D01*
X222148900Y-59974118D01*
X222144993Y-59973397D01*
X222129557Y-59970283D01*
X222114316Y-59966607D01*
X222095540Y-59961222D01*
X222077069Y-59954960D01*
X222058903Y-59947820D01*
X222044591Y-59941475D01*
X222030473Y-59934569D01*
X222026975Y-59932755D01*
X222013260Y-59925177D01*
X221999864Y-59917099D01*
X221986785Y-59908520D01*
X221974023Y-59899440D01*
X221961579Y-59889860D01*
X221949452Y-59879779D01*
X221937643Y-59869197D01*
X221926151Y-59858114D01*
X221915166Y-59846525D01*
X221904682Y-59834618D01*
X221894699Y-59822394D01*
X221885216Y-59809852D01*
X221876234Y-59796993D01*
X221867753Y-59783816D01*
X221859772Y-59770321D01*
X221852292Y-59756509D01*
X221845276Y-59742343D01*
X221838688Y-59727982D01*
X221832527Y-59713425D01*
X221826793Y-59698673D01*
X221821487Y-59683725D01*
X221816608Y-59668582D01*
X221812157Y-59653244D01*
X221808133Y-59637710D01*
X221804653Y-59621877D01*
X221801636Y-59605641D01*
X221799084Y-59589002D01*
X221796996Y-59571960D01*
X221795371Y-59554514D01*
X221794211Y-59536666D01*
X221793515Y-59518415D01*
X221793283Y-59499761D01*
X222126626Y-59499761D01*
X222126887Y-59516866D01*
X222127670Y-59533009D01*
X222129243Y-59550627D01*
X222131527Y-59566936D01*
X222134051Y-59579873D01*
X222138398Y-59595993D01*
X222144016Y-59611527D01*
X222150903Y-59626475D01*
X222159061Y-59640836D01*
X222168611Y-59653927D01*
X222179675Y-59665456D01*
X222192254Y-59675421D01*
X222206347Y-59683823D01*
X222221587Y-59690491D01*
X222237219Y-59695253D01*
X222253241Y-59698111D01*
X222269654Y-59699064D01*
X222286703Y-59697916D01*
X222303458Y-59694472D01*
X222319920Y-59688732D01*
X222334083Y-59681826D01*
X222336088Y-59680696D01*
X222349379Y-59672044D01*
X222362781Y-59660644D01*
X222374279Y-59647632D01*
X222383872Y-59633008D01*
X222384937Y-59631066D01*
X222392826Y-59615093D01*
X222398887Y-59600555D01*
X222404163Y-59585494D01*
X222408654Y-59569909D01*
X222410338Y-59563069D01*
X222413688Y-59547017D01*
X222416215Y-59531002D01*
X222417920Y-59515024D01*
X222418801Y-59499084D01*
X222418936Y-59489992D01*
X222418468Y-59473253D01*
X222417066Y-59456888D01*
X222414728Y-59440897D01*
X222411456Y-59425279D01*
X222409166Y-59416523D01*
X222404483Y-59401360D01*
X222398641Y-59386646D01*
X222391639Y-59372381D01*
X222383478Y-59358565D01*
X222378294Y-59350871D01*
X222368631Y-59337832D01*
X222358108Y-59325728D01*
X222346726Y-59314558D01*
X222334483Y-59304324D01*
X222327100Y-59298896D01*
X222313826Y-59289960D01*
X222299991Y-59281959D01*
X222285595Y-59274893D01*
X222270637Y-59268763D01*
X222261839Y-59265679D01*
X222246283Y-59260961D01*
X222230391Y-59257066D01*
X222214162Y-59253994D01*
X222197597Y-59251745D01*
X222187980Y-59250829D01*
X222170645Y-59249459D01*
X222154864Y-59248552D01*
X222138231Y-59247892D01*
X222120746Y-59247480D01*
X222102409Y-59247315D01*
X222099271Y-59247312D01*
X222099271Y-58961255D01*
X222116920Y-58961255D01*
X222133526Y-58961255D01*
X222151579Y-58961255D01*
X222168211Y-58961255D01*
X222181336Y-58961255D01*
X222198189Y-58960522D01*
X222214749Y-58958324D01*
X222231015Y-58954660D01*
X222246989Y-58949531D01*
X222262669Y-58943083D01*
X222277666Y-58935463D01*
X222291978Y-58926670D01*
X222305607Y-58916705D01*
X222318283Y-58905567D01*
X222329738Y-58893648D01*
X222339972Y-58880948D01*
X222348984Y-58867465D01*
X222356873Y-58853055D01*
X222363737Y-58837961D01*
X222369574Y-58822183D01*
X222374386Y-58805721D01*
X222378147Y-58788844D01*
X222380834Y-58771820D01*
X222382446Y-58754650D01*
X222382983Y-58737333D01*
X222382550Y-58720002D01*
X222381439Y-58704285D01*
X222379644Y-58688274D01*
X222377512Y-58674025D01*
X222374337Y-58657710D01*
X222370282Y-58641980D01*
X222365349Y-58626837D01*
X222359536Y-58612281D01*
X222351574Y-58596976D01*
X222341758Y-58583155D01*
X222330087Y-58570817D01*
X222322802Y-58564604D01*
X222308960Y-58555348D01*
X222294253Y-58549121D01*
X222278680Y-58545923D01*
X222269654Y-58545456D01*
X222252977Y-58547211D01*
X222237140Y-58552478D01*
X222222142Y-58561255D01*
X222219243Y-58563432D01*
X222207108Y-58574286D01*
X222196643Y-58586623D01*
X222187846Y-58600444D01*
X222183681Y-58608763D01*
X222177296Y-58624209D01*
X222172209Y-58640211D01*
X222168421Y-58656770D01*
X222166877Y-58666209D01*
X222164996Y-58682085D01*
X222163653Y-58699622D01*
X222162918Y-58716329D01*
X222162595Y-58734307D01*
X222162578Y-58739678D01*
X221829236Y-58739678D01*
X221829431Y-58721714D01*
X221830017Y-58704165D01*
X221830994Y-58687031D01*
X221832362Y-58670313D01*
X221834121Y-58654009D01*
X221836270Y-58638121D01*
X221838810Y-58622649D01*
X221841741Y-58607591D01*
X221845964Y-58589031D01*
X221850816Y-58570718D01*
X221856298Y-58552654D01*
X221862410Y-58534837D01*
X221869151Y-58517269D01*
X221876523Y-58499949D01*
X221879647Y-58493090D01*
X221888070Y-58476071D01*
X221897218Y-58459453D01*
X221907090Y-58443236D01*
X221917688Y-58427419D01*
X221929011Y-58412003D01*
X221941059Y-58396988D01*
X221946081Y-58391094D01*
X221959068Y-58376840D01*
X221972628Y-58363388D01*
X221986759Y-58350737D01*
X222001464Y-58338887D01*
X222016740Y-58327839D01*
X222032589Y-58317592D01*
X222039089Y-58313718D01*
X222055616Y-58304538D01*
X222072466Y-58296293D01*
X222089642Y-58288983D01*
X222107141Y-58282608D01*
X222124965Y-58277168D01*
X222143114Y-58272662D01*
X222150464Y-58271122D01*
X222169036Y-58267745D01*
X222187627Y-58264940D01*
X222206237Y-58262707D01*
X222224866Y-58261047D01*
X222243515Y-58259959D01*
X222262182Y-58259444D01*
X222269654Y-58259398D01*
X222288911Y-58259713D01*
X222308092Y-58260658D01*
X222327196Y-58262232D01*
X222346225Y-58264436D01*
X222365176Y-58267270D01*
X222384052Y-58270733D01*
X222391580Y-58272294D01*
X222410309Y-58276754D01*
X222428637Y-58282072D01*
X222446564Y-58288249D01*
X222464090Y-58295284D01*
X222481216Y-58303178D01*
X222497941Y-58311931D01*
X222504518Y-58315672D01*
X222520587Y-58325636D01*
X222536064Y-58336478D01*
X222550949Y-58348198D01*
X222565243Y-58360796D01*
X222578946Y-58374271D01*
X222592056Y-58388624D01*
X222597135Y-58394611D01*
X222607058Y-58406738D01*
X222618791Y-58422205D01*
X222629780Y-58438016D01*
X222640025Y-58454171D01*
X222649525Y-58470669D01*
X222658282Y-58487510D01*
X222663178Y-58497779D01*
X222670830Y-58515010D01*
X222677909Y-58532508D01*
X222684416Y-58550273D01*
X222690350Y-58568305D01*
X222695712Y-58586604D01*
X222700502Y-58605170D01*
X222702257Y-58612671D01*
X222706310Y-58631554D01*
X222709676Y-58650590D01*
X222712355Y-58669778D01*
X222714347Y-58689119D01*
X222715652Y-58708613D01*
X222716202Y-58724318D01*
X222716326Y-58736161D01*
X222715982Y-58753633D01*
X222714952Y-58771125D01*
X222713234Y-58788636D01*
X222710830Y-58806167D01*
X222707739Y-58823716D01*
X222703961Y-58841284D01*
X222702257Y-58848317D01*
X222697601Y-58865759D01*
X222692182Y-58882915D01*
X222686000Y-58899785D01*
X222679054Y-58916369D01*
X222671345Y-58932666D01*
X222662873Y-58948678D01*
X222659271Y-58955002D01*
X222649919Y-58970498D01*
X222639937Y-58985479D01*
X222629326Y-58999945D01*
X222618085Y-59013895D01*
X222606215Y-59027330D01*
X222593714Y-59040250D01*
X222588538Y-59045274D01*
X222575908Y-59057158D01*
X222563907Y-59067897D01*
X222550338Y-59079273D01*
X222537676Y-59089000D01*
X222524049Y-59098264D01*
X222518587Y-59101548D01*
X222534458Y-59110249D01*
X222549103Y-59119582D01*
X222562042Y-59128682D01*
X222575649Y-59138984D01*
X222589924Y-59150488D01*
X222601825Y-59160557D01*
X222613707Y-59171175D01*
X222625125Y-59182124D01*
X222636080Y-59193401D01*
X222646570Y-59205009D01*
X222659030Y-59219982D01*
X222670765Y-59235471D01*
X222681775Y-59251474D01*
X222683890Y-59254737D01*
X222694105Y-59271321D01*
X222703498Y-59288343D01*
X222712072Y-59305805D01*
X222719824Y-59323705D01*
X222725436Y-59338341D01*
X222730522Y-59353258D01*
X222735084Y-59368456D01*
X222739114Y-59383850D01*
X222742606Y-59399353D01*
X222745562Y-59414966D01*
X222747980Y-59430689D01*
X222749860Y-59446523D01*
X222751204Y-59462465D01*
X222752010Y-59478518D01*
X222752278Y-59494681D01*
X222752040Y-59510343D01*
X222751326Y-59526066D01*
X222750135Y-59541850D01*
X222748468Y-59557696D01*
X222746325Y-59573602D01*
X222743705Y-59589569D01*
X222740610Y-59605598D01*
X222737037Y-59621687D01*
X222733105Y-59637704D01*
X222728733Y-59653512D01*
X222723922Y-59669113D01*
X222718670Y-59684507D01*
X222712980Y-59699692D01*
X222706849Y-59714671D01*
X222700279Y-59729441D01*
X222693269Y-59744004D01*
X222685893Y-59758219D01*
X222678028Y-59772141D01*
X222669675Y-59785770D01*
X222660834Y-59799105D01*
X222651504Y-59812148D01*
X222641685Y-59824897D01*
X222631378Y-59837354D01*
X222620582Y-59849517D01*
X222609433Y-59861180D01*
X222597868Y-59872329D01*
X222585888Y-59882966D01*
X222573492Y-59893090D01*
X222560682Y-59902701D01*
X222547456Y-59911799D01*
X222533815Y-59920384D01*
X222519759Y-59928456D01*
X222505379Y-59935985D01*
X222490767Y-59942940D01*
X222475924Y-59949321D01*
X222460848Y-59955128D01*
X222445540Y-59960361D01*
X222430000Y-59965020D01*
X222414228Y-59969105D01*
X222398224Y-59972616D01*
X222382110Y-59975546D01*
X222366008Y-59978087D01*
X222349919Y-59980236D01*
X222333841Y-59981994D01*
X222317776Y-59983362D01*
X222301723Y-59984339D01*
X222285683Y-59984925D01*
X222269654Y-59985121D01*
G37*
G36*
X214242076Y-62660616D02*
G01*
X213927101Y-60959904D01*
X214265914Y-60959904D01*
X214418322Y-62088892D01*
X214421172Y-62106844D01*
X214423910Y-62124796D01*
X214426536Y-62142747D01*
X214429050Y-62160699D01*
X214430436Y-62170957D01*
X214432440Y-62189003D01*
X214433264Y-62204619D01*
X214433264Y-62220373D01*
X214432440Y-62236264D01*
X214430791Y-62252292D01*
X214430436Y-62254977D01*
X214428636Y-62238926D01*
X214427634Y-62223012D01*
X214427427Y-62207235D01*
X214428018Y-62191596D01*
X214429715Y-62173524D01*
X214430045Y-62170957D01*
X214432647Y-62153006D01*
X214435324Y-62135054D01*
X214438076Y-62117102D01*
X214440902Y-62099150D01*
X214442551Y-62088892D01*
X214594958Y-60959904D01*
X214933772Y-60959904D01*
X214618796Y-62660616D01*
X214242076Y-62660616D01*
G37*
G36*
X215565738Y-60947637D02*
G01*
X215581748Y-60948351D01*
X215597685Y-60949542D01*
X215613549Y-60951209D01*
X215629339Y-60953352D01*
X215645056Y-60955971D01*
X215660700Y-60959067D01*
X215676270Y-60962639D01*
X215691725Y-60966590D01*
X215707020Y-60971017D01*
X215722157Y-60975920D01*
X215737135Y-60981299D01*
X215751955Y-60987155D01*
X215766616Y-60993487D01*
X215781118Y-61000295D01*
X215795461Y-61007580D01*
X215809517Y-61015365D01*
X215823158Y-61023676D01*
X215836384Y-61032511D01*
X215849194Y-61041872D01*
X215861589Y-61051757D01*
X215873570Y-61062168D01*
X215885134Y-61073104D01*
X215896284Y-61084565D01*
X215907067Y-61096374D01*
X215917338Y-61108550D01*
X215927095Y-61121092D01*
X215936340Y-61134000D01*
X215945072Y-61147275D01*
X215953290Y-61160916D01*
X215960996Y-61174923D01*
X215968189Y-61189297D01*
X215974943Y-61203823D01*
X215981134Y-61218484D01*
X215986764Y-61233279D01*
X215991832Y-61248208D01*
X215996338Y-61263272D01*
X216000283Y-61278470D01*
X216003665Y-61293802D01*
X216006486Y-61309269D01*
X216008959Y-61324839D01*
X216011103Y-61340483D01*
X216012916Y-61356200D01*
X216014400Y-61371990D01*
X216015554Y-61387854D01*
X216016378Y-61403791D01*
X216016873Y-61419801D01*
X216017038Y-61435884D01*
X216017038Y-62191278D01*
X216016780Y-62210734D01*
X216016007Y-62230266D01*
X216015018Y-62245946D01*
X216013699Y-62261675D01*
X216012051Y-62277453D01*
X216010072Y-62293280D01*
X216007764Y-62309156D01*
X216006486Y-62317112D01*
X216003665Y-62332854D01*
X216000283Y-62348424D01*
X215996338Y-62363824D01*
X215991832Y-62379052D01*
X215986764Y-62394110D01*
X215981134Y-62408997D01*
X215974943Y-62423712D01*
X215968189Y-62438257D01*
X215960996Y-62452545D01*
X215953290Y-62466491D01*
X215945072Y-62480096D01*
X215936340Y-62493358D01*
X215927095Y-62506278D01*
X215917338Y-62518857D01*
X215907067Y-62531094D01*
X215896284Y-62542988D01*
X215885134Y-62554364D01*
X215873570Y-62565239D01*
X215861589Y-62575613D01*
X215849194Y-62585486D01*
X215836384Y-62594859D01*
X215823158Y-62603731D01*
X215809517Y-62612103D01*
X215795461Y-62619973D01*
X215781099Y-62627203D01*
X215766542Y-62633846D01*
X215751790Y-62639904D01*
X215736842Y-62645375D01*
X215721699Y-62650260D01*
X215706361Y-62654558D01*
X215690827Y-62658271D01*
X215675098Y-62661397D01*
X215659289Y-62664145D01*
X215643517Y-62666526D01*
X215627782Y-62668541D01*
X215612083Y-62670190D01*
X215596421Y-62671472D01*
X215580796Y-62672388D01*
X215561315Y-62673018D01*
X215549655Y-62673121D01*
X215530209Y-62672835D01*
X215510706Y-62671976D01*
X215495062Y-62670877D01*
X215479381Y-62669411D01*
X215463664Y-62667579D01*
X215447911Y-62665381D01*
X215432120Y-62662817D01*
X215424212Y-62661397D01*
X215408482Y-62658271D01*
X215392948Y-62654558D01*
X215377610Y-62650260D01*
X215362467Y-62645375D01*
X215347519Y-62639904D01*
X215332767Y-62633846D01*
X215318210Y-62627203D01*
X215303849Y-62619973D01*
X215289786Y-62612103D01*
X215276127Y-62603731D01*
X215262871Y-62594859D01*
X215250018Y-62585486D01*
X215237567Y-62575613D01*
X215225520Y-62565239D01*
X215213876Y-62554364D01*
X215202634Y-62542988D01*
X215191937Y-62531094D01*
X215181727Y-62518857D01*
X215172006Y-62506278D01*
X215162774Y-62493358D01*
X215154030Y-62480096D01*
X215145775Y-62466491D01*
X215138008Y-62452545D01*
X215130729Y-62438257D01*
X215124062Y-62423712D01*
X215117931Y-62408997D01*
X215112338Y-62394110D01*
X215107282Y-62379052D01*
X215102764Y-62363824D01*
X215098782Y-62348424D01*
X215095339Y-62332854D01*
X215092432Y-62317112D01*
X215090051Y-62301212D01*
X215087987Y-62285361D01*
X215086241Y-62269558D01*
X215084812Y-62253805D01*
X215083700Y-62238100D01*
X215082907Y-62222444D01*
X215082361Y-62202943D01*
X215082272Y-62191278D01*
X215082272Y-62189325D01*
X215416005Y-62189325D01*
X215416323Y-62206690D01*
X215417275Y-62224007D01*
X215418863Y-62241275D01*
X215421085Y-62258494D01*
X215424456Y-62275420D01*
X215429096Y-62291809D01*
X215435007Y-62307660D01*
X215442188Y-62322974D01*
X215450883Y-62337043D01*
X215461336Y-62349548D01*
X215473549Y-62360490D01*
X215487519Y-62369869D01*
X215502540Y-62377391D01*
X215517903Y-62382765D01*
X215533608Y-62385989D01*
X215549655Y-62387064D01*
X215565701Y-62385989D01*
X215581406Y-62382765D01*
X215596769Y-62377391D01*
X215611790Y-62369869D01*
X215625761Y-62360490D01*
X215637973Y-62349548D01*
X215648426Y-62337043D01*
X215657122Y-62322974D01*
X215664278Y-62307660D01*
X215670115Y-62291809D01*
X215674634Y-62275420D01*
X215677833Y-62258494D01*
X215680227Y-62241275D01*
X215681937Y-62224007D01*
X215682962Y-62206690D01*
X215683304Y-62189325D01*
X215683304Y-61839178D01*
X215416005Y-62051767D01*
X215416005Y-62189325D01*
X215082272Y-62189325D01*
X215082272Y-61789939D01*
X215416005Y-61789939D01*
X215683304Y-61576959D01*
X215683304Y-61436275D01*
X215683043Y-61420546D01*
X215682257Y-61404816D01*
X215680948Y-61389087D01*
X215679116Y-61373358D01*
X215677833Y-61364370D01*
X215675050Y-61348940D01*
X215670495Y-61332038D01*
X215664474Y-61315918D01*
X215656988Y-61300580D01*
X215655949Y-61298717D01*
X215646741Y-61284625D01*
X215635921Y-61272046D01*
X215623489Y-61260982D01*
X215609445Y-61251432D01*
X215594424Y-61243567D01*
X215579062Y-61237950D01*
X215563357Y-61234579D01*
X215547310Y-61233456D01*
X215531483Y-61234628D01*
X215516047Y-61238145D01*
X215501002Y-61244007D01*
X215486347Y-61252214D01*
X215472889Y-61262081D01*
X215461043Y-61273316D01*
X215450810Y-61285919D01*
X215442188Y-61299890D01*
X215435007Y-61314886D01*
X215429096Y-61330567D01*
X215424456Y-61346931D01*
X215421085Y-61363979D01*
X215418863Y-61381418D01*
X215417275Y-61398955D01*
X215416323Y-61416589D01*
X215416005Y-61434321D01*
X215416005Y-61789939D01*
X215082272Y-61789939D01*
X215082272Y-61435884D01*
X215082430Y-61419801D01*
X215082907Y-61403791D01*
X215083700Y-61387854D01*
X215084812Y-61371990D01*
X215086241Y-61356200D01*
X215087987Y-61340483D01*
X215090051Y-61324839D01*
X215092432Y-61309269D01*
X215095339Y-61293802D01*
X215098782Y-61278470D01*
X215102764Y-61263272D01*
X215107282Y-61248208D01*
X215112338Y-61233279D01*
X215117931Y-61218484D01*
X215124062Y-61203823D01*
X215130729Y-61189297D01*
X215138008Y-61174923D01*
X215145775Y-61160916D01*
X215154030Y-61147275D01*
X215162774Y-61134000D01*
X215172006Y-61121092D01*
X215181727Y-61108550D01*
X215191937Y-61096374D01*
X215202634Y-61084565D01*
X215213876Y-61073104D01*
X215225520Y-61062168D01*
X215237567Y-61051757D01*
X215250018Y-61041872D01*
X215262871Y-61032511D01*
X215276127Y-61023676D01*
X215289786Y-61015365D01*
X215303849Y-61007580D01*
X215318192Y-61000295D01*
X215332694Y-60993487D01*
X215347354Y-60987155D01*
X215362174Y-60981299D01*
X215377152Y-60975920D01*
X215392289Y-60971017D01*
X215407585Y-60966590D01*
X215423039Y-60962639D01*
X215438610Y-60959067D01*
X215454253Y-60955971D01*
X215469970Y-60953352D01*
X215485761Y-60951209D01*
X215501624Y-60949542D01*
X215517561Y-60948351D01*
X215533571Y-60947637D01*
X215549655Y-60947398D01*
X215565738Y-60947637D01*
G37*
G36*
X216668873Y-62673121D02*
G01*
X216652801Y-62672739D01*
X216636824Y-62671594D01*
X216620942Y-62669686D01*
X216605156Y-62667015D01*
X216589466Y-62663580D01*
X216573870Y-62659382D01*
X216567659Y-62657489D01*
X216552455Y-62651948D01*
X216537861Y-62645338D01*
X216523878Y-62637660D01*
X216510506Y-62628913D01*
X216497744Y-62619097D01*
X216485593Y-62608213D01*
X216480904Y-62603560D01*
X216469940Y-62591287D01*
X216460006Y-62578403D01*
X216451102Y-62564909D01*
X216443229Y-62550804D01*
X216436387Y-62536088D01*
X216430575Y-62520762D01*
X216428538Y-62514461D01*
X216424147Y-62498425D01*
X216420501Y-62482312D01*
X216417599Y-62466123D01*
X216415441Y-62449858D01*
X216414027Y-62433517D01*
X216413357Y-62417099D01*
X216413297Y-62410511D01*
X216413669Y-62394072D01*
X216414786Y-62377729D01*
X216416646Y-62361481D01*
X216419251Y-62345329D01*
X216422600Y-62329271D01*
X216426693Y-62313310D01*
X216428538Y-62306952D01*
X216433938Y-62291278D01*
X216440369Y-62276254D01*
X216447830Y-62261878D01*
X216456321Y-62248150D01*
X216465842Y-62235072D01*
X216476394Y-62222642D01*
X216480904Y-62217852D01*
X216492811Y-62206438D01*
X216505328Y-62196130D01*
X216518456Y-62186929D01*
X216532195Y-62178834D01*
X216546544Y-62171847D01*
X216561504Y-62165966D01*
X216567659Y-62163923D01*
X216583216Y-62159307D01*
X216598869Y-62155474D01*
X216614616Y-62152423D01*
X216630460Y-62150154D01*
X216646399Y-62148668D01*
X216662433Y-62147964D01*
X216668873Y-62147901D01*
X216684945Y-62148292D01*
X216700922Y-62149466D01*
X216716804Y-62151421D01*
X216732590Y-62154160D01*
X216748281Y-62157680D01*
X216763876Y-62161983D01*
X216770087Y-62163923D01*
X216785282Y-62169361D01*
X216799847Y-62175906D01*
X216813782Y-62183558D01*
X216827088Y-62192316D01*
X216839763Y-62202182D01*
X216851809Y-62213153D01*
X216856452Y-62217852D01*
X216867519Y-62230022D01*
X216877518Y-62242841D01*
X216886448Y-62256309D01*
X216894309Y-62270425D01*
X216901102Y-62285191D01*
X216906827Y-62300605D01*
X216908817Y-62306952D01*
X216913321Y-62322875D01*
X216917060Y-62338894D01*
X216920037Y-62355009D01*
X216922251Y-62371218D01*
X216923701Y-62387523D01*
X216924388Y-62403924D01*
X216924449Y-62410511D01*
X216924067Y-62426959D01*
X216922922Y-62443331D01*
X216921014Y-62459627D01*
X216918343Y-62475846D01*
X216914908Y-62491989D01*
X216910710Y-62508055D01*
X216908817Y-62514461D01*
X216903520Y-62530031D01*
X216897155Y-62544991D01*
X216889721Y-62559340D01*
X216881218Y-62573079D01*
X216871647Y-62586207D01*
X216861007Y-62598724D01*
X216856452Y-62603560D01*
X216844657Y-62614872D01*
X216832233Y-62625115D01*
X216819180Y-62634289D01*
X216805496Y-62642395D01*
X216791183Y-62649432D01*
X216776241Y-62655401D01*
X216770087Y-62657489D01*
X216754530Y-62661992D01*
X216738878Y-62665732D01*
X216723130Y-62668709D01*
X216707286Y-62670923D01*
X216691348Y-62672373D01*
X216675313Y-62673060D01*
X216668873Y-62673121D01*
G37*
G36*
X217802551Y-62660616D02*
G01*
X217802551Y-62260448D01*
X217320708Y-62260448D01*
X217320708Y-61984161D01*
X217788873Y-60959904D01*
X218111664Y-60959904D01*
X217647798Y-61974391D01*
X217802551Y-61974391D01*
X217802551Y-61685207D01*
X218133549Y-61685207D01*
X218133549Y-61974391D01*
X218237108Y-61974391D01*
X218237108Y-62260448D01*
X218133549Y-62260448D01*
X218133549Y-62660616D01*
X217802551Y-62660616D01*
G37*
X197833685Y-139065939D02*
X197833685Y-139808796D01*
X197833685Y-139808796D02*
X196273685Y-139808796D01*
X197833685Y-137654510D02*
X197090828Y-138174510D01*
X197833685Y-138545939D02*
X196273685Y-138545939D01*
X196273685Y-138545939D02*
X196273685Y-137951653D01*
X196273685Y-137951653D02*
X196347971Y-137803082D01*
X196347971Y-137803082D02*
X196422257Y-137728796D01*
X196422257Y-137728796D02*
X196570828Y-137654510D01*
X196570828Y-137654510D02*
X196793685Y-137654510D01*
X196793685Y-137654510D02*
X196942257Y-137728796D01*
X196942257Y-137728796D02*
X197016542Y-137803082D01*
X197016542Y-137803082D02*
X197090828Y-137951653D01*
X197090828Y-137951653D02*
X197090828Y-138545939D01*
X198785285Y-140403081D02*
X200345285Y-140031653D01*
X200345285Y-140031653D02*
X199231000Y-139734510D01*
X199231000Y-139734510D02*
X200345285Y-139437367D01*
X200345285Y-139437367D02*
X198785285Y-139065939D01*
X200271000Y-138545939D02*
X200345285Y-138323082D01*
X200345285Y-138323082D02*
X200345285Y-137951653D01*
X200345285Y-137951653D02*
X200271000Y-137803082D01*
X200271000Y-137803082D02*
X200196714Y-137728796D01*
X200196714Y-137728796D02*
X200048142Y-137654510D01*
X200048142Y-137654510D02*
X199899571Y-137654510D01*
X199899571Y-137654510D02*
X199751000Y-137728796D01*
X199751000Y-137728796D02*
X199676714Y-137803082D01*
X199676714Y-137803082D02*
X199602428Y-137951653D01*
X199602428Y-137951653D02*
X199528142Y-138248796D01*
X199528142Y-138248796D02*
X199453857Y-138397367D01*
X199453857Y-138397367D02*
X199379571Y-138471653D01*
X199379571Y-138471653D02*
X199231000Y-138545939D01*
X199231000Y-138545939D02*
X199082428Y-138545939D01*
X199082428Y-138545939D02*
X198933857Y-138471653D01*
X198933857Y-138471653D02*
X198859571Y-138397367D01*
X198859571Y-138397367D02*
X198785285Y-138248796D01*
X198785285Y-138248796D02*
X198785285Y-137877367D01*
X198785285Y-137877367D02*
X198859571Y-137654510D01*
X202782600Y-141665939D02*
X202856885Y-141443082D01*
X202856885Y-141443082D02*
X202856885Y-141071653D01*
X202856885Y-141071653D02*
X202782600Y-140923082D01*
X202782600Y-140923082D02*
X202708314Y-140848796D01*
X202708314Y-140848796D02*
X202559742Y-140774510D01*
X202559742Y-140774510D02*
X202411171Y-140774510D01*
X202411171Y-140774510D02*
X202262600Y-140848796D01*
X202262600Y-140848796D02*
X202188314Y-140923082D01*
X202188314Y-140923082D02*
X202114028Y-141071653D01*
X202114028Y-141071653D02*
X202039742Y-141368796D01*
X202039742Y-141368796D02*
X201965457Y-141517367D01*
X201965457Y-141517367D02*
X201891171Y-141591653D01*
X201891171Y-141591653D02*
X201742600Y-141665939D01*
X201742600Y-141665939D02*
X201594028Y-141665939D01*
X201594028Y-141665939D02*
X201445457Y-141591653D01*
X201445457Y-141591653D02*
X201371171Y-141517367D01*
X201371171Y-141517367D02*
X201296885Y-141368796D01*
X201296885Y-141368796D02*
X201296885Y-140997367D01*
X201296885Y-140997367D02*
X201371171Y-140774510D01*
X202708314Y-139214510D02*
X202782600Y-139288796D01*
X202782600Y-139288796D02*
X202856885Y-139511653D01*
X202856885Y-139511653D02*
X202856885Y-139660225D01*
X202856885Y-139660225D02*
X202782600Y-139883082D01*
X202782600Y-139883082D02*
X202634028Y-140031653D01*
X202634028Y-140031653D02*
X202485457Y-140105939D01*
X202485457Y-140105939D02*
X202188314Y-140180225D01*
X202188314Y-140180225D02*
X201965457Y-140180225D01*
X201965457Y-140180225D02*
X201668314Y-140105939D01*
X201668314Y-140105939D02*
X201519742Y-140031653D01*
X201519742Y-140031653D02*
X201371171Y-139883082D01*
X201371171Y-139883082D02*
X201296885Y-139660225D01*
X201296885Y-139660225D02*
X201296885Y-139511653D01*
X201296885Y-139511653D02*
X201371171Y-139288796D01*
X201371171Y-139288796D02*
X201445457Y-139214510D01*
X202856885Y-138545939D02*
X201296885Y-138545939D01*
X202856885Y-137654510D02*
X201965457Y-138323082D01*
X201296885Y-137654510D02*
X202188314Y-138545939D01*
D10*
X206925152Y-62785333D02*
X207591819Y-62785333D01*
X206544200Y-63023428D02*
X207258485Y-63261523D01*
X207258485Y-63261523D02*
X207258485Y-62642476D01*
X206591819Y-62356761D02*
X206591819Y-61690095D01*
X206591819Y-61690095D02*
X207591819Y-62118666D01*
X206591819Y-61118666D02*
X206591819Y-61023428D01*
X206591819Y-61023428D02*
X206639438Y-60928190D01*
X206639438Y-60928190D02*
X206687057Y-60880571D01*
X206687057Y-60880571D02*
X206782295Y-60832952D01*
X206782295Y-60832952D02*
X206972771Y-60785333D01*
X206972771Y-60785333D02*
X207210866Y-60785333D01*
X207210866Y-60785333D02*
X207401342Y-60832952D01*
X207401342Y-60832952D02*
X207496580Y-60880571D01*
X207496580Y-60880571D02*
X207544200Y-60928190D01*
X207544200Y-60928190D02*
X207591819Y-61023428D01*
X207591819Y-61023428D02*
X207591819Y-61118666D01*
X207591819Y-61118666D02*
X207544200Y-61213904D01*
X207544200Y-61213904D02*
X207496580Y-61261523D01*
X207496580Y-61261523D02*
X207401342Y-61309142D01*
X207401342Y-61309142D02*
X207210866Y-61356761D01*
X207210866Y-61356761D02*
X206972771Y-61356761D01*
X206972771Y-61356761D02*
X206782295Y-61309142D01*
X206782295Y-61309142D02*
X206687057Y-61261523D01*
X206687057Y-61261523D02*
X206639438Y-61213904D01*
X206639438Y-61213904D02*
X206591819Y-61118666D01*
X207591819Y-60213904D02*
X207544200Y-60309142D01*
X207544200Y-60309142D02*
X207496580Y-60356761D01*
X207496580Y-60356761D02*
X207401342Y-60404380D01*
X207401342Y-60404380D02*
X207115628Y-60404380D01*
X207115628Y-60404380D02*
X207020390Y-60356761D01*
X207020390Y-60356761D02*
X206972771Y-60309142D01*
X206972771Y-60309142D02*
X206925152Y-60213904D01*
X206925152Y-60213904D02*
X206925152Y-60071047D01*
X206925152Y-60071047D02*
X206972771Y-59975809D01*
X206972771Y-59975809D02*
X207020390Y-59928190D01*
X207020390Y-59928190D02*
X207115628Y-59880571D01*
X207115628Y-59880571D02*
X207401342Y-59880571D01*
X207401342Y-59880571D02*
X207496580Y-59928190D01*
X207496580Y-59928190D02*
X207544200Y-59975809D01*
X207544200Y-59975809D02*
X207591819Y-60071047D01*
X207591819Y-60071047D02*
X207591819Y-60213904D01*
X207591819Y-59451999D02*
X206591819Y-59451999D01*
X207591819Y-59023428D02*
X207068009Y-59023428D01*
X207068009Y-59023428D02*
X206972771Y-59071047D01*
X206972771Y-59071047D02*
X206925152Y-59166285D01*
X206925152Y-59166285D02*
X206925152Y-59309142D01*
X206925152Y-59309142D02*
X206972771Y-59404380D01*
X206972771Y-59404380D02*
X207020390Y-59451999D01*
X207591819Y-58547237D02*
X206925152Y-58547237D01*
X207020390Y-58547237D02*
X206972771Y-58499618D01*
X206972771Y-58499618D02*
X206925152Y-58404380D01*
X206925152Y-58404380D02*
X206925152Y-58261523D01*
X206925152Y-58261523D02*
X206972771Y-58166285D01*
X206972771Y-58166285D02*
X207068009Y-58118666D01*
X207068009Y-58118666D02*
X207591819Y-58118666D01*
X207068009Y-58118666D02*
X206972771Y-58071047D01*
X206972771Y-58071047D02*
X206925152Y-57975809D01*
X206925152Y-57975809D02*
X206925152Y-57832952D01*
X206925152Y-57832952D02*
X206972771Y-57737713D01*
X206972771Y-57737713D02*
X207068009Y-57690094D01*
X207068009Y-57690094D02*
X207591819Y-57690094D01*
X206137380Y-141139104D02*
X206613570Y-141139104D01*
X206042142Y-141424819D02*
X206375475Y-140424819D01*
X206375475Y-140424819D02*
X206708808Y-141424819D01*
X207042142Y-141424819D02*
X207042142Y-140424819D01*
X207042142Y-140424819D02*
X207613570Y-141424819D01*
X207613570Y-141424819D02*
X207613570Y-140424819D01*
X208280237Y-140424819D02*
X208470713Y-140424819D01*
X208470713Y-140424819D02*
X208565951Y-140472438D01*
X208565951Y-140472438D02*
X208661189Y-140567676D01*
X208661189Y-140567676D02*
X208708808Y-140758152D01*
X208708808Y-140758152D02*
X208708808Y-141091485D01*
X208708808Y-141091485D02*
X208661189Y-141281961D01*
X208661189Y-141281961D02*
X208565951Y-141377200D01*
X208565951Y-141377200D02*
X208470713Y-141424819D01*
X208470713Y-141424819D02*
X208280237Y-141424819D01*
X208280237Y-141424819D02*
X208184999Y-141377200D01*
X208184999Y-141377200D02*
X208089761Y-141281961D01*
X208089761Y-141281961D02*
X208042142Y-141091485D01*
X208042142Y-141091485D02*
X208042142Y-140758152D01*
X208042142Y-140758152D02*
X208089761Y-140567676D01*
X208089761Y-140567676D02*
X208184999Y-140472438D01*
X208184999Y-140472438D02*
X208280237Y-140424819D01*
X210470713Y-141424819D02*
X210137380Y-140948628D01*
X209899285Y-141424819D02*
X209899285Y-140424819D01*
X209899285Y-140424819D02*
X210280237Y-140424819D01*
X210280237Y-140424819D02*
X210375475Y-140472438D01*
X210375475Y-140472438D02*
X210423094Y-140520057D01*
X210423094Y-140520057D02*
X210470713Y-140615295D01*
X210470713Y-140615295D02*
X210470713Y-140758152D01*
X210470713Y-140758152D02*
X210423094Y-140853390D01*
X210423094Y-140853390D02*
X210375475Y-140901009D01*
X210375475Y-140901009D02*
X210280237Y-140948628D01*
X210280237Y-140948628D02*
X209899285Y-140948628D01*
X211042142Y-141424819D02*
X210946904Y-141377200D01*
X210946904Y-141377200D02*
X210899285Y-141329580D01*
X210899285Y-141329580D02*
X210851666Y-141234342D01*
X210851666Y-141234342D02*
X210851666Y-140948628D01*
X210851666Y-140948628D02*
X210899285Y-140853390D01*
X210899285Y-140853390D02*
X210946904Y-140805771D01*
X210946904Y-140805771D02*
X211042142Y-140758152D01*
X211042142Y-140758152D02*
X211184999Y-140758152D01*
X211184999Y-140758152D02*
X211280237Y-140805771D01*
X211280237Y-140805771D02*
X211327856Y-140853390D01*
X211327856Y-140853390D02*
X211375475Y-140948628D01*
X211375475Y-140948628D02*
X211375475Y-141234342D01*
X211375475Y-141234342D02*
X211327856Y-141329580D01*
X211327856Y-141329580D02*
X211280237Y-141377200D01*
X211280237Y-141377200D02*
X211184999Y-141424819D01*
X211184999Y-141424819D02*
X211042142Y-141424819D01*
X211661190Y-140758152D02*
X212042142Y-140758152D01*
X211804047Y-140424819D02*
X211804047Y-141281961D01*
X211804047Y-141281961D02*
X211851666Y-141377200D01*
X211851666Y-141377200D02*
X211946904Y-141424819D01*
X211946904Y-141424819D02*
X212042142Y-141424819D01*
X212804047Y-141424819D02*
X212804047Y-140901009D01*
X212804047Y-140901009D02*
X212756428Y-140805771D01*
X212756428Y-140805771D02*
X212661190Y-140758152D01*
X212661190Y-140758152D02*
X212470714Y-140758152D01*
X212470714Y-140758152D02*
X212375476Y-140805771D01*
X212804047Y-141377200D02*
X212708809Y-141424819D01*
X212708809Y-141424819D02*
X212470714Y-141424819D01*
X212470714Y-141424819D02*
X212375476Y-141377200D01*
X212375476Y-141377200D02*
X212327857Y-141281961D01*
X212327857Y-141281961D02*
X212327857Y-141186723D01*
X212327857Y-141186723D02*
X212375476Y-141091485D01*
X212375476Y-141091485D02*
X212470714Y-141043866D01*
X212470714Y-141043866D02*
X212708809Y-141043866D01*
X212708809Y-141043866D02*
X212804047Y-140996247D01*
X213280238Y-141424819D02*
X213280238Y-140758152D01*
X213280238Y-140948628D02*
X213327857Y-140853390D01*
X213327857Y-140853390D02*
X213375476Y-140805771D01*
X213375476Y-140805771D02*
X213470714Y-140758152D01*
X213470714Y-140758152D02*
X213565952Y-140758152D01*
X213804048Y-140758152D02*
X214042143Y-141424819D01*
X214280238Y-140758152D02*
X214042143Y-141424819D01*
X214042143Y-141424819D02*
X213946905Y-141662914D01*
X213946905Y-141662914D02*
X213899286Y-141710533D01*
X213899286Y-141710533D02*
X213804048Y-141758152D01*
X197421667Y-101372200D02*
X197564524Y-101419819D01*
X197564524Y-101419819D02*
X197802619Y-101419819D01*
X197802619Y-101419819D02*
X197897857Y-101372200D01*
X197897857Y-101372200D02*
X197945476Y-101324580D01*
X197945476Y-101324580D02*
X197993095Y-101229342D01*
X197993095Y-101229342D02*
X197993095Y-101134104D01*
X197993095Y-101134104D02*
X197945476Y-101038866D01*
X197945476Y-101038866D02*
X197897857Y-100991247D01*
X197897857Y-100991247D02*
X197802619Y-100943628D01*
X197802619Y-100943628D02*
X197612143Y-100896009D01*
X197612143Y-100896009D02*
X197516905Y-100848390D01*
X197516905Y-100848390D02*
X197469286Y-100800771D01*
X197469286Y-100800771D02*
X197421667Y-100705533D01*
X197421667Y-100705533D02*
X197421667Y-100610295D01*
X197421667Y-100610295D02*
X197469286Y-100515057D01*
X197469286Y-100515057D02*
X197516905Y-100467438D01*
X197516905Y-100467438D02*
X197612143Y-100419819D01*
X197612143Y-100419819D02*
X197850238Y-100419819D01*
X197850238Y-100419819D02*
X197993095Y-100467438D01*
X198326429Y-100419819D02*
X198564524Y-101419819D01*
X198564524Y-101419819D02*
X198755000Y-100705533D01*
X198755000Y-100705533D02*
X198945476Y-101419819D01*
X198945476Y-101419819D02*
X199183572Y-100419819D01*
X199993095Y-100419819D02*
X199802619Y-100419819D01*
X199802619Y-100419819D02*
X199707381Y-100467438D01*
X199707381Y-100467438D02*
X199659762Y-100515057D01*
X199659762Y-100515057D02*
X199564524Y-100657914D01*
X199564524Y-100657914D02*
X199516905Y-100848390D01*
X199516905Y-100848390D02*
X199516905Y-101229342D01*
X199516905Y-101229342D02*
X199564524Y-101324580D01*
X199564524Y-101324580D02*
X199612143Y-101372200D01*
X199612143Y-101372200D02*
X199707381Y-101419819D01*
X199707381Y-101419819D02*
X199897857Y-101419819D01*
X199897857Y-101419819D02*
X199993095Y-101372200D01*
X199993095Y-101372200D02*
X200040714Y-101324580D01*
X200040714Y-101324580D02*
X200088333Y-101229342D01*
X200088333Y-101229342D02*
X200088333Y-100991247D01*
X200088333Y-100991247D02*
X200040714Y-100896009D01*
X200040714Y-100896009D02*
X199993095Y-100848390D01*
X199993095Y-100848390D02*
X199897857Y-100800771D01*
X199897857Y-100800771D02*
X199707381Y-100800771D01*
X199707381Y-100800771D02*
X199612143Y-100848390D01*
X199612143Y-100848390D02*
X199564524Y-100896009D01*
X199564524Y-100896009D02*
X199516905Y-100991247D01*
X201255476Y-49984819D02*
X201255476Y-48984819D01*
X201255476Y-48984819D02*
X201826904Y-49984819D01*
X201826904Y-49984819D02*
X201826904Y-48984819D01*
X202303095Y-49984819D02*
X202303095Y-48984819D01*
X202303095Y-48984819D02*
X202684047Y-48984819D01*
X202684047Y-48984819D02*
X202779285Y-49032438D01*
X202779285Y-49032438D02*
X202826904Y-49080057D01*
X202826904Y-49080057D02*
X202874523Y-49175295D01*
X202874523Y-49175295D02*
X202874523Y-49318152D01*
X202874523Y-49318152D02*
X202826904Y-49413390D01*
X202826904Y-49413390D02*
X202779285Y-49461009D01*
X202779285Y-49461009D02*
X202684047Y-49508628D01*
X202684047Y-49508628D02*
X202303095Y-49508628D01*
X203303095Y-49984819D02*
X203303095Y-48984819D01*
X203303095Y-48984819D02*
X203874523Y-49984819D01*
X203874523Y-49984819D02*
X203874523Y-48984819D01*
X222069819Y-135699047D02*
X221069819Y-135699047D01*
X221069819Y-135699047D02*
X221069819Y-135318095D01*
X221069819Y-135318095D02*
X221117438Y-135222857D01*
X221117438Y-135222857D02*
X221165057Y-135175238D01*
X221165057Y-135175238D02*
X221260295Y-135127619D01*
X221260295Y-135127619D02*
X221403152Y-135127619D01*
X221403152Y-135127619D02*
X221498390Y-135175238D01*
X221498390Y-135175238D02*
X221546009Y-135222857D01*
X221546009Y-135222857D02*
X221593628Y-135318095D01*
X221593628Y-135318095D02*
X221593628Y-135699047D01*
X221974580Y-134127619D02*
X222022200Y-134175238D01*
X222022200Y-134175238D02*
X222069819Y-134318095D01*
X222069819Y-134318095D02*
X222069819Y-134413333D01*
X222069819Y-134413333D02*
X222022200Y-134556190D01*
X222022200Y-134556190D02*
X221926961Y-134651428D01*
X221926961Y-134651428D02*
X221831723Y-134699047D01*
X221831723Y-134699047D02*
X221641247Y-134746666D01*
X221641247Y-134746666D02*
X221498390Y-134746666D01*
X221498390Y-134746666D02*
X221307914Y-134699047D01*
X221307914Y-134699047D02*
X221212676Y-134651428D01*
X221212676Y-134651428D02*
X221117438Y-134556190D01*
X221117438Y-134556190D02*
X221069819Y-134413333D01*
X221069819Y-134413333D02*
X221069819Y-134318095D01*
X221069819Y-134318095D02*
X221117438Y-134175238D01*
X221117438Y-134175238D02*
X221165057Y-134127619D01*
X221546009Y-133365714D02*
X221546009Y-133699047D01*
X222069819Y-133699047D02*
X221069819Y-133699047D01*
X221069819Y-133699047D02*
X221069819Y-133222857D01*
X221498390Y-132699047D02*
X221450771Y-132794285D01*
X221450771Y-132794285D02*
X221403152Y-132841904D01*
X221403152Y-132841904D02*
X221307914Y-132889523D01*
X221307914Y-132889523D02*
X221260295Y-132889523D01*
X221260295Y-132889523D02*
X221165057Y-132841904D01*
X221165057Y-132841904D02*
X221117438Y-132794285D01*
X221117438Y-132794285D02*
X221069819Y-132699047D01*
X221069819Y-132699047D02*
X221069819Y-132508571D01*
X221069819Y-132508571D02*
X221117438Y-132413333D01*
X221117438Y-132413333D02*
X221165057Y-132365714D01*
X221165057Y-132365714D02*
X221260295Y-132318095D01*
X221260295Y-132318095D02*
X221307914Y-132318095D01*
X221307914Y-132318095D02*
X221403152Y-132365714D01*
X221403152Y-132365714D02*
X221450771Y-132413333D01*
X221450771Y-132413333D02*
X221498390Y-132508571D01*
X221498390Y-132508571D02*
X221498390Y-132699047D01*
X221498390Y-132699047D02*
X221546009Y-132794285D01*
X221546009Y-132794285D02*
X221593628Y-132841904D01*
X221593628Y-132841904D02*
X221688866Y-132889523D01*
X221688866Y-132889523D02*
X221879342Y-132889523D01*
X221879342Y-132889523D02*
X221974580Y-132841904D01*
X221974580Y-132841904D02*
X222022200Y-132794285D01*
X222022200Y-132794285D02*
X222069819Y-132699047D01*
X222069819Y-132699047D02*
X222069819Y-132508571D01*
X222069819Y-132508571D02*
X222022200Y-132413333D01*
X222022200Y-132413333D02*
X221974580Y-132365714D01*
X221974580Y-132365714D02*
X221879342Y-132318095D01*
X221879342Y-132318095D02*
X221688866Y-132318095D01*
X221688866Y-132318095D02*
X221593628Y-132365714D01*
X221593628Y-132365714D02*
X221546009Y-132413333D01*
X221546009Y-132413333D02*
X221498390Y-132508571D01*
X221069819Y-131413333D02*
X221069819Y-131889523D01*
X221069819Y-131889523D02*
X221546009Y-131937142D01*
X221546009Y-131937142D02*
X221498390Y-131889523D01*
X221498390Y-131889523D02*
X221450771Y-131794285D01*
X221450771Y-131794285D02*
X221450771Y-131556190D01*
X221450771Y-131556190D02*
X221498390Y-131460952D01*
X221498390Y-131460952D02*
X221546009Y-131413333D01*
X221546009Y-131413333D02*
X221641247Y-131365714D01*
X221641247Y-131365714D02*
X221879342Y-131365714D01*
X221879342Y-131365714D02*
X221974580Y-131413333D01*
X221974580Y-131413333D02*
X222022200Y-131460952D01*
X222022200Y-131460952D02*
X222069819Y-131556190D01*
X222069819Y-131556190D02*
X222069819Y-131794285D01*
X222069819Y-131794285D02*
X222022200Y-131889523D01*
X222022200Y-131889523D02*
X221974580Y-131937142D01*
X221069819Y-131032380D02*
X221069819Y-130365714D01*
X221069819Y-130365714D02*
X222069819Y-130794285D01*
X221403152Y-129556190D02*
X222069819Y-129556190D01*
X221022200Y-129794285D02*
X221736485Y-130032380D01*
X221736485Y-130032380D02*
X221736485Y-129413333D01*
X222069819Y-129032380D02*
X221069819Y-129032380D01*
X221069819Y-129032380D02*
X222069819Y-128460952D01*
X222069819Y-128460952D02*
X221069819Y-128460952D01*
X218376667Y-101372200D02*
X218519524Y-101419819D01*
X218519524Y-101419819D02*
X218757619Y-101419819D01*
X218757619Y-101419819D02*
X218852857Y-101372200D01*
X218852857Y-101372200D02*
X218900476Y-101324580D01*
X218900476Y-101324580D02*
X218948095Y-101229342D01*
X218948095Y-101229342D02*
X218948095Y-101134104D01*
X218948095Y-101134104D02*
X218900476Y-101038866D01*
X218900476Y-101038866D02*
X218852857Y-100991247D01*
X218852857Y-100991247D02*
X218757619Y-100943628D01*
X218757619Y-100943628D02*
X218567143Y-100896009D01*
X218567143Y-100896009D02*
X218471905Y-100848390D01*
X218471905Y-100848390D02*
X218424286Y-100800771D01*
X218424286Y-100800771D02*
X218376667Y-100705533D01*
X218376667Y-100705533D02*
X218376667Y-100610295D01*
X218376667Y-100610295D02*
X218424286Y-100515057D01*
X218424286Y-100515057D02*
X218471905Y-100467438D01*
X218471905Y-100467438D02*
X218567143Y-100419819D01*
X218567143Y-100419819D02*
X218805238Y-100419819D01*
X218805238Y-100419819D02*
X218948095Y-100467438D01*
X219281429Y-100419819D02*
X219519524Y-101419819D01*
X219519524Y-101419819D02*
X219710000Y-100705533D01*
X219710000Y-100705533D02*
X219900476Y-101419819D01*
X219900476Y-101419819D02*
X220138572Y-100419819D01*
X220662381Y-100848390D02*
X220567143Y-100800771D01*
X220567143Y-100800771D02*
X220519524Y-100753152D01*
X220519524Y-100753152D02*
X220471905Y-100657914D01*
X220471905Y-100657914D02*
X220471905Y-100610295D01*
X220471905Y-100610295D02*
X220519524Y-100515057D01*
X220519524Y-100515057D02*
X220567143Y-100467438D01*
X220567143Y-100467438D02*
X220662381Y-100419819D01*
X220662381Y-100419819D02*
X220852857Y-100419819D01*
X220852857Y-100419819D02*
X220948095Y-100467438D01*
X220948095Y-100467438D02*
X220995714Y-100515057D01*
X220995714Y-100515057D02*
X221043333Y-100610295D01*
X221043333Y-100610295D02*
X221043333Y-100657914D01*
X221043333Y-100657914D02*
X220995714Y-100753152D01*
X220995714Y-100753152D02*
X220948095Y-100800771D01*
X220948095Y-100800771D02*
X220852857Y-100848390D01*
X220852857Y-100848390D02*
X220662381Y-100848390D01*
X220662381Y-100848390D02*
X220567143Y-100896009D01*
X220567143Y-100896009D02*
X220519524Y-100943628D01*
X220519524Y-100943628D02*
X220471905Y-101038866D01*
X220471905Y-101038866D02*
X220471905Y-101229342D01*
X220471905Y-101229342D02*
X220519524Y-101324580D01*
X220519524Y-101324580D02*
X220567143Y-101372200D01*
X220567143Y-101372200D02*
X220662381Y-101419819D01*
X220662381Y-101419819D02*
X220852857Y-101419819D01*
X220852857Y-101419819D02*
X220948095Y-101372200D01*
X220948095Y-101372200D02*
X220995714Y-101324580D01*
X220995714Y-101324580D02*
X221043333Y-101229342D01*
X221043333Y-101229342D02*
X221043333Y-101038866D01*
X221043333Y-101038866D02*
X220995714Y-100943628D01*
X220995714Y-100943628D02*
X220948095Y-100896009D01*
X220948095Y-100896009D02*
X220852857Y-100848390D01*
X209589761Y-96879580D02*
X209542142Y-96927200D01*
X209542142Y-96927200D02*
X209399285Y-96974819D01*
X209399285Y-96974819D02*
X209304047Y-96974819D01*
X209304047Y-96974819D02*
X209161190Y-96927200D01*
X209161190Y-96927200D02*
X209065952Y-96831961D01*
X209065952Y-96831961D02*
X209018333Y-96736723D01*
X209018333Y-96736723D02*
X208970714Y-96546247D01*
X208970714Y-96546247D02*
X208970714Y-96403390D01*
X208970714Y-96403390D02*
X209018333Y-96212914D01*
X209018333Y-96212914D02*
X209065952Y-96117676D01*
X209065952Y-96117676D02*
X209161190Y-96022438D01*
X209161190Y-96022438D02*
X209304047Y-95974819D01*
X209304047Y-95974819D02*
X209399285Y-95974819D01*
X209399285Y-95974819D02*
X209542142Y-96022438D01*
X209542142Y-96022438D02*
X209589761Y-96070057D01*
X210446904Y-96974819D02*
X210446904Y-96451009D01*
X210446904Y-96451009D02*
X210399285Y-96355771D01*
X210399285Y-96355771D02*
X210304047Y-96308152D01*
X210304047Y-96308152D02*
X210113571Y-96308152D01*
X210113571Y-96308152D02*
X210018333Y-96355771D01*
X210446904Y-96927200D02*
X210351666Y-96974819D01*
X210351666Y-96974819D02*
X210113571Y-96974819D01*
X210113571Y-96974819D02*
X210018333Y-96927200D01*
X210018333Y-96927200D02*
X209970714Y-96831961D01*
X209970714Y-96831961D02*
X209970714Y-96736723D01*
X209970714Y-96736723D02*
X210018333Y-96641485D01*
X210018333Y-96641485D02*
X210113571Y-96593866D01*
X210113571Y-96593866D02*
X210351666Y-96593866D01*
X210351666Y-96593866D02*
X210446904Y-96546247D01*
X210923095Y-96308152D02*
X210923095Y-97308152D01*
X210923095Y-96355771D02*
X211018333Y-96308152D01*
X211018333Y-96308152D02*
X211208809Y-96308152D01*
X211208809Y-96308152D02*
X211304047Y-96355771D01*
X211304047Y-96355771D02*
X211351666Y-96403390D01*
X211351666Y-96403390D02*
X211399285Y-96498628D01*
X211399285Y-96498628D02*
X211399285Y-96784342D01*
X211399285Y-96784342D02*
X211351666Y-96879580D01*
X211351666Y-96879580D02*
X211304047Y-96927200D01*
X211304047Y-96927200D02*
X211208809Y-96974819D01*
X211208809Y-96974819D02*
X211018333Y-96974819D01*
X211018333Y-96974819D02*
X210923095Y-96927200D01*
X208161190Y-43904819D02*
X207685000Y-43904819D01*
X207685000Y-43904819D02*
X207637381Y-44381009D01*
X207637381Y-44381009D02*
X207685000Y-44333390D01*
X207685000Y-44333390D02*
X207780238Y-44285771D01*
X207780238Y-44285771D02*
X208018333Y-44285771D01*
X208018333Y-44285771D02*
X208113571Y-44333390D01*
X208113571Y-44333390D02*
X208161190Y-44381009D01*
X208161190Y-44381009D02*
X208208809Y-44476247D01*
X208208809Y-44476247D02*
X208208809Y-44714342D01*
X208208809Y-44714342D02*
X208161190Y-44809580D01*
X208161190Y-44809580D02*
X208113571Y-44857200D01*
X208113571Y-44857200D02*
X208018333Y-44904819D01*
X208018333Y-44904819D02*
X207780238Y-44904819D01*
X207780238Y-44904819D02*
X207685000Y-44857200D01*
X207685000Y-44857200D02*
X207637381Y-44809580D01*
X208637381Y-44904819D02*
X208637381Y-43904819D01*
X208637381Y-43904819D02*
X208970714Y-44619104D01*
X208970714Y-44619104D02*
X209304047Y-43904819D01*
X209304047Y-43904819D02*
X209304047Y-44904819D01*
X209780238Y-44904819D02*
X209780238Y-43904819D01*
X209780238Y-43904819D02*
X210113571Y-44619104D01*
X210113571Y-44619104D02*
X210446904Y-43904819D01*
X210446904Y-43904819D02*
X210446904Y-44904819D01*
X211685000Y-44904819D02*
X211685000Y-43904819D01*
X212732618Y-44904819D02*
X212399285Y-44428628D01*
X212161190Y-44904819D02*
X212161190Y-43904819D01*
X212161190Y-43904819D02*
X212542142Y-43904819D01*
X212542142Y-43904819D02*
X212637380Y-43952438D01*
X212637380Y-43952438D02*
X212684999Y-44000057D01*
X212684999Y-44000057D02*
X212732618Y-44095295D01*
X212732618Y-44095295D02*
X212732618Y-44238152D01*
X212732618Y-44238152D02*
X212684999Y-44333390D01*
X212684999Y-44333390D02*
X212637380Y-44381009D01*
X212637380Y-44381009D02*
X212542142Y-44428628D01*
X212542142Y-44428628D02*
X212161190Y-44428628D01*
X208851667Y-101372200D02*
X208994524Y-101419819D01*
X208994524Y-101419819D02*
X209232619Y-101419819D01*
X209232619Y-101419819D02*
X209327857Y-101372200D01*
X209327857Y-101372200D02*
X209375476Y-101324580D01*
X209375476Y-101324580D02*
X209423095Y-101229342D01*
X209423095Y-101229342D02*
X209423095Y-101134104D01*
X209423095Y-101134104D02*
X209375476Y-101038866D01*
X209375476Y-101038866D02*
X209327857Y-100991247D01*
X209327857Y-100991247D02*
X209232619Y-100943628D01*
X209232619Y-100943628D02*
X209042143Y-100896009D01*
X209042143Y-100896009D02*
X208946905Y-100848390D01*
X208946905Y-100848390D02*
X208899286Y-100800771D01*
X208899286Y-100800771D02*
X208851667Y-100705533D01*
X208851667Y-100705533D02*
X208851667Y-100610295D01*
X208851667Y-100610295D02*
X208899286Y-100515057D01*
X208899286Y-100515057D02*
X208946905Y-100467438D01*
X208946905Y-100467438D02*
X209042143Y-100419819D01*
X209042143Y-100419819D02*
X209280238Y-100419819D01*
X209280238Y-100419819D02*
X209423095Y-100467438D01*
X209756429Y-100419819D02*
X209994524Y-101419819D01*
X209994524Y-101419819D02*
X210185000Y-100705533D01*
X210185000Y-100705533D02*
X210375476Y-101419819D01*
X210375476Y-101419819D02*
X210613572Y-100419819D01*
X210899286Y-100419819D02*
X211565952Y-100419819D01*
X211565952Y-100419819D02*
X211137381Y-101419819D01*
X209004819Y-72508571D02*
X209004819Y-71937143D01*
X210004819Y-72222857D02*
X209004819Y-72222857D01*
X210004819Y-71603809D02*
X209004819Y-71603809D01*
X209004819Y-71603809D02*
X209004819Y-71365714D01*
X209004819Y-71365714D02*
X209052438Y-71222857D01*
X209052438Y-71222857D02*
X209147676Y-71127619D01*
X209147676Y-71127619D02*
X209242914Y-71080000D01*
X209242914Y-71080000D02*
X209433390Y-71032381D01*
X209433390Y-71032381D02*
X209576247Y-71032381D01*
X209576247Y-71032381D02*
X209766723Y-71080000D01*
X209766723Y-71080000D02*
X209861961Y-71127619D01*
X209861961Y-71127619D02*
X209957200Y-71222857D01*
X209957200Y-71222857D02*
X210004819Y-71365714D01*
X210004819Y-71365714D02*
X210004819Y-71603809D01*
X210004819Y-70603809D02*
X209338152Y-70603809D01*
X209004819Y-70603809D02*
X209052438Y-70651428D01*
X209052438Y-70651428D02*
X209100057Y-70603809D01*
X209100057Y-70603809D02*
X209052438Y-70556190D01*
X209052438Y-70556190D02*
X209004819Y-70603809D01*
X209004819Y-70603809D02*
X209100057Y-70603809D01*
X209957200Y-70175238D02*
X210004819Y-70080000D01*
X210004819Y-70080000D02*
X210004819Y-69889524D01*
X210004819Y-69889524D02*
X209957200Y-69794286D01*
X209957200Y-69794286D02*
X209861961Y-69746667D01*
X209861961Y-69746667D02*
X209814342Y-69746667D01*
X209814342Y-69746667D02*
X209719104Y-69794286D01*
X209719104Y-69794286D02*
X209671485Y-69889524D01*
X209671485Y-69889524D02*
X209671485Y-70032381D01*
X209671485Y-70032381D02*
X209623866Y-70127619D01*
X209623866Y-70127619D02*
X209528628Y-70175238D01*
X209528628Y-70175238D02*
X209481009Y-70175238D01*
X209481009Y-70175238D02*
X209385771Y-70127619D01*
X209385771Y-70127619D02*
X209338152Y-70032381D01*
X209338152Y-70032381D02*
X209338152Y-69889524D01*
X209338152Y-69889524D02*
X209385771Y-69794286D01*
X209338152Y-69318095D02*
X210338152Y-69318095D01*
X209385771Y-69318095D02*
X209338152Y-69222857D01*
X209338152Y-69222857D02*
X209338152Y-69032381D01*
X209338152Y-69032381D02*
X209385771Y-68937143D01*
X209385771Y-68937143D02*
X209433390Y-68889524D01*
X209433390Y-68889524D02*
X209528628Y-68841905D01*
X209528628Y-68841905D02*
X209814342Y-68841905D01*
X209814342Y-68841905D02*
X209909580Y-68889524D01*
X209909580Y-68889524D02*
X209957200Y-68937143D01*
X209957200Y-68937143D02*
X210004819Y-69032381D01*
X210004819Y-69032381D02*
X210004819Y-69222857D01*
X210004819Y-69222857D02*
X209957200Y-69318095D01*
X210004819Y-68270476D02*
X209957200Y-68365714D01*
X209957200Y-68365714D02*
X209861961Y-68413333D01*
X209861961Y-68413333D02*
X209004819Y-68413333D01*
X210004819Y-67460952D02*
X209481009Y-67460952D01*
X209481009Y-67460952D02*
X209385771Y-67508571D01*
X209385771Y-67508571D02*
X209338152Y-67603809D01*
X209338152Y-67603809D02*
X209338152Y-67794285D01*
X209338152Y-67794285D02*
X209385771Y-67889523D01*
X209957200Y-67460952D02*
X210004819Y-67556190D01*
X210004819Y-67556190D02*
X210004819Y-67794285D01*
X210004819Y-67794285D02*
X209957200Y-67889523D01*
X209957200Y-67889523D02*
X209861961Y-67937142D01*
X209861961Y-67937142D02*
X209766723Y-67937142D01*
X209766723Y-67937142D02*
X209671485Y-67889523D01*
X209671485Y-67889523D02*
X209623866Y-67794285D01*
X209623866Y-67794285D02*
X209623866Y-67556190D01*
X209623866Y-67556190D02*
X209576247Y-67460952D01*
X209338152Y-67079999D02*
X210004819Y-66841904D01*
X209338152Y-66603809D02*
X210004819Y-66841904D01*
X210004819Y-66841904D02*
X210242914Y-66937142D01*
X210242914Y-66937142D02*
X210290533Y-66984761D01*
X210290533Y-66984761D02*
X210338152Y-67079999D01*
X209957200Y-66270475D02*
X210004819Y-66127618D01*
X210004819Y-66127618D02*
X210004819Y-65889523D01*
X210004819Y-65889523D02*
X209957200Y-65794285D01*
X209957200Y-65794285D02*
X209909580Y-65746666D01*
X209909580Y-65746666D02*
X209814342Y-65699047D01*
X209814342Y-65699047D02*
X209719104Y-65699047D01*
X209719104Y-65699047D02*
X209623866Y-65746666D01*
X209623866Y-65746666D02*
X209576247Y-65794285D01*
X209576247Y-65794285D02*
X209528628Y-65889523D01*
X209528628Y-65889523D02*
X209481009Y-66079999D01*
X209481009Y-66079999D02*
X209433390Y-66175237D01*
X209433390Y-66175237D02*
X209385771Y-66222856D01*
X209385771Y-66222856D02*
X209290533Y-66270475D01*
X209290533Y-66270475D02*
X209195295Y-66270475D01*
X209195295Y-66270475D02*
X209100057Y-66222856D01*
X209100057Y-66222856D02*
X209052438Y-66175237D01*
X209052438Y-66175237D02*
X209004819Y-66079999D01*
X209004819Y-66079999D02*
X209004819Y-65841904D01*
X209004819Y-65841904D02*
X209052438Y-65699047D01*
X209004819Y-65365713D02*
X209004819Y-64746666D01*
X209004819Y-64746666D02*
X209385771Y-65079999D01*
X209385771Y-65079999D02*
X209385771Y-64937142D01*
X209385771Y-64937142D02*
X209433390Y-64841904D01*
X209433390Y-64841904D02*
X209481009Y-64794285D01*
X209481009Y-64794285D02*
X209576247Y-64746666D01*
X209576247Y-64746666D02*
X209814342Y-64746666D01*
X209814342Y-64746666D02*
X209909580Y-64794285D01*
X209909580Y-64794285D02*
X209957200Y-64841904D01*
X209957200Y-64841904D02*
X210004819Y-64937142D01*
X210004819Y-64937142D02*
X210004819Y-65222856D01*
X210004819Y-65222856D02*
X209957200Y-65318094D01*
X209957200Y-65318094D02*
X209909580Y-65365713D01*
X196366191Y-125549819D02*
X196366191Y-124549819D01*
X196842381Y-125549819D02*
X196842381Y-124549819D01*
X196842381Y-124549819D02*
X197413809Y-125549819D01*
X197413809Y-125549819D02*
X197413809Y-124549819D01*
X197890000Y-125549819D02*
X197890000Y-124549819D01*
X197890000Y-124549819D02*
X198223333Y-125264104D01*
X198223333Y-125264104D02*
X198556666Y-124549819D01*
X198556666Y-124549819D02*
X198556666Y-125549819D01*
X199032857Y-125549819D02*
X199032857Y-124549819D01*
X199032857Y-124549819D02*
X199413809Y-124549819D01*
X199413809Y-124549819D02*
X199509047Y-124597438D01*
X199509047Y-124597438D02*
X199556666Y-124645057D01*
X199556666Y-124645057D02*
X199604285Y-124740295D01*
X199604285Y-124740295D02*
X199604285Y-124883152D01*
X199604285Y-124883152D02*
X199556666Y-124978390D01*
X199556666Y-124978390D02*
X199509047Y-125026009D01*
X199509047Y-125026009D02*
X199413809Y-125073628D01*
X199413809Y-125073628D02*
X199032857Y-125073628D01*
X200461428Y-124883152D02*
X200461428Y-125549819D01*
X200223333Y-124502200D02*
X199985238Y-125216485D01*
X199985238Y-125216485D02*
X200604285Y-125216485D01*
X201413809Y-124883152D02*
X201413809Y-125549819D01*
X201175714Y-124502200D02*
X200937619Y-125216485D01*
X200937619Y-125216485D02*
X201556666Y-125216485D01*
X202461428Y-125549819D02*
X201890000Y-125549819D01*
X202175714Y-125549819D02*
X202175714Y-124549819D01*
X202175714Y-124549819D02*
X202080476Y-124692676D01*
X202080476Y-124692676D02*
X201985238Y-124787914D01*
X201985238Y-124787914D02*
X201890000Y-124835533D01*
D14*
%TO.C,470ohm*%
X206152000Y-62372000D02*
X206152000Y-58532000D01*
X204312000Y-62372000D02*
X204312000Y-58532000D01*
%TO.C,INMP441 2*%
X198187000Y-136555000D02*
X203327000Y-136555000D01*
X198187000Y-136555000D02*
X198187000Y-133895000D01*
X203327000Y-136555000D02*
X203327000Y-133895000D01*
X195587000Y-135225000D02*
X195587000Y-133895000D01*
X195587000Y-133895000D02*
X196917000Y-133895000D01*
X198187000Y-133895000D02*
X203327000Y-133895000D01*
%TO.C,ANO Rotary*%
X201295000Y-151825000D02*
X221675000Y-151825000D01*
X201295000Y-151825000D02*
X201295000Y-149165000D01*
X221675000Y-151825000D02*
X221675000Y-149165000D01*
X198695000Y-150495000D02*
X198695000Y-149165000D01*
X198695000Y-149165000D02*
X200025000Y-149165000D01*
X201295000Y-149165000D02*
X221675000Y-149165000D01*
%TO.C,SW6*%
X197486020Y-110585004D02*
X198986020Y-110585004D01*
X201486020Y-109335004D02*
X201486020Y-104835004D01*
X194986020Y-105255004D02*
X194986020Y-109755004D01*
X198986020Y-103585004D02*
X197486020Y-103585004D01*
%TO.C,NPN*%
X204365000Y-50220000D02*
X200765000Y-50220000D01*
X203385000Y-54519999D02*
G75*
G03*
X204376452Y-50227845I-820000J2449999D01*
G01*
X200756555Y-50242316D02*
G75*
G03*
X201785000Y-54520000I1808445J-1827684D01*
G01*
D15*
%TO.C,PCF8574N*%
X218440000Y-122936000D02*
X224790000Y-122936000D01*
X218440000Y-141224000D02*
X224790000Y-141224000D01*
D11*
X216680000Y-123190000D02*
G75*
G03*
X216680000Y-123190000I-100000J0D01*
G01*
D14*
%TO.C,SW8*%
X221454436Y-110586007D02*
X222954436Y-110586007D01*
X225454436Y-109336007D02*
X225454436Y-105256007D01*
X218954436Y-104836007D02*
X218954436Y-109336007D01*
X222954436Y-103586007D02*
X221454436Y-103586007D01*
%TO.C,Cap*%
X207875000Y-95450000D02*
X207875000Y-95465000D01*
X207875000Y-95450000D02*
X212415000Y-95450000D01*
X207875000Y-97575000D02*
X207875000Y-97590000D01*
X207875000Y-97590000D02*
X212415000Y-97590000D01*
X212415000Y-95450000D02*
X212415000Y-95465000D01*
X212415000Y-97575000D02*
X212415000Y-97590000D01*
%TO.C,5MM IR*%
X207553066Y-46715000D02*
X207553066Y-49805000D01*
X213103065Y-48260462D02*
G75*
G03*
X207553067Y-46715170I-2989999J462D01*
G01*
X207553066Y-49804830D02*
G75*
G03*
X213103066Y-48259538I2560000J1544830D01*
G01*
X212613066Y-48260000D02*
G75*
G03*
X212613066Y-48260000I-2500000J0D01*
G01*
%TO.C,SW7*%
X209454436Y-110585525D02*
X210954436Y-110585525D01*
X213454436Y-109335525D02*
X213454436Y-105255525D01*
X206954436Y-104835525D02*
X206954436Y-109335525D01*
X210954436Y-103585525D02*
X209454436Y-103585525D01*
%TO.C,TDisplayS3*%
X197435756Y-66926891D02*
X197435756Y-94926891D01*
X197435756Y-66926891D02*
X200095756Y-66926891D01*
X197435756Y-94926891D02*
X200095756Y-94926891D01*
X198765756Y-64326891D02*
X200095756Y-64326891D01*
X200095756Y-64326891D02*
X200095756Y-65656891D01*
X200095756Y-66926891D02*
X200095756Y-94926891D01*
%TO.C,REF\u002A\u002A*%
X220295756Y-66927409D02*
X220295756Y-94927409D01*
X220295756Y-66927409D02*
X222955756Y-66927409D01*
X220295756Y-94927409D02*
X222955756Y-94927409D01*
X221625756Y-64327409D02*
X222955756Y-64327409D01*
X222955756Y-64327409D02*
X222955756Y-65657409D01*
X222955756Y-66927409D02*
X222955756Y-94927409D01*
%TO.C,INMP441*%
X198120000Y-128965000D02*
X203260000Y-128965000D01*
X198120000Y-128965000D02*
X198120000Y-126305000D01*
X203260000Y-128965000D02*
X203260000Y-126305000D01*
X195520000Y-127635000D02*
X195520000Y-126305000D01*
X195520000Y-126305000D02*
X196850000Y-126305000D01*
X198120000Y-126305000D02*
X203260000Y-126305000D01*
%TD*%
M02*
