%TF.GenerationSoftware,KiCad,Pcbnew,7.0.6-0*%
%TF.CreationDate,2024-06-29T09:33:58-07:00*%
%TF.ProjectId,s3,73332e6b-6963-4616-945f-706362585858,rev?*%
%TF.SameCoordinates,Original*%
%TF.FileFunction,Soldermask,Top*%
%TF.FilePolarity,Negative*%
%FSLAX46Y46*%
G04 Gerber Fmt 4.6, Leading zero omitted, Abs format (unit mm)*
G04 Created by KiCad (PCBNEW 7.0.6-0) date 2024-06-29 09:33:58*
%MOMM*%
%LPD*%
G01*
G04 APERTURE LIST*
G04 Aperture macros list*
%AMRoundRect*
0 Rectangle with rounded corners*
0 $1 Rounding radius*
0 $2 $3 $4 $5 $6 $7 $8 $9 X,Y pos of 4 corners*
0 Add a 4 corners polygon primitive as box body*
4,1,4,$2,$3,$4,$5,$6,$7,$8,$9,$2,$3,0*
0 Add four circle primitives for the rounded corners*
1,1,$1+$1,$2,$3*
1,1,$1+$1,$4,$5*
1,1,$1+$1,$6,$7*
1,1,$1+$1,$8,$9*
0 Add four rect primitives between the rounded corners*
20,1,$1+$1,$2,$3,$4,$5,0*
20,1,$1+$1,$4,$5,$6,$7,0*
20,1,$1+$1,$6,$7,$8,$9,0*
20,1,$1+$1,$8,$9,$2,$3,0*%
G04 Aperture macros list end*
%ADD10R,1.700000X1.700000*%
%ADD11RoundRect,0.425000X0.425000X0.425000X-0.425000X0.425000X-0.425000X-0.425000X0.425000X-0.425000X0*%
%ADD12O,1.700000X1.700000*%
%ADD13O,1.400000X1.400000*%
%ADD14C,1.400000*%
%ADD15C,1.700000*%
%ADD16C,2.000000*%
%ADD17R,2.000000X2.000000*%
%ADD18RoundRect,0.275000X0.275000X0.625000X-0.275000X0.625000X-0.275000X-0.625000X0.275000X-0.625000X0*%
%ADD19R,1.100000X1.800000*%
%ADD20C,1.334000*%
%ADD21RoundRect,0.102000X-0.565000X-0.565000X0.565000X-0.565000X0.565000X0.565000X-0.565000X0.565000X0*%
%ADD22RoundRect,0.384500X-0.282500X-0.282500X0.282500X-0.282500X0.282500X0.282500X-0.282500X0.282500X0*%
%ADD23C,1.600000*%
%ADD24C,1.800000*%
%ADD25R,1.800000X1.800000*%
%ADD26RoundRect,0.425000X-0.425000X-0.425000X0.425000X-0.425000X0.425000X0.425000X-0.425000X0.425000X0*%
G04 APERTURE END LIST*
D10*
%TO.C,REF\u002A\u002A*%
X220980000Y-58420000D03*
D11*
X220980000Y-55880000D03*
D12*
X220980000Y-53340000D03*
X220980000Y-50800000D03*
%TD*%
D13*
%TO.C,470ohm*%
X204586244Y-57279109D03*
D14*
X204586244Y-64391109D03*
%TD*%
D12*
%TO.C,INMP441 2*%
X201351244Y-135608109D03*
X198811244Y-135608109D03*
D15*
X196271244Y-135608109D03*
%TD*%
D12*
%TO.C,ANO Rotary*%
X217159244Y-150878109D03*
X214619244Y-150878109D03*
X212079244Y-150878109D03*
X209539244Y-150878109D03*
X206999244Y-150878109D03*
X201919244Y-150878109D03*
D15*
X199379244Y-150878109D03*
D10*
X219699244Y-150878109D03*
X204459244Y-150878109D03*
%TD*%
D16*
%TO.C,SW6*%
X199840264Y-104218113D03*
X199840264Y-110718113D03*
D17*
X195340264Y-104218113D03*
D16*
X195340264Y-110718113D03*
%TD*%
D18*
%TO.C,NPN*%
X200649244Y-52053109D03*
X201919244Y-54123109D03*
D19*
X203189244Y-52053109D03*
%TD*%
D20*
%TO.C,PCF8574N*%
X224939244Y-126113109D03*
X224939244Y-128653109D03*
X224939244Y-133733109D03*
X224939244Y-136273109D03*
X224939244Y-138813109D03*
X224939244Y-141353109D03*
X216999244Y-138813109D03*
X216999244Y-136273109D03*
X216999244Y-133733109D03*
X216999244Y-131193109D03*
X224939244Y-131193109D03*
D21*
X216999244Y-141353109D03*
D20*
X216999244Y-128653109D03*
X216999244Y-126113109D03*
X216999244Y-123573109D03*
D22*
X224939244Y-123573109D03*
%TD*%
D17*
%TO.C,SW8*%
X223808680Y-104219116D03*
D16*
X223808680Y-110719116D03*
X219308680Y-104219116D03*
X219308680Y-110719116D03*
%TD*%
D23*
%TO.C,Cap*%
X211999244Y-96903109D03*
X206999244Y-96903109D03*
%TD*%
D24*
%TO.C,5MM IR*%
X210737310Y-48643109D03*
D25*
X208197310Y-48643109D03*
%TD*%
D17*
%TO.C,SW7*%
X211808680Y-104218634D03*
D16*
X211808680Y-110718634D03*
X207308680Y-104218634D03*
X207308680Y-110718634D03*
%TD*%
D12*
%TO.C,TDisplayS3*%
X198120000Y-71120000D03*
X198120000Y-73660000D03*
X198120000Y-76200000D03*
D26*
X198120000Y-66040000D03*
D12*
X198120000Y-78740000D03*
X198120000Y-81280000D03*
X198120000Y-83820000D03*
X198120000Y-86360000D03*
X198120000Y-88900000D03*
X198120000Y-91440000D03*
D26*
X198120000Y-93980000D03*
D10*
X198120000Y-68580000D03*
%TD*%
%TO.C,REF\u002A\u002A*%
X220980000Y-93980518D03*
X220980000Y-91440518D03*
D12*
X220980000Y-88900518D03*
X220980000Y-86360518D03*
X220980000Y-83820518D03*
X220980000Y-81280518D03*
X220980000Y-78740518D03*
X220980000Y-76200518D03*
X220980000Y-73660518D03*
D10*
X220980000Y-71120518D03*
X220980000Y-68580518D03*
D26*
X220980000Y-66040518D03*
%TD*%
D12*
%TO.C,INMP441*%
X201284244Y-128018109D03*
X198744244Y-128018109D03*
D10*
X196204244Y-128018109D03*
%TD*%
M02*
