%TF.GenerationSoftware,KiCad,Pcbnew,7.0.6-0*%
%TF.CreationDate,2024-06-29T09:33:56-07:00*%
%TF.ProjectId,s3,73332e6b-6963-4616-945f-706362585858,rev?*%
%TF.SameCoordinates,Original*%
%TF.FileFunction,Drillmap*%
%TF.FilePolarity,Positive*%
%FSLAX45Y45*%
G04 Gerber Fmt 4.5, Leading zero omitted, Abs format (unit mm)*
G04 Created by KiCad (PCBNEW 7.0.6-0) date 2024-06-29 09:33:56*
%MOMM*%
%LPD*%
G01*
G04 APERTURE LIST*
%ADD10C,0.200000*%
G04 APERTURE END LIST*
D10*
X19747804Y-15147808D02*
G75*
G03*
X19847799Y-15247812I100001J-3D01*
G01*
X22063742Y-15247901D02*
X19847799Y-15247812D01*
X19682055Y-4777463D02*
G75*
G03*
X19621998Y-4869133I39930J-91668D01*
G01*
X22288003Y-6489058D02*
X22287928Y-9588056D01*
X22287928Y-9588056D02*
X22287906Y-10121891D01*
X22287911Y-10121891D02*
G75*
G03*
X22387902Y-10221895I99994J-10D01*
G01*
X19747945Y-11595801D02*
X19747931Y-11371791D01*
X22387902Y-10221895D02*
X22555925Y-10221902D01*
X22655921Y-10321906D02*
X22655886Y-11171908D01*
X19682053Y-4777460D02*
X20826897Y-4278631D01*
X22555882Y-11271903D02*
G75*
G03*
X22655886Y-11171908I2J100002D01*
G01*
X21065208Y-4278041D02*
G75*
G03*
X20826897Y-4278631I-118473J-275600D01*
G01*
X22263901Y-11271894D02*
G75*
G03*
X22163897Y-11371888I-7J-99997D01*
G01*
X19747928Y-11371791D02*
G75*
G03*
X19647925Y-11271797I-99994J0D01*
G01*
X19747926Y-12071824D02*
X19747945Y-11595801D01*
X19255938Y-11171822D02*
X19255885Y-10321819D01*
X22288043Y-4869554D02*
G75*
G03*
X22227534Y-4777680I-99998J3D01*
G01*
X19647836Y-14321820D02*
X19355855Y-14321808D01*
X21065207Y-4278043D02*
X22227534Y-4777680D01*
X19747826Y-14421824D02*
G75*
G03*
X19647836Y-14321820I-99991J13D01*
G01*
X19355879Y-10221813D02*
X19521923Y-10221803D01*
X19521923Y-10221803D02*
G75*
G03*
X19621916Y-10121797I-8J100002D01*
G01*
X22288042Y-4869554D02*
X22288003Y-6489058D01*
X22263779Y-14321931D02*
G75*
G03*
X22163775Y-14421921I-15J-99990D01*
G01*
X19621916Y-10121797D02*
X19621883Y-9587992D01*
X19255859Y-14221804D02*
X19255937Y-12271804D01*
X19355879Y-10221812D02*
G75*
G03*
X19255885Y-10321819I6J-99999D01*
G01*
X19255857Y-14221804D02*
G75*
G03*
X19355855Y-14321808I99997J-7D01*
G01*
X19355941Y-12171804D02*
G75*
G03*
X19255937Y-12271804I3J-100007D01*
G01*
X22655914Y-10321906D02*
G75*
G03*
X22555925Y-10221902I-99989J15D01*
G01*
X19621883Y-9587992D02*
X19621998Y-4869133D01*
X22655839Y-12271940D02*
G75*
G03*
X22555846Y-12171936I-99995J9D01*
G01*
X22163775Y-14421921D02*
X22163746Y-15147905D01*
X19255930Y-11171822D02*
G75*
G03*
X19355944Y-11271816I99995J1D01*
G01*
X22063742Y-15247902D02*
G75*
G03*
X22163746Y-15147905I3J100001D01*
G01*
X22263865Y-12171925D02*
X22555846Y-12171936D01*
X22555760Y-14321930D02*
G75*
G03*
X22655764Y-14221940I15J99990D01*
G01*
X19647922Y-12171813D02*
G75*
G03*
X19747926Y-12071824I12J99992D01*
G01*
X19647925Y-11271797D02*
X19355944Y-11271816D01*
X19747803Y-15147808D02*
X19747832Y-14421824D01*
X22163897Y-11371888D02*
X22163869Y-12071921D01*
X19355941Y-12171808D02*
X19647922Y-12171820D01*
X22655842Y-12271940D02*
X22655764Y-14221940D01*
X22555882Y-11271904D02*
X22263901Y-11271892D01*
X22555760Y-14321936D02*
X22263779Y-14321925D01*
X22163861Y-12071921D02*
G75*
G03*
X22263865Y-12171925I99994J-10D01*
G01*
X19506634Y-15569386D02*
X19506634Y-15369386D01*
X19506634Y-15369386D02*
X19554253Y-15369386D01*
X19554253Y-15369386D02*
X19582825Y-15378910D01*
X19582825Y-15378910D02*
X19601872Y-15397957D01*
X19601872Y-15397957D02*
X19611396Y-15417005D01*
X19611396Y-15417005D02*
X19620920Y-15455100D01*
X19620920Y-15455100D02*
X19620920Y-15483672D01*
X19620920Y-15483672D02*
X19611396Y-15521767D01*
X19611396Y-15521767D02*
X19601872Y-15540815D01*
X19601872Y-15540815D02*
X19582825Y-15559862D01*
X19582825Y-15559862D02*
X19554253Y-15569386D01*
X19554253Y-15569386D02*
X19506634Y-15569386D01*
X19706634Y-15569386D02*
X19706634Y-15436053D01*
X19706634Y-15474148D02*
X19716158Y-15455100D01*
X19716158Y-15455100D02*
X19725682Y-15445576D01*
X19725682Y-15445576D02*
X19744729Y-15436053D01*
X19744729Y-15436053D02*
X19763777Y-15436053D01*
X19830444Y-15569386D02*
X19830444Y-15436053D01*
X19830444Y-15369386D02*
X19820920Y-15378910D01*
X19820920Y-15378910D02*
X19830444Y-15388434D01*
X19830444Y-15388434D02*
X19839968Y-15378910D01*
X19839968Y-15378910D02*
X19830444Y-15369386D01*
X19830444Y-15369386D02*
X19830444Y-15388434D01*
X19954253Y-15569386D02*
X19935206Y-15559862D01*
X19935206Y-15559862D02*
X19925682Y-15540815D01*
X19925682Y-15540815D02*
X19925682Y-15369386D01*
X20059015Y-15569386D02*
X20039968Y-15559862D01*
X20039968Y-15559862D02*
X20030444Y-15540815D01*
X20030444Y-15540815D02*
X20030444Y-15369386D01*
X20287587Y-15569386D02*
X20287587Y-15369386D01*
X20287587Y-15369386D02*
X20354253Y-15512243D01*
X20354253Y-15512243D02*
X20420920Y-15369386D01*
X20420920Y-15369386D02*
X20420920Y-15569386D01*
X20601872Y-15569386D02*
X20601872Y-15464624D01*
X20601872Y-15464624D02*
X20592349Y-15445576D01*
X20592349Y-15445576D02*
X20573301Y-15436053D01*
X20573301Y-15436053D02*
X20535206Y-15436053D01*
X20535206Y-15436053D02*
X20516158Y-15445576D01*
X20601872Y-15559862D02*
X20582825Y-15569386D01*
X20582825Y-15569386D02*
X20535206Y-15569386D01*
X20535206Y-15569386D02*
X20516158Y-15559862D01*
X20516158Y-15559862D02*
X20506634Y-15540815D01*
X20506634Y-15540815D02*
X20506634Y-15521767D01*
X20506634Y-15521767D02*
X20516158Y-15502719D01*
X20516158Y-15502719D02*
X20535206Y-15493196D01*
X20535206Y-15493196D02*
X20582825Y-15493196D01*
X20582825Y-15493196D02*
X20601872Y-15483672D01*
X20697110Y-15436053D02*
X20697110Y-15636053D01*
X20697110Y-15445576D02*
X20716158Y-15436053D01*
X20716158Y-15436053D02*
X20754253Y-15436053D01*
X20754253Y-15436053D02*
X20773301Y-15445576D01*
X20773301Y-15445576D02*
X20782825Y-15455100D01*
X20782825Y-15455100D02*
X20792349Y-15474148D01*
X20792349Y-15474148D02*
X20792349Y-15531291D01*
X20792349Y-15531291D02*
X20782825Y-15550338D01*
X20782825Y-15550338D02*
X20773301Y-15559862D01*
X20773301Y-15559862D02*
X20754253Y-15569386D01*
X20754253Y-15569386D02*
X20716158Y-15569386D01*
X20716158Y-15569386D02*
X20697110Y-15559862D01*
X20878063Y-15550338D02*
X20887587Y-15559862D01*
X20887587Y-15559862D02*
X20878063Y-15569386D01*
X20878063Y-15569386D02*
X20868539Y-15559862D01*
X20868539Y-15559862D02*
X20878063Y-15550338D01*
X20878063Y-15550338D02*
X20878063Y-15569386D01*
X20878063Y-15445576D02*
X20887587Y-15455100D01*
X20887587Y-15455100D02*
X20878063Y-15464624D01*
X20878063Y-15464624D02*
X20868539Y-15455100D01*
X20868539Y-15455100D02*
X20878063Y-15445576D01*
X20878063Y-15445576D02*
X20878063Y-15464624D01*
M02*
