M48
; DRILL file {KiCad 7.0.6-0} date 2024 June 29, Saturday 09:33:55
; FORMAT={-:-/ absolute / inch / decimal}
; #@! TF.CreationDate,2024-06-29T09:33:55-07:00
; #@! TF.GenerationSoftware,Kicad,Pcbnew,7.0.6-0
; #@! TF.FileFunction,Plated,1,2,PTH
FMAT,2
INCH
; #@! TA.AperFunction,Plated,PTH,ViaDrill
T1C0.0118
; #@! TA.AperFunction,Plated,PTH,ViaDrill
T2C0.0157
; #@! TA.AperFunction,Plated,PTH,ComponentDrill
T3C0.0276
; #@! TA.AperFunction,Plated,PTH,ComponentDrill
T4C0.0295
; #@! TA.AperFunction,Plated,PTH,ComponentDrill
T5C0.0307
; #@! TA.AperFunction,Plated,PTH,ComponentDrill
T6C0.0315
; #@! TA.AperFunction,Plated,PTH,ComponentDrill
T7C0.0354
; #@! TA.AperFunction,Plated,PTH,ComponentDrill
T8C0.0394
; #@! TA.AperFunction,Plated,PTH,ComponentDrill
T9C0.0433
%
G90
G05
T1
X7.7996Y-3.8151
X7.8246Y-4.7901
X8.35Y-2.25
X8.5496Y-4.7151
T2
X8.2246Y-4.6151
X8.4496Y-4.3651
T3
X8.0546Y-2.2551
X8.0546Y-2.5351
T4
X7.8996Y-2.0651
X7.9496Y-2.1151
X7.9996Y-2.0651
T5
X8.5433Y-4.8651
X8.5433Y-4.9651
X8.5433Y-5.0651
X8.5433Y-5.1651
X8.5433Y-5.2651
X8.5433Y-5.3651
X8.5433Y-5.4651
X8.5433Y-5.5651
X8.8559Y-4.8651
X8.8559Y-4.9651
X8.8559Y-5.0651
X8.8559Y-5.1651
X8.8559Y-5.2651
X8.8559Y-5.3651
X8.8559Y-5.4651
X8.8559Y-5.5651
T6
X8.1496Y-3.8151
X8.3464Y-3.8151
T7
X8.1967Y-1.9151
X8.2967Y-1.9151
T8
X7.7246Y-5.0401
X7.7272Y-5.3389
X7.8Y-2.6
X7.8Y-2.7
X7.8Y-2.8
X7.8Y-2.9
X7.8Y-3.0
X7.8Y-3.1
X7.8Y-3.2
X7.8Y-3.3
X7.8Y-3.4
X7.8Y-3.5
X7.8Y-3.6
X7.8Y-3.7
X7.8246Y-5.0401
X7.8272Y-5.3389
X7.8496Y-5.9401
X7.9246Y-5.0401
X7.9272Y-5.3389
X7.9496Y-5.9401
X8.0496Y-5.9401
X8.1496Y-5.9401
X8.2496Y-5.9401
X8.3496Y-5.9401
X8.4496Y-5.9401
X8.5496Y-5.9401
X8.6496Y-5.9401
X8.7Y-2.0
X8.7Y-2.1
X8.7Y-2.2
X8.7Y-2.3
X8.7Y-2.6
X8.7Y-2.7
X8.7Y-2.8
X8.7Y-2.9
X8.7Y-3.0
X8.7Y-3.1
X8.7Y-3.2
X8.7Y-3.3
X8.7Y-3.4
X8.7Y-3.5
X8.7Y-3.6
X8.7Y-3.7
T9
X7.6906Y-4.1031
X7.6906Y-4.359
X7.8677Y-4.1031
X7.8677Y-4.359
X8.1618Y-4.1031
X8.1618Y-4.359
X8.3389Y-4.1031
X8.3389Y-4.359
X8.6342Y-4.1031
X8.6342Y-4.359
X8.8114Y-4.1031
X8.8114Y-4.359
T0
M30
